<?xml version="1.0" encoding="iso-8859-1"?>
<!-- Generator: Adobe Illustrator 27.9.0, SVG Export Plug-In . SVG Version: 6.00 Build 0)  -->
<svg version="1.1" xmlns="http://www.w3.org/2000/svg" xmlns:xlink="http://www.w3.org/1999/xlink" x="0px" y="0px"
	 viewBox="0 0 415.782 131.006" style="enable-background:new 0 0 415.782 131.006;" xml:space="preserve">
<g id="Layer_8">
	<path d="M26.002,66.091c0.104-2.026-0.204-3.926,1.692-5.245c0.305-0.212,0.28-1.174,0.132-1.714
		c-0.778-2.834-0.474-3.865,1.737-5.61c0.579-0.457,1.179-0.965,1.555-1.58c0.365-0.598,0.426-1.375,0.672-2.054
		c0.356-0.985,0.743-1.96,1.144-2.927c1.347-3.248,2.537-6.575,4.109-9.71c1.495-2.984,3.365-5.784,5.127-8.629
		c0.827-1.336,1.69-2.677,2.727-3.847c0.546-0.616,1.482-1.135,2.279-1.195c0.586-0.044,1.561,0.593,1.799,1.162
		c1.333,3.194,2.584,6.429,3.692,9.708c1.244,3.682,2.416,7.396,3.419,11.149c1.057,3.956,1.983,7.956,2.737,11.98
		c0.217,1.161-0.359,2.471-0.615,3.967c2.575-0.542,5.001-0.941,7.362-1.578c2.696-0.727,5.376-1.558,7.97-2.582
		c0.695-0.274,1.366-1.36,1.503-2.165c0.425-2.501,0.391-5.087,0.897-7.566c0.868-4.248,1.909-8.467,3.07-12.645
		c0.872-3.137,2.045-6.191,3.089-9.279c0.065-0.193,0.131-0.45,0.279-0.54c1.461-0.886,2.148-2.391,3.115-3.696
		c2.388-3.225,5.073-6.232,8.644-8.158c1.72-0.928,3.739-1.31,5.634-1.901c0.788-0.245,1.6-0.439,2.414-0.57
		c3.205-0.518,8.347,1.984,10.094,4.819c1.089,1.768,1.484,3.697,1.459,5.723c-0.047,3.829,0.034,7.674-0.295,11.481
		c-0.179,2.064-1.022,4.089-1.692,6.089c-0.936,2.794-1.751,5.666-3.053,8.289c-1.625,3.271-3.693,6.323-5.57,9.469
		c-0.167-0.085-0.334-0.169-0.501-0.254c0.545-1.27,1.09-2.54,1.636-3.81c-0.103-0.059-0.206-0.119-0.309-0.178
		c-5.079,7.392-10.158,14.784-15.295,22.26c1.599,0.537,3.416,1.211,5.271,1.755c3.532,1.036,7.128,1.873,10.62,3.026
		c3.188,1.052,6.36,2.237,9.375,3.701c1.877,0.911,3.439,2.464,5.162,3.701c0.595,0.427,1.224,0.843,1.901,1.091
		c0.142,0.052,0.852-0.69,0.81-1.001c-0.485-3.59-1.104-7.162-1.604-10.751c-0.37-2.654-0.639-5.322-0.917-7.988
		c-0.256-2.46-0.523-4.921-0.68-7.388c-0.208-3.269-0.313-6.545-0.464-9.818c-0.032-0.687-0.125-1.375-0.1-2.059
		c0.191-5.095,2.329-9.159,5.997-12.737c1.854-1.808,3.797-2.996,6.183-3.436c2.523-0.465,5.109-0.787,7.669-0.796
		c3.739-0.013,7.481,0.291,11.219,0.497c1.298,0.071,2.587,0.282,3.884,0.378c6.671,0.492,13.337,1.069,20.015,1.412
		c4.561,0.234,9.166-0.158,13.701,0.265c4.042,0.376,8.264,0.642,11.611,3.599c0.718,0.634,0.733,1.017,0.45,1.858
		c-0.436,1.29-0.581,2.679-0.799,3.769c-2.326-0.4-4.406-0.757-6.486-1.115c-0.033,0.125-0.066,0.249-0.099,0.374
		c1.221,0.422,2.443,0.843,3.664,1.265c-0.032,0.139-0.064,0.278-0.096,0.417c-3.25-1.125-6.424-0.182-9.636,0.178
		c-1.679,0.189-3.405-0.072-5.109-0.066c-3.657,0.014-7.313,0.074-10.97,0.102c-0.482,0.004-0.965-0.083-1.448-0.106
		c-3.731-0.179-7.464-0.319-11.192-0.541c-1.842-0.11-3.675-0.38-5.514-0.548c-0.389-0.036-0.79,0.054-1.185,0.086
		c-0.027,0.18-0.053,0.36-0.08,0.54c0.744,0.149,1.482,0.377,2.232,0.43c1.486,0.106,2.986,0.045,4.468,0.179
		c3.228,0.291,6.452,0.636,9.67,1.021c0.504,0.06,0.969,0.447,1.338,0.926c-4.681-0.209-9.361-0.419-14.042-0.628
		c-0.017,0.056-0.034,0.113-0.052,0.169c0.926,0.299,1.853,0.599,2.779,0.898c-0.007-0.06-0.014-0.121-0.021-0.181
		c-5.335,0.056-10.671,0.113-16.322,0.172c0.678,0.972-0.557,2.403,0.961,2.355c-0.156,0.845-0.413,1.54-0.389,2.225
		c0.128,3.696,0.428,7.389,0.47,11.085c0.044,3.878-0.13,7.759-0.23,11.638c-0.019,0.721-0.156,1.438-0.209,2.159
		c-0.239,3.263-0.433,6.529-0.711,9.789c-0.235,2.751-0.524,5.499-0.861,8.24c-0.46,3.736-0.864,7.486-1.522,11.19
		c-0.67,3.77-1.44,7.542-2.513,11.212c-0.628,2.148-1.934,4.097-2.997,6.261c-0.142-0.08-0.537-0.168-0.685-0.408
		c-0.63-1.022-1.153-2.109-1.775-3.136c-1.961-3.239-3.085-6.753-3.751-10.471c-0.551-3.074-1.695-5.932-3.763-8.376
		c-0.815-0.963-1.267-2.247-2.125-3.157c-1.539-1.63-2.999-3.28-5.456-3.868c-2.033-0.487-3.796-2.022-5.815-2.671
		c-3.914-1.257-7.921-2.227-11.895-3.294c-1.731-0.465-3.476-0.876-5.215-1.311c-0.035,0.125-0.069,0.251-0.104,0.376
		c3.344,0.965,6.689,1.931,10.033,2.896c-0.032,0.155-0.064,0.31-0.095,0.465c-1.286-0.244-2.573-0.488-3.859-0.733
		c-2.508-0.477-5.027-0.904-7.52-1.451c-1.279-0.28-2.603-0.605-3.732-1.227c-0.775-0.427-1.227-1.42-1.864-2.123
		c-0.439-0.485-0.945-0.907-1.623-1.548c-0.594,3.154-1.127,5.963-1.652,8.774c-0.998,5.35-1.997,10.699-2.982,16.051
		c-0.428,2.325-0.709,4.683-1.265,6.976c-0.504,2.075-1.271,4.088-1.975,6.11c-0.11,0.315-0.595,0.799-0.735,0.746
		c-0.378-0.142-0.77-0.472-0.967-0.831c-0.96-1.747-1.888-3.514-2.767-5.303c-0.455-0.926-0.607-1.793-0.34-2.968
		c0.687-3.028,0.907-6.159,1.402-9.234c0.352-2.187,0.391-4.366,1.19-6.565c0.938-2.58,0.933-5.513,1.259-8.302
		c0.248-2.117,0.419-4.247,0.536-6.375c0.062-1.132-0.01-2.279-0.112-3.411c-0.419-4.629-0.581-9.251,0.148-13.866
		c0.024-0.154-0.016-0.319-0.025-0.477c-1.746-0.12-3.047,0.713-3.765,2.192c-0.306,0.629-0.802,1.355-1.397,1.624
		c-3.382,1.526-6.462,3.815-10.302,4.227c-0.082,0.009-0.153,0.127-0.286,0.244c0.66,0.378,1.314,0.753,1.969,1.127
		c-0.058,0.156-0.116,0.311-0.174,0.467c-0.94,0.277-1.866,0.701-2.824,0.794c-1.302,0.127-1.859,1.077-1.97,1.99
		c-0.431,3.526-0.659,7.078-0.954,10.621c-0.085,1.015-0.131,2.033-0.215,3.048c-0.409,4.987-0.825,9.974-1.235,14.961
		c-0.022,0.266,0.07,0.565-0.02,0.798c-0.255,0.659-0.577,1.293-0.873,1.937c-0.594-0.296-1.368-0.449-1.741-0.92
		c-0.574-0.726-0.841-1.687-1.294-2.518c-2.205-4.04-2.813-8.393-2.814-12.934c-0.001-2.035-0.513-4.07-0.786-6.106
		c-0.098-0.73-0.006-1.541-0.303-2.173c-0.38-0.81-0.943-1.638-1.645-2.171c-1.483-1.126-3.111-2.058-4.671-3.084
		c-0.56-0.369-1.094-0.778-1.871-1.334c-0.184,0.86-0.32,1.502-0.462,2.166c0.735,0.173,2.037,0.356,0.86,1.138
		c-3.291,2.186-2.872,6.115-4.865,9.4c0.319-1.74,0.559-3.044,0.798-4.349c-0.23-0.06-0.46-0.121-0.691-0.181
		c-0.588,1.689-1.275,3.35-1.743,5.072c-0.998,3.674-1.883,7.379-2.814,11.071c-0.013,0.052,0.001,0.126-0.03,0.156
		c-2.847,2.747-1.938,6.629-2.82,9.941c-0.975,3.661-0.925,7.592-1.355,11.402c-0.088,0.778-0.327,1.54-0.553,2.568
		c-0.34-0.525-0.542-0.837-0.865-1.335c-0.191,1.827-0.331,3.475-0.557,5.11c-0.059,0.424-0.389,0.811-0.594,1.215
		c-0.353-0.248-0.809-0.424-1.039-0.756c-0.705-1.021-1.079-2.533-2.026-3.073c-2.142-1.221-2.322-3.369-3.119-5.23
		c-0.937-2.186-1.402-4.403-0.821-6.858c0.398-1.683,0.17-3.506,0.331-5.257c0.149-1.611,0.4-3.216,0.682-4.81
		c0.835-4.722,1.673-9.444,2.577-14.154c0.57-2.968,1.252-5.915,1.905-8.867c0.09-0.405,0.233-0.83,0.467-1.166
		c1.731-2.484,1.654-5.572,2.802-8.242c0.233-0.541,0.824-0.918,1.122-1.443c0.313-0.552,0.844-1.482,0.638-1.746
		C23.627,67.661,24.786,66.873,26.002,66.091z M87.21,60.589c0.425-0.293,0.628-0.371,0.74-0.519
		c2.268-2.975,4.731-5.827,6.741-8.969c3.849-6.018,7.781-12.018,10.203-18.821c0.338-0.95,0.689-1.895,1.122-3.088
		c-5.1,0.336-8.427,3.141-11.688,6.079c-0.106-0.211-0.159-0.285-0.147-0.297c3.036-3.247,6.31-6.033,11.039-6.466
		c0.632-0.058,1.204-1.082,1.702-1.737c0.045-0.059-0.637-0.97-1.019-0.999c-1.035-0.08-2.112-0.007-3.133,0.199
		c-4.594,0.928-8.054,3.399-10.156,7.662c-0.156,0.317-0.423,0.61-0.705,0.828c-2.631,2.033-3.607,4.864-3.718,8.021
		c-0.099,2.804,0.148,5.623-0.004,8.422C88.017,54.044,87.568,57.169,87.21,60.589z M130.274,105.039
		c0.09-0.084,0.179-0.169,0.269-0.253c0.183-0.766,0.453-1.523,0.534-2.3c0.279-2.68,0.488-5.368,0.733-8.052
		c0.746-8.192,1.496-16.383,2.245-24.574c0.02-0.215,0.058-0.429,0.056-0.644c-0.037-4.771,0.003-9.544-0.152-14.312
		c-0.077-2.356-0.516-4.701-0.792-7.051c-0.18-0.028-0.36-0.056-0.54-0.083c-0.598,1.101-1.449,2.138-1.745,3.314
		c-0.818,3.241-1.615,6.514-2.029,9.823c-0.581,4.635-0.812,9.314-1.182,13.975c-0.025,0.313,0.059,0.633,0.056,0.95
		c-0.016,1.752-0.027,3.504-0.071,5.255c-0.057,2.243-0.172,4.485-0.205,6.728c-0.018,1.212-0.035,2.445,0.15,3.637
		c0.545,3.515,1.166,7.019,1.813,10.517C129.607,103.01,129.982,104.017,130.274,105.039z M124.791,75.01
		c0.245,0.004,0.49,0.008,0.735,0.012c0.099-2.82,0.375-5.649,0.245-8.459c-0.113-2.448-0.867-4.839-0.399-7.357
		c0.269-1.447,0.149-2.969,0.166-4.457c0.003-0.287-0.169-0.576-0.381-1.248C122.278,60.976,124.906,67.989,124.791,75.01z
		 M49.279,57.627c-0.129-0.038-0.259-0.076-0.388-0.115c-0.778,1.097-1.627,2.154-2.294,3.315c-0.226,0.394-0.203,1.325,0.072,1.539
		c0.799,0.619,2.561,0.204,2.636-0.572C49.439,60.419,49.302,59.018,49.279,57.627z M34.58,80.55
		c1.894-2.275,2.304-3.791,1.32-4.596C35.491,77.378,35.099,78.744,34.58,80.55z"/>
	<path d="M269.675,29.71c-2.656,0.781-4.334,2.333-5.749,4.242c-0.78,1.052-1.375,2.377-2.396,3.084
		c-1.978,1.368-2.352,3.532-3.25,5.438c-0.961,2.041-1.833,4.126-2.67,6.222c-1.237,3.098-0.59,6.257-0.307,9.431
		c0.268,2.998,0.385,6.029,0.27,9.034c-0.117,3.076-0.412,6.172-0.96,9.198c-0.87,4.799-2.007,9.55-3.051,14.316
		c-0.601,2.745-1.091,5.528-1.916,8.206c-0.604,1.96-0.62,4.13-2.285,5.798c-0.854,0.856-0.989,2.399-1.574,3.569
		c-0.248,0.497-0.818,0.833-1.241,1.242c-0.232-0.425-0.465-0.849-0.697-1.274c-0.199-0.365-0.397-0.73-0.858-1.579
		c-1.034,1.851-1.888,3.382-2.744,4.912c-0.509,0.909-1.045,1.803-1.525,2.727c-0.544,1.045-1.285,0.847-1.961,0.265
		c-0.839-0.723-1.804-1.436-2.317-2.372c-1.417-2.586-2.945-5.182-3.846-7.963c-1.407-4.342-2.452-8.813-3.419-13.28
		c-0.588-2.717-0.91-5.52-1.035-8.299c-0.111-2.453,0.267-4.924,0.335-7.39c0.06-2.175-0.005-4.353-0.038-6.53
		c-0.002-0.119-0.207-0.234-0.436-0.477c-0.23,0.766-0.523,1.431-0.624,2.124c-0.792,5.415-1.631,10.794-3.557,15.981
		c-1.08,2.908-1.499,6.055-2.357,9.055c-0.622,2.175-1.408,4.313-3.179,5.906c-1.926,1.732-4.245,1.461-6.052-1.013
		c-3.215-4.404-5.715-9.235-7.764-14.298c-0.593-1.465-1.298-2.893-2.073-4.27c-0.29-0.516-0.924-0.838-1.615-1.432
		c-0.671,2.414-1.36,4.414-1.766,6.471c-0.517,2.623-0.808,5.291-1.19,7.94c-0.805,5.587-1.438,11.206-2.469,16.75
		c-0.622,3.342-1.342,6.743-3.243,9.704c-0.93,1.448-1.386,1.493-2.078-0.032c-1.324-2.915-2.677-5.831-3.737-8.845
		c-0.452-1.285-0.203-2.819-0.261-4.24c-0.174-4.278-0.356-8.555-0.506-12.833c-0.097-2.75-0.035-5.51-0.236-8.251
		c-0.317-4.306-0.786-8.6-1.21-12.897c-0.373-3.773-0.666-7.558-1.194-11.31c-0.518-3.688-1.334-7.333-1.93-11.011
		c-0.385-2.374,2.371-4.589,4.539-3.674c0.29,0.122,0.433,0.774,0.506,1.203c0.753,4.404,1.517,8.807,2.199,13.222
		c0.49,3.171,0.93,6.354,1.269,9.544c0.518,4.87,0.956,9.749,1.376,14.629c0.181,2.102,0.222,4.216,0.358,6.322
		c0.018,0.285,0.222,0.558,0.51,1.236c0.262-1.072,0.464-1.766,0.599-2.473c0.49-2.564,0.957-5.132,1.433-7.699
		c0.242-1.306,0.521-2.607,0.718-3.92c0.177-1.181,0.205-2.385,0.406-3.561c0.501-2.94,0.95-5.898,1.684-8.782
		c0.174-0.682,1.343-1.475,2.131-1.569c2.545-0.305,4.566,0.814,5.672,3.144c1.924,4.053,3.696,8.177,5.571,12.254
		c0.926,2.012,1.875,4.019,2.937,5.96c0.731,1.336,1.117,1.204,2.051-0.025c2.02-2.658,2.328-5.947,3.432-8.937
		c0.71-1.923,1.196-3.933,1.722-5.92c0.714-2.701,1.36-5.42,2.056-8.125c0.393-1.529,0.874-3.037,1.233-4.574
		c0.324-1.388,0.49-2.813,0.809-4.203c0.658-2.863,1.295-5.735,2.098-8.559c0.354-1.244,3.782-2.59,4.953-2.033
		c0.51,0.243,0.843,0.859,1.26,1.31c1.006-1.471,1.89-3.082,3.073-4.431c2.98-3.399,6.992-4.342,11.123-3.293
		c2.028,0.515,4.034,2.056,5.3,4.107c0.267,0.432,0.914,0.63,1.386,0.935c0.114-0.489,0.254-0.974,0.338-1.468
		c0.221-1.313,0.323-2.654,0.646-3.94c0.474-1.887,0.989-3.778,1.686-5.591c1.294-3.369,2.59-6.749,4.144-10.001
		c1.925-4.027,5.394-6.42,9.517-7.802c1.785-0.598,5.848-0.023,7.546,1.969c1.507,1.768,1.828,1.534,3.663,0.019
		c1.299-1.072,3.029-1.759,4.677-2.23c1.747-0.5,3.628-0.769,5.445-0.74c5.25,0.084,9.274,4.495,10.846,9.155
		c1.364,4.044,0.387,7.951-0.496,11.883c-0.29,1.294-0.327,2.682-0.826,3.883c-1.35,3.248-2.701,6.52-4.389,9.597
		c-2.995,5.46-6.377,10.709-9.314,16.199c-1.194,2.232-1.708,4.843-2.411,7.315c-0.392,1.377-0.612,2.815-0.779,4.241
		c-0.419,3.571,0.455,5.373,3.709,6.856c1.745,0.796,3.691,1.249,5.595,1.581c5.562,0.969,11.133,1.944,15.848,5.298
		c2.361,1.68,4.447,3.747,6.656,5.641c1.029,0.882,2.052,1.771,3.14,2.71c1.475-1.923-0.015-4.744,2.076-6.632
		c1.673,1.994,2.239,4.291,2.606,6.695c0.251,1.649,0.836,3.273,0.873,4.918c0.02,0.89-0.762,1.82-1.257,2.689
		c-0.189,0.331-0.585,0.546-0.894,0.805c-0.505,0.425-1.186,1.298-1.494,1.183c-1.15-0.429-2.199-1.153-3.246-1.828
		c-0.575-0.37-1.12-0.818-1.581-1.321c-0.211-0.23-0.105-0.727-0.285-1.013c-0.297-0.47-0.656-0.936-1.086-1.283
		c-1.42-1.144-2.832-2.31-4.348-3.315c-0.944-0.626-2.073-0.968-3.112-1.454c-2.043-0.956-4.063-1.96-6.128-2.864
		c-0.745-0.326-1.592-0.422-2.476-0.374c0.423,0.248,0.846,0.496,1.269,0.744c0.004-0.096,0.009-0.191,0.013-0.287
		c-3.095-0.324-6.188-0.662-9.285-0.962c-0.816-0.079-1.648-0.09-2.463-0.019c-0.17,0.015-0.296,0.531-0.502,0.933
		c-3.062-0.541-5.271-2.561-7.16-5.064c-0.223-0.296-0.565-0.502-0.852-0.75c-0.221,0.286-0.509,0.543-0.653,0.864
		c-1.486,3.311-2.868,6.671-4.462,9.928c-0.539,1.101-1.56,1.983-2.431,2.898c-0.704,0.74-1.204,0.266-1.521-0.451
		c-0.634-1.433-1.053-2.997-1.887-4.297c-2.11-3.285-2.945-6.96-3.338-10.71c-0.433-4.137-0.766-8.325-0.627-12.473
		c0.185-5.521,0.792-11.034,1.358-16.536c0.464-4.509,0.937-9.033,1.769-13.482c0.843-4.505,1.713-9.045,3.778-13.226
		C269.52,31.206,269.509,30.577,269.675,29.71z M247.551,64.783c-0.063-1.132-0.221-1.932-0.128-2.702
		c0.204-1.69,0.702-3.36,0.745-5.046c0.023-0.908-0.39-2.121-1.046-2.699c-2.177-1.92-6.364-1.443-8.425,0.771
		c-4.017,4.315-5.321,9.756-6.116,15.329c-0.351,2.46-0.232,5-0.18,7.5c0.057,2.741,0.056,5.515,0.493,8.208
		c0.58,3.57,1.538,7.08,2.381,10.604c0.261,1.091,0.674,2.145,0.957,3.025c1.754-0.899,3.36-1.523,4.716-2.496
		c0.778-0.558,1.461-1.626,1.634-2.567c0.327-1.769,0.165-3.622,0.367-5.423c0.3-2.669,0.738-5.323,1.123-7.982
		c0.194-1.338,0.37-2.68,0.608-4.01c0.458-2.563,0.885-5.135,1.456-7.674C246.537,67.841,247.156,66.111,247.551,64.783z
		 M277.719,36.249c-1.572-0.036-1.749,1.079-2.294,1.931c-2.291,3.58-3.946,7.379-5.048,11.514
		c-1.346,5.05-1.979,10.155-2.231,15.34c-0.06,1.236-0.302,2.469-0.281,3.701c0.05,2.959,0.138,5.921,0.34,8.874
		c0.223,3.255,0.568,6.502,0.921,9.745c0.046,0.422,0.462,0.804,0.797,1.355c3.463-6.501,3.861-13.442,5.679-19.986
		c0.525-1.891,0.733-3.871,1.06-5.815c0.514-3.056,1.259-6.1,1.446-9.177c0.264-4.339,0.153-8.704,0.106-13.057
		C278.197,39.183,277.889,37.695,277.719,36.249z M284.4,48.204c0.107,0.071,0.215,0.142,0.322,0.213
		c0.329-0.424,0.697-0.824,0.979-1.278c0.889-1.433,1.795-2.858,2.605-4.336c1.942-3.539,3.92-7.063,5.706-10.681
		c0.849-1.718,0.332-2.646-1.475-3.25c-3.173-1.06-6.157-0.35-8.919,1.316c-0.433,0.261-0.681,1.235-0.617,1.837
		c0.165,1.562,0.705,3.089,0.818,4.65C284.095,40.512,284.216,44.36,284.4,48.204z"/>
	<path d="M336.998,80.321c-0.352,1.681-0.768,3.129-0.943,4.605c-0.507,4.282-0.882,8.579-1.381,12.862
		c-0.279,2.396-0.74,4.77-1.043,7.164c-0.17,1.341-0.37,2.721-0.224,4.048c0.166,1.511-0.386,2.547-1.398,3.515
		c-0.376,0.359-0.665,0.818-0.956,1.256c-1.083,1.629-1.889,1.657-3.241,0.043c-1.415-1.688-2.197-3.703-2.603-5.817
		c-0.615-3.193-1.124-6.411-1.542-9.636c-0.217-1.673-0.296-3.395-0.17-5.076c0.447-6,0.918-12.001,1.575-17.98
		c0.234-2.134,0.961-4.226,1.576-6.304c0.844-2.853-0.691-5.206-1.661-7.588c-1.553-3.814-0.246-9.868,3.117-12.243
		c1.106-0.781,2.529-1.102,3.693-1.819c0.542-0.334,1.109-1.087,1.155-1.689c0.283-3.767,0.451-7.543,0.6-11.318
		c0.107-2.713,0.196-5.43,0.163-8.143c-0.025-2.051-0.237-4.1-0.395-6.148c-0.211-2.73-0.578-5.455-0.642-8.188
		c-0.068-2.899,1.927-4.162,4.774-3.259c0.454,0.144,0.952,0.153,1.262,0.199c2.057,2.387,1.351,5.19,1.534,7.828
		c0.388,5.599,0.069,11.178-0.416,16.761c-0.231,2.658-0.17,5.342-0.2,8.014c-0.004,0.349,0.15,0.873,0.396,1.001
		c0.236,0.123,0.774-0.061,1.028-0.283c3.069-2.683,6.777-4.131,10.437-5.771c2.114-0.947,4.34-1.339,6.426-2.193
		c1.597-0.654,3.011-1.746,4.54-2.58c0.588-0.321,1.259-0.61,1.912-0.659c0.859-0.065,2.341-0.123,2.49,0.246
		c0.402,0.995,0.438,2.252,0.258,3.345c-0.323,1.968-0.841,3.915-1.425,5.825c-0.195,0.638-0.728,1.332-1.301,1.668
		c-2.09,1.228-4.22,2.405-6.411,3.439c-4.106,1.938-8.451,3.42-12.054,6.3c-2.638,2.109-5.22,4.36-6.63,7.489
		c-0.727,1.614-0.848,3.51-1.184,5.29c-0.355,1.879-0.144,3.631,1.451,4.947c0.855,0.706,1.709,1.419,2.611,2.061
		c4.781,3.406,9.625,6.726,14.351,10.207c2.927,2.155,5.685,4.539,8.512,6.829c1.754,1.421,3.595,2.753,5.221,4.309
		c2.819,2.695,5.552,5.485,8.221,8.329c1.45,1.545,2.696,3.281,4.032,4.932c1.909,2.36,1.818,4.616-0.232,6.819
		c-0.458,0.493-0.914,1.034-1.196,1.635c-0.509,1.088-1.576,1.317-2.265,0.312c-1.467-2.138-2.691-4.462-4.312-6.47
		c-1.931-2.393-3.932-4.842-6.331-6.719c-4.674-3.659-9.626-6.966-14.503-10.363c-3.937-2.743-7.92-5.419-11.907-8.089
		C340.327,82.297,338.817,81.438,336.998,80.321z"/>
	<path d="M406.754,43.162c0.346-3.303,0.751-6.602,1.002-9.912c0.08-1.056-0.25-2.144-0.392-3.217
		c-0.962,0.401-1.974,0.712-2.876,1.219c-3.073,1.731-5.348,4.349-7.661,6.943c-0.664,0.745-1.687,1.234-2.633,1.628
		c-0.295,0.123-1.127-0.352-1.287-0.733c-0.464-1.106-0.69-2.309-1.053-3.461c-0.279-0.886-0.65-1.743-0.934-2.628
		c-1.001-3.115-0.211-6.146,0.182-9.269c0.535-4.247,2.278-8.399,1.222-12.823c-0.364-1.525,0.198-1.872,1.908-2.261
		c2.08-0.473,3.895,0.287,5.605,1.124c0.605,0.296,1.036,1.67,0.961,2.499c-0.232,2.554-0.725,5.086-1.161,7.618
		c-0.197,1.143-0.529,2.263-0.731,3.406c-0.047,0.267,0.196,0.836,0.289,0.832c0.388-0.015,0.818-0.12,1.147-0.327
		c1.48-0.932,2.826-2.167,4.414-2.817c3.002-1.23,8.533-0.198,9.859,2.424c0.643,1.271,1.214,2.785,1.161,4.164
		c-0.171,4.465-0.617,8.922-1.013,13.376c-0.282,3.177-0.655,6.346-0.982,9.519c-0.027,0.266-0.09,0.564-0.004,0.799
		c0.282,0.773,1.108,1.874,0.858,2.22c-0.934,1.29-2.144,2.422-3.418,3.392c-0.295,0.224-1.539-0.234-1.866-0.708
		C406.934,52.65,405.933,47.902,406.754,43.162z"/>
	<path d="M14.77,54.864c-0.618-0.564-1.351-0.912-1.529-1.445c-1.415-4.223-2.775-8.465-4.043-12.734
		c-0.596-2.008-1.078-4.068-1.389-6.139c-0.685-4.568-2.246-8.787-4.278-12.928C1.695,17.874,0.042,13.978,0,9.67
		c-0.004-0.461,0.285-1.273,0.539-1.316c0.495-0.083,1.273,0.098,1.562,0.463c1.436,1.815,3.125,3.563,4.026,5.638
		c1.542,3.554,2.524,7.348,3.817,11.015c1.222,3.467,2.724,6.846,3.763,10.365c0.882,2.991,2.375,5.86,2.008,9.185
		c-0.243,2.202-0.028,4.452-0.151,6.673C15.512,52.62,15.117,53.529,14.77,54.864z"/>
	<path d="M22.312,0.086c0.227,0.248,0.855,0.658,1.084,1.229c1.732,4.313,3.191,8.696,3.617,13.383
		c0.233,2.559,0.931,5.076,1.158,7.636c0.26,2.943,0.134,5.92,0.362,8.868c0.152,1.968,0.644,3.909,0.95,5.867
		c0.065,0.417,0.128,0.936-0.056,1.272c-0.84,1.532-1.327,3.081-0.963,4.866c0.077,0.378-0.398,0.868-0.618,1.307
		c-0.387-0.258-0.991-0.433-1.126-0.787c-1.17-3.078-2.395-6.148-3.306-9.307c-0.427-1.481-0.169-3.153-0.276-4.735
		c-0.333-4.944-0.646-9.889-1.073-14.825c-0.107-1.235-0.344-2.602-0.981-3.621c-1.867-2.983-1.846-6.31-2.132-9.596
		C18.843,0.376,20.015-0.239,22.312,0.086z"/>
</g>
<g id="Layer_1">
</g>
</svg>
