<?xml version="1.0" encoding="iso-8859-1"?>
<!-- Generator: Adobe Illustrator 27.9.0, SVG Export Plug-In . SVG Version: 6.00 Build 0)  -->
<svg version="1.1" xmlns="http://www.w3.org/2000/svg" xmlns:xlink="http://www.w3.org/1999/xlink" x="0px" y="0px"
	 viewBox="0 0 192.096 39.953" style="enable-background:new 0 0 192.096 39.953;" xml:space="preserve">
<g id="Layer_17">
	<path d="M167.31,16.658c0.239,0.78,0.925,1.873,0.769,2.828c-0.155,0.947-0.982,2.053-1.83,2.559
		c-1.607,0.96-1.827,1.102-0.358,2.34c1.141,0.963,2.539,1.624,3.833,2.401c0.851,0.511,1.917,0.503,2.561,1.594
		c0.362,0.613,1.543,0.741,2.46,1.133c-0.092,0.882,0.104,2.041-0.368,2.759c-0.602,0.915-1.698,1.989-2.664,2.077
		c-1.845,0.167-3.779-0.173-5.621-0.561c-2.815-0.593-5.11-2.312-7.354-3.994c-1.109-0.831-1.955-2.014-3.211-3.346
		c-0.092,0.875-0.153,1.443-0.21,2.011c-0.189,1.901-0.033,3.923-0.649,5.673c-0.808,2.298-3.717,2.191-5.195,0.2
		c-1.19-1.602-1.608-3.81-2.225-5.794c-0.418-1.347-0.707-2.759-0.843-4.163c-0.302-3.117-0.479-6.246-0.688-9.372
		c-0.057-0.856-0.022-1.718-0.078-2.574c-0.067-1.013,0.521-1.481,1.378-1.658c1.228-0.253,2.478-0.398,3.708-0.643
		c0.458-0.091,0.885-0.337,1.442-0.558c0.455,0.67,1.092,1.162,0.907,2.576c-0.224,1.707,0.582,3.592,1.164,5.325
		c0.122,0.362,1.241,0.634,1.844,0.547c2.437-0.35,4.842-0.917,7.278-1.278C164.52,16.569,165.725,16.681,167.31,16.658z"/>
	<path d="M80.997,28.658c2.916-1.111,2.933-1.122,4.411,1.348c0.541,0.905,0.887,1.294,1.563,0.048
		c1.055-1.947,2.396-3.745,3.367-5.728c0.529-1.081,0.578-2.408,0.785-3.634c0.143-0.849,0.182-1.714,0.272-2.572
		c0.228-2.174,0.969-2.509,2.781-1.174c2.355,1.735,2.802,2.83,1.756,7.215c-1.072,4.494-3.234,8.529-5.64,12.404
		c-1.546,2.49-3.928,3.78-6.994,3.281c-0.563-0.092-1.319-0.17-1.613-0.546c-1.23-1.572-3.115-1.477-4.728-2.046
		c-1.798-0.635-3.478-3.473-3.903-5.885c-0.765-4.338-0.388-8.85-2.034-13.054c-0.373-0.952,0.815-3.165,1.783-3.39
		c1.717-0.399,3.461-0.86,5.201-0.894c0.666-0.013,1.603,0.957,1.961,1.699c0.384,0.795,0.536,1.951,0.261,2.772
		c-0.954,2.848,0.011,5.676-0.125,8.504C80.077,27.529,80.668,28.08,80.997,28.658z"/>
	<path d="M128.856,24.184c-0.094,1.815-0.196,3.47-0.26,5.126c-0.05,1.278-0.165,2.569-0.053,3.836
		c0.193,2.178-1.466,3.23-2.613,4.59c-0.188,0.223-0.667,0.283-1.01,0.279c-2.228-0.031-4.798-2.433-4.475-4.648
		c0.469-3.213-0.548-6.182-0.824-9.264c-0.214-2.393-0.131-5.022,0.67-7.239c0.804-2.224,2.148-4.3,5.142-4.988
		c1.93-0.444,3.826-1.412,5.887-1.713c1.956-0.285,3.721,0.151,4.862,1.742c0.945,1.316,0.842,2.861-0.057,4.325
		c-0.767,1.249-0.154,2.376,1.326,2.613c0.477,0.077,0.959,0.118,1.433,0.21c2.371,0.46,2.893,2.669,3.81,4.345
		c0.713,1.303-0.845,3.049-2.477,2.848c-2.264-0.279-4.498-0.805-6.746-1.221C131.969,24.748,130.465,24.478,128.856,24.184z"/>
	<path d="M37.096,27.446c0.362,2.071,0.589,3.877,1.009,5.637c0.42,1.758-0.455,3.966-1.855,4.375
		c-1.325,0.387-3.567-1.237-3.863-2.633c-0.661-3.124-1.533-6.203-2.215-9.323c-0.245-1.121-0.339-2.321-0.234-3.461
		c0.133-1.448-0.43-2.588-0.88-3.886c-0.378-1.09-0.06-2.865,0.65-3.81c2.465-3.278,6.144-4.944,9.894-6.237
		c1.411-0.486,3.156-0.398,4.663-0.116c2.636,0.494,3.884,3.61,2.325,5.845c-1.345,1.928-3.055,3.599-4.581,5.403
		c-1.836,2.172-1.56,3.244,1.143,4.43c1.666,0.73,3.347,1.425,5.029,2.118c1.112,0.458,1.684,0.974,0.798,2.241
		c-1.385,1.981-4.526,2.907-7.198,1.821C40.347,29.267,39.012,28.441,37.096,27.446z M37.149,15.269
		c0.122,0.189,0.244,0.377,0.365,0.566c1.557,0.403,2.076-0.614,2.217-2.186C38.871,14.189,38.01,14.729,37.149,15.269z"/>
	<path d="M16.936,28.05c-0.507,2.191-0.805,4.082-1.418,5.863c-0.292,0.848-1.074,1.923-1.833,2.118
		c-1.01,0.26-2.253,0.172-3.145-1.005c-1.857-2.451-1.731-2.425-0.477-5.311c1.121-2.578,1.951-5.343,2.47-8.107
		c0.562-2.995,3.208-5.721,6.223-5.735c1.515-0.007,2.687,0.721,3.471,1.946c0.879,1.374,1.526,2.901,2.44,4.249
		c0.571,0.842,1.499,1.432,2.17,2.218c0.408,0.478,0.758,1.081,0.913,1.685c0.48,1.87,0.953,3.752,1.237,5.659
		c0.239,1.608,0.499,3.312,0.202,4.868c-0.207,1.085-1.07,2.281-2.623,2.317c-1.702,0.04-2.998-1.073-3.536-2.57
		c-0.727-2.026-1.242-4.2-2.366-5.983C20.015,29.23,18.346,28.84,16.936,28.05z"/>
	<path d="M104.366,34.08c0.429-0.702,0.805-1.32,1.182-1.938c-0.165,0.111-0.33,0.223-0.495,0.334
		c-0.582-0.986-1.253-1.931-1.719-2.969c-0.392-0.873-0.795-1.862-0.76-2.784c0.123-3.261,1.5-6.066,3.61-8.506
		c0.363-0.42,0.93-0.711,1.458-0.931c1.356-0.565,2.736-1.074,4.118-1.574c1.268-0.459,3.815,0.676,4.661,2.105
		c1.567,2.649,1.925,5.383,0.671,8.3c-0.681,1.584-1.036,3.309-1.744,4.878c-0.334,0.739-1.151,1.261-1.754,1.877
		c-1.4,1.431-2.563,3.148-4.81,3.45C106.715,36.602,105.46,35.523,104.366,34.08z"/>
	<path d="M60.248,12.071c2.123,0.222,4.218,0.441,6.313,0.66c0.214,0.022,0.467-0.021,0.636,0.079
		c0.827,0.489,1.631,1.017,2.444,1.531c-0.637,0.764-1.133,1.938-1.937,2.214c-2.458,0.845-5.01,1.484-7.571,1.945
		c-3.277,0.59-2.9,0.794-2.9,3.631c0,2.819,0.586,5.637,0.902,8.456c0.17,1.517-0.199,2.918-1.478,3.784
		c-0.485,0.328-1.431,0.288-2.039,0.066c-3.183-1.162-3.11-4.189-3.708-6.805c-0.185-0.81-0.168-1.668-0.368-2.473
		c-0.305-1.224-0.299-2.559-1.858-3.213c-0.743-0.312-1.294-1.291-1.725-2.081c-0.517-0.947-0.78-1.94,0.505-2.703
		c1.177-0.699,2.159-1.753,3.374-2.353c1.373-0.679,2.895-1.082,4.38-1.504C56.87,12.837,58.555,12.481,60.248,12.071z"/>
	<path d="M5.855,7.493c-0.046,1.804,0.044,3.624-0.182,5.405c-0.162,1.276-0.578,2.59-1.19,3.719
		c-0.599,1.106-2.608,0.634-3.505-0.978c-0.584-1.05-0.863-2.359-0.948-3.575c-0.115-1.642,0.131-3.307,0.139-4.962
		c0.006-1.327,0.53-1.986,1.91-2.015c1.159-0.024,2.314-0.205,3.528-0.323C5.554,4.179,5.523,3.555,5.437,2.94
		C5.231,1.464,6.023,0.421,7.508,0.251c1.376-0.158,2.904-0.773,3.843,0.804c0.421,0.707,0.741,1.621,0.707,2.424
		c-0.078,1.851-0.283,3.717-0.68,5.524c-0.161,0.734-1.276,1.955-1.409,1.887C8.916,10.347,7.944,9.604,7.059,8.8
		C6.716,8.488,6.661,7.857,6.475,7.372C6.269,7.412,6.062,7.452,5.855,7.493z"/>
	<path d="M184.396,7.644c-0.826,3.463-1.352,6.614-2.4,9.581c-0.395,1.118-1.878,2.277-3.078,2.586
		c-1.926,0.496-3.001-1.312-3.701-2.733c-1.529-3.105-0.208-6.948,2.573-8.427C179.528,7.727,181.89,7.978,184.396,7.644z"/>
	<path d="M185,15.2c2.082-0.347,3.699-0.723,5.333-0.832c0.562-0.037,1.448,0.463,1.674,0.954c0.224,0.487-0.011,1.402-0.365,1.903
		c-1.398,1.979-3.89,2.133-5.524,0.334C185.608,16.997,185.427,16.133,185,15.2z"/>
</g>
<g id="Layer_1">
</g>
</svg>
