<?xml version="1.0" encoding="iso-8859-1"?>
<!-- Generator: Adobe Illustrator 27.9.0, SVG Export Plug-In . SVG Version: 6.00 Build 0)  -->
<svg version="1.1" xmlns="http://www.w3.org/2000/svg" xmlns:xlink="http://www.w3.org/1999/xlink" x="0px" y="0px"
	 viewBox="0 0 404.543 61.905" style="enable-background:new 0 0 404.543 61.905;" xml:space="preserve">
<g id="Layer_20">
	<path d="M361.049,46.309c1.833,0.726,3.45,1.365,5.072,2.007c0.606-1.081,2.083-1.372,3.997-0.61
		c1.594,0.635,3.108,1.469,4.706,2.092c1.334,0.52,2.736,0.865,4.11,1.282c2.23,0.677,4.458,1.363,6.696,2.011
		c0.453,0.131,0.95,0.112,1.427,0.161c0.06,0.173,0.12,0.347,0.18,0.52c-0.651,0.311-1.303,0.622-2.14,1.021
		c0.326,0.815,0.723,1.805,1.142,2.853c-0.155,0.403-0.488,0.99-0.601,1.617c-0.39,2.152-0.907,2.776-2.913,2.62
		c-4.23-0.329-8.454-0.561-12.453-2.387c-3.341-1.525-6.908-2.55-10.335-3.898c-1.57-0.618-3.025-1.521-4.566-2.221
		c-2.896-1.316-5.772-2.699-8.743-3.823c-2.158-0.816-4.486-1.172-6.685-1.896c-2.229-0.733-4.373-1.717-6.588-2.499
		c-2.615-0.923-5.266-1.746-7.901-2.613c-0.146,0.096-0.293,0.191-0.439,0.287c0.795,1.972,1.765,3.897,2.32,5.934
		c0.329,1.208,1.232,2.479,0.122,3.925c-1.394,1.817-2.467,3.878-3.799,5.747c-1.266,1.776-2.778,1.809-4.709,0.944
		c-1.688-0.756-2.062-2.267-2.74-3.591c-0.705-1.378-1.566-2.064-3.173-2.183c-5.644-0.417-11.109-1.745-16.573-3.22
		c-3.624-0.979-7.464-1.134-11.183-1.796c-5.182-0.922-10.537-1.172-15.284-3.87c-0.996-0.566-2.144-0.865-3.407-1.359
		c-0.11,0.366-0.399,0.814-0.337,1.207c0.555,3.532-0.799,6.538-2.522,9.446c-0.595,1.004-1.215,1.994-1.866,2.961
		c-1.241,1.843-2.947,3.276-5.19,2.965c-1.922-0.266-3.508-1.613-4.452-3.424c-1.015-1.947-2.09-3.885-2.852-5.934
		c-0.894-2.402-1.706-4.879-2.146-7.394c-0.614-3.506-0.851-7.079-1.261-10.726c-1.168-0.32-2.591,0.878-2.84,2.778
		c-0.24,1.834-0.206,3.725-0.638,5.507c-0.5,2.063-1.243,4.096-2.126,6.03c-1.128,2.47-2.349,4.926-3.819,7.202
		c-1.155,1.789-2.747,3.296-4.147,4.927c-0.491,0.572-0.979,1.146-1.48,1.709c-1.145,1.286-2.537,0.965-3.825,0.413
		c-1.4-0.6-2.523-1.515-2.275-3.345c0.056-0.411-0.218-0.867-0.369-1.407c-3.716,1.511-5.616-1.1-7.341-3.318
		c-1.36-1.749-2.593-3.962-2.876-6.102c-0.524-3.962,0.253-7.98,2.946-11.097c1.375-1.592,3.543-2.504,5.367-3.702
		c1.841-1.208,3.602-2.596,5.576-3.528c2.445-1.155,5.086-1.615,7.782-0.603c1.426,0.535,2.852,1.162,4.335,1.412
		c0.778,0.131,2.163-0.221,2.435-0.77c0.928-1.873,3.036-1.937,4.324-3.252c1.422-1.452,3.181-2.605,4.895-3.732
		c2.309-1.518,4.576-3.261,7.122-4.208c2.267-0.843,4.597-2.072,7.178-1.761c1.39,0.168,2.776,0.486,4.12,0.884
		c2.203,0.652,4.364,1.446,6.556,2.141c2.374,0.753,4.244,2.239,5.895,4.024c1.188,1.284,1.357,3.449,0.4,5.213
		c-1.421,2.62-2.913,5.202-4.486,7.999c0.663,0.368,1.46,1.02,2.369,1.274c2.644,0.74,5.336,1.303,8,1.971
		c1.118,0.281,2.574-0.041,2.777,1.852c0.087,0.812,2.212,0.742,2.763-0.157c-0.312-0.09-0.592-0.175-0.875-0.25
		c-0.239-0.064-0.481-0.116-0.647-0.55c2.993,0.557,5.986,1.113,8.978,1.672c0.156,0.029,0.311,0.069,0.462,0.119
		c0.398,0.132,0.793,0.273,1.189,0.41c-0.181,0.355-0.362,0.71-0.496,0.971c1.555,0.56,3.088,1.241,4.69,1.648
		c1.253,0.318,1.901,0.872,1.679,2.133c1.132,0.226,2.157,0.431,3.154,0.631c0.089-0.852,0.294-1.662,0.234-2.452
		c-0.181-2.413-0.287-4.853-0.754-7.216c-0.538-2.723-1.354-5.4-2.188-8.054c-0.742-2.36-1.673-4.661-2.519-6.989
		c-0.416-1.144-0.188-1.796,1.117-2.272c2.026-0.739,3.946-1.775,5.896-2.717c1.393-0.673,2.259-0.47,2.874,1.006
		c0.808,1.938,1.441,3.949,2.158,5.925c0.793,2.189,1.595,4.376,2.397,6.562c0.054,0.147,0.171,0.277,0.203,0.426
		c0.58,2.743,1.013,2.977,3.551,1.706c0.95-0.476,1.964-0.778,2.689-1.771c0.776-1.065,4.699-0.965,6.046-0.813
		c1.344,0.152,2.995,0.938,4.269-0.497c0.26-0.293,0.713-0.512,1.105-0.57c1.181-0.173,2.379-0.362,3.565-0.329
		c1.085,0.03,2.162,0.341,3.642,0.597c-0.779,0.473-1.189,0.723-1.6,0.973c0.25-0.171,0.501-0.342,0.751-0.513
		c0.465,0.985,0.688,2.514,1.441,2.847c1.86,0.823,2.952,1.68,2.096,3.825c1.114,0.568,2.204,1.189,3.346,1.692
		c2.881,1.268,5.831,2.39,8.645,3.789c0.658,0.327,1.036,1.491,1.214,2.339C362.942,45.335,361.821,45.819,361.049,46.309z
		 M263.723,24.099c-0.214-0.022-0.438-0.097-0.639-0.057c-0.529,0.106-1.049,0.261-1.572,0.397c0.281,0.565,0.545,1.14,0.85,1.693
		c0.234,0.425,0.624,0.79,0.765,1.238c0.818,2.599,1.6,5.21,2.359,7.826c0.526,1.813,1.273,2.032,2.777,0.769
		c1.171-0.984,2.964-1.074,3.742-2.68c0.149-0.307,1.008-0.205,1.301-0.517c1.693-1.8,1.26-3.944-0.582-5.574
		C270.099,24.871,266.685,25.221,263.723,24.099z M226.971,48.41c0.402-0.679,0.899-1.462,1.341-2.275
		c0.775-1.424,1.507-2.871,2.274-4.298c0.578-1.075,1.306-2.088,1.742-3.215c0.478-1.235-0.28-1.949-1.425-2.337
		c-2.373-0.804-4.517-0.342-6.537,1.066c-1.386,0.967-1.798,2.169-1.474,3.781c0.166,0.822,0.112,1.771-0.13,2.576
		c-0.651,2.174,0.059,3.505,2.257,4.004C225.657,47.856,226.261,48.151,226.971,48.41z M254.607,35.423
		c-0.298,0.047-0.595,0.093-0.893,0.14c-0.131,2.151,0.748,4.082,1.415,6.058c0.214-0.043,0.429-0.087,0.643-0.13
		C255.384,39.468,254.996,37.446,254.607,35.423z M300.91,43.265c0.108-0.127,0.216-0.255,0.323-0.382
		c-0.621-0.402-1.196-0.949-1.876-1.166c-0.679-0.215-1.462-0.099-2.2-0.128c-0.018,0.189-0.035,0.378-0.053,0.567
		C298.372,42.526,299.641,42.896,300.91,43.265z"/>
	<path d="M46.841,24.535c0.387,0.052,0.875-0.029,1.145,0.177c1.495,1.135,2.769,1.255,4.379,0.336
		c0.355-0.203,0.743-0.402,1.139-0.471c2.452-0.428,4.916-0.786,7.365-1.229c2.692-0.487,5.368-1.058,8.059-1.545
		c0.45-0.081,0.944,0.081,1.418,0.13c0.038,0.145,0.075,0.29,0.113,0.436c-0.554,0.231-1.128,0.425-1.654,0.708
		c-0.279,0.15-0.475,0.453-0.708,0.687c0.288,0.259,0.599,0.76,0.86,0.735c1.335-0.127,2.885,0.208,3.614-1.513
		c0.159-0.376,0.71-0.652,1.141-0.832c0.865-0.362,1.814-0.514,1.654-1.863c-0.043-0.36,0.438-0.969,0.828-1.162
		c1.953-0.966,3.952-1.84,5.946-2.721c0.273-0.121,0.671-0.231,0.908-0.121c2.083,0.963,4.144-0.077,6.212-0.021
		c1.226,0.033,2.455,0,3.678,0.065c4.521,0.241,9.003,0.846,13.472,1.55c0.582,0.092,1.158,0.225,1.736,0.339
		c0.044-0.145,0.088-0.29,0.132-0.435c-2.121-0.658-4.241-1.317-6.362-1.975c3.425-0.035,6.691,0.881,10.022,1.877
		c-0.009,0.091,0.05,0.411-0.078,0.609c-2.04,3.16-3.921,6.448-6.231,9.4c-1.387,1.772-3.452,3.014-5.437,4.684
		c0.236,0.971,1.572,0.881,2.587,1.214c0.849,0.279,1.736,0.511,2.621,0.594c1.159,0.109,2.338-0.005,3.501,0.076
		c1.848,0.128,3.689,0.448,5.536,0.475c1.355,0.02,2.71-0.391,4.072-0.449c2.617-0.111,5.24-0.093,7.859-0.163
		c0.513-0.014,1.022-0.183,1.533-0.28c0.081-0.17,0.162-0.341,0.242-0.511c-0.576-0.559-1.202-1.077-1.718-1.687
		c-1.151-1.363-0.908-1.802,0.578-3.005c1.691-1.369,3.21-2.964,4.704-4.554c0.397-0.423,0.348-1.234,0.65-1.786
		c0.217-0.396,0.629-0.75,1.038-0.964c1.977-1.037,4.054-1.903,5.955-3.059c1.656-1.007,3.121-2.327,4.683-3.492
		c0.317-0.237,0.687-0.403,1.133-0.659c-0.137,0.842-0.239,1.475-0.342,2.107c0.64,0.064,1.299,0.259,1.917,0.171
		c3.155-0.448,6.285-1.147,9.452-1.412c2.949-0.247,5.937-0.123,8.902-0.01c0.649,0.025,1.274,0.697,2.076,1.17
		c-0.684,0.325-1.233,0.586-1.969,0.936c0.59,0.914,1.17,1.812,1.862,2.884c-0.048,0.089-0.259,0.482-0.471,0.877
		c1.185,0.449,2.324,0.881,3.455,1.31c-0.908,2.466-1.308,2.556-3.578,2.528c-4.284-0.053-8.573,0.052-12.855,0.208
		c-2.318,0.084-4.629,0.395-6.94,0.631c-1.258,0.128-1.928,0.871-1.452,2.078c1.483,3.754,2.9,7.553,4.694,11.159
		c1.007,2.024,2.587,3.815,4.14,5.497c0.945,1.023,2.33,1.639,3.433,2.381c-0.563,0.706-1.031,1.292-1.448,1.814
		c-0.845-0.163-1.657-0.32-2.468-0.476c-0.06,0.091-0.119,0.181-0.179,0.272c0.58,0.586,1.16,1.172,1.621,1.638
		c-1.136,1.404-2.921,1.929-3.3,3.88c-0.322,1.656-1.948,2.273-3.674,1.857c-2.606-0.629-4.54-2.194-6.15-4.181
		c-2.098-2.589-4.068-5.282-5.973-7.774c-2.247,0.056-4.491,0.133-6.736,0.163c-3.125,0.041-6.251,0.026-9.376,0.074
		c-2.221,0.034-4.445,0.082-6.662,0.223c-1.288,0.082-2.56,0.393-3.846,0.54c-5.551,0.636-11.069,0.564-16.547-0.71
		c-1.29-0.3-2.692-0.788-3.06,1.486c-0.234,1.441-1.077,2.871-1.947,4.092c-0.721,1.011-1.761,1.989-2.879,2.474
		c-1.35,0.585-2.435-0.503-3.208-1.532c-0.928-1.237-1.607-2.661-2.539-3.895c-1.098-1.453-1.602-3.747-4.234-3.299
		c-0.203,0.035-0.464-0.378-0.723-0.545c-1.399-0.901-2.806-1.791-4.21-2.684c-0.13,0.179-0.261,0.358-0.391,0.537
		c1.341,1.017,2.683,2.035,4.024,3.052c-0.057,0.079-0.113,0.157-0.17,0.236c-0.687-0.206-1.374-0.412-2.061-0.618
		c-0.067,0.108-0.133,0.215-0.2,0.323c0.58,0.775,1.178,1.537,1.734,2.329c0.571,0.814,0.734,1.479-0.193,2.338
		c-0.659,0.611-0.843,1.72-1.284,2.585c-0.363,0.713-0.66,1.809-1.222,1.985c-0.772,0.242-1.726,0.357-2.619-0.665
		c-2.483-2.843-5.566-4.699-9.34-5.772c-4.497-1.278-8.673-3.527-12.453-6.371c-1.01-0.76-1.88-1.715-2.923-2.421
		c-0.485-0.329-1.304-0.525-1.839-0.358c-3.053,0.956-6.086,1.986-9.069,3.136c-0.452,0.174-0.693,1.084-0.89,1.699
		c-0.688,2.148-1.203,4.358-2.002,6.462c-0.581,1.531-2.879,1.596-3.836,0.227c-0.148-0.211-0.162-0.591-0.347-0.69
		c-1.838-0.989-1.637-2.762-1.813-4.426c-0.058-0.545-0.328-1.144-0.683-1.564c-0.584-0.69-1.517-1.151-1.908-1.912
		c-0.223-0.433,0.158-1.442,0.585-1.884c0.751-0.775,1.769-1.285,2.621-1.973c0.196-0.158,0.193-0.584,0.248-0.892
		c0.545-3.011,0.746-6.142,1.745-8.994c0.654-1.867,1.936-3.732,4.549-4.119c1.446-0.214,3.012-1.226,4.032-2.333
		c1.518-1.647,4.313-1.762,6.238,0.043c0.788,0.738,1.825,1.211,2.748,1.804c0.107,0.131,0.215,0.262,0.322,0.394
		c0.389,1.598,1.536,2.554,2.95,3.631c0.171-0.6,0.279-0.98,0.387-1.36L46.841,24.535z M98.104,25.305
		c-0.121-0.158-0.242-0.316-0.363-0.475c-0.252,0.01-0.505,0.042-0.755,0.026c-2.891-0.187-5.779-0.42-8.673-0.538
		c-0.491-0.02-1.457,0.507-1.434,0.676c0.327,2.386,0.788,4.754,1.216,7.126c0.134,0.003,0.268,0.007,0.402,0.01
		c0.217-0.468,0.434-0.935,0.681-1.465c2.245,0.905,2.905-1.53,4.447-2.218C95.26,27.718,96.623,26.378,98.104,25.305z
		 M61.569,33.674c3.265,1.243,6.38,2.429,9.496,3.616c0.1-0.145,0.201-0.29,0.301-0.435c-0.567-1.114-1.32-2.175-1.664-3.354
		c-0.805-2.757-0.725-2.778-3.39-2.116c-0.149,0.037-0.325-0.042-0.48-0.017c-1.594,0.251-3.336,0.202-4.731,0.873
		c-1.035,0.498-1.901,0.179-2.821,0.351c-0.074,0.014-0.129,0.135-0.192,0.206c1.681,1.829,3.661,2.756,4.221,1.9
		C62.084,34.387,61.845,34.056,61.569,33.674z M31.971,31.757c1.016-0.902,1.955-1.736,2.894-2.57
		c-0.02-0.205-0.039-0.409-0.059-0.614c-0.686-0.24-1.514-0.846-2.029-0.646C31.519,28.415,31.188,30.191,31.971,31.757z
		 M132.123,37.81c0.467-0.46,0.873-0.86,1.249-1.23c-0.341-0.653-0.662-1.268-0.983-1.884
		C130.649,35.592,130.542,36.527,132.123,37.81z M130.381,33.356c0.082,0.28,0.163,0.56,0.245,0.84
		c0.656-0.148,1.328-0.256,1.949-0.494c0.085-0.033-0.078-0.715-0.126-1.097C131.759,32.856,131.07,33.106,130.381,33.356z
		 M64.484,24.122c0.019,0.147,0.037,0.294,0.056,0.44c0.666,0.134,1.333,0.268,2.211,0.445c-0.079-0.697-0.132-1.168-0.206-1.815
		C65.719,23.565,65.101,23.843,64.484,24.122z"/>
	<path d="M210.864,33.638c0.54,2.617-0.633,4.661-1.845,6.653c-1.447,2.381-3.094,4.643-4.488,7.052
		c-1.153,1.993-2.752,3.522-4.588,4.765c-1.997,1.352-5.154,1.415-7.668-0.564c-1.533-1.206-3.045-2.474-4.723-3.444
		c-0.715-0.414-1.933-0.419-2.744-0.123c-2.577,0.943-4.759,0.78-7.143-0.842c-2.267-1.542-3.445-3.444-4.217-5.98
		c-1.006-3.305-2.386-6.498-3.643-9.724c-0.564-1.447-0.081-2.373,1.076-3.458c2.043-1.915,4.702-2.565,7.065-3.804
		c0.371-0.195,1.476,0.153,1.607,0.494c0.994,2.584,1.991,5.188,2.659,7.868c0.453,1.818,3.317,5.791,5.147,5.949
		c1.422,0.123,2.893-0.422,4.352-0.578c1.117-0.119,2.437-0.482,3.33-0.047c1.419,0.691,2.725,1.814,3.759,3.026
		c0.787,0.923,1.099,0.618,1.47-0.097c0.577-1.111,1.181-2.237,1.534-3.428c0.853-2.879,1.579-5.797,2.324-8.707
		c0.103-0.403,0.079-0.857,0.028-1.277c-0.167-1.384,0.962-2.706,2.313-3.111c1.355-0.405,2.699-0.994,3.892-1.75
		c0.981-0.622,1.257-0.183,1.423,0.583c0.211,0.97,0.27,1.972,0.44,2.953c0.071,0.409,0.152,1.049,0.406,1.155
		c1.545,0.642,1.267,2.295,1.991,3.378c0.632,0.947-0.194,2.636-1.403,2.793C212.491,33.472,211.759,33.539,210.864,33.638z"/>
	<path d="M376.588,9.951c-0.326,1.224-0.713,1.98-0.693,2.725c0.084,3.072,0.163,6.155,0.511,9.204
		c0.158,1.381,0.942,2.691,1.635,4.551c1.62-1.066,2.905-1.953,4.231-2.772c1.321-0.816,2.678-1.573,4.031-2.336
		c0.317-0.178,0.849-0.171,0.998-0.42c1.89-3.162,5.411-3.318,8.319-4.609c1.606-0.713,3.193-1.487,4.718-2.357
		c1.784-1.018,2.293-0.746,2.621,1.203c0.422,2.508,1.112,4.971,1.579,7.473c0.066,0.351-0.424,1.117-0.753,1.179
		c-1.726,0.327-2.521,1.503-3.464,2.851c-1.13,1.616-2.657,3.047-4.27,4.194c-0.829,0.589-2.08,0.592-3.314-0.213
		c-2.334-1.523-3.451-3.463-3.417-6.205c0.008-0.636-0.338-1.276-0.656-2.382c-2.401,2.095-4.405,4.056-6.63,5.721
		c-2.004,1.5-3.522,3.686-6.182,4.316c-1.975,0.468-3.569,0.579-5.228-1.123c-1.382-1.417-2.973-2.616-3.293-4.638
		c-0.358-2.269-0.455-4.583-0.605-6.881c-0.07-1.074,0.049-2.16,0.002-3.237c-0.12-2.733,1.384-4.32,4.514-4.843
		c1.198-0.2,2.362-0.603,3.542-0.915C375.247,10.315,375.71,10.188,376.588,9.951z"/>
	<path d="M21.356,15.454c-2.314-0.598-3.702-1.967-4.855-3.582C15.134,9.956,13.817,8,12.588,5.993
		c-0.266-0.435-0.31-1.477-0.034-1.688c1.026-0.786,2.215-1.367,3.368-1.979c1.294-0.688,2.656-1.256,3.908-2.008
		c1.037-0.623,1.444-0.299,1.866,0.704c0.899,2.137,1.933,4.216,2.854,6.345c0.101,0.233-0.207,0.626-0.278,0.955
		c-0.051,0.237-0.1,0.523-0.015,0.732c0.668,1.642,0.064,4.73-1.266,5.757C22.498,15.191,21.79,15.292,21.356,15.454z"/>
	<path d="M7.8,7.624c0.654,3.131-0.144,6.48,2.977,8.786c-0.612,1.297-1.127,2.719-1.916,3.966c-0.762,1.204-3.431,1.139-4.564,0.23
		c-2.561-2.054-3.347-5.004-4.196-7.929c-0.378-1.3,0.34-2.196,1.414-2.737C3.027,9.18,4.59,8.515,6.157,7.874
		C6.619,7.684,7.171,7.712,7.8,7.624z"/>
	<path d="M43.558,22.216c-0.107-0.131-0.215-0.262-0.322-0.394c-0.541-1.14-1.082-2.279-1.623-3.419
		c0.085-0.07,0.169-0.141,0.254-0.211c0.923,0.885,1.877,1.739,2.759,2.663c0.662,0.693,1.107,1.664,1.875,2.166
		c0.786,0.514,0.491,0.955,0.34,1.513c0,0,0.054-0.047,0.054-0.047c-0.599-0.545-1.158-1.145-1.811-1.614
		C44.645,22.558,44.072,22.429,43.558,22.216z"/>
</g>
<g id="Layer_1">
</g>
</svg>
