<?xml version="1.0" encoding="iso-8859-1"?>
<!-- Generator: Adobe Illustrator 27.9.0, SVG Export Plug-In . SVG Version: 6.00 Build 0)  -->
<svg version="1.1" xmlns="http://www.w3.org/2000/svg" xmlns:xlink="http://www.w3.org/1999/xlink" x="0px" y="0px"
	 viewBox="0 0 361.864 102.962" style="enable-background:new 0 0 361.864 102.962;" xml:space="preserve">
<g id="Layer_10">
	<path d="M279.919,57.148c0.362-0.749,0.862-1.462,1.065-2.252c1.36-5.283,3.356-10.303,6.154-14.986
		c1.511-2.53,2.867-5.214,4.748-7.446c2.897-3.439,5.919-6.914,10.131-8.829c2.362-1.074,4.895-1.929,7.44-2.369
		c1.131-0.195,2.482,0.88,3.467,1.273c-1.581,1.494-2.965,3.182-4.703,4.337c-1.722,1.144-3.841,1.672-5.708,2.623
		c-1.193,0.608-2.347,1.379-3.342,2.274c-2.358,2.12-4.079,4.733-5.526,7.548c-0.386,0.751-0.254,1.025,0.265,1.715
		c1.421,1.892,2.537,4.011,3.802,6.022c0.978,1.555,1.776,3.304,3.046,4.577c2.549,2.554,5.345,4.863,8.077,7.23
		c2.03,1.759,4.123,3.445,6.179,5.174c0.243,0.205,0.538,0.443,0.625,0.723c0.481,1.548,2.144,1.909,2.993,3.008
		c2.209,2.86,6.038,2.93,8.579,5.209c0.694,0.622,1.121,1.029,0.535,1.685c-1.35,0.831-2.751,1.591-4.036,2.512
		c-1.599,1.147-3.051,0.596-4.504-0.188c-1.196-0.645-2.404-1.293-3.51-2.075c-3.429-2.425-6.838-4.878-10.204-7.388
		c-3.657-2.727-7.355-5.415-10.838-8.354c-1.622-1.368-2.782-3.284-4.142-4.96c-0.233-0.288-0.353-0.702-0.635-0.907
		c-0.49-0.357-1.154-0.916-1.581-0.798c-0.442,0.122-0.818,0.908-0.998,1.475c-0.713,2.252-1.415,4.514-1.974,6.808
		c-0.578,2.372-0.962,4.791-1.474,7.18c-0.354,1.654-0.657,3.371-2.183,4.434c-0.635,0.442-1.538,0.593-2.02,1.14
		c-0.658,0.747-1.266,1.695-1.468,2.648c-0.28,1.321-0.924,2.073-2.138,2.505c-0.579,0.206-1.221,0.433-1.644,0.845
		c-1.643,1.604-3.474,1.265-4.668-0.663c-1.192-1.924-2.683-3.664-4.047-5.482c-0.846-1.127-1.592-2.353-2.572-3.349
		c-1.815-1.848-3.778-3.55-5.661-5.332c-1.136-1.075-2.15-2.297-3.376-3.252c-1.604-1.251-3.343-2.335-5.062-3.431
		c-1.109-0.708-2.284-1.313-3.434-1.957c-1.511-0.847-2.249-0.5-2.544,1.185c-0.267,1.522-0.462,3.061-0.816,4.563
		c-1.325,5.618-3.432,10.984-6.435,15.867c-1.693,2.751-4.605,4.567-7.596,5.962c-1.113,0.519-2.254-0.117-2.383-1.359
		c-0.303-2.933-0.669-5.879-0.664-8.818c0.006-3.201,0.364-6.405,0.639-9.602c0.288-3.344,0.605-6.688,1.007-10.02
		c0.522-4.333,1.057-8.668,1.751-12.975c0.352-2.182,0.902-4.365,1.657-6.441c1.004-2.761-0.179-4.597-3.169-4.187
		c-1.674,0.229-3.288,0.984-4.88,1.626c-0.271,0.109-0.493,0.899-0.393,1.284c0.876,3.356,1.03,6.749,0.27,10.107
		c-0.605,2.674-1.326,5.368-2.398,7.881c-1.615,3.788-3.295,7.608-5.484,11.076c-1.929,3.057-4.612,5.634-6.924,8.454
		c-1.647,2.009-3.813,3.244-6.094,4.362c-1.776,0.87-4.084,0.501-5.361-0.963c-2.89-3.315-4.849-7.093-5.635-11.437
		c-0.458-2.529-1.153-5.066-1.193-7.608c-0.095-5.968,1.138-11.752,3.365-17.292c0.936-2.329,1.788-4.776,3.195-6.813
		c1.825-2.641,4.107-4.849,7.324-6.121c2.115-0.836,4.284-0.882,6.39-1.444c0.48-0.128,1.12,0.219,1.652,0.433
		c2.359,0.949,4.889,1.57,6.617,3.693c0.942,1.157,1.792,0.527,2.663-0.271c1.457-1.335,2.909-2.706,4.519-3.839
		c2.623-1.847,5.657-1.721,8.578-1.057c1.294,0.294,1.849-0.135,2.171-1.059c1.433-4.115,4.149-7.421,6.701-10.828
		c3.229-4.312,9.136-5.559,13.342-2.741c2.315,1.551,3.275,3.949,3.097,6.654c-0.325,4.967-2.22,9.424-4.813,13.617
		c-2.565,4.15-5.517,8.067-7.393,12.631c-0.548,1.332-0.591,2.35,0.406,3.493c0.726,0.832,0.979,2.122,1.774,2.841
		c1.905,1.724,4.014,3.221,6.024,4.829c2.963,2.371,6.017,4.644,8.826,7.187c1.632,1.478,2.899,3.372,4.26,5.132
		c1.546,2.001,2.961,4.105,4.542,6.076c0.648,0.808,1.375,0.329,1.711-0.448c0.204-0.471,0.222-1.066,0.179-1.594
		c-0.219-2.724-0.457-5.447-0.744-8.165c-0.149-1.408-0.487-2.798-0.605-4.207c-0.162-1.943-0.186-3.897-0.29-5.845
		c-0.117-2.195-0.293-4.388-0.378-6.584c-0.09-2.328-0.117-4.66-0.146-6.99c-0.039-3.075-0.001-6.153-0.098-9.226
		c-0.075-2.368-0.565-4.749-0.405-7.092c0.197-2.889,1.494-5.448,3.789-7.33c1.541-1.264,2.767,0.17,3.999,0.764
		c1.077,0.519,0.746,1.43,0.487,2.473c-0.355,1.429-0.238,2.984-0.262,4.485c-0.074,4.621-0.109,9.242-0.181,13.863
		c-0.025,1.607-0.144,3.212-0.167,4.819c-0.05,3.452-0.101,6.904-0.083,10.356c0.013,2.508,0.137,5.015,0.211,7.523
		C279.434,57.018,279.677,57.083,279.919,57.148z M200.645,64.28c0.699-2.238,1.305-4.363,2.03-6.447
		c0.738-2.121,1.517-4.235,2.41-6.294c2.145-4.943,4.607-9.727,7.385-14.35c0.174-0.29-0.079-1.015-0.353-1.366
		c-2.075-2.664-5.125-3.426-8.186-3.365c-4.218,0.084-7.068,3.135-7.519,7.335c-0.191,1.775-0.45,3.546-0.548,5.327
		c-0.141,2.568-0.467,5.181-0.154,7.705c0.351,2.825,1.327,5.572,2.033,8.352C198.109,62.619,199.658,64.207,200.645,64.28z
		 M231.532,75.457c0.474-0.604,0.702-0.815,0.835-1.076c2.977-5.857,4.542-12.145,5.608-18.577c0.191-1.152,0.273-2.353,0.179-3.514
		c-0.212-2.623-0.885-5.197-0.297-7.88c0.632-2.882-1.677-4.86-2.524-7.404c-0.537,0.548-0.894,1.092-1.068,1.689
		c-0.234,0.804-0.296,1.656-0.487,2.475c-0.427,1.832-1.032,3.636-1.295,5.489c-0.277,1.953-0.186,3.955-0.356,5.927
		c-0.241,2.809-0.654,5.604-0.847,8.415c-0.258,3.778-0.43,7.565-0.516,11.351C230.744,73.269,231.205,74.197,231.532,75.457z
		 M243.712,34.034c0.559-0.521,0.977-0.78,1.214-1.154c1.29-2.042,2.537-4.111,3.797-6.172c1.424-2.329,2.248-4.822,2.228-7.588
		c-0.011-1.506-1.254-3.594-2.58-4.083c-1.565-0.577-3.928-0.149-4.757,1.137c-1.607,2.492-3.108,5.061-4.49,7.684
		c-0.29,0.551-0.088,1.586,0.251,2.197c0.732,1.319,1.805,2.449,2.54,3.767C242.613,31.075,243.058,32.469,243.712,34.034z
		 M205.627,64.913c0.747-0.26,1.425-0.321,1.836-0.684c0.486-0.43,0.761-1.109,1.091-1.7c1.534-2.743,3.246-5.407,4.522-8.266
		c1.083-2.427,1.92-5.038,2.352-7.653c0.247-1.497,1.253-3.365-0.679-4.992C210.563,48.749,207.641,56.313,205.627,64.913z"/>
	<path d="M39.967,70.031c-0.062,1.043-0.131,1.933-0.163,2.824c-0.025,0.689,0.06,1.387-0.021,2.067
		c-0.062,0.523-0.469,1.034-0.442,1.535c0.135,2.452,0.688,4.929,0.459,7.338c-0.186,1.952-0.095,3.79,0.203,5.681
		c0.293,1.856,0.485,3.728,0.756,5.588c0.051,0.35,0.217,0.714,0.422,1.005c0.537,0.762,0.646,1.473-0.088,2.162
		c-1.078,1.012-2.076,2.14-3.273,2.985c-0.749,0.528-1.782,0.683-1.896-0.853c-0.206-2.796-0.439-5.59-0.725-8.379
		c-0.219-2.133-0.578-4.251-0.797-6.384c-0.163-1.59-0.211-3.193-0.296-4.791c-0.184-3.46-0.324-6.922-0.58-10.376
		c-0.033-0.44-0.575-0.979-1.019-1.229c-2.335-1.318-5.197-1.378-7.207-3.674c-1.267-1.448-3.39-2.168-5.174-3.132
		c-0.872-0.472-1.649,0.402-1.87,1.767c-0.297,1.833-0.764,3.639-1.079,5.47c-0.121,0.707,0.052,1.461-0.042,2.176
		c-0.306,2.303-0.78,4.588-0.982,6.898c-0.142,1.622,0.08,3.273,0.085,4.911c0.002,0.707-0.135,1.415-0.23,2.318
		c-0.025-0.013,0.242,0.123,0.495,0.252c-0.347,2.126-0.689,4.227-1.041,6.38c1.405,0.835,1.77,3.196,0.707,4.624
		c-1.216,1.633-2.299,3.364-3.52,4.992c-0.304,0.406-0.939,0.811-1.386,0.775c-0.305-0.025-0.761-0.807-0.784-1.268
		c-0.159-3.221-0.219-6.447-0.319-9.671c-0.02-0.631-0.173-1.272-0.101-1.889c0.652-5.609,1.314-11.218,2.026-16.82
		c0.406-3.197,0.77-6.409,1.408-9.563c0.682-3.373,1.525-6.729,2.553-10.013c1.096-3.5,2.315-6.987,3.823-10.325
		c0.954-2.112,2.259-4.22,3.896-5.833c2.478-2.44,6.71-2.833,9.413,0.012c0.164,0.173,0.477,0.206,0.439,0.19
		c3.941,7.452,5.212,15.313,5.856,23.736c0.935-0.01,2.278,0.185,3.521-0.084c2.079-0.449,4.156-1.046,6.118-1.86
		c1.693-0.702,3.209-1.821,4.831-2.705c2.399-1.306,2.832-3.336,2.434-5.844c-0.147-0.928,0.104-1.966,0.364-2.9
		c0.336-1.207,1.023-2.328,1.271-3.545c0.353-1.729,1.279-2.893,2.959-3.08c2.087-0.233,2.439-1.938,3.265-3.277
		c1.562-2.534,2.962-5.185,4.716-7.576c1.025-1.397,2.466-2.633,3.976-3.49c1.507-0.856,3.233-0.685,5.024-0.08
		c3.507,1.185,2.685,4.081,2.61,6.419c-0.071,2.221-0.92,4.43-1.52,6.619c-0.625,2.282-1.056,4.691-2.121,6.763
		c-1.645,3.199-3.743,6.166-5.675,9.214c-1.797,2.836-3.965,5.509-4.296,9.012c-0.069,0.733,0.188,1.75,0.685,2.234
		c1.344,1.309,2.482,2.792,4.666,3.187c2.656,0.48,5.161,1.743,7.788,2.462c2.049,0.561,4.191,0.773,6.278,1.205
		c2.041,0.422,4.075,0.892,6.094,1.408c1.372,0.351,2.723,0.793,4.068,1.239c2.142,0.711,4.267,1.474,6.411,2.18
		c0.543,0.179,1.131,0.224,1.974,0.383c-0.703-3.386-1.363-6.566-2.076-9.998c-0.676-0.414-1.466-0.309-2.27,0.618
		c-0.804,0.926-3.941,0.694-4.617-0.4c-1.357-2.196-2.54-4.499-3.795-6.757c-2.756-4.96-1.747-9.87,0.003-14.869
		c1.095-3.128,2.92-5.676,5.125-8.048c0.363-0.391,0.6-0.961,0.736-1.489c0.564-2.19,1.008-4.413,1.615-6.59
		c0.33-1.186,0.814-2.35,1.375-3.448c1.199-2.348,4.819-2.503,6.502,0.087c-1.767,2.217-3.231,4.552-2.402,7.523
		c3.293-0.341,6.382-0.749,9.484-0.955c2.954-0.197,5.924-0.292,8.883-0.231c2.958,0.061,5.919,0.3,8.863,0.607
		c1.222,0.127,2.389,0.717,3.609,0.944c1.329,0.248,2.701,0.258,4.036,0.481c3.367,0.561,6.723,1.184,10.171,1.914
		c-1.521,0.286-1.461,3.408-4.029,1.853c-0.576,2.682-2.704,1.396-4.464,1.912c0.493,0.455,0.904,0.835,1.322,1.221
		c-1.037,0.107-1.021,0.076-2.944-0.89c-0.297-0.149-0.812,0.136-1.226,0.22c-0.842,0.171-1.694,0.525-2.526,0.484
		c-6.528-0.322-13.036-0.51-19.544,0.478c-2.751,0.418-5.582,0.276-8.362,0.543c-2.904,0.279-3.283,0.904-2.875,3.768
		c0.239,1.677,0.222,3.404,0.593,5.046c0.632,2.799,1.529,5.537,2.208,8.327c0.247,1.016,0.116,2.118,0.289,3.16
		c0.178,1.074,0.569,2.113,0.765,3.185c0.159,0.871,0.13,1.775,0.253,2.655c0.105,0.749,0.365,1.479,0.447,2.229
		c0.058,0.525-0.197,1.098-0.085,1.6c0.297,1.332,0.827,2.618,1.06,3.958c0.311,1.79,0.43,3.614,0.629,5.424
		c0.015,0.135-0.039,0.325,0.032,0.4c1.503,1.573,1.299,3.556,1.487,5.502c0.12,1.248,0.668,2.518,1.282,3.636
		c0.469,0.855,0.701,1.478-0.143,2.117c-0.935,0.708-1.887,1.396-2.857,2.055c-1.153,0.783-2.289,0.329-2.594-0.97
		c-0.464-1.976-0.974-3.941-1.444-5.916c-0.438-1.838-0.739-3.72-1.338-5.502c-0.188-0.56-1.236-1.303-1.739-1.202
		c-1.948,0.39-3.613-0.116-5.475-0.611c-1.506-0.4-3.104-1.781-4.903-0.735c-0.113,0.066-0.386,0.042-0.465-0.046
		c-1.21-1.355-2.577-0.563-3.978-0.475c-1.238,0.078-2.504-0.642-3.783-0.812c-1.668-0.221-3.364-0.22-5.043-0.361
		c-2.781-0.234-5.467-1.004-8.365-0.685c-1.564,0.172-3.279-0.97-4.918-1.543c-1.658-0.579-2.169-0.134-2.116,1.65
		c0.047,1.587-0.203,3.188-0.103,4.769c0.132,2.09,0.521,4.162,0.715,6.25c0.142,1.528,0.01,3.09,0.244,4.599
		c0.361,2.331-1.211,3.368-2.677,4.558c-0.573,0.465-1.033,1.066-1.592,1.549c-0.275,0.237-0.714,0.539-0.98,0.464
		c-0.293-0.082-0.639-0.545-0.679-0.876c-0.471-3.922-0.994-7.843-1.294-11.78c-0.377-4.949-0.565-9.913-0.827-14.87
		c-0.256-4.843-0.474-9.688-0.769-14.529c-0.078-1.285-0.705-1.526-1.679-0.713c-1.246,1.04-2.435,2.151-3.646,3.232
		c-3.137,2.799-6.851,4.613-10.667,6.256C40.866,69.583,40.397,69.826,39.967,70.031z M64.315,56.813
		c1.785-0.484,2.949-1.822,3.807-3.516c0.213-0.421,0.492-0.814,0.777-1.193c3.488-4.63,5.57-9.669,4.629-15.617
		c-0.22-1.392-0.984-1.904-2.213-1.244c-0.637,0.342-1.475,0.847-1.636,1.438c-0.521,1.904-2.138,3.164-2.512,5.233
		c-0.656,3.628-1.93,7.14-2.761,10.743C64.104,53.964,64.33,55.391,64.315,56.813z M25.946,45.046
		c-0.099,0.117-0.198,0.233-0.298,0.35c-2.017-0.442-2.837,1.046-3.601,2.373c-0.565,0.982-1.165,2.271,0.852,2.566
		c0.263,0.038,0.49,0.369,0.719,0.58c2.075,1.917,4.124,3.865,6.244,5.73c0.319,0.281,1.089,0.392,1.433,0.198
		c0.307-0.173,0.504-0.915,0.422-1.343c-0.531-2.78-1.606-5.384-3.095-7.766C27.969,46.69,26.852,45.934,25.946,45.046z
		 M100.294,59.268c0.558-1.006-0.841-10.425-1.64-11.413C96.473,49.801,97.528,57.461,100.294,59.268z"/>
	<path d="M179.778,55.983c0.016,2.04-0.003,3.835,0.058,5.626c0.027,0.776,0.209,1.548,0.339,2.318
		c0.069,0.406,0.23,0.8,0.263,1.207c0.341,4.23,0.021,8.442-2.681,11.843c-1.997,2.514-4.502,4.696-7.064,6.657
		c-1.124,0.861-2.951,0.804-4.46,1.16c-0.349,0.082-0.805,0.035-1.035,0.243c-1.643,1.484-3.199,3.064-4.872,4.512
		c-0.619,0.536-1.513,1.17-2.216,1.099c-1.059-0.106-0.569-1.212-0.64-1.963c-0.307-3.246-0.696-6.484-1.035-9.727
		c-0.311-2.985-0.601-5.973-0.891-8.96c-0.208-2.145-0.319-4.303-0.615-6.435c-0.659-4.74-1.399-9.468-2.129-14.198
		c-0.071-0.463-0.283-0.908-0.454-1.351c-1.171-3.039-0.336-5.924,0.956-8.632c0.443-0.929,1.747-1.977,2.685-2.004
		c1.165-0.033,2.368,0.918,3.528,1.498c0.136,0.068,0.2,0.515,0.127,0.727c-0.878,2.51-0.204,5.033-0.04,7.537
		c0.209,3.185,0.582,6.36,0.903,9.537c0.173,1.713,0.419,3.419,0.57,5.134c0.287,3.255,0.625,6.51,0.748,9.773
		c0.055,1.445,0.081,2.41,1.901,2.632c1.316,0.161,2.558,0.923,3.832,1.419c2.243,0.872,4.558,0.208,5.473-1.759
		c0.472-1.015,0.242-2.351,0.361-3.538c0.292-2.932,0.564-5.867,0.92-8.791c0.186-1.531,0.5-3.05,0.82-4.561
		c0.106-0.501,0.368-0.985,0.633-1.432c0.576-0.974,1.184-0.685,1.716,0.048c0.273,0.375,0.466,0.809,0.747,1.308
		C178.765,56.588,179.207,56.324,179.778,55.983z"/>
	<path d="M349.035,8.594c2.095-0.735,4.148-1.457,6.202-2.175c2.06-0.721,5.788,0.459,6.486,2.446
		c0.398,1.131-0.148,2.627-0.381,3.939c-0.369,2.077-0.831,4.138-1.254,6.206c0.153,0.104,0.306,0.207,0.459,0.311
		c-0.853,0.323-1.802,0.502-2.537,0.999c-1.308,0.883-2.47,1.978-3.727,2.94c-0.409,0.313-0.923,0.488-1.389,0.725
		c-0.276-0.59-0.816-1.199-0.776-1.767c0.098-1.423,0.47-2.826,0.709-4.241c0.09-0.53,0.186-1.074,0.156-1.604
		c-0.039-0.697-0.179-1.981-0.313-1.986c-1.109-0.041-2.421-0.168-3.295,0.358c-1.258,0.757-2.193,2.048-3.278,3.099
		c-1.466,1.42-2.852,2.945-4.456,4.188c-0.726,0.563-1.894,0.556-2.862,0.808c-0.18-0.713-0.577-1.449-0.504-2.136
		c0.526-4.951,2.287-9.496,4.605-13.874c0.967-1.826,1.788-3.732,3.61-4.854c1.204-0.741,2.493-1.412,3.83-1.854
		c1.487-0.491,2.61,0.625,3.678,1.43c0.145,0.11-0.366,1.392-0.816,1.93c-1.332,1.593-2.789,3.081-4.18,4.625
		C348.931,8.183,349.018,8.403,349.035,8.594z"/>
	<path d="M0,27.018c0.415-1.705,0.811-3.414,1.251-5.112c0.495-1.912,1.314-3.552,3.451-4.141c0.286-0.079,0.486-0.616,0.649-0.975
		c0.992-2.183,1.906-4.403,2.955-6.557c1.134-2.33,4.252-2.614,6.239,0.397c0.754,1.142,1.819,2.079,2.742,3.111
		c0.143,0.16,0.379,0.31,0.406,0.49c0.399,2.652,1.956,4.814,2.899,7.215c0.308,0.785,0.517,2.803-0.963,3.768
		c-0.25,0.163-0.442,0.452-0.593,0.721c-0.845,1.509-1.937,1.808-3.258,0.711c-0.852-0.708-1.584-1.579-2.282-2.447
		c-0.862-1.071-1.577-2.262-2.457-3.317c-1.206-1.445-2.339-1.203-2.916,0.645c-0.368,1.18-0.466,2.442-0.785,3.641
		c-0.292,1.097-0.718,2.158-1.088,3.235c-0.05,0.147-0.205,0.332-0.159,0.426c1.32,2.737-1.075,5.062-0.872,7.803
		c0.121,1.637-1.549,3.444-2.548,5.093c-0.199,0.329-1.027,0.433-1.523,0.359c-0.248-0.037-0.56-0.704-0.572-1.095
		c-0.138-4.28-0.221-8.562-0.32-12.844c-0.008-0.34-0.018-0.679-0.026-1.019C0.153,27.088,0.077,27.053,0,27.018z"/>
</g>
<g id="Layer_1">
</g>
</svg>
