<?xml version="1.0" encoding="iso-8859-1"?>
<!-- Generator: Adobe Illustrator 27.9.0, SVG Export Plug-In . SVG Version: 6.00 Build 0)  -->
<svg version="1.1" xmlns="http://www.w3.org/2000/svg" xmlns:xlink="http://www.w3.org/1999/xlink" x="0px" y="0px"
	 viewBox="0 0 243.861 82.173" style="enable-background:new 0 0 243.861 82.173;" xml:space="preserve">
<g id="Layer_3">
	<path d="M149.546,43.906c-0.063,2.161,0.004,3.818-0.18,5.447c-0.563,4.997-0.542,9.984,0.189,14.951
		c0.332,2.259-1.287,3.562-2.219,5.211c-0.759,1.343-1.885,2.066-3.461,2.294c-0.982,0.142-1.263-0.067-1.279-1.004
		c-0.088-5.183-0.314-10.366-0.268-15.548c0.024-2.714,0.537-5.42,0.776-8.135c0.421-4.779,0.935-9.556,1.156-14.345
		c0.171-3.696-0.167-7.414-0.036-11.114c0.057-1.603,0.576-3.242,1.16-4.758c0.435-1.129,1.666-1.459,2.722-0.959
		c1.379,0.652,2.174,0.143,2.986-0.885c2.258-2.859,7.768-3.408,10.494-2.565c1.607,0.497,2.534,3.03,1.811,5.163
		c-1.317,3.883-2.707,7.745-4.222,11.554c-0.476,1.197-1.408,2.226-2.203,3.278c-1.02,1.35-1.076,2.48,0.022,3.675
		c3.075,3.346,6.701,5.993,10.931,7.598c3.487,1.322,7.148,2.187,10.729,3.263c1.007,0.303,1.989,0.733,3.016,0.896
		c0.312,0.05,1.037-0.579,1.058-0.927c0.138-2.382,0.101-4.774,0.194-7.159c0.15-3.841,0.393-7.678,0.526-11.519
		c0.06-1.744-0.243-3.518-0.034-5.237c0.278-2.284,0.784-4.557,1.399-6.778c0.599-2.165,3.084-2.671,5.846-1.303
		c-0.427,2.159-0.913,4.327-1.26,6.516c-0.138,0.871,0.023,1.791,0.062,2.687c0.023,0.525,0.139,1.053,0.098,1.571
		c-0.123,1.567-0.299,3.129-0.459,4.692c-0.189,1.848-0.402,3.695-0.557,5.546c-0.032,0.387,0.019,0.925,0.259,1.145
		c0.19,0.175,0.753,0.043,1.109-0.078c2.779-0.938,5.538-1.936,8.323-2.856c2.138-0.707,4.254-0.598,6.187,0.375
		c-1.012,2.15-1.916,4.354-3.072,6.416c-0.668,1.193-1.743,2.158-2.873,3.51c0.711,0.952,1.647,2.237,2.616,3.496
		c0.883,1.148,1.696,2.378,2.727,3.379c1.795,1.744,3.648,3.456,5.649,4.952c1.068,0.798,1.934,1.502,1.597,2.717
		c-0.521,0.888-0.961,1.838-1.58,2.651c-1.037,1.361-2.077,2.757-3.33,3.903c-0.862,0.788-1.97-0.21-2.129-1.917
		c-0.607-0.098-1.235-0.198-1.551-0.249c-0.484-0.705-0.755-1.567-1.193-1.662c-2.389-0.518-3.532-2.465-5.01-4.044
		c-1.253-1.339-2.583-2.609-3.783-3.993c-0.849-0.979-1.505-2.125-2.319-3.137c-0.216-0.269-0.701-0.321-1.062-0.473
		c-0.079,0.317-0.206,0.63-0.229,0.95c-0.216,3.008-0.559,6.018-0.573,9.028c-0.01,2.354,0.482,4.707,0.574,7.067
		c0.038,0.986-0.25,2.042-0.628,2.97c-0.41,1.008-1.01,1.973-1.69,2.827c-0.59,0.74-1.315,1.487-2.145,1.895
		c-1.35,0.664-2.414,0.265-2.13-1.608c0.234-1.543-0.064-3.161-0.058-4.746c0.003-0.867,0.191-1.731,0.223-2.599
		c0.093-2.552,0.148-5.106,0.222-7.659c0.043-1.484,0.1-2.968,0.133-4.452c0.004-0.19-0.038-0.495-0.157-0.556
		c-1.565-0.804-0.889-2.035-0.695-3.198c-1.139-0.226-1.663,0.083-1.649,1.48c0.009,0.87-0.56,1.786-1.006,2.607
		c-0.366,0.675-0.934,1.24-1.544,2.024c-2.272-1.617-5.2-0.626-7.857-1.321c-4.642-1.215-9.276-2.552-13.345-5.165
		c-2.057-1.321-3.792-3.143-5.676-4.734C150.573,44.705,150.259,44.47,149.546,43.906z M154.508,24.409
		c-0.128-0.133-0.256-0.265-0.384-0.398c-1.565,0.215-2.49,1.305-2.664,3.505C152.623,26.33,153.565,25.369,154.508,24.409z"/>
	<path d="M50.623,48.233c-1.118,1.599-2.102,3.031-3.112,4.444c-0.638,0.893-2.648,1.492-3.555,0.998
		c-0.294-0.16-0.54-0.64-0.577-0.998c-0.182-1.78-0.388-3.568-0.39-5.354c-0.002-1.777,0.259-3.553,0.339-5.332
		c0.024-0.53-0.177-1.07-0.269-1.578c-1.841,2.286-1.859,5.852-5.728,6.746c-0.048,1.757-0.161,3.716-0.14,5.674
		c0.024,2.219,0.298,4.44,0.224,6.653c-0.086,2.581-1.455,4.714-2.945,6.721c-0.888,1.195-2.202,0.671-3.27,0.373
		c-0.308-0.086-0.439-1.255-0.437-1.927c0.013-3.666,0.265-7.339,0.094-10.994c-0.126-2.679-0.423-5.327,0.063-7.998
		c0.076-0.418-0.178-0.896-0.285-1.37c-2.641,1.189-3.35,2.484-2.969,5.263c0.029,0.21,0.038,0.428,0.02,0.64
		c-0.436,5.243-0.481,10.563-1.477,15.698c-0.526,2.712-2.708,5.104-4.189,7.721c-0.606-0.493-0.829-0.819-1.11-0.881
		c-2.814-0.621-2.653-3.463-3.934-5.221c-0.086-0.119-0.159-0.327-0.115-0.449c1.026-2.863-0.628-4.916-1.868-7.253
		c-0.896-1.689-0.898-3.846-1.354-5.782c-0.095-0.403-0.432-0.749-0.963-0.9c-0.307,2.932-0.657,5.86-0.903,8.797
		c-0.133,1.589-0.116,3.192-0.111,4.789c0.004,1.636,0.115,3.272,0.098,4.907c-0.007,0.622-0.225,1.246-0.374,1.862
		c-0.235,0.97-0.51,1.929-0.736,2.901c-0.338,1.45-0.608,2.917-0.984,4.357c-0.249,0.952-0.77,1.554-1.956,1.413
		c-1.194-0.142-1.892-0.667-2.024-1.849c-0.128-1.148-0.296-2.307-0.262-3.456c0.142-4.851,0.162-9.717,0.596-14.545
		c0.387-4.308,1.227-8.577,1.929-12.853c0.43-2.624,0.816-5.273,1.508-7.833c0.988-3.658,2.162-7.271,3.407-10.851
		c0.686-1.971,1.59-3.882,2.558-5.735c1.484-2.842,4.586-5.032,7.078-4.428c0.997,0.242,1.962,0.528,2.21,1.72
		c0.79,3.787,2.469,7.409,2.131,11.409c-0.012,0.145,0.175,0.337,0.127,0.443c-0.297,0.653-0.671,1.515,0.31,1.637
		c0.607,0.075,1.606-0.5,1.915-1.064c0.582-1.061,1.577-2.065,0.92-3.603c-0.248-0.581,0.269-1.518,0.507-2.27
		c0.426-1.348,0.906-2.679,1.362-4.018c0.068-0.2,0.064-0.481,0.201-0.592c3.384-2.745,2.973-7.116,4.571-10.622
		c1.193-2.617,2.345-5.255,3.644-7.819c0.616-1.216,1.776-1.69,3.201-1.569c0.984,0.084,1.584,0.448,1.863,1.415
		c0.625,2.169,1.195,4.276,0.602,6.621c-0.321,1.268,0.136,2.715,0.117,4.08c-0.04,2.886-0.153,5.772-0.255,8.656
		c-0.023,0.644-0.128,1.285-0.207,2.04c0.623,0.237,1.229,0.524,1.867,0.701c2.471,0.687,3.118,1.54,2.812,4.16
		c-0.378,3.243-1.1,6.464-1.223,9.712C49.088,43.891,48.544,46.453,50.623,48.233z M22.27,48.833
		c-1.907-0.068-3.699-0.216-5.481-0.132c-0.391,0.018-1.058,0.864-1.051,1.32c0.019,1.223,0.282,2.452,0.543,3.659
		c0.48,2.217,0.984,4.432,1.569,6.623c0.226,0.846,0.605,1.687,1.089,2.415c0.337,0.506,0.936,1.038,1.485,1.123
		c0.296,0.046,1.004-0.795,1.059-1.288c0.207-1.855,0.21-3.732,0.312-5.599C21.94,54.303,22.104,51.652,22.27,48.833z
		 M38.092,31.573c0.252,0.092,0.505,0.185,0.757,0.277c0.512-1.14,1.313-2.241,1.475-3.429c0.36-2.641,0.424-5.324,0.543-7.992
		c0.017-0.383-0.327-0.781-0.504-1.173c-0.255,0.346-0.67,0.664-0.739,1.044c-0.39,2.161-0.727,4.332-1.024,6.508
		C38.384,28.39,38.258,29.984,38.092,31.573z M21.482,38.053c-0.427-1.585-0.714-2.93-1.161-4.219
		c-0.382-1.102-1.267-1.255-2.032-0.379c-0.651,0.746-1.259,1.555-1.738,2.418c-0.477,0.86-0.372,1.626,0.85,1.754
		C18.615,37.753,19.829,37.88,21.482,38.053z"/>
	<path d="M101.986,38.854c0.911,3.842,1.855,7.825,2.799,11.808c0.223,0.029,0.446,0.058,0.669,0.087
		c0.499-0.969,1.21-1.886,1.46-2.916c1.327-5.455,1.272-10.933-0.634-16.226c-0.581-1.613-1.226-3.081-0.659-4.724
		c0.273-0.789,0.939-1.442,1.468-2.217c3.047,0.121,4.958,2.082,5.026,5.171c0.01,0.433,0.435,0.861,0.682,1.283
		c0.079,0.135,0.273,0.23,0.297,0.365c0.239,1.325,0.675,2.662,0.627,3.98c-0.09,2.479-0.4,4.957-0.735,7.42
		c-0.384,2.825-0.686,5.688-1.407,8.433c-0.769,2.929-1.915,5.768-3.038,8.59c-0.582,1.463-4.232,2.505-6.046,1.82
		c-0.746-0.282-1.411-0.79-2.092-1.227c-0.804-0.515-1.326-0.422-1.691,0.546c-0.666,1.767-1.384,3.517-2.128,5.254
		c-0.826,1.928-2.688,2.928-4.572,2.323c-0.46-0.148-0.935-0.904-1.024-1.442c-0.384-2.327-0.669-4.673-0.911-7.021
		c-0.314-3.037-0.592-6.079-0.809-9.124c-0.143-2.001-0.114-4.013-0.233-6.016c-0.105-1.77-0.177-3.558-0.5-5.295
		c-0.436-2.344-1.53-4.651-1.5-6.963c0.017-1.349-1.308-3.232,0.646-4.402c0.109-0.065,0.045-0.457,0.025-0.694
		c-0.159-1.905,0.789-3.551,2.284-4.178c1.18-0.494,2.851,0.135,4.291,0.351c0.286,0.043,0.721,0.465,0.733,0.729
		c0.06,1.283,0.025,2.572-0.028,3.857c-0.034,0.813-0.208,1.622-0.233,2.435c-0.081,2.609-0.241,5.225-0.13,7.828
		c0.06,1.426,0.603,2.831,1.214,4.368C95.82,38.431,98.975,38.741,101.986,38.854z"/>
	<path d="M60.733,41.279c-3.305,0.359-4.127-1.173-4.704-3.811c-0.21-0.958-0.339-1.937-0.458-2.912
		c-0.557-4.585,0.508-8.836,2.76-12.808c0.905-1.596,2.342-2.588,4.146-2.933c1.318-0.252,1.918-1.047,2.264-2.274
		c0.356-1.261,0.799-2.521,1.404-3.677c0.229-0.438,1.179-0.941,1.519-0.788c0.81,0.363,1.669,0.978,2.091,1.726
		c0.311,0.552,0.047,1.494-0.112,2.23c-0.268,1.248,0.344,2.207,1.584,2.17c2.985-0.088,5.969-0.219,8.953-0.354
		c1.244-0.056,2.493-0.287,3.725-0.205c0.695,0.046,1.358,0.567,1.788,0.762c-0.701,1.86-1.623,3.312-1.742,4.826
		c-0.274,3.481-1.099,4.908-4.477,5.559c-2.823,0.544-5.709,0.776-8.576,1.072c-1.058,0.109-1.625,0.214-1.416,1.603
		c0.281,1.869,0.675,3.968,0.115,5.669c-1.446,4.392,0.146,8.636,0.063,12.939c-0.044,2.267,0.295,4.544,0.201,6.805
		c-0.112,2.712-0.749,5.37-1.953,7.814c-0.721,1.464-2.198,1.945-3.447,2.2c-0.141-2.109-0.337-4.059-0.383-6.012
		c-0.042-1.76,0.155-3.526,0.112-5.286c-0.09-3.698-0.315-7.393-0.393-11.092c-0.053-2.513,0.04-5.029,0.085-7.544
		c0.027-1.49,0.146-2.98,0.097-4.467c-0.013-0.386-0.502-0.757-0.772-1.134c-0.35,0.251-0.789,0.439-1.023,0.772
		c-0.194,0.276-0.145,0.722-0.203,1.093C61.56,35.944,61.138,38.664,60.733,41.279z"/>
	<path d="M127.203,60.421c-3.033-0.064-5.766-2.664-6.394-5.785c-0.809-4.023-0.746-7.991-0.322-12.029
		c0.476-4.526,1.527-8.886,3.769-12.835c1.853-3.264,7.467-4.935,11.025-3.729c1.488,0.504,2.895,1.014,3.593,2.519
		c0.284,0.611,0.302,1.342,0.477,2.009c0.935,3.572,0.123,7.175-0.959,10.38c-1.575,4.668-3.395,9.384-6.663,13.307
		c-0.89,1.069-1.349,2.487-2.156,3.639C128.968,58.763,128.122,59.461,127.203,60.421z M127.756,47.967
		c0.637-0.767,1.079-1.266,1.481-1.796c0.213-0.281,0.281-0.737,0.546-0.903c1.925-1.205,2.812-3.097,3.319-5.156
		c0.47-1.909-0.266-2.767-2.238-2.981c-2.454-0.266-5.058,2.189-4.689,4.656C126.466,43.724,127.136,45.606,127.756,47.967z"/>
	<path d="M236.676,36.168c-0.159-3.125-0.303-5.943-0.446-8.761c-0.278-0.071-0.555-0.141-0.833-0.212
		c-0.717,1.269-1.412,2.551-2.156,3.804c-0.749,1.261-1.438,2.582-2.353,3.715c-1.022,1.264-2.269,2.346-3.418,3.508
		c-0.224-0.055-0.447-0.11-0.671-0.166c-0.164-0.908-0.647-1.901-0.435-2.71c0.828-3.151,1.656-6.338,2.924-9.324
		c0.812-1.912,2.292-3.587,3.701-5.164c0.365-0.409,1.595-0.09,2.422-0.029c1.09,0.08,2.172,0.316,3.262,0.344
		c4.031,0.103,5.194,1.1,5.187,5.009c-0.007,4.053-2.294,6.689-5.179,9.016C238.217,35.574,237.583,35.74,236.676,36.168z"/>
	<path d="M5.588,7.502c-0.207,1.976-0.379,3.956-0.631,5.926c-0.185,1.443-0.322,2.921-0.763,4.292
		c-0.371,1.151-2.427,1.201-2.961,0.107c-0.544-1.112-1.22-2.327-1.23-3.501c-0.023-2.878,0.175-5.775,0.547-8.631
		c0.192-1.475,0.818-2.943,1.51-4.279c0.266-0.514,1.286-0.94,1.913-0.879c0.63,0.06,1.34,0.671,1.748,1.235
		c0.327,0.451,0.253,1.192,0.357,1.804c0.15,0.065,0.3,0.13,0.45,0.195c0.281-0.558,0.582-1.108,0.838-1.677
		C7.726,1.293,7.49,0.05,8.857,0.002c1.473-0.051,2.742,0.907,3.015,2.268c0.588,2.927,0.994,5.866,0.404,8.849
		c-0.248,1.252-0.394,2.534-0.765,3.748c-0.174,0.57-0.823,1.458-1.166,1.418c-0.759-0.088-1.671-0.509-2.128-1.099
		c-0.467-0.603-0.485-1.565-0.662-2.379c-0.384-1.768-0.744-3.542-1.113-5.313C6.157,7.496,5.872,7.499,5.588,7.502z"/>
</g>
<g id="Layer_1">
</g>
</svg>
