<?xml version="1.0" encoding="iso-8859-1"?>
<!-- Generator: Adobe Illustrator 27.9.0, SVG Export Plug-In . SVG Version: 6.00 Build 0)  -->
<svg version="1.1" xmlns="http://www.w3.org/2000/svg" xmlns:xlink="http://www.w3.org/1999/xlink" x="0px" y="0px"
	 viewBox="0 0 346.164 129.549" style="enable-background:new 0 0 346.164 129.549;" xml:space="preserve">
<g id="Layer_1_00000047758170904895974810000001820131099487021213_">
	<g>
		<path d="M307.359,92.156c2.076,0.743,1.937,2.817,2.495,4.395c0.334,0.945,0.127,2.105,0.06,3.163
			c-0.275,4.323-2.508,7.609-5.669,10.344c-0.36,0.312-1.167,0.432-1.612,0.255c-1.018-0.406-2.105-0.892-2.844-1.655
			c-0.482-0.497-0.727-1.638-0.517-2.317c0.758-2.449,0.034-4.702-1.115-6.634c-2.562-4.31-6.435-7.337-10.546-10.169
			c-2.913-2.007-5.392-4.639-8.103-6.947c-0.443-0.377-1.072-0.647-1.641-0.703c-0.182-0.018-0.556,0.792-0.656,1.263
			c-0.421,1.984-0.771,3.983-1.136,5.918c1.188,0.552,1.796,2.428,0.958,2.93c-1.33,0.797-0.298,1.753-0.451,2.669
			c0.272-0.285,0.544-0.571,0.841-0.883c0.093,0.131,0.198,0.211,0.194,0.285c-0.194,4.166-0.332,8.335-0.621,12.494
			c-0.21,3.025-0.344,6.101-1.038,9.029c-0.444,1.875-1.795,3.554-2.839,5.26c-0.658,1.075-1.482,2.052-2.265,3.048
			c-1.68,2.137-4.171,2.9-6.249,1.507c-1.223-0.82-1.946-2.735-2.391-4.3c-1.382-4.856-1.127-9.816-0.449-14.767
			c0.158-1.154,0.248-2.317,0.329-3.097c-3.478-0.833-6.765-1.379-9.871-2.45c-2.076-0.716-3.905-2.16-5.823-3.315
			c-1.389-0.836-2.728-1.754-4.114-2.593c-2.331-1.411-4.653-2.841-7.042-4.148c-0.758-0.415-1.729-0.665-2.578-0.61
			c-0.532,0.034-1.433,0.753-1.46,1.207c-0.193,3.312-0.247,6.635-0.261,9.955c-0.007,1.669,0.596,3.464,0.157,4.979
			c-0.771,2.658-1.824,5.418-4.616,6.708c-0.706,0.326-1.904,0.14-2.622-0.263c-0.78-0.437-1.133-1.219-0.971-2.48
			c0.428-3.32,0.362-6.702,0.542-10.056c0.078-1.46,0.302-2.911,0.415-4.369c0.395-5.085,0.736-10.175,1.176-15.257
			c0.11-1.275,0.606-2.514,0.751-3.789c0.083-0.735-0.182-1.51-0.29-2.267c-0.179-0.01-0.357-0.02-0.536-0.03
			c-0.482,1.974-0.877,3.974-1.463,5.916c-1.05,3.476-2.023,6.996-3.379,10.356c-1.925,4.772-4.032,9.484-6.318,14.094
			c-1.776,3.582-3.898,6.997-5.97,10.424c-0.56,0.927-1.457,1.671-2.28,2.41c-0.579,0.52-3.311-0.694-3.304-1.471
			c0.014-1.505-0.103-2.751-1.92-3.281c-0.596-0.174-1.026-1.154-1.393-1.84c-1.989-3.72-2.786-7.816-3.3-11.919
			c-0.361-2.877-0.245-5.835-0.113-8.747c0.18-3.963,0.431-7.935,0.935-11.866c0.362-2.826,1.176-5.595,1.807-8.385
			c0.642-2.838,1.723-5.484,3.059-8.087c1.621-3.16,4.208-5.006,7.322-6.252c1.563-0.626,3.261-0.918,5.122-1.421
			c0.192-0.171,0.645-0.906,1.101-0.909c0.862-0.004,1.857,0.225,2.549,0.711c0.631,0.443,0.935,1.354,1.423,2.121
			c1.183-2.052,2.518-4.116,3.595-6.306c1.151-2.341,3.079-3.531,5.392-4.366c1.3-0.47,2.513-0.821,3.701,0.292
			c0.257,0.24,0.806,0.167,1.249,0.243c1.615-3.301,3.117-6.586,4.809-9.77c1.891-3.558,4.599-6.323,8.462-7.774
			c1.335-0.502,2.67-1.307,4.031-1.364c1.739-0.073,3.576,0.203,4.966,1.617c1.311,1.334,2.185,2.978,2.241,4.739
			c0.141,4.433-0.829,8.699-2.379,12.872c-2.45,6.597-5.533,12.844-9.264,18.822c-3.147,5.043-5.896,10.332-8.878,15.48
			c-0.683,1.179-0.276,1.637,0.862,1.632c2.457-0.011,4.46,1.004,6.442,2.351c2.301,1.564,4.803,2.83,7.153,4.327
			c2.074,1.321,4.069,2.768,6.077,4.19c0.767,0.543,1.341,0.666,1.546-0.753c0.231,1.699,2.118,3.114,3.595,2.865
			c0.325-0.055,0.749-0.424,0.854-0.74c0.56-1.683,1.091-3.38,1.526-5.1c1.266-5.007,2.443-10.024,4.527-14.799
			c0.597-1.367,0.376-3.114,0.433-4.69c0.086-2.39,0.191-4.788,0.098-7.175c-0.162-4.166-0.41-8.331-0.748-12.487
			c-0.114-1.407,0.008-2.301,1.604-2.701c1.312-0.329,2.503-1.226,3.948-0.72c0.363,0.127,0.922,0.398,0.955,0.659
			c0.339,2.658,0.687,5.321,0.833,7.994c0.124,2.277-0.027,4.568-0.02,6.852c0.001,0.322,0.211,0.644,0.331,0.988
			c2.178-1.559,4.134-3.212,6.322-4.457c2.376-1.351,4.88-2.617,7.485-3.39c4.416-1.311,8.929-1.054,13.336,0.335
			c1.035,0.326,1.315,0.778,1.098,2.196c-0.71,4.652-3.922,7.553-6.889,10.547c-1.777,1.793-4.229,2.91-6.356,4.363
			c-1.736,1.187-3.456,2.399-5.14,3.657c-0.283,0.212-0.346,0.718-0.545,1.166c4.493,1.557,8.21,4.184,11.673,7.115
			c3.458,2.927,6.674,6.141,10.363,9.569c-0.324-1.119-0.52-1.8-0.717-2.48L307.359,92.156z M204.23,105.786
			c0.179-0.051,0.357-0.101,0.536-0.152c0.496-1.097,1.093-2.16,1.471-3.297c1.126-3.388,2.205-6.793,3.231-10.213
			c1.135-3.785,2.221-7.585,3.271-11.394c1.261-4.577,2.419-9.182,3.706-13.751c0.651-2.311-0.42-4.762-2.361-5.877
			c-1.529-0.878-4.182-0.916-5.707,1.068c-1.456,1.895-2.694,3.974-3.884,6.054c-2.194,3.834-2.386,8.219-3.021,12.431
			c-0.389,2.58,0.022,5.277,0.031,7.922c0.008,2.172-0.247,4.365-0.02,6.511c0.257,2.427,0.858,4.827,1.437,7.208
			C203.212,103.494,203.785,104.624,204.23,105.786z M231.438,79.142c0.132,0.04,0.265,0.08,0.397,0.121
			c0.282-0.4,0.6-0.78,0.839-1.204c1.549-2.749,3.027-5.54,4.636-8.254c1.443-2.433,3.307-4.652,4.488-7.196
			c2.913-6.277,6.637-12.161,8.199-19.11c0.715-3.178,0.732-6.121,0.405-9.203c-0.116-1.088-0.875-1.715-1.906-1.333
			c-1.221,0.453-2.465,1.042-3.462,1.86c-2.896,2.376-4.415,5.775-5.917,9.044c-3.363,7.317-5.083,15.118-6.085,23.088
			c-0.402,3.194-0.883,6.379-1.315,9.57C231.598,77.394,231.529,78.27,231.438,79.142z M276.541,75.286
			c0.158,0.103,0.316,0.206,0.474,0.308c0.323-0.134,0.64-0.284,0.969-0.399c1.322-0.461,2.758-1.469,3.946-1.233
			c1.77,0.351,3.182,0.3,4.635-0.713c1.085-0.757,2.214-1.459,3.363-2.116c3.146-1.801,5.398-4.433,7.083-7.58
			c0.696-1.299,0.081-2.148-1.376-2.025c-0.522,0.044-1.05,0.19-1.562,0.143c-3.28-0.302-6.14,0.881-8.782,2.601
			c-3.195,2.08-5.501,5.062-7.619,8.165C277.11,73.261,276.908,74.33,276.541,75.286z M225.722,71.385
			c0.886-0.892,0.907-15.107-0.206-16.691c-1.863,2.403-2.532,4.772-1.373,7.9C225.17,65.365,225.241,68.49,225.722,71.385z
			 M214.205,89.933c0.259,0.071,0.518,0.141,0.777,0.212c1.594-4.611,3.434-9.156,3.763-14.104c-0.196-0.053-0.391-0.107-0.587-0.16
			C216.84,80.565,215.523,85.249,214.205,89.933z"/>
		<path d="M94.282,67.585c2.012,1.878,2.056,3.352,0.051,5.354c-1.277-0.894-2.502-0.699-3.42,0.674
			c-0.843,1.263-1.671,2.559-2.297,3.936c-0.34,0.748-0.274,1.521,0.404,2.425c1.349,1.8,2.383,3.861,3.357,5.905
			c0.446,0.936,0.443,2.086,0.663,3.237c0.395-0.051,0.794-0.102,1.231-0.158c2.387,3.63,4.806,7.266,7.18,10.933
			c1.931,2.983,3.627,6.081,4.043,9.695c0.238,2.064-0.178,4.031-1.159,5.849c-0.573,1.061-2.996,1.428-4.408,0.62
			c-1.102-0.631-0.944-1.544-0.647-2.73c0.235-0.939-0.205-2.213-0.709-3.142c-1.997-3.686-3.861-7.456-6.725-10.617
			c-1.122-1.239-1.965-2.746-2.839-4.189c-1.437-2.371-2.774-4.802-4.202-7.178c-0.459-0.764-1.07-1.436-1.647-2.196
			c-1.611,2.078-3.202,3.964-4.579,5.994c-0.505,0.745-0.684,1.828-0.703,2.764c-0.056,2.773-0.442,5.424-2.321,7.597
			c-0.288,0.333-1.091,0.538-1.509,0.39c-2.844-1.012-3.237-1.715-2.927-4.714c0.149-1.447,0.837-3.151,0.309-4.286
			c-0.924-1.984-0.246-3.593-0.013-5.454c0.641-5.116,0.961-10.274,1.342-15.42c0.104-1.402-0.026-2.822-0.053-4.477
			c-1.6,1.964-2.901,3.845-4.489,5.439c-2.12,2.128-4.376,4.145-6.746,5.988c-1.235,0.961-1.116,2.199-1.204,3.333
			c-0.44,5.654-0.646,11.326-1.114,16.977c-0.283,3.414-0.873,6.803-1.366,10.197c-0.308,2.116-0.486,4.283-1.106,6.31
			c-0.519,1.699-2.706,2.494-3.585,1.564c-0.933-0.987-1.772-1.998-1.946-3.547c-0.417-3.701-1.283-7.356-1.612-11.06
			c-0.571-6.439-2.519-12.569-3.886-18.828c-0.387-1.772-0.988-3.498-1.844-5.206c-0.294,0.767-0.676,1.512-0.867,2.304
			c-0.848,3.501-1.614,7.021-2.462,10.522c-0.659,2.723-1.422,5.42-2.086,8.141c-0.491,2.01-1.013,4.023-1.317,6.066
			c-0.639,4.298-1.141,8.616-1.703,12.925c-0.405,3.106-0.885,6.193-2.606,8.913c-0.224,0.354-0.494,0.678-0.813,1.113
			c-0.916-0.427-1.779-0.911-2.697-1.239c-1.396-0.499-1.577-1.746-1.256-2.727c1.135-3.467,0.728-6.93,0.544-10.454
			c-0.169-3.239-0.571-6.653,1.897-9.419c0.175-0.196,0.248-0.551,0.452-0.64c3.369-1.467,2.795-4.954,3.822-7.581
			c0.858-2.197,1.318-4.55,1.934-6.84c0.454-1.686,0.88-3.379,1.31-5.071c1.015-3.99,2.058-7.973,3.025-11.974
			c0.598-2.476,0.989-5.003,1.637-7.464c0.65-2.47,0.765-5.101,2.27-7.342c0.34-0.506,0.023-1.42,0.116-2.132
			c0.149-1.146,0.218-2.343,0.615-3.409c1.542-4.135,3.137-8.254,4.837-12.327c1.216-2.913,3.674-4.461,6.345-3.998
			c0.787,0.136,1.654,0.812,2.144,1.487c1.725,2.379,1.67,5.283,1.903,8.025c0.286,3.369,0.066,6.78,0.331,10.153
			c0.35,4.449,0.095,8.851-0.45,13.256c-0.086,0.695-0.229,1.397-0.195,2.089c0.028,0.588,0.272,1.167,0.421,1.749
			c0.504-0.242,1.046-0.427,1.506-0.736c5.74-3.854,8.367-9.764,10.277-16.036c0.523-1.719,0.285-3.703,0.215-5.558
			c-0.053-1.407,0.472-2.497,1.87-2.83c1.801-0.428,2.497-1.52,2.867-3.328c0.643-3.145,1.474-6.287,2.596-9.291
			c1.337-3.579,2.82-7.075,5.458-10.065c1.802-2.043,3.968-2.643,6.318-3.133c3.284-0.685,5.957,1.911,6.879,5.275
			c1.841,6.714,2.119,13.504,1.055,20.322c-0.528,3.381-1.491,6.711-2.471,10.001C96.594,61.425,95.387,64.457,94.282,67.585z
			 M78.049,78.311c0.129,0.078,0.259,0.155,0.388,0.233c2.003-1.765,4.038-3.496,5.995-5.309c1.14-1.056,2.429-2.09,3.182-3.403
			c3.713-6.473,6.162-13.444,7.104-20.842c0.414-3.255,0.014-6.607,0.156-9.907c0.153-3.547-0.671-6.909-1.642-10.25
			c-0.412-1.418-2.018-1.864-2.908-0.763c-1.573,1.946-3.239,3.912-4.322,6.134c-1.278,2.623-2.171,5.479-2.883,8.322
			c-1.044,4.165-1.88,8.39-2.61,12.624c-0.486,2.815-0.596,5.694-0.944,8.535c-0.187,1.532-0.621,3.036-0.765,4.57
			c-0.265,2.823-0.396,5.659-0.59,8.49C78.174,77.268,78.103,77.789,78.049,78.311z M45.57,71.808
			c1.009,0.061,1.715,0.325,2.023,0.083c1.273-0.997,1.791,0.096,2.622,0.676c1.182,0.824,2.46,1.551,3.784,2.113
			c0.709,0.301,1.44,0.002,1.41-1.062c-0.048-1.659-0.236-3.342-0.038-4.976c0.674-5.58,0.921-11.162,0.402-16.76
			c-0.208-2.245-0.575-4.476-0.898-6.709c-0.037-0.257-0.259-0.488-0.396-0.731c-0.2,0.187-0.474,0.338-0.586,0.568
			c-0.414,0.85-0.76,1.732-1.158,2.59c-1.496,3.223-2.718,6.497-3.157,10.087c-0.271,2.22-1.149,4.369-1.776,6.543
			C47.101,66.655,46.376,69.074,45.57,71.808z M53.167,100.11c0.174-0.007,0.347-0.014,0.521-0.021
			c0.161-0.559,0.4-1.108,0.47-1.677c0.243-1.974,0.334-3.972,0.677-5.927c0.155-0.885,0.839-1.664,1.143-2.54
			c0.173-0.498,0.305-1.362,0.042-1.598c-0.929-0.832-1.019-0.916-0.764-1.903c0.197-0.764,0.37-1.576,0.319-2.352
			c-0.063-0.963-0.112-2.115-1.446-2.29c-1.751-0.229-3.512-0.379-5.551-0.592C50.151,87.686,51.659,93.898,53.167,100.11z"/>
		<path d="M125.638,45.267c0.078,3.777,0.149,7.06,0.211,10.343c0.056,2.932,0.052,5.866,0.164,8.796
			c0.127,3.317,0.409,6.629,0.523,9.946c0.102,2.967,0.056,5.939,0.098,8.909c0.023,1.585,0.095,3.169,0.146,4.754
			c0.103,3.163,0.194,6.327,0.313,9.489c0.123,3.275,0.459,6.556,0.338,9.821c-0.063,1.698-0.697,3.472-1.472,5.011
			c-0.53,1.054-1.557,0.708-2.827,0.322c-3.267-0.991-2.863-3.823-3.392-5.96c-0.94-3.795-1.39-7.722-1.868-11.616
			c-0.359-2.927-0.409-5.891-0.663-8.833c-0.099-1.147-0.441-2.271-0.566-3.417c-0.246-2.248-0.492-4.501-0.582-6.759
			c-0.035-0.868,0.563-1.766,0.514-2.629c-0.155-2.724-0.337-5.461-0.774-8.15c-0.563-3.464-1.286-6.91-2.133-10.315
			c-0.47-1.891-1.272-3.711-2.034-5.517c-0.952-2.256-1.173-4.832-3.07-6.714c-0.285-0.282,0.159-2.027,0.586-2.176
			c2.158-0.752,4.399-1.362,6.659-1.691c1.318-0.192,2.367-0.271,3.537-1.247c1.23-1.026,3.125-1.282,4.761-1.766
			c0.258-0.076,0.89,0.348,1.001,0.663c0.526,1.497,1.681,1.262,2.773,1.077c2.209-0.373,4.397-0.882,6.61-1.221
			c2.959-0.453,5.928-0.872,8.907-1.166c2.615-0.258,5.314-0.746,7.858-0.359c2.634,0.401,5.235,1.518,7.64,2.737
			c1.566,0.794,1.629,2.777,1.573,4.413c-0.02,0.579-0.665,1.299-1.217,1.659c-0.885,0.578-1.655,0.236-2.311-0.656
			c-1.461-1.987-3.292-3.245-5.919-3.509c-3.231-0.325-6.317,0.028-9.436,0.788c-3.605,0.878-7.26,1.552-10.881,2.368
			c-1.372,0.309-2.766,0.643-4.038,1.212C126.109,44.127,125.826,44.996,125.638,45.267z M121.048,83.939
			c0.076-1.859,0.238-3.72,0.208-5.578c-0.047-2.9-0.245-5.797-0.339-8.696c-0.08-2.483-0.094-4.969-0.156-7.453
			c-0.063-2.54-0.089-5.083-0.24-7.618c-0.169-2.833-0.504-5.656-0.675-8.489c-0.06-0.998-0.622-1.219-1.367-1.139
			c-1.178,0.127-2.342,0.388-3.857,0.653C115.68,58.709,118.817,71.24,121.048,83.939z"/>
		<path d="M183.21,82.215c0.273-0.828,0.604-1.394,0.628-1.971c0.182-4.414,0.326-8.83,0.431-13.247
			c0.027-1.121,0.371-1.8,1.57-1.986c3.501-0.545,3.594-0.57,3.753,3.378c0.133,3.285,0.007,6.581-0.009,9.872
			c-0.011,2.337-0.113,4.676-0.025,7.009c0.133,3.525-0.756,6.821-2.11,10.003c-0.729,1.712-3.344,2.069-4.943,1.179
			c-2.271-1.265-3.693-3.2-4.831-5.469c-0.195,0.019-0.391,0.038-0.586,0.058c-0.477,1.786-1.265,3.555-1.37,5.363
			c-0.249,4.275-1.293,8.292-3.336,12.01c-0.635,1.156-1.723,2.155-2.807,2.948c-1.126,0.823-2.123-0.225-2.941-0.86
			c-0.52-0.403-1.123-1.416-0.95-1.875c0.947-2.504,0.616-5.076,0.751-7.627c0.037-0.709,0.404-1.401,0.625-2.099
			c0.095-0.3,0.298-0.597,0.296-0.893c-0.026-3.336-0.123-6.671-0.111-10.007c0.006-1.508,0.279-3.014,0.311-4.524
			c0.03-1.414-0.14-2.831-0.149-4.247c-0.027-4.142,0.077-8.287-0.056-12.424c-0.088-2.729-0.483-5.449-0.769-8.171
			c-0.197-1.876-0.481-3.744-0.635-5.623c-0.029-0.347,0.321-0.777,0.59-1.088c0.91-1.056,4.832-2.04,5.921-1.226
			c0.588,0.439,0.843,1.637,0.842,2.492c-0.003,3.142-0.237,6.283-0.27,9.426c-0.04,3.817,0.017,7.635,0.068,11.452
			c0.033,2.539,0.178,5.077,0.168,7.616c-0.003,0.869-0.326,1.737-0.556,2.865c2.589-1.546,4.776-2.923,7.044-4.149
			c0.463-0.251,1.31-0.1,1.836,0.158C182.124,80.82,182.485,81.444,183.21,82.215z"/>
		<path d="M12.829,44.2c-0.226,0.397-0.437,1.332-0.935,1.525c-1.096,0.424-2.355,0.385-3.013-0.898
			c-0.979-1.909-2.172-3.779-2.742-5.814c-1.571-5.608-2.955-11.274-4.237-16.956c-0.76-3.37-1.223-6.809-1.755-10.227
			c-0.374-2.403-0.166-2.634,2.155-3.037c1.57-0.273,2.743,0.524,3.093,2.253c0.468,2.316,0.827,4.654,1.252,6.978
			c0.888,4.856,1.69,9.731,2.723,14.557c0.623,2.912,1.59,5.752,2.465,8.606c0.139,0.454,0.714,0.766,0.887,1.22
			C12.888,42.844,12.795,43.381,12.829,44.2z"/>
		<path d="M32.502,33.977c-2.732-0.497-3.856-2.528-4.859-4.299c-2.435-4.304-3.641-9.069-4.355-13.941
			c-0.682-4.658-2.407-8.926-4.687-12.998c-0.695-1.242-0.516-1.734,0.868-2.088c0.203-0.052,0.409-0.098,0.615-0.139
			c0.833-0.165,1.982-0.747,2.437-0.406c1.062,0.796,1.99,1.93,2.619,3.115c2.559,4.817,3.173,10.196,4.174,15.448
			c0.691,3.627,1.566,7.167,3.473,10.372c0.26,0.437,0.561,0.909,0.963,1.192c1.029,0.725,0.896,1.771,0.517,2.591
			C34.018,33.365,33.114,33.603,32.502,33.977z"/>
		<path d="M338.667,43.027c1.13-1.965,3.008-1.951,4.606-1.745c0.892,0.115,2.176,1.311,2.342,2.197
			c0.577,3.074,0.846,6.259,0.064,9.338c-0.644,2.532-1.49,5.043-2.541,7.433c-0.901,2.049-2.2,3.925-3.36,5.856
			c-0.537,0.893-1.363,1.534-2.398,1.026c-0.945-0.464-1.795-1.207-1.333-2.522c0.73-2.077,1.35-4.201,2.213-6.22
			C340.441,53.285,340.603,48.168,338.667,43.027z"/>
		<path d="M334.355,41.648c-0.127,0.467-0.16,0.921-0.363,1.279c-1.499,2.655-3.06,5.275-4.537,7.941
			c-0.475,0.858-0.991,1.421-1.975,0.898c-0.983-0.522-1.761-1.28-1.44-2.528c0.417-1.625,0.958-3.218,1.392-4.84
			c0.139-0.52,0.222-1.105,0.132-1.627c-0.363-2.106-0.099-2.903,1.878-3.65c1.172-0.443,2.562-0.727,3.776-0.55
			C335.127,38.849,334.018,40.639,334.355,41.648z"/>
		<path d="M307.401,92.118c-2.524-2.474-5.048-4.949-7.572-7.423c0.114-0.127,0.228-0.254,0.342-0.381
			c1.669,1.469,3.366,2.908,4.994,4.422c0.683,0.635,1.26,1.399,1.8,2.164c0.241,0.341,0.274,0.83,0.398,1.254
			C307.359,92.156,307.401,92.118,307.401,92.118z"/>
	</g>
</g>
<g id="Layer_1">
</g>
</svg>
