<?xml version="1.0" encoding="iso-8859-1"?>
<!-- Generator: Adobe Illustrator 27.9.0, SVG Export Plug-In . SVG Version: 6.00 Build 0)  -->
<svg version="1.1" xmlns="http://www.w3.org/2000/svg" xmlns:xlink="http://www.w3.org/1999/xlink" x="0px" y="0px"
	 viewBox="0 0 302.795 126.701" style="enable-background:new 0 0 302.795 126.701;" xml:space="preserve">
<g id="Layer_4">
	<path d="M163.511,42.103c0.392-1.781,0.722-3.47,1.14-5.137c0.703-2.802,0.901-5.793,2.734-8.2
		c1.115-1.464,2.374-2.803,4.481-2.665c0.257,0.017,0.52-0.059,0.78-0.095c2.073-0.292,2.621,0.058,3.294,1.974
		c0.215,0.611,0.571,1.172,1.027,1.68c1.471-4.153,4.035-7.119,7.356-9.722c2.348-1.841,4.913-2.731,7.656-3.486
		c2.231-0.614,5.391,0.93,6.881,2.744c3.118,3.794,2.042,8.007,1.282,12.197c-0.181,0.997-0.182,2.069-0.566,2.98
		c-2.181,5.175-4.344,10.364-6.73,15.446c-1.756,3.739-3.88,7.304-5.742,10.996c-0.27,0.535-0.265,1.575,0.082,1.995
		c3.397,4.118,6.851,8.191,10.376,12.199c2.214,2.518,4.694,4.807,6.841,7.378c2.255,2.7,3.857,5.848,4.332,9.357
		c0.205,1.513-0.011,3.311-0.687,4.651c-0.652,1.292-2.143,2.16-3.127,3.084c-1.853-0.962-2.281-2.264-2.589-3.807
		c-0.346-1.731-0.984-3.432-1.718-5.045c-0.442-0.97-1.264-1.788-1.997-2.601c-2.367-2.627-4.737-5.254-7.172-7.819
		c-2.74-2.887-5.575-5.684-8.323-8.564c-1.707-1.789-3.33-3.658-5.124-5.637c-0.112,0.508-0.256,0.888-0.271,1.273
		c-0.188,4.741-0.343,9.483-0.537,14.224c-0.094,2.296-0.348,4.589-0.355,6.884c-0.008,2.482,0.225,4.964,0.283,7.448
		c0.074,3.152-0.62,6.109-2.817,8.474c-0.419,0.452-1.45,0.531-2.171,0.468c-1.635-0.144-2.656-1.6-2.553-3.211
		c0.125-1.958,0.155-3.923-0.146-6.021c-0.551,1.523-0.947,3.126-1.685,4.552c-1.398,2.703-2.948,5.333-4.561,7.914
		c-0.201,0.322-1.181,0.286-1.774,0.212c-2.372-0.298-3.455-2.063-2.74-4.306c0.137-0.428,0.157-0.894,0.188-1.081
		c-1.68,0.011-3.235,0.36-4.553-0.05c-1.962-0.611-2.891-2.463-3.577-4.327c-0.871-2.367-1.783-4.722-2.544-7.124
		c-0.534-1.683-0.866-3.432-1.251-5.16c-0.559-2.511-1.128-5.02-1.614-7.546c-0.522-2.715-0.764-5.498-1.468-8.161
		c-1.031-3.899-0.736-7.861-1.002-11.797c-0.101-1.501-0.404-2.992-0.452-4.493c-0.035-1.088,0.2-2.185,0.31-3.237
		c-1.148-0.324-2.189-0.675-3.255-0.902c-1.011-0.215-2.367,0.957-2.76,2.432c-1.068,4.013-1.44,8.089-1.091,12.24
		c0.195,2.313,0.162,4.647,0.382,6.957c0.159,1.667,0.579,3.307,0.855,4.964c0.258,1.551,0.479,3.108,0.713,4.663
		c0.132,0.88,0.35,1.76,0.362,2.642c0.013,0.969-0.138,1.944-0.269,2.91c-0.147,1.088-0.239,2.203-0.56,3.242
		c-0.381,1.234-0.753,2.591-1.549,3.545c-0.865,1.037-2.131,0.992-3.61,0.574c-3.225-0.911-5.212-2.785-6.18-5.935
		c-0.303-0.985-0.93-1.866-1.296-2.838c-0.83-2.204-1.57-4.442-2.394-6.649c-0.151-0.404-0.524-0.724-1.124-1.522
		c-0.526,1.913-1.041,3.385-1.322,4.9c-0.458,2.47-0.887,4.959-1.096,7.459c-0.198,2.373-0.29,4.787-0.083,7.153
		c0.279,3.185-0.603,6.078-1.754,8.918c-0.579,1.43-1.448,2.758-2.29,4.064c-0.804,1.245-1.793,0.04-2.686,0.013
		c-0.579-0.018-1.276-0.36-1.675-0.786c-0.351-0.374-0.525-1.078-0.492-1.619c0.113-1.837,0.337-3.667,0.549-5.497
		c0.123-1.061,0.361-2.11,0.448-3.172c0.095-1.153,0.379-2.422,0.019-3.443c-0.335-0.949-0.408-1.695-0.219-2.651
		c0.192-0.971,0.058-2.009,0.047-3.018c-0.008-0.709-0.074-1.418-0.069-2.127c0.015-2.552,0.005-5.105,0.095-7.654
		c0.048-1.368,0.372-2.728,0.41-4.095c0.052-1.901-0.056-3.806-0.08-5.71c-0.045-3.602-0.024-7.205-0.133-10.805
		c-0.107-3.534-0.249-7.071-0.548-10.593c-0.213-2.505-0.787-4.978-1.026-7.482c-0.049-0.509,0.588-1.197,1.069-1.621
		c1.179-1.038,2.402-2.07,4.162-1.86c2.141,0.255,3.266,2.264,2.819,4.377c-0.371,1.751-0.302,3.602-0.353,5.411
		c-0.063,2.23-0.053,4.463-0.065,6.695c-0.012,2.335-0.015,4.67-0.017,7.006c-0.002,2.68,0.001,5.36,0.014,8.041
		c0,0.077,0.139,0.154,0.321,0.344c2.27-1.345,4.566-2.704,7.181-4.253c2.006,1.026,2.707,3.386,3.442,5.712
		c0.453,1.432,0.859,2.879,1.286,4.319c0.157-0.013,0.314-0.026,0.471-0.039c0.018-1.006,0.045-2.012,0.054-3.019
		c0.037-4.404-0.232-8.837,0.191-13.204c0.392-4.051,0.953-8.228,3.985-11.454c1.478-1.573,5.603-2.854,6.952-1.931
		c0.937,0.641,1.629,1.64,2.694,2.755c1.629-4.259,4.46-7.166,8.575-8.821C156.214,37.804,159.916,39.102,163.511,42.103z
		 M164.25,58.492c-0.425-1.765-0.817-3.443-1.239-5.114c-0.113-0.447-0.237-0.924-0.489-1.299c-1.155-1.723-2.269-3.485-3.563-5.1
		c-2.07-2.584-3.944-3.069-6.379-1.63c-2.825,1.67-3.507,4.79-3.634,7.823c-0.181,4.339-0.118,8.692-0.039,13.037
		c0.072,3.961,0.896,7.803,2.052,11.594c0.664,2.18,0.974,4.466,1.595,6.661c0.275,0.974,0.924,1.842,1.406,2.756
		c0.327,0.62,0.773,1.204,0.964,1.863c0.392,1.352,0.43,2.847,1.023,4.089c0.563,1.179,1.362,2.488,3.211,2.418
		c0.192-1.836,0.345-3.662,0.581-5.476c0.394-3.03,0.856-6.051,1.26-9.08c0.295-2.206,0.499-4.425,0.84-6.623
		c0.096-0.619,0.54-1.093,1.329-0.58c0.171,0.111,0.528-0.065,0.961-0.135c-0.41-0.464-0.689-0.78-1.178-1.333
		c1.344,0.273,1.9,0.73,1.691,1.892c-0.161,0.898-0.43,1.873-0.24,2.722c0.805,3.604,0.495,7.189,0.139,10.796
		c-0.072,0.731,0.191,1.496,0.363,2.679c0.437-0.658,0.694-0.88,0.74-1.139c0.848-4.781,1.738-9.556,2.456-14.357
		c0.207-1.384-0.2-2.848-0.139-4.268c0.162-3.8-0.41-7.45-1.756-11.014C165.808,58.614,165.423,57.985,164.25,58.492z
		 M178.169,62.718c0.977-1.125,1.671-1.839,2.266-2.628c0.882-1.172,1.755-2.359,2.523-3.607c1.921-3.119,3.973-6.179,5.614-9.442
		c1.977-3.932,3.607-8.04,5.327-12.097c0.276-0.652,0.274-1.437,0.329-2.165c0.052-0.684-0.139-1.417,0.037-2.057
		c0.712-2.588,0.344-5.094-0.427-7.577c-0.437-1.406-1.914-2.195-3.079-1.441c-1.686,1.091-3.45,2.236-4.736,3.739
		c-4.76,5.561-6.709,12.358-7.514,19.424c-0.602,5.286-0.545,10.648-0.752,15.977C177.741,61.281,177.944,61.729,178.169,62.718z
		 M170.487,36.667c-0.432,0.615-0.65,0.803-0.713,1.033c-0.566,2.079-1.167,4.152-1.625,6.255c-0.238,1.091-0.606,2.404-0.223,3.331
		c0.856,2.073,2.146,3.967,3.41,6.2C172.295,47.733,171.085,42.436,170.487,36.667z"/>
	<path d="M267.031,41.447c-1.261,0.393-2.532,0.753-3.779,1.185c-2.589,0.896-5.117,2.009-7.757,2.702
		c-3.593,0.944-7.263,1.602-10.909,2.338c-1.286,0.26-2.594,0.48-3.901,0.549c-1.175,0.062-1.321,0.625-1.125,1.579
		c0.4,1.942,0.743,3.896,1.167,5.833c0.413,1.885,0.74,3.81,1.38,5.62c2.428,6.864,4.951,13.695,7.481,20.522
		c0.414,1.116,1.646,1.944,1.122,3.396c-0.036,0.1,0.402,0.372,0.62,0.564c0.141-0.208,0.283-0.417,0.424-0.625
		c0.111-0.005,0.221-0.01,0.332-0.015c0.005,0.803,0.01,1.606,0.012,1.991c0.601,0.888,0.928,1.718,1.532,2.198
		c1.829,1.453,1.817,3.658,2.638,5.534c0.857,1.958,2.559,3.547,3.896,5.294c0.051,0.066,0.159,0.128,0.239,0.126
		c2.154-0.068,3.141,1.416,3.95,3.051c0.364,0.735,0.602,1.555,0.766,2.363c0.366,1.807,1.389,3.218,2.567,4.551
		c0.205,0.231,0.621,0.4,0.655,0.638c0.286,2.046,0.276,4.163,0.802,6.14c0.802,3.02-1.81,4.687-2.425,7.113
		c-0.355,1.403-2.124,2.686-3.519,2.602c-2.473-0.149-3.345-1.091-3.053-3.999c0.373-3.711-1.151-6.686-3.097-9.602
		c-1.65-2.474-3.523-4.797-4.658-7.615c-0.712-1.768-1.404-4.071-2.827-4.91c-2.618-1.543-2.702-4.208-3.933-6.333
		c-0.557-0.961-0.823-2.119-1.058-3.222c-0.088-0.414,0.286-0.927,0.515-1.584c-1.695-1.113-3.188-2.622-2.411-4.846
		c-1.061-2.006-2.04-3.803-2.946-5.636c-0.113-0.228,0.104-0.681,0.269-0.973c0.558-0.987,0.174-2.032-0.831-2.59
		c-0.455-0.253-0.913-0.756-1.074-1.244c-0.998-3.024-2.214-6.027-2.719-9.141c-0.23-1.42-0.133-2.912-0.683-4.339
		c-1.247-3.239-2.42-6.507-3.62-9.753c-1.932,0.351-2.294,0.972-2.123,2.824c0.325,3.512,0.685,7.034,0.744,10.556
		c0.117,6.903,0.073,13.808-0.799,20.681c-0.158,1.242,0.165,2.538,0.091,3.798c-0.071,1.202-0.478,2.385-0.548,3.587
		c-0.199,3.408-0.254,6.825-0.458,10.233c-0.127,2.109-0.176,4.274-0.717,6.291c-0.516,1.924-1.569,3.718-2.498,5.511
		c-0.361,0.697-0.982,1.288-1.578,1.823c-0.266,0.239-0.778,0.346-1.152,0.299c-1.859-0.235-3.114-1.688-3.611-3.582
		c-0.602-2.292-1.457-4.516-2.171-6.779c-1.266-4.011-2.602-8.004-3.726-12.055c-0.726-2.618-1.08-5.337-1.699-7.987
		c-0.184-0.788-0.882-1.462-1.035-2.249c-0.862-4.411-1.817-8.819-2.337-13.274c-0.21-1.801,0.458-3.762,0.982-5.576
		c0.625-2.162,1.292-4.373,2.37-6.325c1.078-1.951,2.536-3.756,4.107-5.351c1.392-1.414,3.181-2.432,4.761-3.669
		c0.395-0.309,0.826-0.738,0.957-1.194c0.632-2.191,2.834-4.151,5.022-4.014c2.282,0.143,4.294-0.533,6.442-1.139
		c3.263-0.921,6.694-1.425,10.085-1.673c6.245-0.456,12.217-2.057,18.171-3.792c2.904-0.846,5.725-1.995,8.652-2.737
		c1.861-0.472,3.845-0.561,5.779-0.603c1.007-0.022,1.576,0.931,1.222,1.836c-1.257,3.213-2.825,6.196-6.332,7.601
		c-0.911,0.365-1.659,1.131-2.49,1.701c-0.233,0.16-0.505,0.411-0.739,0.391c-0.627-0.054-1.244-0.232-1.865-0.36
		c0.355-0.488,0.699-0.984,1.066-1.463c0.564-0.737,1.143-1.462,1.716-2.193C267.253,41.834,267.142,41.641,267.031,41.447z
		 M220.812,101.197c0.181,0.005,0.361,0.011,0.542,0.016c0.158-0.642,0.399-1.277,0.459-1.928c0.167-1.796,0.24-3.601,0.385-5.4
		c0.158-1.955,0.426-3.903,0.515-5.861c0.107-2.364,0.032-4.736,0.122-7.102c0.056-1.459,0.35-2.909,0.397-4.367
		c0.059-1.847-0.061-3.7-0.034-5.549c0.021-1.495,0.257-2.994,0.19-4.481c-0.059-1.297-0.49-2.572-0.613-3.871
		c-0.219-2.306-0.33-4.623-0.507-7.236c-0.773,0.358-1.161,0.433-1.4,0.664c-3.172,3.063-5.666,6.602-6.326,11.024
		c-0.413,2.767-0.251,5.625-0.255,8.442c-0.001,0.512,0.426,1.034,0.687,1.535c0.281,0.539,0.756,1.031,0.859,1.596
		c0.115,0.63-0.239,1.342-0.136,1.977c0.495,3.053,1.054,6.097,1.635,9.136c0.315,1.647,1.266,3.391,0.952,4.886
		c-0.447,2.131,0.693,3.684,0.79,5.767c0.477-0.54,0.739-0.836,0.938-1.062C220.285,99.999,220.548,100.598,220.812,101.197z"/>
	<path d="M64.076,77.262c0.035,0.249,0.018,0.63,0.148,0.951c0.269,0.662,1.047,1.526,0.849,1.89c-0.51,0.936-1.3,1.939-2.231,2.372
		c-1.296,0.603-2.815,0.937-4.25,0.98c-2.409,0.073-4.804-0.19-6.983-1.484c-0.939-0.558-1.276-0.064-1.242,0.991
		c0.106,3.228,0.152,6.459,0.144,9.688c-0.005,1.982-0.726,3.716-2.291,4.993c-0.373,0.304-0.929,0.534-1.402,0.536
		c-1.641,0.006-3.315-1.495-3.222-3.07c0.121-2.052,0.604-4.081,0.759-6.134c0.152-2.02,0.101-4.055,0.112-6.084
		c0.003-0.461-0.312-1.037-0.13-1.364c1.3-2.332,0.247-4.755,0.369-7.124c0.063-1.218,0.05-2.444-0.014-3.662
		c-0.19-3.615-0.342-7.234-0.665-10.838c-0.237-2.647-0.718-5.272-1.143-8.278c-3.398,2.022-6.72,2.507-10.114,1.483
		c-0.294,4.228-0.592,8.265-0.85,12.304c-0.311,4.857-0.739,9.714-0.816,14.576c-0.039,2.438-0.139,4.738-1.402,6.881
		c-0.919,1.559-1.825,1.813-3.373,0.893c-0.528-0.314-1.09-0.572-1.688-0.881c0.327-5.39-2.27-10.299-3.333-15.534
		c-0.313-1.543-0.583-3.095-0.906-4.637c-0.096-0.456-0.233-0.937-0.488-1.314c-0.163-0.24-0.59-0.433-0.877-0.407
		c-0.166,0.015-0.394,0.496-0.417,0.782c-0.221,2.697-0.536,5.397-0.564,8.098c-0.035,3.381,0.15,6.766,0.291,10.147
		c0.048,1.157-1.186,2.688-2.357,2.459c-1.314-0.257-2.597-0.806-3.797-1.415c-0.302-0.153-0.36-1.033-0.324-1.565
		c0.23-3.381,0.438-6.768,0.811-10.135c0.316-2.852,0.844-5.681,1.286-8.519c0.041-0.26,0.173-0.507,0.21-0.768
		c0.438-3.076,0.98-6.143,1.26-9.233c0.21-2.319,0.022-4.672,0.12-7.005c0.066-1.565,0.324-3.122,0.499-4.683
		c0.012-0.105,0.019-0.251,0.087-0.304c3.261-2.556,2.748-6.711,4.103-10.059c1.133-2.8,2.311-4.975,5.232-6.208
		c2.508-1.058,4.736-0.421,5.554,2.383c1.382,4.738,2.053,9.578,1.87,14.519c-0.099,2.672,1.443,4.376,4.108,4.451
		c1.186,0.034,2.489-1.134,2.51-2.574c0.044-3.013-0.097-6.028-0.129-9.042c-0.005-0.49-0.013-1.158,0.276-1.442
		c1.394-1.369,2.937-2.462,5.033-2.597c1.166-0.075,2.521-0.196,3.423-0.825c2.146-1.497,4.499-1.613,6.917-1.624
		c1.541-0.007,3.088,0.196,4.624,0.124c1.679-0.078,3.78,3.183,3.733,5.218c-0.111,4.785-2.242,8.742-4.752,12.603
		c-0.739,1.136-1.188,2.457-1.851,3.648c-0.556,0.998-1.356,1.874-1.817,2.907c-0.51,1.141-0.761,2.397-1.118,3.605
		c-1.199,4.056-1.255,8.221-0.912,12.368c0.246,2.976,3.763,6.159,6.748,6.497C61.129,76.964,62.564,77.104,64.076,77.262z
		 M25.667,69.734c0.2-0.051,0.399-0.101,0.599-0.152c0.219-2.094,0.552-4.184,0.631-6.283c0.121-3.231,0.113-6.469,0.065-9.703
		c-0.018-1.244,0.097-2.763-0.542-3.667c-1.169-1.654-2.854-2.944-4.479-4.538c-1.261,4.509-0.003,8.507,0.664,12.529
		C23.274,61.956,24.23,65.919,25.667,69.734z M55.698,37.856c-0.637-0.272-1.125-0.667-1.591-0.642
		c-1.227,0.065-3.141-0.101-3.535,0.564c-1.218,2.054-3.185,3.886-2.552,6.809c0.567,2.617,0.635,5.342,0.923,8.02
		c0.218,0.045,0.436,0.09,0.654,0.136C52.131,48.056,54.85,43.45,55.698,37.856z M25.574,34.805
		c-0.297,0.007-0.595,0.015-0.892,0.022c-0.234,1.349-0.612,2.698-0.611,4.047c0,0.397,1.049,0.846,1.678,1.139
		c0.102,0.047,0.8-0.642,0.756-0.917C26.277,37.653,25.899,36.233,25.574,34.805z"/>
	<path d="M80.556,38.602c0.899,4.461,1.903,8.452,2.468,12.504c0.64,4.585,0.936,9.221,1.288,13.843
		c0.298,3.916,0.595,7.84,0.649,11.764c0.058,4.203-0.307,8.413-0.213,12.614c0.049,2.191-0.54,4.026-1.751,5.726
		c-0.24,0.337-0.837,0.615-1.255,0.597c-2.686-0.112-3.95-1.492-3.764-4.101c0.131-1.835,0.502-3.661,0.537-5.495
		c0.078-4.191,0.079-8.386-0.011-12.577c-0.074-3.428-0.281-6.855-0.511-10.278c-0.166-2.464-0.326-4.944-0.742-7.373
		c-0.549-3.205-1.286-6.382-2.06-9.542c-0.473-1.93-1.149-3.813-1.784-5.7c-0.107-0.317-0.47-0.549-0.786-0.899
		c-0.248,0.222-0.578,0.373-0.598,0.558c-0.304,2.804-1.099,5.686-0.724,8.405c0.673,4.877,2.054,9.657,3.141,14.477
		c0.692,3.067,1.52,6.138-0.57,9.244c-1.36-1.722-3.03-3.25-3.933-5.145c-0.903-1.894-1.043-4.154-1.512-6.254
		c-0.651-2.921-1.421-5.823-1.91-8.771c-0.491-2.955-0.673-5.96-1.04-8.937c-0.266-2.16-0.084-4.237,0.968-6.169
		c0.321-0.589,0.688-1.264,1.223-1.605c2.261-1.442,4.578-2.8,6.916-4.115c0.36-0.202,0.943,0.033,1.413-0.02
		c1.177-0.133,2.348-0.422,3.523-0.431c0.527-0.004,1.537-0.985,1.742,0.555c0.035,0.262,0.993,0.433,1.541,0.59
		c3.828,1.095,7.705,0.781,11.607,0.525c2.377-0.156,4.786,0.007,7.164,0.22c0.437,0.039,1.185,1.086,1.095,1.524
		c-0.155,0.75-0.741,1.83-1.353,1.993c-2.684,0.716-5.424,1.307-8.18,1.65c-3.03,0.378-6.098,0.454-9.152,0.621
		C82.851,38.66,81.715,38.604,80.556,38.602z"/>
	<path d="M302.795,26.417c-0.413,1.821-0.819,3.643-1.248,5.459c-0.046,0.193-0.195,0.47-0.35,0.512
		c-3.58,0.97-3.431,4.501-4.776,6.984c-0.685,1.265-1.14,2.654-1.726,4.051c0.733,0.077,1.43,0.274,2.095,0.198
		c3.063-0.35,4.886,1.799,3.875,4.739c-1.179,3.426-2.36,6.857-3.737,10.205c-0.566,1.376-1.551,2.621-2.521,3.779
		c-0.967,1.155-2.348,0.849-3.581,0.456c-0.273-0.087-0.584-0.818-0.496-1.151c0.661-2.491,1.463-4.944,2.129-7.434
		c0.454-1.698,0.76-3.436,1.132-5.155c-0.186-0.098-0.372-0.197-0.557-0.295c-0.475,0.703-0.922,1.426-1.431,2.103
		c-0.798,1.062-1.559,2.171-2.482,3.118c-1.071,1.098-2.039,0.353-3.013-0.368c-1.149-0.85-0.992-1.656-0.324-2.76
		c2.378-3.926,4.631-7.905,5.24-12.592c0.231-1.776,0.773-3.513,1.181-5.265c0.604-2.59,2.656-3.805,4.794-4.832
		c1.056-0.507,2.299-0.611,3.426-0.99c0.632-0.212,1.2-0.615,1.796-0.931C302.413,26.303,302.604,26.36,302.795,26.417z"/>
	<path d="M11.386,12.67c-0.217,3.646-0.214,7.323-0.714,10.931c-0.494,3.566-1.497,7.061-2.272,10.568
		c-3.975-0.543-6.537-1.887-6.712-6.386c-0.162-4.154-0.611-8.298-0.969-12.443C0.494,12.726,0.007,10.119,0,7.508
		C-0.007,5.156,2.119,3.38,4.388,3.491c0.354,0.017,0.898,0.493,0.982,0.845c0.241,1.013,0.422,2.075,0.39,3.111
		c-0.081,2.571-0.419,5.138-0.42,7.707c-0.002,2.738,0.245,5.477,0.434,8.211c0.024,0.344,0.362,0.667,0.555,0.999
		c0.2-0.304,0.485-0.582,0.587-0.916c0.6-1.958,1.111-3.944,1.754-5.887c0.209-0.633,0.725-1.165,1.1-1.743
		c0.14-0.215,0.324-0.414,0.411-0.648c0.324-0.871,0.615-1.754,0.919-2.633C11.194,12.582,11.29,12.626,11.386,12.67z"/>
	<path d="M21.328,22.06c-3.123-0.365-6.301-3.254-7.079-5.69c-1.151-3.602-2.496-7.141-3.688-10.73
		c-0.405-1.218-0.898-2.528-0.809-3.757C9.86,0.391,11.185,0.007,12.597,0c1.551-0.008,2.971,0.445,3.448,1.929
		c1.343,4.185,2.5,8.43,3.685,12.663c0.305,1.089,0.577,2.042,2.006,2.025c0.334-0.004,0.953,0.418,0.963,0.665
		c0.057,1.335,0.099,2.703-0.152,4.001C22.466,21.71,21.492,21.964,21.328,22.06z"/>
	<path d="M163.134,64.686c0.11-1.054,0.194-1.852,0.28-2.678C164.808,62.619,164.769,63.371,163.134,64.686z"/>
</g>
<g id="Layer_1">
</g>
</svg>
