<?xml version="1.0" encoding="iso-8859-1"?>
<!-- Generator: Adobe Illustrator 27.9.0, SVG Export Plug-In . SVG Version: 6.00 Build 0)  -->
<svg version="1.1" xmlns="http://www.w3.org/2000/svg" xmlns:xlink="http://www.w3.org/1999/xlink" x="0px" y="0px"
	 viewBox="0 0 315.423 56.943" style="enable-background:new 0 0 315.423 56.943;" xml:space="preserve">
<g id="Layer_18">
	<path d="M73.408,36.842c0.079,1.337,0.226,2.616,0.211,3.894c-0.017,1.448-0.792,2.485-1.872,3.464
		c-0.95,0.861-1.671,2.015-2.342,3.13c-0.708,1.178-1.439,1.309-2.105,0.141c-1.325-2.323-2.522-4.718-3.77-7.085
		c-0.074-0.14-0.113-0.301-0.196-0.435c-0.659-1.059-1.212-2.87-2.014-2.988c-1.142-0.168-2.48,0.881-3.71,1.461
		c-0.566,0.267-1.033,0.803-1.616,0.968c-3.413,0.967-2.878,1.912-3.137,4.819c-0.122,1.372-0.292,2.869-0.936,4.037
		c-1.01,1.831-2.407,3.456-3.717,5.108c-0.262,0.33-0.868,0.387-1.545,0.663c-0.246-3.913-0.475-7.538-0.709-11.262
		c-1.119-0.72-2.257-0.603-3.542,0.053c-0.717,0.366-1.682,0.33-2.536,0.33c-1.974,0.001-3.954-0.009-5.919-0.163
		c-1.404-0.11-2.426-0.079-3.282,1.421c-1.925,3.374-4.081,6.621-6.248,9.849c-0.929,1.383-1.884,1.162-2.502-0.34
		c-0.733-1.782,0.721-6.488,2.545-7.313c0.226-0.102,0.393-0.42,0.507-0.673c0.322-0.714,0.698-1.425,0.874-2.178
		c0.207-0.885,0.465-1.865,0.283-2.715c-0.561-2.626-0.634-5.122,0.919-7.468c0.593-0.895,0.92-2.122,1.726-2.675
		c0.845-0.58,2.129-0.496,3.202-0.776c0.454-0.119,0.991-0.32,1.265-0.664c2.025-2.537,3.969-5.139,5.989-7.68
		c1.408-1.771,4.164-2.67,5.842-1.899c2.929,1.345,4.779,3.643,5.64,6.734c0.446,1.601,0.837,3.216,1.206,4.64
		c0.882-0.195,1.515-0.408,2.161-0.459c0.935-0.075,1.91,0.111,2.812-0.08c0.88-0.187,1.593-0.913,1.355-1.889
		c-0.934-3.832,0.048-7.391,1.287-10.964c1.009-2.908,2.958-4.696,5.958-5.134c3.324-0.486,6.689-1.112,10.019-1.021
		c3.844,0.105,7.738,0.651,11.469,1.575c1.494,0.37,3.702,0.154,4.535,2.111c0.329,0.774,0.67,1.94,0.326,2.536
		c-1.83,3.172-3.915,6.186-7.368,7.861c-0.459,0.222-0.985,0.306-1.479,0.453c-0.036,0.15-0.073,0.3-0.109,0.45
		c1.501,0.435,2.993,0.904,4.505,1.298c2.557,0.666,5.119,1.321,7.695,1.907c1.084,0.247,1.452,0.035,1.447-1.411
		c-0.008-2.488,0.358-5.069,1.137-7.422c0.299-0.904,2.155-1.297,3.313-1.902c0.121-0.063,0.319,0.038,0.478,0.026
		c4.348-0.344,4.409-0.339,4.83-4.688c0.283-2.922,1.265-5.555,2.821-7.997c0.692-1.085,3.801-1.556,5.315-0.871
		c1.04,0.471,1.878,2.286,1.496,3.589c-0.198,0.675-0.948,1.216-1.063,1.883c-0.319,1.855-0.435,3.745-0.638,5.689
		c1.865,1.226,3.803,0.268,5.636,0.097c3.023-0.281,5.997-1.119,9.02-1.351c2.143-0.165,4.07-0.892,6.099-1.347
		c1.083-0.243,2.711-0.06,3.457,0.625c1.482,1.36,1.236,2.095-1.201,3.782c-2.378,1.647-5.104,2.822-7.362,4.603
		c-3.046,2.404-6.792,2.7-10.201,3.986c-1.002,0.378-2.184,0.277-3.284,0.402c-0.8,0.091-1.281,0.502-1.185,1.35
		c0.26,2.293,0.604,4.577,0.811,6.874c0.241,2.672,0.835,5.43,0.413,8.009c-0.387,2.37-2.084,4.446-4.284,5.79
		c-0.814,0.497-2.363-0.759-2.784-2.04c-0.54-1.643-0.608-3.263-0.565-5.006c0.04-1.598-0.793-3.24-1.392-4.805
		c-0.093-0.243-1.242-0.434-1.481-0.207c-1.018,0.97-1.904,2.085-2.789,3.187c-1.405,1.752-3.185,1.19-4.918,0.832
		c-2.818-0.583-5.611-1.303-8.444-1.794c-2.168-0.376-4.402-0.374-6.57-0.752c-1.856-0.324-3.65-0.994-5.491-1.423
		C76.365,37.28,74.993,37.113,73.408,36.842z M43.467,32.83c-1.437-3.215-2.492-3.448-5.846-1.366
		C39.687,31.947,41.398,32.347,43.467,32.83z"/>
	<path d="M240.704,45.223c-2.738-2.596-1.357-6.051-1.603-9.206c-0.06-0.762,2.571-2.575,3.533-2.732
		c0.646-0.105,1.292-0.365,1.874-0.675c1.274-0.677,2.515-1.418,3.755-2.156c0.619-0.368,1.25-0.74,1.773-1.222
		c0.104-0.096-0.176-0.947-0.422-1.03c-2.646-0.895-5.259-1.929-8.171-1.634c-1.111,0.113-2.267-0.112-3.391-0.269
		c-0.989-0.138-1.427,0.247-1.426,1.207c0.004,2.335,0.02,4.67,0.018,7.004c-0.002,2.865,0.161,5.747-0.114,8.587
		c-0.109,1.124-1.07,2.268-1.88,3.196c-0.991,1.137-2.17,2.137-3.381,3.045c-0.916,0.687-1.641,0.116-2.011-0.799
		c-1.064-2.627-2.065-5.279-3.134-7.904c-0.195-0.479-0.594-0.875-0.971-1.411c-1.221,1.828-2.129,3.808-3.587,5.218
		c-1.904,1.841-3.239,4.317-5.833,5.444c-1.568,0.681-2.848,0.082-3.419-1.558c-1.452-4.175-0.712-8.178,0.724-12.172
		c0.361-1.004,1.128-2.124,0.003-3.094c-0.529-0.456-1.263-0.674-2.235-1.167c-0.194,1.855-0.642,3.37-0.435,4.789
		c0.332,2.269-0.947,3.688-2.197,5.104c-1.108,1.254-2.477,2.281-3.753,3.383c-0.669,0.577-1.253,0.401-1.439-0.435
		c-0.395-1.771-1.198-3.642-0.933-5.331c0.635-4.048,1.629-8.063,2.806-11.992c0.55-1.838,1.568-3.731,2.889-5.102
		c2.279-2.364,6.212-2.499,8.988-0.836c1.253,0.75,2.543,1.575,4.003,0.41c0.236-0.188,0.506-0.413,0.605-0.679
		c1.024-2.748,2.862-4.97,4.705-7.164c0.867-1.033,1.826-1.984,3.406-2.141c2.101-0.209,4.725,0.942,5.797,2.756
		c0.933,1.581,2.643,0.986,3.907,0.952c3.863-0.105,7.593,0.398,11.359,1.214c3.8,0.823,7.216,2.323,10.155,4.778
		c1.048,0.875,1.918,2.227,2.307,3.529c0.234,0.782-0.497,1.96-1.008,2.835c-1.175,2.011-2.46,3.882-4.646,5.086
		c-1.202,0.662-2.023,2.015-3.017,3.059c0.763,1.021,2.646,1.348,4.038,0.684c0.893-0.426,1.851-0.765,2.643-1.334
		c0.384-0.276,0.541-0.973,0.649-1.51c0.486-2.417,0.717-5.096,3.133-6.381c2.653-1.411,3.251-3.218,2.454-5.997
		c-0.604-2.105-0.772-4.339-1.08-6.523c-0.068-0.484,0.009-1.027,0.164-1.495c0.64-1.931,1.337-3.843,2.002-5.732
		c4.377,0.409,6.338,2.377,6.747,6.414c0.228,2.25,0.194,4.525,0.312,6.787c0.102,1.957,1.128,2.753,2.993,2.2
		c2.28-0.676,4.531-0.258,6.679,0.31c1.22,0.323,2.385,1.318,3.274,2.286c0.845,0.92,0.35,1.972-0.573,2.769
		c-1.172,1.012-2.316,2.057-3.465,3.095c-0.763,0.69-0.722,1.524-0.145,2.228c1.746,2.13,3.454,4.31,5.393,6.254
		c1.118,1.121,2.713,1.748,3.987,2.736c1.178,0.913,2.231,1.992,3.295,3.043c0.147,0.145,0.131,0.582,0.035,0.823
		c-0.226,0.568-0.546,1.098-0.719,1.433c-1.646,0.738-3.143,1.596-4.754,2.066c-1.044,0.304-2.26,0.107-3.386,0.001
		c-0.487-0.046-0.97-0.388-1.408-0.668c-1.969-1.26-4.084-2.36-5.833-3.878c-1.596-1.385-2.791-3.232-4.162-4.877
		c-0.322-0.387-0.638-0.78-1.161-1.15c0.271,4.294-1.875,7.144-5.582,9.399c-1.857-0.004-1.857-0.004-1.85-1.889
		c-0.139,0.072-0.278,0.144-0.417,0.216c-0.32-0.622-0.645-1.241-0.953-1.869c-0.042-0.085,0.027-0.218,0.003-0.319
		c-0.125-0.527-3.59-2.164-4.017-1.834c-1.223,0.945-2.386,1.968-3.585,2.946c-0.18,0.147-0.414,0.292-0.635,0.312
		c-2.829,0.258-5.682,0.82-8.485,0.638c-2.548-0.165-5.042-1.148-7.563-1.759C241.863,45.415,241.377,45.348,240.704,45.223z"/>
	<path d="M169.73,37.334c-0.686,1.095-1.495,2.134-2.035,3.297c-1.883,4.057-4.422,7.657-7.458,10.907
		c-1.33,1.424-2.729,2.813-4.26,4.008c-1.396,1.09-2.984,1.893-4.903,1.037c-0.773-0.345-1.695-0.345-2.481-0.669
		c-2.419-0.997-2.516-3.362-2.923-5.428c-0.78-3.971-1.446-7.968-2.042-11.972c-0.409-2.749-0.954-5.545-0.816-8.288
		c0.111-2.187,1.162-4.326,1.807-6.522c1.058,0.111,1.856,0.202,2.656,0.277c2.923,0.273,3.098,1.125,3.439,3.652
		c0.598,4.431,0.773,8.919,1.335,13.356c0.151,1.194,0.826,2.516,1.668,3.383c1.416,1.459,2.887,0.93,4.323-0.627
		c2.805-3.041,4.592-6.714,6.764-10.151c1.54-2.438,3.16-4.827,4.74-7.241c0.112-0.172,0.24-0.359,0.273-0.553
		c0.253-1.507,0.579-2.83,2.071-3.814c0.903-0.596,1.234-2.016,1.915-3.002c1.224-1.77,2.999-1.989,5.002-0.93
		c1.236,0.654,1.495,2.44,0.584,3.557c-0.394,0.483-0.682,1.059-1.105,1.511c-1.666,1.783-1.225,3.705-0.488,5.692
		c0.8,2.157,1.39,4.406,2.348,6.488c1.294,2.813,1.407,2.761,4.181,3.798c0.347-0.478,0.577-1.039,0.994-1.328
		c3.076-2.129,3.457-5.613,4.269-8.779c0.596-2.323,0.559-4.807,0.827-7.216c0.39-3.507,1.822-6.593,3.776-9.452
		c0.693,0.188,1.332,0.281,1.9,0.532c1.119,0.494,1.96,1.15,1.818,2.636c-0.28,2.929-0.25,5.896-0.667,8.801
		c-0.472,3.29-1.264,6.536-1.973,9.789c-0.718,3.295-2.333,6.188-4.499,8.702c-1.912,2.219-3.949,4.389-6.225,6.215
		c-1.664,1.335-3.823,1.449-5.986,0.71c-2.962-1.012-4.687-3.452-5.896-5.897c-0.993-2.007-1.981-4.152-2.463-6.433
		C170.045,37.365,169.887,37.35,169.73,37.334z"/>
	<path d="M304.343,0.226c1.43-0.415,2.462-0.346,3.702,0.958c2.097,2.204,2.328,2.141,1.278,5.138
		c-0.218,0.624-0.334,1.283-0.553,2.15c0.829-0.254,1.368-0.531,1.92-0.56c0.629-0.033,1.337,0.015,1.886,0.283
		c0.686,0.335,1.244,0.932,1.86,1.413c1.289,1.005,1.312,2.727,0.091,3.892c-1.488,1.42-3.474,2.626-4.288,4.371
		c-1.197,2.564-4.43,2.552-5.43,5.066c-0.056,0.14-0.471,0.142-0.721,0.2c-0.597,0.139-1.28,0.134-1.777,0.436
		c-1.605,0.973-2.462,0.65-2.843-1.188c-0.651-3.14,0.304-6.053,1.202-8.993c0.569-1.862,0.948-3.782,1.449-5.666
		c0.483-1.817,1.004-3.624,1.528-5.43C303.851,1.596,304.111,0.912,304.343,0.226z"/>
	<path d="M20.91,19.939c-0.329,2.685-2.038,3.557-3.382,4.631c-0.256,0.205-1.602-0.355-1.863-0.861
		c-0.937-1.821-1.632-3.768-2.403-5.673c-0.771-1.906,0.424-5.953,2.159-6.731c1.188-0.533,2.404,0.283,2.82,1.243
		C19.36,15.126,20.172,17.837,20.91,19.939z"/>
	<path d="M4.684,30.091c-0.663-0.484-1.261-0.979-1.914-1.386c-2.428-1.514-3.391-6.748-2.363-8.616
		c0.399-0.725,1.142-1.63,1.826-1.721c0.649-0.086,1.546,0.667,2.121,1.258c1.324,1.36,2.347,3.063,3.815,4.217
		c1.351,1.062,1.088,1.835,0.267,2.859c-0.725,0.905-1.441,1.826-2.248,2.655C5.862,29.691,5.304,29.801,4.684,30.091z"/>
</g>
<g id="Layer_1">
</g>
</svg>
