<?xml version="1.0" encoding="iso-8859-1"?>
<!-- Generator: Adobe Illustrator 27.9.0, SVG Export Plug-In . SVG Version: 6.00 Build 0)  -->
<svg version="1.1" xmlns="http://www.w3.org/2000/svg" xmlns:xlink="http://www.w3.org/1999/xlink" x="0px" y="0px"
	 viewBox="0 0 355.051 108.337" style="enable-background:new 0 0 355.051 108.337;" xml:space="preserve">
<g id="Layer_16">
	<path d="M52.412,76.553c0.884-0.172,1.92-0.187,2.786-0.578c2.321-1.047,4.611-2.181,6.834-3.422
		c1.6-0.893,3.141-1.926,4.584-3.056c1.533-1.2,3.024-2.495,4.321-3.939c0.53-0.59,0.671-1.679,0.688-2.547
		c0.025-1.256-0.288-2.515-0.341-3.777c-0.122-2.903-0.309-5.814-0.213-8.713c0.087-2.643,0.201-5.357,0.866-7.892
		c0.844-3.221,2.091-6.367,3.471-9.406c1.211-2.666,3.7-3.006,6.407-2.848c4.142,0.242,7.632,2.149,10.243,4.969
		c3.633,3.924,6.231,8.495,6.122,14.303c-0.104,5.572-1.135,10.815-3.778,16.232c8.01,0.809,15.823,1.876,23.814,1.993
		c-0.688-4.83-1.385-9.717-2.081-14.604c-0.145-0.036-0.291-0.072-0.436-0.108c-0.572,0.769-1.002,1.753-1.754,2.249
		c-0.871,0.574-2.19,1.196-3.01,0.913c-0.814-0.28-1.41-1.596-1.799-2.577c-0.292-0.738-0.217-1.68-0.111-2.506
		c0.265-2.073,0.411-4.208,1.066-6.164c0.344-1.025,1.529-1.969,2.562-2.52c2.222-1.186,3.179-3.027,3.708-5.357
		c0.416-1.833,1.021-3.651,1.799-5.359c0.32-0.704,1.312-1.102,1.998-1.639c0.503,0.813,1.049,1.604,1.488,2.451
		c0.182,0.351,0.142,0.82,0.19,1.237c0.276,2.411,0.244,2.281,2.672,1.69c4.672-1.137,9.376-2.143,14.08-3.141
		c2.909-0.617,5.829-1.212,8.771-1.631c1.348-0.192,2.76,0.062,4.495,0.128c-0.224,1.471-0.127,3.084-0.761,4.324
		c-0.572,1.119-1.944,1.828-2.959,2.723c-0.306,0.27-0.612,0.542-0.891,0.839c-0.289,0.307-0.482,0.77-0.828,0.946
		c-2.17,1.107-4.306,2.325-6.578,3.174c-2.769,1.035-5.677,1.692-8.495,2.605c-2.418,0.784-4.784,1.725-7.19,2.547
		c-2.599,0.888-3.085,1.541-2.593,4.722c0.794,5.138,1.589,10.285,2.698,15.36c0.644,2.949,1.622,5.906,2.985,8.587
		c0.798,1.57,1.541,2.998,1.483,4.746c-0.019,0.592-0.224,1.188-0.405,1.764c-0.234,0.746-0.473,1.499-0.814,2.199
		c-0.308,0.63-0.648,1.512-1.174,1.689c-0.477,0.161-1.526-0.307-1.8-0.793c-1.186-2.102-2.355-4.247-3.198-6.501
		c-0.972-2.599-1.593-5.328-2.753-8.069c-0.185,0.625-0.389,1.245-0.551,1.876c-0.408,1.581-0.685,3.206-1.227,4.739
		c-0.477,1.347-1.673,1.341-2.945,1.21c-3.158-0.326-6.327-0.559-9.496-0.767c-2.835-0.186-5.685-0.196-8.513-0.449
		c-4.417-0.395-8.821-0.928-13.23-1.408c-0.48-0.052-0.977-0.071-1.431-0.217c-2.021-0.646-2.854-0.056-2.697,1.991
		c0.129,1.683,0.337,3.361,0.446,5.046c0.174,2.688,0.294,5.379,0.438,8.069c0.079,1.476,0.264,2.955,0.216,4.427
		c-0.064,1.946-0.112,3.943-1.309,5.624c-0.248,0.348-0.99,0.804-1.115,0.707c-0.81-0.627-1.966-1.288-2.164-2.135
		c-0.545-2.342-0.791-4.773-0.945-7.182c-0.277-4.34-0.402-8.689-0.587-13.034c-0.067-1.583-0.11-3.167-0.2-4.748
		c-0.017-0.288-0.212-0.567-0.464-1.196c-1.191,1.004-2.29,1.831-3.272,2.78c-2.55,2.463-5.08,4.902-8.306,6.546
		c-2.104,1.072-4.065,2.448-5.993,3.822c-0.466,0.332-0.71,1.181-0.772,1.82c-0.079,0.823-0.107,1.799,0.257,2.489
		c1.062,2.008-0.02,4.022,0.193,6.039c0.197,1.864-0.628,3.749-1.893,5.26c-0.61,0.728-1.183,0.984-2.003-0.066
		c-0.673-0.862-1.775-1.651-2.825-1.908c-3.834-0.938-6.469-3.641-9.335-6.003c-0.786-0.648-1.952-0.937-2.22-2.22
		c-0.058-0.276-0.966-0.375-1.483-0.555c-0.127,0.473-0.429,0.978-0.352,1.415c0.512,2.892,1.263,5.751,1.614,8.659
		c0.22,1.828,0.408,3.79-1.247,5.357c-0.813,0.77-1.251,0.706-1.976,0.044c-2.219-2.026-2.572-4.783-2.779-7.49
		c-0.322-4.21-0.589-8.444-0.491-12.659c0.076-3.253,0.755-6.49,1.154-9.736c0.157-1.284,0.24-2.578,0.425-3.858
		c0.715-4.925,1.34-9.868,2.244-14.758c0.407-2.202,1.346-4.314,2.128-6.436c0.602-1.634,2.049-2.796,3.576-2.683
		c1.775,0.131,3.544,0.868,4.669,2.722c3.221,5.311,5.067,11.125,6.622,17.065C51.284,72.07,51.802,74.156,52.412,76.553z
		 M75.677,54.866c0.66-1.002,1.139-1.81,1.697-2.558c1.131-1.517,2.509-1.435,3.109,0.339c0.513,1.516,0.755,3.172,0.821,4.778
		c0.061,1.499-0.298,3.011-0.415,4.522c-0.096,1.246,0.915,2.039,1.877,1.465c2.862-1.708,5.649-3.523,7.873-6.067
		c3.009-3.441,2.952-7.413-0.146-10.732c-1.84-1.972-3.884-3.599-6.455-4.586c-2.851-1.095-5.169-0.699-6.346,2.155
		c-1.25,3.033-1.674,6.409-2.419,9.644C75.22,54.068,75.481,54.382,75.677,54.866z M36.124,74.133
		c-0.034,2.525-0.059,2.658,2.35,3.107c2.225,0.415,4.509,0.521,6.77,0.732c1.633,0.153,2.159-0.516,1.672-2.078
		c-0.643-2.062-1.219-4.148-1.967-6.172c-0.852-2.306-1.766-4.602-2.867-6.795c-0.289-0.575-1.357-0.966-2.097-1.016
		c-0.361-0.024-0.996,0.873-1.151,1.448C37.874,66.935,37.016,70.538,36.124,74.133z"/>
	<path d="M192.355,44.023c0.606-1.291,1.494-2.395,1.609-3.574c0.362-3.696,3.104-5.245,5.786-6.806
		c2.915-1.696,6.065-1.406,9.206-0.608c1.04,0.264,2.102,0.442,2.787,0.583c1.341-2.251,2.537-4.255,3.727-6.263
		c0.188-0.317,0.351-0.648,0.514-0.978c0.825-1.672,1.446-3.491,2.524-4.979c1.133-1.563,2.572-2.981,4.112-4.154
		c2.442-1.861,5.653-0.972,7.164,1.753c0.513,0.925,1.011,1.861,1.567,2.76c0.163,0.263,0.498,0.565,0.762,0.573
		c0.205,0.006,0.499-0.384,0.621-0.657c1.02-2.288,1.653-4.854,3.104-6.818c1.62-2.194,3.712-4.353,6.088-5.576
		c1.991-1.025,4.516-0.221,6.469,1.477c1.811,1.575,2.12,3.709,2.361,5.799c0.242,2.097,0.297,4.279,0,6.361
		c-0.457,3.205-0.653,6.579-3.223,9.08c-0.408,0.397-0.653,0.962-1.012,1.507c2.276,2.532,5.437,3.532,8.506,4.406
		c4.318,1.229,8.77,1.986,13.241,2.961c1.181,3.162-0.203,6.108-0.783,9.093c-2.207-0.231-4.326-0.463-6.448-0.666
		c-0.452-0.043-0.955-0.091-1.367,0.054c-2.763,0.974-5.467,0.336-7.993-0.623c-2.821-1.071-5.385-2.823-8.206-3.892
		c-2.489-0.944-4.091-2.708-5.703-4.611c-0.39-0.46-1.016-0.72-1.792-1.249c0.229,1.887,0.48,3.492,0.609,5.107
		c0.248,3.099,0.463,6.202,0.626,9.307c0.192,3.641,0.459,7.288,0.413,10.929c-0.027,2.116-0.327,4.324-1.038,6.299
		c-0.419,1.166-1.88,1.957-2.907,2.951c-2.442-3.256-2.996-6.681-3.343-10.16c-0.298-2.991-0.63-5.984-0.77-8.985
		c-0.157-3.383-0.354-6.793-0.108-10.161c0.387-5.285-0.273-10.331-2.357-15.194c-1.264-2.951-2.198-3.408-4.353-1.438
		c-1.993,1.821-3.583,4.102-5.243,6.262c-1.061,1.38-0.422,2.639,0.737,3.621c2.424,2.053,2.71,4.897,2.896,7.748
		c0.19,2.901,0.257,5.811,0.33,8.718c0.013,0.505-0.158,1.034-0.333,1.52c-0.923,2.566-2.305,4.87-4.392,6.631
		c-0.954,0.805-2.093,1.651-3.546,0.926c-0.184-0.092-0.419-0.084-0.631-0.113c-0.732-0.099-1.906,0.054-2.123-0.332
		c-1.086-1.934-3.061-3.508-2.809-6.048c0.355-3.58,0.744-7.157,1.11-10.657c-4.314-1.367-9.028,0.425-10.529,3.624
		c-0.732,1.559,0.039,2.773,0.644,4.008c1.219,2.488,2.898,4.529,5.699,4.854c0.005,0.997,0.077,1.697,0.001,2.38
		c-0.321,2.892-0.592,5.796-1.07,8.663c-0.308,1.849-2.176,2.374-4.184,1.395c-3.2-1.562-4.922-4.345-6.007-7.533
		c-0.722-2.12-1.039-4.375-1.652-6.537c-0.173-0.61-0.751-1.104-1.144-1.652c-0.473,0.482-1.176,0.882-1.383,1.46
		c-1.63,4.552-2.973,9.217-4.8,13.685c-1.156,2.827-3.7,4.228-6.699,3.622c-1.255-0.254-2.42-0.984-3.606-1.539
		c-1.283-0.601-2.516-1.315-3.819-1.865c-1.754-0.739-2.752-0.062-3.596,1.643c-1.32,2.667-2.697,5.353-4.43,7.756
		c-1.911,2.649-5.74,2.135-7.319-0.674c-2.189-3.893-2.551-8.204-2.892-12.504c-0.275-3.473-0.417-6.96-0.508-10.444
		c-0.065-2.498,0.1-5.001,0.073-7.5c-0.024-2.216-0.324-4.438-0.224-6.645c0.106-2.336,1.767-3.698,3.879-2.928
		c1.174,0.428,2.161,1.872,2.804,3.085c0.477,0.899,0.381,2.17,0.322,3.264c-0.046,0.858-0.44,1.694-0.654,2.547
		c-0.154,0.615-0.357,1.238-0.38,1.863c-0.162,4.416-0.308,8.834-0.401,13.252c-0.029,1.384,0.048,2.78,0.216,4.154
		c0.074,0.6,0.499,1.158,0.764,1.734c0.622-0.386,1.459-0.629,1.828-1.183c1.368-2.056,2.664-4.172,3.829-6.349
		c0.962-1.797,2.05-3.431,3.987-4.213c0.631-0.255,1.524-0.291,2.147-0.047c1.253,0.492,2.405,1.245,3.596,1.893
		c1.193,0.649,2.347,1.386,3.587,1.928c1.317,0.575,3.802-0.95,4.428-2.729c1.234-3.507,2.332-7.061,3.591-10.558
		c0.547-1.519,1.285-2.981,2.061-4.401c0.632-1.157,1.662-1.309,2.82-0.705C190.515,43.122,191.318,43.507,192.355,44.023z
		 M244.741,21.285c-3.111-0.747-7.815,3.334-8.197,6.726C239.935,26.628,242.872,24.736,244.741,21.285z M212.223,49.986
		c1.794-0.167,2.585-0.76,2.331-1.924c-0.088-0.403-1.049-0.616-1.611-0.915C212.721,48.025,212.498,48.903,212.223,49.986z"/>
	<path d="M295.372,23.74c2.602,1.338,4.851,2.708,7.261,3.686c4.114,1.67,8.044,3.825,12.494,4.657
		c2.9,0.543,5.714,1.546,8.614,2.094c2.491,0.471,5.063,0.495,7.571,0.89c2.403,0.379,4.765,1.01,7.157,1.467
		c0.76,0.145,1.559,0.088,2.622,0.136c0.02,1.25,0.289,2.524,0.008,3.663c-0.562,2.275-2.01,4.172-3.916,5.41
		c-0.967,0.629-2.53,0.415-3.825,0.435c-0.721,0.012-1.44-0.313-2.17-0.425c-2.599-0.397-5.199-0.785-7.803-1.142
		c-3.878-0.531-7.749-1.314-11.644-1.473c-4.315-0.176-7.981-2.041-11.832-3.534c-3.033-1.175-6.11-2.239-9.193-3.277
		c-1.689-0.569-3.072-3.178-2.608-4.838c0.597-2.134,1.04-4.311,1.508-6.479c0.094-0.433,0.004-0.905-0.007-1.774
		c-2.207,0.718-4.16,1.244-5.999,2.034c-0.418,0.179-0.72,1.326-0.604,1.938c0.78,4.127,1.796,8.21,2.521,12.345
		c0.688,3.929,1.154,7.898,1.639,11.86c0.294,2.399,0.306,4.836,0.677,7.22c0.64,4.105-0.316,7.761-2.665,11.115
		c-0.665,0.95-2.305,0.841-3.334-0.282c-0.386-0.421-0.74-0.944-0.905-1.484c-1.049-3.431-3.806-5.815-5.397-8.904
		c-2.48-4.819-5.035-9.604-5.795-15.098c-0.509-3.685-0.001-7.221,1.091-10.739c0.532-1.715,0.727-3.536,1.28-5.242
		c0.464-1.431,0.977-2.973,1.911-4.098c1.613-1.943,0.994-3.746,0.179-5.605c-0.823-1.876-2.171-3.592-1.478-5.845
		c0.108-0.351,0.125-0.741,0.281-1.066c0.742-1.545,1.517-3.074,2.283-4.607c0.461-0.922,1.515-0.915,2.075,0.249
		c0.948,1.973,1.653,4.065,2.424,6.121c0.182,0.486,0.115,1.081,0.347,1.529c0.341,0.657,0.798,1.078,1.668,0.485
		c1.264-0.861,2.588-1.669,3.975-2.303c0.882-0.403,1.917-0.54,2.899-0.643c2.565-0.269,5.184-0.862,7.698-0.583
		c4.436,0.493,8.897,1.303,12.365,4.592c0.511,0.484,1.152,0.836,1.635,1.343c1.641,1.724,1.793,4.048,0.512,6.071
		c-0.466,0.736-0.714,1.628-1.249,2.3c-0.571,0.718-1.164,0.932-2.275,0.348c-2.546-1.337-5.242-2.475-7.998-3.279
		C298.292,22.697,296.665,22.492,295.372,23.74z M277.294,30.96c-1.409,2.39-2.506,4.305-2.128,6.765
		c0.796,5.178,2.915,9.85,5.299,14.431c0.164,0.314,0.534,0.521,0.808,0.778c0.155-0.073,0.31-0.147,0.466-0.22
		C280.67,45.521,279.33,38.383,277.294,30.96z"/>
	<path d="M18.325,51.257c0.677,4.205-0.611,7.573-1.289,11.044c-0.336,1.719-0.641,3.234-1.935,4.561
		c-1.637,1.679-4.392,1.763-6.288,0.409c-2.992-2.137-3.453-5.42-4.274-8.513c-1.075-4.051-1.929-8.164-2.771-12.273
		c-0.547-2.668-0.938-5.371-1.327-8.068c-0.232-1.606-0.462-3.234-0.439-4.848c0.02-1.433,0.786-1.723,2.166-1.155
		c2.658,1.094,3.257,3.393,3.446,5.891c0.206,2.733,0.202,5.486,0.489,8.209c0.381,3.604,0.943,7.189,1.46,10.777
		c0.082,0.565,0.198,1.23,0.549,1.629c0.676,0.769,1.55,1.943,2.307,1.917c0.972-0.033,2.238-0.872,2.793-1.738
		c1.173-1.832,1.894-3.948,2.956-5.861C16.552,52.544,17.381,52.099,18.325,51.257z"/>
	<path d="M324.236,17.31c1.132-4.431,2.202-8.879,3.438-13.281c0.338-1.203,1.032-2.385,1.838-3.345
		c0.421-0.502,1.524-0.809,2.165-0.635c0.562,0.152,1.318,1.132,1.274,1.69c-0.148,1.89-0.521,3.778-0.981,5.623
		c-0.47,1.886-1.222,3.701-1.702,5.585c-0.347,1.363-0.045,2.659,1.185,3.553c1.533,1.115,2.798-0.049,4.147-0.516
		c0.694-0.24,1.403-0.434,2.105-0.649c0.058,0.769,0.144,1.537,0.17,2.307c0.076,2.299-0.958,4.153-2.176,6.033
		c-1.369,2.112-5.811,4.519-8.023,3.595c-0.988-0.413-1.607-1.93-2.186-3.053C324.383,22.079,324.234,19.757,324.236,17.31z"/>
	<path d="M32.029,56.197c-0.216,0.22-0.472,0.425-0.659,0.68c-1.155,1.568-3.43,2.499-5.177,1.785
		c-0.788-0.322-1.498-1.207-1.912-2.008c-1.324-2.562-1.432-5.43-1.804-8.225c-0.388-2.912-0.791-5.823-1.202-8.732
		c-0.398-2.815-1.139-5.649,0.09-8.419c0.325-0.732,1.013-1.303,1.438-1.83c3.291,1.16,3.309,3.857,3.556,6.346
		c0.358,3.608,0.547,7.233,0.859,10.846c0.033,0.381,0.384,1.036,0.618,1.05c2.135,0.126,2.263,1.956,2.777,3.318
		C31.222,52.622,31.539,54.346,32.029,56.197z"/>
	<path d="M355.051,6.772c-1.037,3.401-2.085,7.106-3.311,10.751c-0.645,1.918-1.537,3.763-2.453,5.572
		c-0.277,0.547-1.01,0.863-1.534,1.285c-0.422-0.622-1.239-1.273-1.196-1.861c0.157-2.128,0.529-4.25,0.958-6.345
		c0.456-2.224,1.039-4.424,1.637-6.615c0.169-0.619,0.585-1.17,0.891-1.751c0.236-0.45,0.495-0.889,0.709-1.348
		c0.307-0.657,0.458-1.434,0.906-1.963c0.459-0.543,1.499-1.328,1.754-1.167c0.667,0.422,1.091,1.276,1.515,2.013
		C355.094,5.633,355.002,6.07,355.051,6.772z"/>
</g>
<g id="Layer_1">
</g>
</svg>
