<?xml version="1.0" encoding="iso-8859-1"?>
<!-- Generator: Adobe Illustrator 27.9.0, SVG Export Plug-In . SVG Version: 6.00 Build 0)  -->
<svg version="1.1" xmlns="http://www.w3.org/2000/svg" xmlns:xlink="http://www.w3.org/1999/xlink" x="0px" y="0px"
	 viewBox="0 0 231.456 66.889" style="enable-background:new 0 0 231.456 66.889;" xml:space="preserve">
<g id="Layer_21">
	<path d="M127.475,56.248c-0.805,0.701-1.594,1.412-2.408,2.093c-0.713,0.596-1.305,0.511-1.535-0.45
		c-0.776-3.251-1.483-6.463-0.417-9.853c0.558-1.775,0.505-3.737,0.778-5.607c0.168-1.153,0.399-2.299,0.657-3.436
		c0.903-3.978,1.709-7.984,2.788-11.915c0.775-2.822,1.722-5.637,2.961-8.282c1.567-3.344,3.588-6.528,7.871-6.647
		c2.568-0.071,5.194,0.124,7.433,2.686c0.909-1.81,1.639-3.387,2.494-4.893c0.244-0.43,0.853-0.93,1.288-0.924
		c1.705,0.022,3.414,0.221,4.356,2.223c0.571-0.598,1.058-1.054,1.483-1.562c1.912-2.286,3.786-2.823,6.554-1.728
		c1.405,0.556,3.217,0.92,4.001,1.99c0.906,1.237,1.402,3.243,1.143,4.755c-0.381,2.223-1.471,4.362-2.485,6.426
		c-0.691,1.408-1.699,2.681-2.687,3.917c-1.383,1.73-2.96,3.309-4.297,5.072c-0.748,0.987-0.414,1.963,0.744,2.594
		c2.127,1.159,4.206,2.41,6.357,3.521c2.986,1.541,5.944,3.094,8.256,5.624c0.228,0.25,0.816,0.523,0.97,0.413
		c0.302-0.217,0.556-0.685,0.585-1.069c0.189-2.473,0.444-4.952,0.425-7.427c-0.028-3.675-0.119-7.363-0.468-11.018
		c-0.23-2.412,0.675-4.441,1.44-6.551c0.489-1.348,1.535-1.756,2.999-1.233c0.882,0.315,1.812,0.639,2.539,1.197
		c0.505,0.388,0.966,1.17,0.988,1.792c0.084,2.386-0.039,4.779-0.031,7.17c0.001,0.425,0.257,0.85,0.396,1.275
		c0.372-0.206,0.791-0.357,1.11-0.627c2.127-1.798,4.183-3.683,6.361-5.415c1.553-1.236,3.249-2.295,4.904-3.4
		c1.71-1.142,5.513-0.344,6.573,1.348c0.445,0.71-0.196,2.64-1.053,3.264c-1.279,0.931-2.618,1.8-3.793,2.85
		c-2.096,1.872-4.25,3.725-6.047,5.865c-0.755,0.899-1.211,2.689-0.859,3.764c1.178,3.595,2.147,7.293,4.759,10.324
		c1.603,1.861,2.598,4.242,3.904,6.366c0.281,0.456,0.847,1.217,1.075,1.148c1.588-0.478,2.488,0.835,3.664,1.228
		c-0.005,0.421-0.055,0.823-0.007,1.213c0.373,3.015-2.424,6.283-5.492,6.134c-0.941-0.046-1.935-0.751-2.743-1.366
		c-1.021-0.777-2.062-1.645-2.771-2.692c-2.533-3.747-6.452-6.485-7.933-11.008c-0.314-0.959-1.073-1.772-1.695-2.761
		c-1.1,1.356-0.929,2.929-0.911,4.421c0.019,1.644-0.331,3.114-1.531,4.269c-1.221,1.176-2.506,2.286-4.121,3.748
		c-0.683-0.635-1.404-1.433-2.259-2.046c-0.418-0.3-1.146-0.47-1.625-0.329c-2.123,0.625-2.249,0.408-3.743-1.235
		c-1.103-1.213-2.699-2.006-4.144-2.871c-1.028-0.616-2.154-1.081-3.266-1.542c-2.673-1.108-5.348-2.214-8.066-3.201
		c-0.313-0.114-1.184,0.446-1.3,0.84c-0.198,0.671,0.059,1.462,0.017,2.196c-0.162,2.836-2.196,4.555-3.916,6.458
		c-0.337,0.372-0.594,0.839-0.983,1.136c-0.644,0.491-2.186-0.195-2.559-1.028c-0.932-2.08-0.753-4.286-0.627-6.443
		c0.163-2.805,0.554-5.596,0.846-8.393c0.087-0.829,0.212-1.656,0.241-2.487c0.013-0.381-0.163-0.769-0.295-1.333
		c-1.649,3.228-3.027,6.364-4.793,9.264c-1.82,2.989-3.996,5.765-6.062,8.6c-0.805,1.105-1.81,2.067-2.595,3.184
		C129.733,57.526,128.868,57.656,127.475,56.248z M139.846,28.586c-0.076-0.031-0.152-0.062-0.228-0.093
		c0.039-0.375,0.214-0.802,0.093-1.115c-0.433-1.124-0.674-2.748-1.518-3.204c-2.066-1.118-3.256-0.306-3.876,2.085
		c-0.729,2.809-1.52,5.605-2.148,8.437c-0.45,2.027-0.704,4.101-0.971,6.163c-0.041,0.319,0.255,0.906,0.51,0.982
		c0.304,0.09,0.865-0.134,1.079-0.406c0.564-0.716,1.016-1.522,1.484-2.31c1.209-2.032,2.463-4.041,3.583-6.122
		C138.62,31.585,139.19,30.062,139.846,28.586z"/>
	<path d="M33.594,28.48c0.367-2.384,0.666-4.781,1.143-7.143c0.146-0.724,0.796-1.342,1.186-2.025
		c0.176-0.309,0.254-0.672,0.424-0.985c0.198-0.365,0.382-0.925,0.686-1.015c2.092-0.614,1.874-2.54,2.409-4.041
		c0.567-1.594,1.151-3.182,1.71-4.779c0.105-0.299,0.163-0.624,0.181-0.941c0.1-1.672,0.562-3.046,2.196-3.958
		c0.625-0.349,0.865-1.387,1.307-2.155c0.493-0.048,1.132-0.061,1.751-0.182c1.458-0.285,3.163,1.013,3.897,3.069
		c1.167,3.271,2.243,6.527,2.227,10.105c-0.015,3.516-0.216,6.969-1.338,10.309c-0.685,2.038-1.523,4.025-2.294,6.035
		c-0.284,0.74-0.257,1.23,0.635,1.64c1.857,0.852,3.634,1.878,5.737,2.988c0.131-0.771,0.32-1.353,0.314-1.932
		c-0.037-3.769-0.286-7.661,1.363-11.094c0.99-2.06,1.819-4.187,2.816-6.239c0.692-1.423,1.827-1.91,3.186-1.206
		c0.972,0.503,1.922,1.13,2.696,1.891c0.311,0.306,0.102,1.12,0.17,1.698c0.051,0.431,0.026,1.034,0.287,1.238
		c0.341,0.268,0.941,0.328,1.412,0.284c1.432-0.135,2.856-0.354,4.28-0.563c0.19-0.028,0.358-0.192,0.54-0.285
		c1.65-0.848,3.379-1.118,5.223-0.825c0.653,0.104,1.373-0.154,2.007-0.008c0.498,0.115,1.242,0.55,1.295,0.926
		c0.115,0.81,0.128,1.858-0.296,2.484c-2.006,2.965-4.886,4.925-8.062,6.479c-1.819,0.89-3.635,1.787-5.457,2.671
		c-0.235,0.114-0.495,0.197-0.752,0.242c-2.749,0.479-3.292,1.309-2.788,4.071c0.217,1.19,0.209,2.422,0.434,3.609
		c0.616,3.243,1.432,6.404,3.408,9.171c0.723,1.012,1.287,2.227,1.57,3.433c0.167,0.709-0.112,1.848-0.626,2.326
		c-1.111,1.035-2.515,1.752-3.776,2.632c-1.227,0.855-2.244,0.387-3.056-0.563c-1.203-1.406-2.286-2.915-3.438-4.365
		c-0.285-0.359-0.601-0.719-0.973-0.977c-1.46-1.012-2.909-2.052-4.438-2.952c-1.66-0.977-3.368-1.889-5.122-2.682
		c-1.332-0.602-2.742-1.081-4.164-1.417c-1.593-0.375-2.462-0.014-2.9,2.214c-0.155,0.79-0.256,1.607-0.251,2.41
		c0.02,3.002-1.267,5.392-3.298,7.491c-0.543,0.561-0.883,1.315-1.398,1.91c-0.405,0.468-1.241,1.251-1.36,1.165
		c-0.649-0.468-1.325-1.078-1.646-1.794c-1.197-2.67-0.885-5.468-0.514-8.269c0.073-0.553-0.25-1.158-0.39-1.739
		c-0.141,0.013-0.282,0.026-0.423,0.038c-0.249,2.381-0.354,4.789-0.802,7.131c-0.259,1.354-0.98,2.652-1.659,3.883
		c-0.635,1.151-1.389,2.274-2.281,3.23c-0.596,0.638-1.616,1.432-2.284,1.305c-0.784-0.149-1.604-1.11-2.03-1.918
		c-0.718-1.365-1.105-2.901-1.692-4.34c-0.75-1.837-1.559-3.651-2.349-5.472c-0.085-0.196-0.206-0.376-0.499-0.904
		c-0.376,0.628-0.662,0.95-0.779,1.325c-0.891,2.867-1.463,5.876-2.706,8.578c-1.058,2.3-2.788,4.323-4.418,6.307
		c-0.471,0.573-1.622,0.586-2.562,0.887c-0.78-2.062-1.325-4.067-1.148-6.41c0.203-2.673,0.886-4.891,2.878-6.69
		c0.202-0.182,0.202-0.585,0.301-0.883c2.054-6.171,4.034-12.368,6.193-18.501c1.146-3.256,2.612-6.399,3.918-9.6
		c1.168-2.864,2.172-5.805,3.522-8.579c0.739-1.519,1.865-2.985,3.171-4.035c0.648-0.521,1.277-1.636,2.728-1.283
		c1.563,0.38,2.591,0.931,2.778,2.58c0.404,3.556,0.771,7.116,1.126,10.678c0.041,0.417-0.002,0.891-0.165,1.27
		C32.02,26.705,32.734,27.583,33.594,28.48z M25.153,27.951c-0.148-0.075-0.296-0.15-0.444-0.225
		c-0.315,0.541-0.711,1.051-0.93,1.629c-0.518,1.367-0.891,2.79-1.434,4.145c-0.728,1.816-0.016,3.011,2.137,3.325
		c0.198-0.464,0.563-0.938,0.579-1.423C25.142,32.919,25.132,30.435,25.153,27.951z M42.884,29.14
		c2.386-2.717,2.418-5.884,2.331-9.059c-0.018-0.672-0.33-1.336-0.506-2.003c-0.227,0.04-0.454,0.08-0.68,0.12
		C43.657,21.745,43.286,25.292,42.884,29.14z"/>
	<path d="M98.573,45.368c1.996-1.39,2.254-3.437,2.561-5.466c0.042-0.277,0.156-0.55,0.278-0.805
		c0.418-0.873,0.734-1.83,1.311-2.584c0.937-1.225,1.849-2.899,3.131-3.342c2.648-0.914,4.981,1.312,4.865,4.156
		c-0.022,0.528-0.105,1.054-0.175,1.719c0.379-0.019,0.803,0.014,0.818-0.05c0.38-1.609,0.772-3.218,1.048-4.847
		c0.428-2.525,0.73-5.071,1.167-7.594c0.271-1.562,0.644-3.112,1.065-4.642c0.347-1.263,0.638-2.606,1.311-3.693
		c0.565-0.913,1.648-1.504,2.492-2.248c0.112-0.099,0.167-0.261,0.247-0.393c1.763,0.876,2.48,2.094,2.33,4.081
		c-0.322,4.28-0.655,8.559-1.017,12.836c-0.313,3.692-1.63,7.095-3.177,10.408c-1.111,2.381-2.176,4.813-3.586,7.014
		c-0.958,1.494-2.278,3.042-3.814,3.783c-1.161,0.56-3.291,0.391-4.323-0.365c-1.514-1.109-1.896-0.242-2.646,0.588
		c-1.091,1.208-2.028,2.73-3.384,3.473c-1.277,0.699-3.016,0.783-4.543,0.749c-3.462-0.079-5.807-2.32-6.153-5.844
		c-0.563-5.722-0.972-11.459-1.492-17.185c-0.257-2.827-0.946-5.661-0.811-8.461c0.089-1.843,1.017-3.845,2.14-5.349
		c0.511-0.685,2.457-0.61,3.653-0.375c1.018,0.201,2.241,0.524,2.204,2.344c-0.064,3.209,0.271,6.433,0.549,9.641
		c0.195,2.248,0.574,4.481,0.869,6.72c0.069,0.523,0.165,1.046,0.187,1.572c0.053,1.271,0.055,2.508,1.628,3.004
		C97.758,44.357,98.083,44.905,98.573,45.368z"/>
	<path d="M201.156,27.783c0.408-4.753,2.066-9.161,3.809-13.532c0.903-2.263,1.937-4.483,3.067-6.642
		c0.624-1.193,1.748-1.396,2.955-0.682c0.272,0.161,0.558,0.3,0.843,0.437c2.435,1.174,2.685,1.769,1.737,4.19
		c-0.8,2.042-1.628,4.073-2.402,6.125c-0.776,2.057-1.628,4.099-2.213,6.212c-0.543,1.962-1.225,3.959-0.056,6.036
		c0.612,1.088-0.541,2.748-1.987,3.558c-0.813,0.456-1.559,1.114-2.173,1.823c-0.739,0.853-2.876,0.502-3.274-0.77
		c-0.385-1.23-0.511-2.565-0.58-3.863C200.832,29.719,201.055,28.748,201.156,27.783z"/>
	<path d="M16.103,0c0.235,1.464,0.39,2.594,0.605,3.712c0.167,0.869,0.266,1.792,0.644,2.57c1.362,2.802,1.106,4.268-1.175,6.468
		c-0.897,0.865-1.591,1.944-2.504,2.789c-0.879,0.814-1.748,0.742-2.637-0.258c-1.798-2.025-1.616-4.454-1.633-6.861
		C9.4,7.877,9.588,7.327,9.545,6.792c-0.218-2.712,1.681-3.987,3.554-5.244C13.912,1.003,14.847,0.638,16.103,0z"/>
	<path d="M221.233,16.074c1.109-2.879,2.213-5.76,3.336-8.634c0.113-0.289,0.499-0.544,0.485-0.799
		c-0.083-1.516,1.172-2.05,2.093-2.033c1.091,0.02,2.383,0.566,3.207,1.307c1.66,1.493,1.339,2.148-0.265,5.51
		c-0.329,0.69-0.683,1.421-0.77,2.164c-0.376,3.234-2.482,5.198-4.944,6.891c-0.687,0.473-2.428-0.771-2.68-1.924
		c-0.167-0.763-0.146-1.567-0.209-2.352C221.401,16.16,221.317,16.117,221.233,16.074z"/>
	<path d="M0,11.62c0.625-1.837,1.091-3.823,2.012-5.57c0.31-0.588,1.809-0.846,2.696-0.729C5.285,5.396,6.09,6.37,6.183,7.027
		c0.29,2.063,0.295,4.166,0.401,6.253c0.158,3.126-0.845,5.796-3.088,8.009c-0.912,0.9-1.918,0.743-2.195-0.514
		c-0.36-1.635-0.576-3.304-0.812-4.964C0.3,14.479,0.174,13.138,0,11.62z"/>
</g>
<g id="Layer_1">
</g>
</svg>
