<?xml version="1.0" encoding="iso-8859-1"?>
<!-- Generator: Adobe Illustrator 27.9.0, SVG Export Plug-In . SVG Version: 6.00 Build 0)  -->
<svg version="1.1" xmlns="http://www.w3.org/2000/svg" xmlns:xlink="http://www.w3.org/1999/xlink" x="0px" y="0px"
	 viewBox="0 0 145.561 83.195" style="enable-background:new 0 0 145.561 83.195;" xml:space="preserve">
<g id="Layer_5">
	<path d="M96.447,32.682c0.027-0.259,0.232-0.823,0.113-1.307c-0.678-2.758,0.149-5.08,1.548-7.472
		c1.02-1.743,1.938-3.353,3.877-4.173c1.337-0.566,2.587-1.069,4.074-0.305c0.661,0.34,1.564,0.209,2.747,0.333
		c-1.093,2.923-2.104,5.624-3.226,8.622c3.856,0.111,7.491,0.19,11.463,1.201c-1.256,1.463-2.162,2.593-3.149,3.646
		c-0.879,0.937-1.731,1.99-2.812,2.619c-0.981,0.571-2.254,0.641-3.4,0.927c-0.736,0.184-2.009,0.211-2.108,0.567
		c-0.25,0.905-0.164,2.015,0.126,2.936c0.692,2.195,0.489,3.415-1.184,4.98c-0.9,0.842-1.842,0.986-2.57-0.146
		c-1.171-1.82-2.244-3.703-3.366-5.554c-0.184-0.304-0.413-0.582-0.835-1.17c-0.549,2.064-1.037,3.713-1.42,5.386
		c-0.561,2.448-2.16,4.211-4.133,5.431c-0.833,0.515-2.773,0.398-3.458-0.24c-1.517-1.414-3.002-2.931-3.222-5.413
		c-0.226-2.551-0.624-5.054,0.584-7.377c1.104-2.122,2.646-4.113,5.244-4.288C92.975,31.773,94.657,32.377,96.447,32.682z"/>
	<path d="M33.929,63.32c-1.508,2.233-1.217,3.939,0.104,5.634c0.531,0.681,0.78,1.458,0.255,2.463
		c-0.763,1.459-1.08,3.154-1.858,4.603c-0.443,0.824-1.425,1.358-2.264,2.111c-1.02-1.353-1.905-2.462-2.716-3.622
		c-0.73-1.044-1.62-1.205-2.782-0.829c-1.14,0.369-0.961,1.102-1.044,2.077c-0.232,2.735-0.187,5.721-3.323,7.171
		c-1.285,0.594-2.139,0.193-2.423-1.161c-0.299-1.421-0.714-2.821-0.948-4.251c-0.127-0.775,0.078-1.599,0.029-2.394
		c-0.194-3.102-0.685-6.211-0.57-9.299c0.094-2.513,0.714-5.055,1.443-7.481c0.528-1.759,2.057-2.913,3.933-3.073
		c2.056-0.176,3.821,0.465,4.853,2.527c0.731,1.46,1.598,2.865,2.537,4.201c0.271,0.385,0.987,0.507,1.526,0.643
		C31.665,62.89,32.671,63.062,33.929,63.32z"/>
	<path d="M50.255,52.456c-1.325,2.219-2.36,4.246-3.699,6.046c-0.515,0.692-1.691,0.984-2.625,1.244
		c-0.793,0.221-1.672,0.132-2.729,0.193c1.238,4.17-0.563,7.237-3.628,10.136c-0.536-0.982-1.089-1.849-1.501-2.779
		c-1.002-2.26-1.924-4.555-2.906-6.824c-0.418-0.966-0.98-1.875-1.35-2.858c-2.138-5.679-1.935-11.117,2.093-15.942
		c1.345-1.611,3.254-2.553,5.468-2.48c1.07,0.035,2.135,0.21,3.198,0.321c1.022,3.163,0.193,6.229-0.174,9.267
		c-0.246,2.034-0.024,2.669,2.023,2.947c1.388,0.189,2.787,0.293,4.179,0.45C49.059,52.23,49.51,52.329,50.255,52.456z"/>
	<path d="M124.345,26.899c0.731,1.913,1.477,3.821,2.18,5.744c0.119,0.326,0.218,0.888,0.048,1.054
		c-1.081,1.054-2.24,2.028-3.431,3.08c-2.288-0.705-3.097-2.747-3.76-4.826c-1.024-3.211-2.021-6.437-2.859-9.7
		c-0.389-1.513-0.49-3.127-0.52-4.699c-0.048-2.445,1.865-3.236,4.197-2.689c1.987,0.466,1.632,1.775,1.818,2.928
		c1.805-1.026,3.479-1.922,5.097-2.909c2.296-1.401,2.905-1.411,6.209,0.308c-0.527,0.515-0.984,0.985-1.465,1.429
		c-1.367,1.263-1.319,2.428-0.031,3.745c1.194,1.221,2.528,2,4.225,2.318c0.732,0.137,1.388,0.729,2.054,1.155
		c0.742,0.474,0.465,0.872,0.074,1.558c-1.496,2.625-4.349,3.1-6.678,4.365c-0.539,0.293-1.577-0.027-2.246-0.352
		c-0.977-0.475-1.813-1.23-2.736-1.825c-0.594-0.382-1.236-0.689-1.856-1.03C124.557,26.668,124.451,26.784,124.345,26.899z"/>
	<path d="M81.28,39.799c0.847-0.292,1.509-0.217,1.719,1.312c0.326,2.378,1.045,4.699,1.481,7.065
		c0.501,2.719-0.983,4.803-2.669,6.587c-1.974,2.089-4.244,3.839-7.486,3.416c-0.448-0.058-1.027,0.604-1.489,0.999
		c-1.345,1.148-2.427,1.113-3.293-0.342c-0.691-1.16-1.105-2.481-1.714-3.695c-1.253-2.496-2.539-4.975-3.84-7.446
		c-0.96-1.824-1.648-3.82-0.955-5.744c0.316-0.877,1.786-1.685,2.842-1.859c1.314-0.217,2.776-0.031,3.442,1.739
		c1.076,2.861,2.357,5.647,3.588,8.448c0.463,1.054,2.573,1.507,4.332,0.974c1.203-0.365,1.63-1.276,1.624-2.453
		c-0.015-2.858-0.065-5.717-0.029-8.575c0.009-0.684,0.302-1.365,0.464-2.047C79.913,38.684,80.531,39.188,81.28,39.799z"/>
	<path d="M60.079,38.916c-0.722,1.365-1.241,2.778-2.119,3.913c-1.507,1.949-1.874,3.875-0.695,6.08
		c0.342,0.64,0.501,1.375,0.812,2.034c1.669,3.538,1.344,4.109-1.261,7.122c-0.947,1.095-1.655,0.835-2.199-0.173
		c-0.996-1.846-2.023-3.709-2.715-5.677c-0.678-1.929-0.692-2.127-2.815-1.97c-1.486,0.11-2.016-0.405-2.021-1.934
		c-0.001-0.312-0.033-0.634-0.114-0.934c-1.094-4.025,1.658-7.63,5.923-7.776c0.411-0.014,0.858-0.111,1.217-0.303
		C55.99,38.28,57.911,37.814,60.079,38.916z"/>
	<path d="M10.607,56.74c-1.522-1.769-3.15-3.127-4.03-4.864c-0.649-1.282-0.147-3.097-0.48-4.604
		c-0.332-1.502,0.264-2.454,1.386-3.053c1.273-0.681,2.683-0.598,3.877,0.318c1.587,1.217,2.38,3.818,1.829,5.617
		c-0.086,0.279-0.1,0.603-0.06,0.894C13.466,53.489,11.998,55.053,10.607,56.74z"/>
	<path d="M6.875,56.972c-0.638,2.316-1.126,4.249-1.711,6.152c-0.376,1.221-2.394,1.649-3.173,0.669
		c-1.264-1.59-2.253-3.277-1.844-5.489c0.179-0.968,0.22-2.058-0.043-2.989c-0.367-1.298,0.293-2.275,1.091-2.681
		c0.83-0.421,2.508-0.549,2.975-0.038C5.368,53.909,6.1,55.647,6.875,56.972z"/>
	<path d="M131.884,12.021c-0.432-0.383-0.566-0.445-0.571-0.516c-0.276-3.905-0.415-7.836,2.266-11.06
		c0.473-0.569,1.929-0.321,2.931-0.445c0.04-0.005,0.086,0.059,0.133,0.082c2.229,1.091,1.888,1.009,1.309,3.437
		c-0.586,2.452-2.237,4.013-3.589,5.85C133.646,10.343,132.708,11.152,131.884,12.021z"/>
	<path d="M139.589,13.79c-0.689-3.638-1.084-7.004,1.053-10.089c0.616-0.889,1.536-1.328,2.638-0.561
		c0.383,0.267,0.869,0.382,1.275,0.622c0.701,0.416,1.435,0.79,0.702,1.843c-0.344,0.495-0.593,1.197-0.561,1.788
		c0.152,2.807-2.363,3.898-3.63,5.78C140.874,13.457,140.321,13.499,139.589,13.79z"/>
</g>
<g id="Layer_1">
</g>
</svg>
