<?xml version="1.0" encoding="iso-8859-1"?>
<!-- Generator: Adobe Illustrator 27.9.0, SVG Export Plug-In . SVG Version: 6.00 Build 0)  -->
<svg version="1.1" xmlns="http://www.w3.org/2000/svg" xmlns:xlink="http://www.w3.org/1999/xlink" x="0px" y="0px"
	 viewBox="0 0 323.826 67.286" style="enable-background:new 0 0 323.826 67.286;" xml:space="preserve">
<g id="Layer_9">
	<path d="M64.952,54.113c1.08,3.543,2.25,7.241,3.299,10.974c0.165,0.588-0.06,1.444-0.417,1.96
		c-0.204,0.295-1.055,0.263-1.587,0.186c-1.21-0.174-2.427-0.389-3.589-0.752c-0.385-0.12-0.901-0.774-0.866-1.137
		c0.3-3.116-1.216-5.755-2.305-8.449c-0.406-1.003-1.942-1.495-2.78-2.391c-1.023-1.094-2.046-2.27-2.713-3.591
		c-0.665-1.316-1.426-1.251-2.539-0.872c-1.788,0.608-3.603,1.138-5.641,1.774c0.118,0.487,0.17,1.106,0.414,1.638
		c0.985,2.147,1.972,4.297,3.079,6.381c0.432,0.812,1.214,1.432,1.775,2.185c0.233,0.313,0.519,0.847,0.4,1.102
		c-0.172,0.365-0.741,0.847-1.056,0.792c-1.816-0.318-3.891-0.356-5.324-1.316c-1.292-0.867-1.936-2.761-2.745-4.267
		c-0.596-1.111-0.99-2.329-1.486-3.495c-0.489-1.148-1.149-1.848-2.572-1.29c-0.736,0.288-1.59,0.273-2.661,0.436
		c0.826,1.148,1.433,1.992,2.287,3.18c-5.094-0.656-9.877-0.396-14.334-3.102c-0.145,0.418-0.428,0.9-0.464,1.399
		c-0.105,1.429-0.096,2.866-0.158,4.299c-0.05,1.167-0.65,2.024-1.836,1.938c-1.502-0.108-3.016-0.402-4.448-0.856
		c-0.351-0.111-0.512-1.15-0.562-1.779c-0.045-0.563,0.241-1.145,0.279-1.725c0.304-4.582,1.663-8.919,3.528-13.034
		c1.035-2.284,2.717-4.34,4.387-6.256c1.919-2.201,6.718-2.543,9.224-0.994c3.797,2.347,6.596,5.63,9.006,9.322
		c0.318,0.487,1.197,1.012,1.69,0.91c1.901-0.392,3.77-0.977,5.606-1.62c0.405-0.142,2.02-0.413,0.326-1.466
		c-0.377-0.234-0.261-2.357,0.255-2.719c1.235-0.869,0.943-2.164,1.409-3.199c0.578-1.283,0.763-2.739,1.167-4.106
		c0.116-0.391,0.32-0.836,0.625-1.08c2.588-2.066,5.175-4.227,8.511-4.912c3.909-0.803,7.848-1.585,11.813-1.954
		c2.632-0.245,5.417-0.084,7.965,0.562c1.158,0.293,2.147,2.089,2.769,3.411c0.565,1.2-0.77,1.641-1.606,2.295
		c-1.416,1.107-2.607,2.498-3.948,3.707c-2.62,2.362-5.301,4.658-7.912,7.03c-1.136,1.032-2.227,2.13-3.223,3.296
		c-1.014,1.186-0.755,2.158,0.725,2.656c3.129,1.052,6.384,1.524,9.661,1.212c5.598-0.532,11.179-1.244,16.764-1.911
		c0.667-0.08,1.312-0.351,1.967-0.534c-0.019-0.138-0.039-0.276-0.058-0.415c-1.706-0.441-3.517-0.655-5.091-1.382
		c-1.931-0.893-3.766-2.083-5.447-3.395c-1.242-0.97-0.217-2.104,0.366-3.078c0.13-0.217,0.406-0.347,0.612-0.519
		c1.909-1.598,4.036-2.958,5.339-5.198c0.678-1.165,1.789-1.585,3.124-1.306c1.502,0.314,2.746-0.149,4.061-0.93
		c2.124-1.263,4.435-2.207,6.619-3.375c2.093-1.12,4.086-2.429,6.192-3.522c4.575-2.375,9.016-5.187,14.149-6.145
		c3.385-0.631,5.664,1.273,6.074,5.025c-2.09,0.113-4.246-0.074-6.239,0.41c-2.736,0.665-5.441,1.63-7.464,3.858
		c-0.393,0.433-1.275,0.38-1.844,0.705c-3.474,1.986-6.926,4.011-10.379,6.034c-1.276,0.748-2.507,1.577-3.81,2.274
		c-1.201,0.642-1.452,1.289-0.506,2.412c2.169,2.575,4.345,5.153,6.352,7.852c2.417,3.25,5.328,6.277,5.73,10.615
		c0.058,0.625,0.062,1.641-0.27,1.825c-0.476,0.263-1.295-0.021-1.946-0.168c-0.607-0.137-1.173-0.518-1.78-0.585
		c-1.23-0.135-1.93-0.561-2.336-1.898c-1.042-3.433-4.888-5.3-8.761-4.647c-6.686,1.128-13.382,2.205-20.092,3.176
		c-1.303,0.188-2.69-0.197-4.037-0.332c-1.401-0.14-2.801-0.301-4.201-0.448C69.302,54.567,67.138,54.342,64.952,54.113z
		 M76.374,31.114c-0.056-0.167-0.113-0.335-0.169-0.502c-0.501-0.052-1.017-0.211-1.5-0.139c-2.439,0.363-4.909,0.628-7.294,1.227
		c-3.307,0.83-6.237,2.239-7.982,5.543c-1.488,2.817-1.627,4.072,0.185,6.584c0.125,0.173,0.289,0.337,0.354,0.532
		c0.46,1.388,1.301,1.044,1.856,0.237c2.681-3.898,6.719-6.292,10.152-9.353C73.476,33.904,74.91,32.492,76.374,31.114z
		 M23.665,51.888c1.735-0.618,3.26-1.328,4.864-1.694c2.238-0.51,4.534-0.771,6.807-1.125c1.657-0.258,2.028-1.039,1.019-2.339
		c-1.315-1.692-2.613-3.409-4.074-4.97c-0.579-0.619-1.749-1.349-2.343-1.143c-0.989,0.343-1.928,1.27-2.532,2.185
		c-0.906,1.372-1.586,2.913-2.209,4.445C24.591,48.74,24.177,50.31,23.665,51.888z M94.6,42.777c2.559,0.749,3.879,2.457,4.345,4.86
		c0.625,0.155,1.311,0.436,2.004,0.456c0.439,0.013,0.891-0.361,1.337-0.561c-0.207-0.328-0.367-0.7-0.629-0.976
		c-1.384-1.46-2.818-2.873-4.185-4.348C96.364,41.012,95.523,41.099,94.6,42.777z"/>
	<path d="M262.466,21.125c1.462-0.68,2.622-1.215,3.778-1.76c1.686-0.795,3.12-1.976,5.111-2.322
		c1.491-0.259,2.795-1.524,4.219-2.271c0.83-0.436,1.713-0.795,2.606-1.084c3.608-1.166,4.407-0.835,5.988,2.552
		c0.225,0.482,0.095,1.13,0.129,1.708c-3.881,0.143-7.002,1.933-10.124,3.78c-1.4,0.829-2.937,1.426-4.385,2.178
		c-1.102,0.573-1.197,1.38-0.108,1.971c3.092,1.679,6.192,3.387,9.668,4.17c3.158,0.711,6.389,1.153,9.486,2.061
		c1.934,0.567,3.605,2.005,5.53,2.631c1.662,0.541,3.522,0.457,5.288,0.702c2.166,0.301,3.225,2.784,1.885,4.455
		c-0.293,0.365-0.865,0.782-1.262,0.74c-2.508-0.27-5.045-0.484-7.493-1.056c-3.95-0.923-7.85-2.067-11.748-3.197
		c-2.736-0.793-5.457-1.653-8.141-2.607c-2.115-0.752-4.143-1.748-6.252-2.521c-0.727-0.266-1.581-0.184-2.378-0.261
		c-0.067,0.809-0.195,1.619-0.187,2.427c0.014,1.527,0.106,3.053,0.18,4.918c-2.026-0.464-3.556-0.814-5.204-1.192
		c-0.438,2.61-2.922,2.359-4.579,3.26c-0.857,0.466-1.978,0.434-2.855,0.875c-2.325,1.169-4.447,0.309-6.613-0.426
		c-0.891-0.302-1.766-0.535-1.53-1.841c0.035-0.196-0.687-0.716-1.102-0.775c-1.919-0.273-3.863-0.375-5.782-0.649
		c-4.772-0.681-9.614-1.098-14.279-2.233c-4.31-1.048-8.815-1.861-12.591-4.473c-2.02-1.397-3.91-2.981-5.849-4.493
		c-0.249-0.194-0.41-0.51-0.669-0.684c-1.54-1.037-1.775-2.715-0.244-3.824c1.467-1.063,3.222-1.723,4.833-2.593
		c1.388-0.749,2.751-1.543,3.993-2.567c-3.389-0.586-6.24,0.588-8.779,2.43c-3.772,2.737-3.677,3.588-1.932,7.888
		c1.818,4.48,3.216,9.143,4.579,13.789c0.54,1.839,0.509,3.848,0.708,5.783c0.122,1.185-0.66,1.727-1.854,1.364
		c-0.407-0.124-0.85-0.123-1.269-0.212c-1.371-0.291-3.05,0.293-3.836-1.636c-0.214-0.525-1.196-0.881-1.89-1.042
		c-3.872-0.901-4.778-4.187-6.118-7.238c-1.258-2.865-1.135-5.865-1.17-8.832c-0.017-1.467,0.364-3.076,1.03-4.383
		c1.025-2.013,1.079-3.947,0.421-5.983c-0.978-3.027,0.4-4.154,2.98-5.047c0.444-0.154,1.296,0.194,1.652,0.588
		c1.323,1.465,2.723,0.793,3.851,0.032c3.45-2.324,7.403-3.027,11.329-3.147c2.62-0.081,5.524-0.185,7.951,1.492
		c2.073,1.433,2.122,3.115,0.632,5.148c-1.963,2.679-4.78,4.082-7.492,5.681c-1.545,0.911-1.677,1.62-0.056,2.553
		c2.18,1.254,4.421,2.534,6.799,3.283c3.39,1.067,6.898,1.847,10.409,2.416c4.977,0.806,9.997,1.36,15.011,1.909
		c1.507,0.165,3.055-0.067,4.584-0.069c0.462-0.001,0.921,0.204,1.386,0.239c1.742,0.131,3.485,0.254,5.23,0.305
		c0.184,0.005,0.539-0.483,0.549-0.752c0.068-1.87,0.153-3.747,0.065-5.614c-0.129-2.731-0.492-5.453-0.577-8.185
		c-0.07-2.253-0.195-4.589,0.322-6.739c0.273-1.135,1.726-2.213,2.902-2.837c1.019-0.541,1.863,0.462,2.773,1.199
		c1.61,1.304,1.196,2.514,0.826,4.135C262.404,16.976,262.568,18.84,262.466,21.125z"/>
	<path d="M138.532,50.416c0.192-1.024,0.232-2.11,0.615-3.057c0.454-1.122,1.059-2.259,1.872-3.136
		c0.612-0.66,1.8-1.444,2.476-1.255c1.712,0.478,3.216,1.532,4.032,3.294c0.281,0.608,0.699,1.152,1.054,1.726
		c0.168,0.021,0.335,0.043,0.503,0.064c0.59-1.542,1.248-3.062,1.754-4.631c0.743-2.306,1.3-4.674,2.084-6.965
		c0.591-1.726,3.485-2.138,4.612-0.77c0.299,0.363,0.793,0.585,1.032,0.974c0.637,1.036,1.053,1.997,0.505,3.389
		c-0.922,2.343-1.426,4.85-2.139,7.278c-0.616,2.097-1.39,4.24-3.236,5.468c-1.387,0.922-3.108,1.5-4.947,0.811
		c-0.785-0.294-1.764-0.555-2.504-0.332c-0.61,0.184-1.175,1.032-1.449,1.711c-0.608,1.505-0.775,3.243-1.609,4.583
		c-0.488,0.784-1.911,1.348-2.919,1.358c-1.325,0.013-2.691-0.526-3.971-1.009c-0.626-0.237-1.372-0.779-1.594-1.362
		c-1.267-3.325-2.442-6.688-3.552-10.069c-0.945-2.877-1.411-5.973-2.752-8.637c-0.941-1.87-1.754-3.495-1.479-5.616
		c0.075-0.581-0.423-1.239-0.668-1.858c-0.655-1.659,0.726-3.617,2.497-3.789c2.297-0.223,3.638,1.34,4.99,2.658
		c0.547,0.533,0.32,1.831,0.505,2.769c0.626,3.187,1.238,6.378,1.935,9.55c0.503,2.286,1.133,4.545,1.707,6.815
		C138.103,50.39,138.318,50.403,138.532,50.416z"/>
	<path d="M171.808,47.147c-0.426-2.738,2.163-4.7,4.443-5.362c1.995-0.579,3.429-1.81,4.679-3.371
		c1.888-2.358,0.746-5.714-1.165-7.042c-1.663-1.156-3.471-2.12-5.284-3.033c-1.151-0.58-3.244,0.565-3.722,2.37
		c-0.744,2.811-1.344,5.717-1.496,8.61c-0.125,2.375,0.354,4.817,0.831,7.176c0.264,1.305,0.817,2.747,1.709,3.675
		c0.97,1.009,0.765,1.959,0.298,2.714c-0.63,1.018-1.731,1.589-3.057,0.966c-0.33-0.155-0.694-0.29-1.053-0.326
		c-2.014-0.203-3.089-1.004-3.771-3.217c-1.6-5.191-1.708-10.439-1.302-15.704c0.187-2.419,1.009-4.89,2.024-7.118
		c1.142-2.508,3.451-3.883,6.155-4.543c4.363-1.065,7.989,0.832,11.411,3.034c1.838,1.183,3.494,2.804,4.864,4.521
		c1.677,2.102,2.143,4.382,0.937,7.221c-2.096,4.935-5.884,7.737-10.516,9.729c-0.721,0.31-1.687,0.104-2.534,0.049
		C174.089,47.421,172.923,47.264,171.808,47.147z"/>
	<path d="M309.106,8.985c-1.523-0.234-2.99-0.421-4.437-0.71c-0.359-0.072-0.722-0.42-0.963-0.733
		c-0.743-0.967-1.459-1.958-2.126-2.978c-0.648-0.991,0.043-2.878,1.132-3.283c0.536-0.2,1.145-0.347,1.561-0.704
		c1.332-1.145,2.326-0.378,3.265,0.509C309.881,3.298,309.868,6.024,309.106,8.985z"/>
	<path d="M0,30.893c0.465-0.595,0.79-1.393,1.362-1.657c0.9-0.417,1.749-0.407,2.764,0.455c2.802,2.381,2.801,4.471,1.959,7.479
		c-0.166,0.594-1.004,1.453-1.462,1.412c-0.786-0.07-1.805-0.574-2.209-1.219c-0.767-1.225-1.195-2.668-1.713-4.04
		C0.434,32.614,0.276,31.865,0,30.893z"/>
	<path d="M10.82,28.468c0.935,0.43,1.813,0.639,2.429,1.158c1.451,1.221,2.824,2.548,4.119,3.934
		c0.297,0.318,0.152,1.048,0.211,1.588c-0.486,0.01-0.973,0.044-1.459,0.027c-2.869-0.101-4.977-2.161-7.582-2.972
		c-1.466-0.457-1.461-1.873,0.023-2.888C9.223,28.861,10.102,28.725,10.82,28.468z"/>
	<path d="M317.511,6.86c-0.666-2.831,1.004-5.208,3.676-5.465c0.35-0.034,0.904,0.191,1.074,0.472
		c0.618,1.02,1.32,2.072,1.557,3.202c0.104,0.495-0.778,1.664-1.319,1.738C320.844,7.03,319.137,6.87,317.511,6.86z"/>
</g>
<g id="Layer_1">
</g>
</svg>
