<?xml version="1.0" encoding="iso-8859-1"?>
<!-- Generator: Adobe Illustrator 27.9.0, SVG Export Plug-In . SVG Version: 6.00 Build 0)  -->
<svg version="1.1" xmlns="http://www.w3.org/2000/svg" xmlns:xlink="http://www.w3.org/1999/xlink" x="0px" y="0px"
	 viewBox="0 0 418.724 53.422" style="enable-background:new 0 0 418.724 53.422;" xml:space="preserve">
<g id="Layer_19">
	<path d="M330.005,4.282c-0.343,0.881-0.978,1.699-0.887,2.426c0.351,2.826-0.716,5.759,0.661,8.508
		c0.219,0.436,0.177,1.029,0.168,1.548c-0.023,1.289,0.56,1.66,1.75,1.165c2.495-1.037,4.95-2.234,7.535-2.967
		c1.988-0.564,4.144-0.628,6.234-0.718c3.545-0.153,7.097-0.207,10.646-0.18c1.037,0.008,2.088,0.373,3.093,0.696
		c0.271,0.087,0.639,0.725,0.55,0.929c-0.288,0.657-0.734,1.258-1.186,1.827c-0.336,0.422-0.777,0.76-1.166,1.141
		c-0.03,0.03,0.003,0.122-0.026,0.155c-1.333,1.5-2.564,3.118-4.062,4.431c-0.55,0.482-1.732,0.242-2.943,0.364
		c0.175,0.241,0.359,0.746,0.712,0.937c2.107,1.141,4.235,2.248,6.392,3.289c1.605,0.775,3.293,1.379,4.896,2.16
		c1.465,0.714,2.811,1.688,4.306,2.319c1.833,0.775,3.753,1.356,5.659,1.943c2.839,0.875,5.685,1.738,8.556,2.499
		c1.964,0.521,3.98,0.839,5.965,1.284c2.637,0.591,5.254,1.276,7.9,1.815c3.393,0.692,6.807,1.28,10.252,1.92
		c0.103,1.433-0.836,1.588-1.946,1.455c-1.468-0.175-2.408,0.596-1.849,1.805c0.782,1.693-0.539,2.933-1.254,3.294
		c-2.438,1.231-5.005,2.358-7.982,1.397c-1.368-0.442-2.969-0.108-4.439-0.308c-1.132-0.154-2.207-0.712-3.338-0.884
		c-6.563-0.999-12.883-3.02-19.328-4.478c-4.307-0.974-7.907-3.453-12.114-4.505c-1.479-0.37-2.758-1.475-4.193-2.093
		c-5.283-2.276-10.586-4.505-15.898-6.714c-1.522-0.633-2.197-0.347-1.943,1.173c0.482,2.888-1.517,4.141-3.086,5.778
		c-1.455,1.517-2.742,3.212-4.3,4.609c-2.023,1.814-4.844,0.945-5.59-1.623c-0.409-1.406-0.691-2.607-2.663-2.538
		c-1.002,0.035-2.023-0.785-3.052-1.174c-2.799-1.059-5.563-2.242-8.423-3.107c-4.394-1.328-8.841-2.496-13.295-3.612
		c-4.21-1.055-8.456-1.967-12.691-2.92c-1.878-0.423-3.762-0.827-5.659-1.147c-0.269-0.045-0.848,0.394-0.905,0.684
		c-0.243,1.239-0.202,2.547-0.539,3.753c-0.326,1.167-0.888,2.302-1.529,3.339c-0.682,1.103-1.573,2.078-2.381,3.102
		c-1.339,1.698-2.574,3.504-4.098,5.016c-0.444,0.441-1.807,0.265-2.607-0.024c-2.18-0.787-3.389-2.671-4.547-4.547
		c-3.04-4.922-3.679-10.412-3.976-16.04c-0.165-3.122,0.437-5.998,1.605-8.826c0.471-1.141,0.054-2.089-0.526-3.099
		c-1.064-1.851-0.681-2.664,1.231-3.638c2.421-1.233,4.761-2.625,7.181-3.86c1.116-0.569,2.309-1.085,3.525-1.314
		c0.572-0.108,1.282,0.518,1.929,0.812c-0.067,0.137-0.134,0.275-0.201,0.412c2.415-0.414,4.824-1.117,7.245-1.159
		c2.235-0.039,4.486-1.115,6.761-0.026c0.401,0.192,1.088-0.294,1.654-0.352c1.915-0.196,3.682,0.378,5.407,1.133
		c1.088,0.475,2.238,0.835,3.261,1.422c0.911,0.522,1.146,1.239,0.306,2.228c-2.702,3.181-5.318,6.435-7.952,9.674
		c-0.259,0.319-0.413,0.723-0.816,1.447c1.714,0.532,3.267,1.106,4.866,1.495c5.037,1.223,10.101,2.337,15.136,3.57
		c3.387,0.829,6.753,1.747,10.106,2.706c1.57,0.449,3.084,1.09,4.624,1.642c1.482,0.532,2.078,0.149,2.033-1.365
		c-0.141-4.705-0.366-9.41-0.386-14.116c-0.003-0.657,0.83-1.597,1.508-1.924c1.826-0.879,3.8-1.445,5.673-2.234
		c1.357-0.572,2.646-1.304,3.972-1.952C329.591,4.107,329.715,4.192,330.005,4.282z M268.396,10.08
		c0.492,1.863,0.857,3.249,1.232,4.671c2.028-1.45,3.845-2.749,5.542-3.962C272.971,10.558,270.845,10.336,268.396,10.08z"/>
	<path d="M101.871,5.984c0.762,0.781,2.048,0.387,2.857,1.459c0.322,0.427,2.013-0.18,3.281-0.341
		c-2.101,5.162-4.733,9.817-10.102,12.857c1.371,0.647,2.251,1.262,3.218,1.476c2.088,0.462,4.218,0.749,6.339,1.049
		c2.209,0.312,4.56,0.191,6.602,0.937c1.816,0.663,3.474,0.323,5.207,0.432c0.567,0.036,1.058,0.834,1.651,0.957
		c2.198,0.453,4.499,0.29,6.642,1.143c0.454,0.181,1.035,0.012,1.534,0.118c1.718,0.365,2.283-0.161,2.016-1.904
		c-0.339-2.212-0.66-4.427-0.982-6.642c-0.193-1.324-1.3-2.005-2.704-1.169c-1.574,0.936-2.9,0.156-4.24-0.147
		c-0.684-0.154-1.489-1.155-1.629-1.889c-0.106-0.561,0.62-1.455,1.196-1.94c2.324-1.958,4.729-3.819,7.111-5.707
		c1.496-1.186,3.158-1.968,5.095-2.109c2.83-0.206,5.655-0.495,8.488-0.642c2.746-0.143,5.502-0.101,8.248-0.246
		c0.982-0.052,1.939-0.493,2.924-0.614c1.73-0.212,3.482-0.249,5.208-0.485c1.262-0.173,2.494-0.564,3.747-0.817
		c0.286-0.058,0.606,0.05,1.26,0.119c-1.186,0.814-2.122,1.458-3.377,2.32c1.783,0.023,3.122,0.04,4.82,0.062
		c-0.369,0.45-0.563,0.672-0.74,0.905c-0.213,0.28-0.542,0.551-0.588,0.861c-0.091,0.606,0.236,1.564-0.062,1.797
		c-1.027,0.803-2.178,1.664-3.41,1.949c-4.717,1.09-9.506,1.871-14.224,2.959c-2.187,0.504-4.273,1.447-6.405,2.191
		c-0.019,0.155-0.037,0.31-0.056,0.465c0.418,0.222,0.835,0.444,1.092,0.581c-0.216,0.564-0.604,1.092-0.564,1.585
		c0.059,0.722,0.525,0.996,1.098,0.273c0.215,0.351,0.507,0.677,0.626,1.058c0.138,0.442,0.065,0.948,0.186,1.398
		c0.44,1.636,0.927,3.259,1.388,4.889c0.499,1.764,0.952,3.542,1.501,5.291c0.212,0.676,0.787,1.257,0.914,1.934
		c0.126,0.67-0.104,1.407-0.169,2.02c0.292,0.164,0.872,0.295,0.972,0.59c0.181,0.533,0.301,1.3,0.043,1.724
		c-0.541,0.889-1.379,1.591-2.032,2.418c-1.39,1.759-2.698,3.584-4.134,5.303c-0.367,0.439-1.187,0.924-1.624,0.796
		c-1.013-0.298-2.425,0.127-2.848-1.584c-0.343-1.389-1.246-2.628-1.741-3.992c-0.525-1.448-0.837-2.973-1.286-4.45
		c-0.478-1.574-0.942-3.159-1.539-4.689c-0.415-1.065-1.327-1.514-2.425-1.04c-0.313,0.135-0.708,0.87-0.596,1.076
		c1.34,2.469-1.348,3.128-2.092,4.621c-0.542,1.088-1.732,1.452-3.06,1.138c-2.783-0.658-5.581-1.259-8.383-1.831
		c-1.725-0.352-3.459-0.691-5.206-0.891c-4.637-0.533-9.29-0.926-13.921-1.501c-1.998-0.248-3.972-0.746-5.929-1.241
		c-1.902-0.481-2.552-0.253-3.348,1.487c-0.088,0.192-0.06,0.475-0.194,0.604c-2.388,2.294-3.833,5.263-5.716,7.918
		c-1.603,2.26-1.876,2.087-4.285,0.737c-3.047-1.708-3.278-4.582-3.681-7.494c-0.375-2.712-0.796-5.42-1.296-8.111
		c-0.095-0.514-0.654-0.941-0.75-1.072c-1.73,1.434-3.266,2.806-4.908,4.037c-1.26,0.944-1.69,3.168-0.853,4.498
		c0.39,0.62,1.833,0.9,0.868,2.098c0.398,0.286,0.797,0.571,0.922,0.661c-1.813,2.912-3.559,5.677-5.26,8.469
		c-0.776,1.273-1.868,1.738-3.323,1.726c-1.382-0.011-1.685-0.916-2.133-1.955c-0.965-2.236-2.197-4.359-3.136-6.604
		c-0.805-1.925-1.356-3.956-2.075-6.108c-4.583-1.229-5.154-1.141-6.122,1.152c0.685,0.212,1.362,0.421,2.208,0.683
		c-0.26,1.359-0.635,2.808-0.79,4.28c-0.128,1.212-0.151,2.48,0.064,3.671c0.198,1.094-0.516,1.674-0.905,2.44
		c-1.012,1.993-2.026,3.988-3.129,5.93c-0.612,1.078-1.279,2.179-2.148,3.04c-0.945,0.937-1.792,0.322-2.721-0.455
		c-1.939-1.625-1.773-3.67-1.599-5.813c0.247-3.044,0.384-6.097,0.652-9.139c0.295-3.34,0.603-6.682,1.056-10.003
		c0.53-3.883,1.008-7.795,1.921-11.596c0.601-2.502,1.815-4.889,3.003-7.199c0.388-0.754,1.54-1.14,2.38-1.63
		c1.469-0.856,2.95-1.695,4.457-2.481c1.174-0.612,2.995,0.244,3.479,1.505c0.353,0.922,0.824,1.798,1.215,2.707
		c0.124,0.287,0.108,0.639,0.246,0.915c0.204,0.409,0.407,0.991,0.755,1.125c1.256,0.483,2.145,0.904,1.987,2.653
		c-0.076,0.837,1.139,1.748,1.641,2.693c0.414,0.78,0.581,1.689,0.97,2.485c0.279,0.571,0.703,1.09,1.138,1.562
		c0.441,0.479,0.976,0.871,1.348,1.196c1.261-0.265,2.545-0.544,3.832-0.804c1.42-0.287,1.891-1.126,1.41-2.544
		c-1.012-2.982-0.237-6.039,2.228-8.05c1.718-1.401,3.604-2.593,5.384-3.92c1.463-1.091,2.939-2.176,4.304-3.383
		c2.044-1.807,6.876-2.537,9.285-1.31c0.308,0.157,0.722,0.349,1.009,0.263c2.176-0.656,4.127,0.147,6.18,0.694
		c2.39,0.637,4.88,0.894,7.032,1.266c-0.523,0.259-1.278,0.632-2.033,1.005c-0.898-0.208-1.796-0.416-2.693-0.624
		c-0.076,0.252-0.151,0.505-0.227,0.757C99.771,5.211,100.821,5.597,101.871,5.984z M83.69,20.97
		c0.794-0.386,1.607-0.676,2.305-1.139c2.028-1.346,3.991-2.788,6.017-4.136c1.005-0.669,2.112-1.183,3.122-1.844
		c0.227-0.149,0.323-0.621,0.323-0.944c0-0.157-0.345-0.424-0.56-0.454c-2.933-0.406-5.867-0.804-8.807-1.152
		c-2.561-0.303-3.187,0.474-2.874,3.177C83.448,16.484,83.517,18.508,83.69,20.97z M47.407,14.731
		c-0.898,2.644-1.733,5.1-2.529,7.443c1.442,1.478,2.43,0.542,3.43-0.33c1.034-0.902,1.357-2.021,0.85-3.287
		C48.678,17.356,48.086,16.2,47.407,14.731z"/>
	<path d="M214.904,8.306c-0.93,3.251-1.851,6.544-2.815,9.824c-1.108,3.769-1.628,7.771-4.104,11.015
		c-0.831,1.089-1.976,1.943-2.777,3.049c-1.441,1.991-2.63,4.168-4.108,6.129c-2.079,2.758-5.084,4.218-8.534,2.546
		c-1.984-0.961-2.298-0.625-3.889,1.692c-1.227,1.787-2.638,3.55-4.308,4.902c-1.574,1.274-5.029,0.069-5.647-1.845
		c-0.866-2.683-1.424-5.465-2.138-8.199c-0.486-1.861-1.096-3.693-1.501-5.571c-0.674-3.125-1.201-6.282-1.844-9.414
		c-0.237-1.154-0.55-2.305-0.965-3.405c-0.65-1.725,0.015-2.841,2.016-4.002c1.934-1.122,3.662-2.593,5.548-3.804
		c1.315-0.844,2.714-1.578,4.134-2.235c1.321-0.611,1.511,0.339,1.626,1.352c0.445,3.909,0.863,7.823,1.396,11.721
		c0.376,2.75,0.846,5.492,1.429,8.204c0.198,0.924,0.867,1.747,1.501,2.962c1.167-1.148,2.156-1.912,2.88-2.875
		c1.684-2.24,3.816-3.542,6.623-3.816c0.42-0.041,1.003-0.564,1.143-0.986c1.044-3.148,2.047-6.311,2.957-9.5
		c0.575-2.013,1.935-3.168,3.681-4.124c1.577-0.863,3.231-1.74,4.493-2.976C212.77,7.901,213.505,7.009,214.904,8.306z"/>
	<path d="M217.002,27.064c0.007-2.821,1.137-5.215,2.753-7.424c0.177-0.242,0.427-0.486,0.697-0.595
		c3.629-1.456,6.204-4.354,9.145-6.734c1.997-1.616,3.543-1.751,5.834-0.572c2.393,1.231,4.36,3.016,5.638,5.189
		c3.164,5.385,4.481,11.113,0.838,16.867c-2.857,4.513-5.883,8.958-10.271,12.164c-1.085,0.793-2.609,1.405-3.914,1.376
		c-1.972-0.044-3.792-1.496-4.423-3.11c-0.605-1.55-1.581-2.255-2.731-2.987c-1.699-1.082-2.415-2.592-3.045-4.512
		C216.454,33.469,216.949,30.285,217.002,27.064z M229.456,38.123c0.567-1.158,1.102-2.045,1.441-3.002
		c0.34-0.956,0.484-1.981,0.725-3.024c-1.538,0.263-4.107,4.6-3.807,6.142C228.442,38.195,229.062,38.151,229.456,38.123z"/>
	<path d="M25.611,4.219c1.301,3.087,2.484,5.893,3.786,8.982c0.058-0.55,0.084-0.801,0.112-1.051
		c2.211,1.531,2.152,3.205-0.445,4.573c-2.256,1.188-3.629,3.126-5.025,5.049c-1.712,2.358-3.593,2.705-5.599,0.571
		c-1.823-1.94-3.443-4.071-5.392-6.403c-1.118,1.151-2.612,2.367-3.7,3.877c-2.006,2.786-4.807,2.692-6.864-0.052
		c-2.402-3.205-2.765-6.761-2.324-10.442c0.155-1.294,0.8-2.549,2.708-3.144c2.004-0.624,4.322-1.421,5.527-3.722
		c0.693-1.324,2.093-1.994,3.574-2.012c0.291,1.912,0.503,3.727,0.864,5.512c0.198,0.979,0.709,1.235,1.515,0.326
		c0.51-0.575,1.179-1.174,1.886-1.374c1.385-0.391,1.945-1.469,2.634-2.506c0.688-1.036,3.62-2.637,4.352-2.375
		C23.514,0.133,23.827,0.336,24,0.584c0.409,0.588,0.886,1.194,1.054,1.863c0.129,0.515-0.162,1.14-0.282,1.712
		c-0.078,0.374-0.184,0.743-0.277,1.114c0.146,0.045,0.292,0.089,0.438,0.134C25.099,5.116,25.265,4.825,25.611,4.219z"/>
	<path d="M398.798,12.409c2.017-0.316,3.681-0.511,5.315-0.85c1.867-0.387,3.702-0.927,5.564-1.342
		c0.398-0.089,0.966-0.079,1.26,0.144c1.049,0.797,2.115,1.351,3.485,1.043c0.13-0.029,0.384,0.193,0.479,0.357
		c1.192,2.055,2.487,4.062,3.502,6.203c0.694,1.464,0.287,1.8-1.44,1.474c-0.067,0.222-0.136,0.456-0.21,0.689
		c-0.062,0.195-0.128,0.389-0.161,0.487c-0.194,0.134-0.327,0.268-0.364,0.246c-1.054-0.646-1.203-0.274-1.328,0.847
		c-0.189,1.686-2.799,3.729-4.418,3.861c-1.809,0.147-3.442-1.679-4.322-3.247c-1.493-2.661-3.089-5.265-4.677-7.871
		c-0.524-0.859-1.291-0.983-2.008-0.251c-1.367,1.396-2.91,2.699-3.95,4.317c-1.178,1.835-2.854,2.218-4.683,2.353
		c-1.401,0.104-3.998-2.741-4.244-4.419c-0.076-0.519-0.142-1.043-0.167-1.567c-0.101-2.107-0.225-4.215-0.24-6.324
		c-0.003-0.453,0.318-1.2,0.653-1.31c1.125-0.367,2.369-0.374,3.483-0.762c1.839-0.64,3.665-1.367,5.398-2.249
		c1.52-0.773,2.157-0.664,2.393,1.033c0.26,1.871,0.272,3.775,0.421,5.662C398.582,11.473,398.725,12.007,398.798,12.409z"/>
</g>
<g id="Layer_1">
</g>
</svg>
