<?xml version="1.0" encoding="iso-8859-1"?>
<!-- Generator: Adobe Illustrator 27.9.0, SVG Export Plug-In . SVG Version: 6.00 Build 0)  -->
<svg version="1.1" xmlns="http://www.w3.org/2000/svg" xmlns:xlink="http://www.w3.org/1999/xlink" x="0px" y="0px"
	 viewBox="0 0 561.334 142.066" style="enable-background:new 0 0 561.334 142.066;" xml:space="preserve">
<g id="Layer_14">
	<path d="M358.471,72.858c-1.743,0.367-2.226,1.428-2.497,2.647c-0.611,2.745-0.338,5.796-3.097,7.885
		c-1.008,0.763-2.301,1.849-2.461,3.619c-0.086,0.947-1.02,1.819-1.577,2.721c-0.343,0.555-0.696,1.103-1.115,1.765
		c-1.017-0.099-3.008,1.532-2.93,2.632c-3.281-0.264-4.284,3.367-7.183,3.753c0.054,0.143,0.109,0.286,0.163,0.429
		c0.462,0.126,0.924,0.251,1.718,0.467c-1.235,0.555-1.962,0.87-2.859-0.189c-0.463-0.547-1.556-0.518-2.305-0.873
		c-1.605-0.761-3.159-1.633-4.763-2.396c-0.609-0.289-1.322-0.352-1.95-0.608c-4.173-1.702-8.602-2.786-12.438-5.299
		c-3.866-2.534-7.785-4.988-11.682-7.475c-0.085-0.054-0.192-0.075-0.506-0.193c-0.612,1.533-1.291,3.047-1.822,4.611
		c-0.856,2.522-3.234,3.399-5.982,2.804c-5.003-1.084-9.061-4-13.28-6.663c-2.55-1.61-5.002-3.255-6.942-5.596
		c-0.179-0.216-0.919-0.323-1.02-0.191c-0.729,0.951-1.544,1.904-1.976,2.998c-0.558,1.414-0.797,2.955-1.15,4.447
		c-0.335,1.417-0.623,2.779-1.994,3.725c-0.532,0.367-0.661,1.377-0.886,2.121c-0.532,1.761-1.011,3.537-1.551,5.445
		c-0.442-0.381-0.778-0.67-1.53-1.318c-0.189,1.804-0.22,3.26-0.512,4.662c-0.698,3.357-1.47,6.702-2.325,10.022
		c-0.185,0.718-0.709,1.507-1.312,1.922c-0.862,0.592-1.79,1.233-3.056,0.489c-1.617-0.949-3.451-1.527-5.066-2.478
		c-1.537-0.906-2.898-2.104-4.362-3.138c-0.63-0.445-1.406-0.707-1.968-1.216c-0.579-0.525-1.312-1.207-1.397-1.892
		c-0.411-3.339-0.642-6.7-0.909-10.056c-0.214-2.681-0.452-5.363-0.564-8.049c-0.132-3.173-0.218-6.353-0.181-9.528
		c0.039-3.358,0.306-6.712,0.362-10.07c0.07-4.173-0.009-8.347,0.056-12.52c0.014-0.882,0.471-1.749,0.55-2.639
		c0.119-1.333,0.086-2.68,0.115-4.021c0.028-1.279,0.102-2.56,0.071-3.837c-0.064-2.588-0.206-5.174-0.27-7.762
		c-0.013-0.525,0.178-1.055,0.374-2.122c2.206,1.943,4.118,3.561,5.954,5.261c1.957,1.812,3.904,3.641,5.74,5.574
		c1.534,1.615,3.711,2.849,3.964,5.348c0.121,1.195-0.372,2.447-0.285,3.652c0.147,2.047,0.533,4.076,0.83,6.195
		c2.447-0.646,4.244,0.374,5.961,1.711c3.809,2.966,7.288,6.272,10.603,9.785c1.978,2.097,4.247,3.923,6.416,5.835
		c1.013,0.893,1.88,0.565,2.165-0.783c0.21-0.989,0.362-1.991,0.531-2.989c0.939-5.554,2.143-11.093,1.836-16.767
		c-0.205-3.788-0.631-7.601,0-11.338c0.404-2.391-0.289-4.536-0.454-6.797c-0.123-1.676,0.082-3.442,0.503-5.074
		c0.369-1.43,1.401-1.637,2.681-0.622c2.057,1.631,4,3.407,5.99,5.123c2.62,2.26,5.238,4.521,7.858,6.78
		c0.279,0.241,0.616,0.431,0.845,0.711c1.242,1.517,1.768,1.661,3.355,0.539c2.042-1.443,4.133-2.774,6.641-3.187
		c2.662-0.439,5.331-0.892,8.015-1.115c5.211-0.435,9.876,1.677,14.331,3.873c2.541,1.253,4.549,3.629,6.713,5.592
		c1.356,1.23,2.583,2.606,3.82,3.961c2.084,2.282,4.162,4.571,6.176,6.915c0.88,1.024,1.809,2.099,2.329,3.316
		c0.583,1.363,0.722,2.915,1.07,4.382c0.159,0.669,0.354,1.329,0.642,2.401c1.661-2.891-0.1-5.022-0.49-7.244
		c-0.197-1.122-1.161-2.099-1.41-3.224c-0.369-1.668-0.629-3.42-0.546-5.116c0.162-3.288,0.622-6.561,0.908-9.845
		c0.19-2.184,0.173-4.391,0.465-6.559c0.334-2.479,0.883-4.932,1.387-7.386c0.34-1.657,0.769-3.296,1.147-4.946
		c0.471-2.056,0.829-3.982-0.96-5.805c-0.658-0.671-0.617-2.177-0.612-3.301c0.004-0.778,1.58-0.932,2.462-0.436
		c0.659,0.371,1.447,0.513,2.178,0.757c-0.044-0.19-0.088-0.381-0.132-0.571c0.301-0.834,0.423-1.805,0.935-2.478
		c1.883-2.477,3.865-4.882,5.887-7.247c0.368-0.43,1.138-0.49,1.657-0.823c1.041-0.667,1.969-1.544,3.069-2.074
		c1.08-0.521,2.299-0.925,3.485-1.019c2.717-0.215,5.267,0.639,7.872,1.376c4.513,1.277,7.438,4.405,10.167,7.864
		c2.142,2.714,4.279,5.434,6.326,8.219c1.762,2.397,3.563,4.795,5.01,7.381c0.73,1.305,0.732,3.024,1.011,4.565
		c0.031,0.174-0.276,0.411-0.427,0.618c-0.521,0.715-1.053,1.422-1.562,2.146c-0.662,0.943-0.856,2.346-2.569,2.176
		c-0.422-0.042-0.92,0.673-1.381,1.044c-1.439,1.159-2.721,2.667-4.353,3.394c-2.247,1.001-3.709,2.868-5.642,4.176
		c-0.248,0.168-0.51,0.523-0.726,0.494c-1.447-0.195-2.303,0.885-3.405,1.452c-2.223,1.144-4.5,2.181-6.733,3.304
		c-1.2,0.603-2.362,1.284-3.533,1.945c-0.899,0.508-0.858,1.309,0.224,1.875c1.954,1.021,3.928,2.022,5.963,2.862
		c4.274,1.765,8.559,3.514,12.903,5.093c4.056,1.475,8.194,2.726,12.299,4.067c3.634,1.187,7.258,2.406,10.913,3.526
		c1.915,0.586,3.866,1.099,5.837,1.44c1.525,0.264,2.25-0.894,2.082-2.539c-0.171-1.679-0.051-3.386-0.092-5.08
		c-0.035-1.424-0.153-2.845-0.176-4.269c-0.057-3.634-0.097-7.269-0.113-10.903c-0.019-4.302-0.165-8.613,0.064-12.903
		c0.106-1.98,1.061-3.902,1.469-5.884c0.314-1.524,0.378-3.1,0.544-4.654c0.219-2.049,0.417-4.1,0.647-6.147
		c0.158-1.405,0.356-2.805,0.541-4.246c4.23,0.179,6.577,2.45,8.443,5.474c1.467,2.376,2.925,4.763,4.541,7.036
		c0.237,0.333,1.397,0.246,2.017,0.031c3.647-1.269,7.179-2.982,10.911-3.86c3.139-0.739,6.496-0.585,9.76-0.748
		c1.958-0.098,3.928-0.132,5.885-0.038c1.835,0.087,3.663,0.351,5.487,0.595c0.783,0.104,1.538,0.43,2.321,0.522
		c1.993,0.235,3.45,1.377,4.498,2.913c1.969,2.884,3.748,5.898,5.633,8.84c0.624,0.974,1.329,1.897,2.166,3.083
		c-0.693-0.04-1.135-0.082-1.578-0.087c-0.634-0.007-1.623-0.241-1.841,0.064c-1.07,1.498-2.569,0.719-3.825,0.831
		c-2.28,0.203-4.589,0.088-6.886,0.108c-0.105,0.001-0.247-0.019-0.308,0.039c-1.826,1.736-4.264,1.121-6.374,1.408
		c-2.357,0.321-4.386,1.026-6.347,2.248c-1.057,0.658-2.283,1.06-3.292,1.776c-1.286,0.913-2.356,2.134-3.656,3.021
		c-1.124,0.767-2.487,1.173-3.657,1.884c-1.257,0.764-1.124,1.388,0.126,2.165c4.083,2.536,8.632,4.025,13.005,5.911
		c1.587,0.684,3.043,1.725,4.674,2.244c3.39,1.08,6.853,1.931,10.291,2.858c3.256,0.877,6.508,1.773,9.782,2.581
		c2.717,0.671,5.486,1.139,8.189,1.86c2.148,0.573,4.229,1.4,6.345,2.096c0.549,0.18,1.139,0.244,1.676,0.45
		c0.37,0.142,0.812,0.359,0.998,0.675c2,3.394,4.008,6.785,5.889,10.245c0.541,0.994,0.68,2.206,1.117,3.71
		c-1.84-0.651-3.415-1.132-4.93-1.757c-5.895-2.433-12.035-3.83-18.321-4.835c-3.149-0.503-6.17-1.781-9.275-2.612
		c-1.237-0.331-2.578-0.277-3.811-0.617c-2.08-0.573-4.132-1.267-6.16-2.008c-3.123-1.141-6.329-2.14-9.289-3.62
		c-2.61-1.305-4.942-3.17-7.376-4.82c-1.222-0.829-2.401-1.722-3.591-2.6c-1.018-0.751-2.042-1.496-3.028-2.288
		c-1.28-1.028-2.13-0.697-2.696,0.87c-0.369,1.021-0.529,2.046-2.105,2.524c-1.685,0.511-2.22,2.579-2.461,4.36
		c-0.162,1.196-0.402,2.121-1.589,2.886c-0.696,0.448-1.092,1.808-1.116,2.77c-0.076,3.062,0.062,6.13,0.163,9.194
		c0.149,4.483,0.472,8.943,1.729,13.289c0.17,0.589,0.002,1.276-0.009,1.917c-0.59-0.097-1.2-0.128-1.765-0.302
		c-3.13-0.965-5.24-3.738-8.096-4.905c-2.169-0.886-2.276-2.275-2.501-3.828c-0.317-2.186-1.805-4.071-1.436-6.445
		c0.167-1.073-1.285-1.647-2.329-1.204c-0.604,0.256-1.418,0.378-2.03,0.197c-5.602-1.667-11.181-3.413-16.766-5.136
		c-3.619-1.116-7.229-2.265-10.864-3.329c-1.269-0.371-2.644-0.4-3.896-0.81c-4.236-1.389-8.521-2.638-12.348-5.079
		c-1.802-1.149-3.827-1.954-5.772-2.872c-1.237-0.584-1.59,0.08-1.728,1.223c-0.092,0.759,0.38,2.155-1.233,1.743
		c-0.687,2.77-1.494,5.518-2.023,8.318c-0.442,2.337-0.51,4.742-0.845,7.103c-0.107,0.755-0.602,1.446-0.808,2.197
		c-0.448,1.63-0.902,3.265-1.212,4.925c-0.384,2.055-0.636,4.135-0.923,6.208c-0.172,1.237-0.225,2.496-0.478,3.714
		c-0.182,0.875-1.938,1.238-2.809,0.917c-2.564-0.947-4.342-2.992-6.513-4.481c-0.251-0.172-0.48-0.534-0.519-0.833
		c-0.326-2.537-0.356-5.03,0.311-7.572c0.53-2.02,0.514-4.179,0.799-6.268c0.289-2.12,0.683-4.225,0.96-6.346
		C358.668,74.313,358.519,73.629,358.471,72.858z M334.746,82.107c0.424-0.825,0.741-1.493,1.102-2.135
		c1.896-3.367,4.038-6.62,5.634-10.123c1.321-2.898,1.621-6.131,1.413-9.37c-0.161-2.497-0.674-3.287-2.887-3.099
		c-5.034,0.428-9.856,1.59-13.36,5.622c-3.414,3.93-6.774,7.929-7.562,13.365c-0.029,0.198-0.173,0.378-0.243,0.573
		c-0.37,1.022-0.874,2.02-1.066,3.075c-0.272,1.488,0.233,1.796,1.748,1.738c0.755-0.029,1.552,0.33,2.284,0.627
		c0.749,0.304,1.443,0.745,2.179,1.137c0.365-1.304,0.559-2.239,0.901-3.115c0.167-0.426,0.6-1.029,0.931-1.041
		c0.43-0.016,0.878,0.478,1.507,0.869c0.508-1.284,1.061-2.68,1.506-3.805c2.921,0.266,1,2.757,2.057,4.069
		c0.982-3.289,0.982-3.289,2.499-3.954c-0.222,2.118-0.427,4.082-0.644,6.152C333.718,82.407,334.371,82.217,334.746,82.107z
		 M381.212,32.503c0.071,0.129,0.142,0.258,0.213,0.387c1.605-0.684,3.52-1.025,4.745-2.131c1.891-1.707,3.371-3.892,4.887-5.975
		c0.386-0.53,0.251-1.439,0.355-2.174c-0.711,0.164-1.543,0.145-2.114,0.522c-3.203,2.115-5.523,5.076-7.585,8.255
		C381.494,31.725,381.377,32.13,381.212,32.503z"/>
	<path d="M182.27,115.62c-0.205-0.393-0.409-0.787-0.635-1.22c-0.6,0.922-1.185,1.167-2.2,0.455c-1.084-0.76-2.434-1.133-3.56-1.844
		c-1.62-1.023-3.131-2.217-4.713-3.304c-0.906-0.623-1.851-1.192-2.794-1.759c-0.878-0.528-1.275-1.132-1.302-2.301
		c-0.078-3.472-0.425-6.937-0.675-10.516c-0.616-0.064-1.083-0.256-1.435-0.128c-2.93,1.067-5.918,0.228-8.872,0.285
		c-1.788,0.035-3.581-0.366-5.376-0.511c-1.352-0.109-2.637-0.422-4.056,0.314c-0.856,0.444-2.224,0.062-3.322-0.153
		c-4.836-0.946-9.701-0.817-14.583-0.606c-1.856,0.08-3.726-0.21-5.584-0.148c-2.675,0.09-5.345,0.349-7.825,0.522
		c0.049,0.027,0.388,0.215,0.727,0.403c-0.019,0.089-0.038,0.178-0.056,0.267c-1.798-0.323-3.635-0.51-5.385-1.006
		c-2.013-0.571-4.003-1.299-5.899-2.182c-1.396-0.65-2.604-1.694-3.941-2.487c-0.448-0.266-1.034-0.301-1.557-0.441
		c-0.1,0.592-0.256,1.181-0.281,1.776c-0.017,0.405,0.149,0.818,0.235,1.235c-1.07,0.558-2.101,2.616-2.747,5.083
		c-0.108-0.437-0.216-0.873-0.324-1.31c-0.206,0.069-0.412,0.138-0.618,0.207c0.225,3.731,0.45,7.461,0.685,11.35
		c-0.488-0.377-0.802-0.62-1.473-1.138c0.066,1.113,0.018,1.801,0.162,2.445c0.604,2.704,1.315,5.384,1.862,8.099
		c0.107,0.531-0.343,1.174-0.537,1.765c-0.478-0.198-0.979-0.356-1.432-0.602c-1.928-1.049-3.833-2.14-5.764-3.182
		c-1.11-0.599-2.637-0.858-3.291-1.765c-0.931-1.29-1.461-2.994-1.75-4.596c-0.419-2.323-0.467-4.712-0.68-7.072
		c-0.137-1.519-0.268-3.039-0.439-4.554c-0.183-1.614-0.305-3.246-0.646-4.828c-0.386-1.791-1.279-3.213-3.005-4.217
		c-0.881-0.513-1.597-1.743-1.875-2.786c-1.327-4.968-2.538-9.97-3.663-14.988c-0.419-1.87-0.613-3.814-0.674-5.732
		c-0.036-1.135,0.43-2.279,0.594-3.43c0.133-0.934,0.088-1.895,0.243-2.824c0.157-0.945,0.368-1.903,0.72-2.79
		c1.172-2.954,2.474-5.699,4.955-8.006c3.221-2.994,7.001-4.511,11.014-5.683c2.202-0.643,4.579-1.401,6.782-1.174
		c4.645,0.477,9.338,0.519,13.866,2.411c2.834,1.184,5.567,2.335,7.838,4.339c1.75,1.544,3.269,3.355,4.842,5.091
		c2.261,2.494,4.518,4.995,6.704,7.555c1.876,2.197,1.835,2.836,0.019,5.079c-0.228,0.281-0.497,0.528-0.804,0.85
		c-0.274-0.567-0.538-1.115-0.903-1.869c-1.709,4.425-5.396,6.628-8.916,8.955c-1.565,1.034-3.367,1.707-4.954,2.713
		c-0.633,0.401-1.895,0.701-1.28,2.036c0.04,0.088-0.231,0.376-0.41,0.487c-0.107,0.067-0.44,0.012-0.46-0.054
		c-0.422-1.356-0.879,0.373-1.297-0.021c-0.514,0.811-2.451,0.242-1.978,2.325c0.741-0.361,1.357-0.661,1.984-0.966
		c0.107,1.682,1.522,1.878,2.702,2.017c5.804,0.687,11.625,1.231,17.433,1.886c2.193,0.247,4.368,0.658,6.551,0.993
		c4.545,0.698,9.075,1.528,13.641,2.047c3.184,0.362,6.416,0.298,9.627,0.426c0.323,0.013,0.647,0.023,0.966,0.067
		c2.37,0.321,2.926-0.301,2.548-2.663c-0.58-3.625-1.141-7.256-1.588-10.899c-0.113-0.923,0.227-1.904,0.371-2.856
		c0.309-2.049,0.289-4.044-0.859-6.022c-1.702,1.477-3.368,2.792-4.875,4.271c-1.34,1.314-2.906,1.755-4.648,0.974
		c-3.521-1.58-6.37-3.997-8.854-6.928c-1.053-1.243-2.237-2.458-3.584-3.349c-2.126-1.407-2.696-3.508-3.189-5.863
		c2.393-2.205,4.796-4.496,7.295-6.676c0.763-0.666,1.782-1.046,2.702-1.523c2.086-1.08,4.164-2.176,6.281-3.193
		c1.442-0.693,3.034-1.111,4.402-1.918c3.729-2.2,7.879-3.296,11.852-4.867c3.964-1.567,8.177-2.114,12.19-3.45
		c0.944-0.314,1.996-0.546,3-0.834c0.578-0.166,1.298,0.222,1.914,0.121c1.183-0.194,2.358-0.499,3.5-0.869
		c1.139-0.37,2.143-0.755,3.463-0.365c1.005,0.297,2.238-0.212,3.374-0.317c2.617-0.244,5.271-0.837,7.845-0.597
		c3.627,0.339,7.254,1.1,10.766,2.089c1.723,0.485,3.266,1.788,4.739,2.919c0.882,0.677,2.077,1.008,2.211,2.72
		c0.076,0.979,1.868,1.846,2.921,2.723c1.104,0.919,2.45,1.63,3.322,2.725c0.973,1.222,1.671,2.722,2.219,4.201
		c0.306,0.826-0.414,1.131-1.3,1.049c-3.262-0.304-6.536-0.798-9.795-0.734c-4.302,0.085-8.615,0.472-12.886,1.021
		c-3.794,0.488-7.556,1.282-11.294,2.115c-2.707,0.603-5.411,1.33-8.011,2.285c-4.735,1.74-9.396,3.682-14.078,5.565
		c-0.83,0.334-1.617,0.777-2.41,1.195c-1.344,0.707-1.501,1.632-0.279,2.549c1.881,1.411,3.77,2.779,4.781,5.002
		c0.866,1.905,1.768,3.796,2.549,5.736c0.542,1.346,0.835,2.79,1.361,4.144c2.401,6.178,1.756,12.897,3.426,19.216
		c0.365,1.382-0.135,2.986-0.194,4.489c-0.027,0.682,0.162,1.388,0.052,2.049c-0.162,0.97,0.814,2.152-0.806,2.958
		c-0.485,0.241-0.294,2.01-0.268,3.075c0.062,2.452,0.212,4.901,0.327,7.352C182.718,115.556,182.494,115.588,182.27,115.62z
		 M110.558,59.692c-0.077-0.166-0.154-0.331-0.231-0.497c-0.826,0.329-1.628,0.758-2.483,0.97c-3.24,0.805-5.978,2.497-8.355,4.76
		c-1.754,1.67-1.802,1.863-1.213,3.484C102.372,65.403,107.039,63.372,110.558,59.692z"/>
	<path d="M23.369,103.984c-0.195,1.867-0.391,3.733-0.586,5.6c0.107,0.099,0.214,0.198,0.321,0.297c0.344-0.394,0.897-0.739,1-1.188
		c1.052-4.59,1.941-9.218,3.067-13.789c0.589-2.388,1.508-4.702,2.394-7.006c0.208-0.54,1.009-0.826,1.325-1.355
		c1.331-2.229,2.744-4.43,3.823-6.782c1.698-3.7,3.607-7.249,6.931-9.688c1.864-1.367,3.893-1.455,5.601-0.077
		c3.092,2.492,6.513,4.572,9.663,6.997c5.702,4.391,10.909,9.197,12.17,16.826c0.154,0.932,0.454,1.865,0.44,2.794
		c-0.045,3.004,1.907,3.82,4.33,4.657c1.825,0.631,3.416,2.012,5.002,3.204c0.366,0.275,0.401,1.144,0.386,1.735
		c-0.024,0.939-0.003,1.61,1.015,2.206c0.855,0.501,1.383,1.581,2.002,2.443c0.106,0.148,0.01,0.536-0.114,0.739
		c-1.077,1.748-4.033,2.565-6.206,2.092c-1.98-0.431-4.046-0.471-6.23-0.699c0.368,2.298,0.714,4.457,1.076,6.72
		c-0.416-0.071-0.683-0.117-0.949-0.162c-0.508,2.676-1.357,2.915-3.666,1.458c-1.922-1.214-4.034-2.125-6.033-3.222
		c-0.416-0.228-0.66-0.754-1.06-1.031c-1.555-1.076-3.094-2.189-4.729-3.135c-1.83-1.059-2.946-3.255-2.594-5.53
		c0.245-1.585-1.859-3.966-3.321-3.421c-0.815,0.304-1.499,1.662-1.749,2.667c-1.724,6.93-3.001,13.937-3.992,21.023
		c-0.539,3.853-0.621,7.619-0.479,11.454c0.027,0.739-0.193,1.822-0.691,2.147c-0.455,0.297-1.512-0.072-2.178-0.402
		c-2.68-1.328-5.322-2.733-7.951-4.161c-0.686-0.372-1.238-0.985-1.911-1.387c-1.196-0.715-2.465-1.307-3.646-2.043
		c-0.572-0.356-1.179-0.833-1.483-1.407c-0.994-1.877-2.341-3.217-4.471-3.727c-0.309-0.074-0.712-0.669-0.703-1.013
		c0.124-4.763-0.02-9.569,0.614-14.268c0.363-2.686,0.408-5.731,2.557-7.983c0.402-0.422,0.517-1.117,0.765-1.687
		C23.194,103.914,23.281,103.949,23.369,103.984z"/>
	<path d="M533.497,41.201c-1.397-0.352-2.397-0.181-3.501-1.505c-1.056-1.267-2.525-2.402-3.627-3.792
		c-1.533-1.934-3.091-3.849-4.625-5.782c-0.898-1.132-1.937-2.193-2.624-3.444c-1.993-3.629-0.731-7.008,1.173-10.207
		c0.783-1.316,2.082-2.346,2.761-3.699c0.857-1.709,1.443-3.583,1.918-5.444c0.528-2.066,0.791-4.198,1.197-6.297
		c0.042-0.217,0.234-0.443,0.417-0.589c1.243-0.99,3.267-0.218,3.565,1.336c0.059,0.308,0.12,0.659,0.303,0.894
		c1.632,2.091,3.394,4.089,4.915,6.256c1.758,2.506,3.367,5.123,4.908,7.769c0.32,0.55,0.276,1.521,0.031,2.157
		c-1.504,3.914-3.095,7.796-4.7,11.67c-0.498,1.202-1.26,2.304-1.673,3.529C533.181,36.29,532.8,38.601,533.497,41.201z"/>
	<path d="M2.541,48.34c-0.149-1.368-0.149-2.489-0.407-3.547C0.863,39.601,0.613,34.29,0.212,28.997
		c-0.108-1.421-0.305-2.864-0.162-4.266c0.15-1.469,0.66-2.901,1.072-4.591c1.35,0.845,2.753,1.7,4.132,2.595
		c1.752,1.137,3.468,2.331,5.228,3.455c2.682,1.713,3.647,4.364,4.203,7.31c0.914,4.843,1.956,9.662,2.858,14.507
		c0.574,3.084,0.866,6.224,1.534,9.284c0.327,1.498,1.189,2.891,1.901,4.284c0.116,0.226,0.715,0.205,0.8,0.559
		c-2.864,0.849-4.66-0.583-6.458-1.781c-2.049-1.365-3.976-2.92-5.915-4.444c-1.903-1.495-3.904-2.852-4.846-5.319
		C4.179,49.591,3.047,48.879,2.541,48.34z"/>
	<path d="M21.373,16.11c1.534,1.436,2.694,2.556,3.891,3.634c2.432,2.19,4.913,4.325,7.318,6.544
		c1.612,1.487,2.993,3.251,4.715,4.586c3.25,2.519,3.499,6.1,3.575,9.645c0.056,2.631-0.458,5.277-0.778,7.91
		c-0.114,0.941-0.238,1.954-0.683,2.752c-0.253,0.454-1.237,0.842-1.765,0.719c-0.766-0.179-1.46-0.794-2.111-1.315
		c-2.635-2.109-5.256-4.238-7.855-6.39c-1.582-1.31-3.355-2.486-4.62-4.062c-2.216-2.759-3.497-5.905-2.268-9.583
		c0.234-0.7,0.213-1.487,0.287-2.236c0.025-0.25-0.135-0.589-0.019-0.749c2.339-3.219,0.326-6.547,0.277-9.821
		C21.329,17.383,21.35,17.023,21.373,16.11z"/>
	<path d="M549.933,4.527c0.114,0.042,0.527,0.063,0.68,0.273c1.163,1.602,2.339,3.202,3.388,4.879
		c1.342,2.146,2.759,4.277,3.796,6.572c1.295,2.868,3.296,5.495,3.393,8.833c0.009,0.311,0.125,0.62,0.134,0.931
		c0.008,0.31,0.049,0.823-0.104,0.904c-1.979,1.038-2.528,3.221-3.899,4.711c-0.686,0.745-1.504,1.437-2.273,2.133
		c-0.748,0.677-2.894-0.342-3.744-1.709c-0.883-1.42-1.43-3.113-2.532-4.312c-0.91-0.991-2.001-1.808-2.589-3.066
		c-0.52-1.113-0.885-2.317-1.528-3.35c-1.6-2.571-0.188-4.716,0.638-7.072c0.87-2.48,1.379-5.101,1.88-7.692
		C547.561,4.533,547.629,4.365,549.933,4.527z"/>
</g>
<g id="Layer_1">
</g>
</svg>
