<?xml version="1.0" encoding="iso-8859-1"?>
<!-- Generator: Adobe Illustrator 27.9.0, SVG Export Plug-In . SVG Version: 6.00 Build 0)  -->
<svg version="1.1" xmlns="http://www.w3.org/2000/svg" xmlns:xlink="http://www.w3.org/1999/xlink" x="0px" y="0px"
	 viewBox="0 0 443.858 134.221" style="enable-background:new 0 0 443.858 134.221;" xml:space="preserve">
<g id="Layer_2">
	<g>
		<path d="M66.361,102.405c-1.008,0.664-1.856,1.073-2.515,1.686c-1.661,1.544-3.227,3.189-4.856,4.767
			c-0.254,0.246-0.643,0.348-0.961,0.532c-1.315,0.76-2.625,1.53-3.941,2.289c-0.773,0.446-1.563,0.864-2.326,1.328
			c-0.269,0.163-0.702,0.453-0.679,0.638c0.291,2.347-1.241,1.984-2.644,1.834c-0.32-0.034-0.64-0.067-1.221-0.128
			c-0.018-1.949,0.011-3.882-0.065-5.812c-0.091-2.314-0.272-4.625-0.416-6.938c-0.016-0.263-0.157-0.669-0.04-0.766
			c1.903-1.572,0.754-3.903,1.415-5.814c0.458-1.325-0.095-2.982-0.108-4.492c-0.011-1.337,0.141-2.675,0.15-4.013
			c0.016-2.393-0.035-4.785-0.028-7.178c0.002-0.558,0.16-1.113,0.188-1.672c0.061-1.209,0.126-2.421,0.083-3.628
			c-0.008-0.217-0.511-0.562-0.817-0.6c-3.048-0.377-6.135-0.528-9.143-1.1c-2.096-0.398-2.648,1.182-3.592,2.215
			c-1.32,1.443-1.199,1.623-0.208,3.657c0.206,0.424,0,1.049-0.016,1.594c0.607-0.092,1.154-0.175,1.962-0.297
			c0.195-0.931,0.466-2.222,0.737-3.512c0.158-0.035,0.317-0.07,0.475-0.105c0.242,0.932,0.821,1.924,0.668,2.786
			c-0.668,3.756-1.648,7.457-2.313,11.214c-0.359,2.03-0.297,4.133-0.451,6.202c-0.117,1.569-0.334,3.131-0.404,4.701
			c-0.12,2.656-0.05,5.326-0.277,7.971c-0.121,1.408-0.171,2.77-2.131,3.56c-2.981,1.201-4.972,3.873-6.942,6.384
			c-0.483,0.616-0.845,1.326-1.306,1.962c-0.908,1.253-2.252,1.128-3.333,0.593c-0.912-0.452-0.929-1.422-0.663-2.604
			c0.543-2.41,0.563-4.935,0.916-7.395c0.139-0.969,0.685-1.873,0.887-2.84c0.934-4.473,1.81-8.959,2.713-13.438
			c0.673-3.339,1.315-6.686,2.045-10.013c0.929-4.235,1.933-8.453,2.904-12.678c0.024-0.105,0.061-0.21,0.063-0.315
			c0.083-3.633,1.829-6.825,2.786-10.219c1.36-4.826,2.93-9.609,4.719-14.292c1.171-3.066,2.785-5.983,4.419-8.841
			c0.553-0.968,1.727-1.625,2.705-2.296c1.87-1.282,3.709-2.618,6.156-2.708c0.493-0.018,0.955-0.886,1.527-1.458
			c1.533,1.586,2.037,3.406,2.096,5.409c0.02,0.683,0.004,1.378,0.131,2.044c0.52,2.732,1.088,5.454,1.637,8.18
			c0.021,0.103,0.076,0.239,0.033,0.308c-1.516,2.415,0.339,4.282,0.94,6.364c0.843-0.277,1.105-1.241,1.013-2.253
			c-0.16-1.765-0.138-3.548,0.068-5.336c0.508,3.09,1.016,6.181,1.528,9.271c0.017,0.1,0.143,0.22,0.114,0.285
			c-0.768,1.78-0.001,3.513,0.071,5.272c0.052,1.259,0.597,1.397,1.549,1.493c1.002,0.102,1.859,0.063,2.062-1.166
			c0.088-0.531,0.316-1.152,0.138-1.594c-0.846-2.105,0.318-3.805,0.861-5.684c0.471-1.633,0.306-3.439,0.667-5.116
			c0.415-1.928,0.981-3.845,1.702-5.68c0.679-1.729,1.424-3.513,2.533-4.974c1.75-2.303,3.701-4.492,5.81-6.469
			c1.597-1.497,3.523-2.671,5.398-3.834c1.691-1.049,3.498-1.914,5.278-2.815c2.115-1.071,4.214-2.191,6.401-3.095
			c1.183-0.489,2.54-0.826,3.807-0.793c3.151,0.082,6.284,0.423,8.885,2.554c1.258,1.031,2.407,2.044,2.434,3.892
			c0.011,0.731,0.515,1.448,0.744,2.187c0.106,0.34,0.201,0.748,0.113,1.074c-0.539,1.986-0.862,4.093-1.773,5.9
			c-1.218,2.418-2.917,4.592-4.389,6.884c-1.696,2.639-4.227,4.396-6.571,6.367c-1.411,1.187-2.675,2.552-3.974,3.868
			c-1.552,1.573-3.095,3.158-4.597,4.778c-1.676,1.808-1.27,6.357,0.364,8.41c2.811,3.533,6.781,4.446,10.834,5.323
			c0.608,0.132,1.205,0.369,1.769,0.637c1.57,0.744,3.12,1.529,4.748,2.333c0.533-1.272,0.659-2.084-0.431-2.492
			c-1.196-0.447-1.166-1.251-1.138-2.026c-0.906-1.574-1.909-3.101-2.694-4.732c-1.048-2.178-1.941-4.431-2.858-6.669
			c-0.11-0.267-0.088-0.784,0.09-0.944c2.372-2.138,4.776-4.242,7.937-5.176c0.304-0.09,0.691-0.118,0.886-0.322
			c2.217-2.318,5.257-2.535,8.113-3.186c1.071-0.244,2.188-0.361,3.288-0.384c3.021-0.063,6.052,0.081,9.062-0.117
			c1.311-0.086,2.578-0.816,3.869-1.24c0.482-0.158,1.02-0.477,1.457-0.381c1.887,0.413,3.746,0.952,5.658,1.457
			c-0.499,0.188-1.047,0.393-1.594,0.599c6.077,2.682,12.53,0.939,18.69,2.272c0.027-0.153,0.055-0.307,0.083-0.46
			c-0.303-0.212-0.606-0.423-1.267-0.884c1.119,0.117,1.815,0.19,2.64,0.276c0.02,1.051,0.546,1.096,1.693,1.152
			c3.09,0.15,6.154,0.791,9.235,1.192c1.744,0.227,3.506,0.323,5.247,0.573c0.499,0.072,0.95,0.477,1.423,0.729
			c-0.35,0.449-0.609,1.097-1.069,1.307c-1.12,0.513-2.347,0.786-3.497,1.24c-0.309,0.122-0.501,0.544-0.949,1.062
			c2.133-0.232,3.909-0.424,5.686-0.617c0.071,0.203,0.141,0.405,0.212,0.608c-0.37,0.334-0.708,0.907-1.116,0.962
			c-2.121,0.288-3.132,1.981-4.058,3.463c-0.802,1.283-1.172,2.96-1.32,4.502c-0.308,3.231,0.551,6.37,1.095,9.538
			c0.471,2.74,0.595,5.54,0.894,8.311c0.144,1.336,0.337,2.666,0.518,4.079c0.579-0.3,0.952-0.493,1.384-0.717
			c-0.206-2.9-0.414-5.816-0.621-8.732c0.166-0.021,0.333-0.042,0.499-0.063c0.169,0.709,0.405,1.41,0.49,2.128
			c0.099,0.836-0.026,1.703,0.117,2.526c0.13,0.751,0.489,1.462,0.84,2.455c0.437-0.656,0.849-1.017,0.93-1.44
			c0.388-2.046,1.156-4.167,0.913-6.154c-0.426-3.475,1.331-5.257,3.977-6.644c1.891-0.991,3.871-1.813,5.772-2.787
			c1.938-0.994,3.824-2.091,5.741-3.126c2.191-1.182,3.045-1.005,3.939,1.22c1.233,3.069,2.183,6.252,3.38,9.337
			c0.966,2.488,2.161,4.886,3.175,7.356c0.921,2.244,1.71,4.541,2.607,6.795c0.294,0.74,0.742,1.418,1.398,2.024
			c-1.279-5.629-4.344-10.734-4.832-16.563c0.196-0.153,0.391-0.307,0.587-0.46c0.256,0.558,0.58,1.096,0.755,1.678
			c0.37,1.233,0.343,2.735,1.066,3.675c0.978,1.272,1.633,3.182,3.927,3.206c0.01-2.22,0.006-4.448,0.04-6.675
			c0.01-0.65,0.289-1.328,0.173-1.942c-0.793-4.195-0.85-8.421-0.711-12.665c0.083-2.549,0.059-5.103,0.203-7.647
			c0.028-0.486,0.598-0.955,0.95-1.406c1.304-1.668,3.151-2.469,5.061-3.202c1.943-0.746,3.847-1.593,5.395-2.24
			c0.749,1.539,1.463,3.006,2.168,4.454c-1.219,0.886-1.695,0.702-0.051,4.532c-1.963,0.053-1.871,0.035-1.497,1.94
			c0.421,2.146,0.922,4.274,0.198,6.526c-0.44,1.371-0.359,2.909-0.525,4.499c0.506-0.083,0.834-0.137,1.395-0.23
			c-0.228,0.541-0.289,1-0.551,1.25c-0.799,0.764-0.514,1.321-0.206,2.308c0.409,1.308-0.081,2.888-0.138,4.353
			c-0.033,0.845-0.04,1.702,0.057,2.54c0.316,2.734,0.951,5.419,0.495,8.234c-0.2,1.234,0.261,2.575,0.422,3.868
			c0.221,0.001,0.442,0.001,0.663,0.002c0.562-1.781,1.123-3.562,1.685-5.343c0.957,2.553-0.127,5.366,1.833,8.116
			c0.423-1.239,0.697-2.043,0.997-2.923c0.088,3.74,0.506,7.489-1.087,10.953c-0.489,1.064-1.805,1.755-2.767,2.588
			c-0.315,0.273-0.722,0.435-1.064,0.681c-2.23,1.604-4.275,3.612-6.728,4.716c-2.401,1.08-4.113,3.02-6.411,4.138
			c-0.55,0.268-0.919,0.886-1.442,1.237c-2.582,1.737-5.158,1.441-7.381-0.858c-0.768-0.794-1.699-1.565-2.116-2.535
			c-0.754-1.754-1.166-3.654-1.746-5.485c-0.218-0.688-0.435-1.394-0.78-2.021c-0.885-1.611-1.789-3.217-2.794-4.755
			c-0.431-0.66-1.062-1.281-1.75-1.627c-0.221-0.111-1.19,0.628-1.345,1.125c-0.992,3.174-2.542,5.807-5.562,7.546
			c-1.93,1.111-3.527,2.791-5.421,3.979c-2.065,1.295-4.34,2.251-6.452,3.478c-1.603,0.93-3.005,2.234-4.656,3.049
			c-3.101,1.531-4.515,0.659-5.244-2.735c-0.759-3.534-1.833-7.007-2.463-10.561c-0.605-3.415-0.81-6.901-1.209-10.354
			c-0.191-1.655-0.41-3.307-0.643-4.957c-0.116-0.818-0.278-1.63-0.446-2.439c-0.336-1.618-0.825-3.216-1.003-4.85
			c-0.258-2.358-0.493-4.751-0.375-7.11c0.123-2.446,0.454-4.933,1.124-7.28c0.444-1.556,0.83-3.434,2.787-4.168
			c0.35-0.131,0.488-0.83,0.735-1.286c-8.245-1.586-16.397-1.666-24.63-1.839c-0.071,0.68-0.17,1.155-0.156,1.627
			c0.014,0.46,0.142,0.916,0.258,1.591c-1.39-0.424-2.533,1.785-3.831-0.08c-0.37,1.14-0.738,2.273-1.194,3.679
			c1.484,1.357,0.819,3.489,0.704,5.528c0.177,0.019,0.353,0.039,0.53,0.058c0.19-1.815,0.391-3.63,0.56-5.447
			c0.033-0.36-0.135-0.747-0.063-1.091c0.049-0.236,0.353-0.419,0.543-0.626c0.144,0.166,0.275,0.347,0.436,0.495
			c0.342,0.315,0.7,0.614,1.093,0.956c0.056-1.001,0.108-1.935,0.161-2.87c0.059,0.026,0.118,0.052,0.177,0.078
			c0.457,2.166,1.009,4.318,1.345,6.503c0.318,2.074,0.407,4.183,0.601,6.276c0.188,2.04,0.393,4.079,0.563,6.121
			c0.04,0.476,0.043,0.98-0.069,1.44c-0.273,1.123,0.363,1.784,1.156,2.307c0.927,0.611,1.45-0.045,1.936-0.751
			c0.141-0.205,0.412-0.319,0.614-0.468c1.678,1.514,1.631,2.641-0.224,3.649c-1.58,0.859-1.45,2.381-1.346,3.678
			c0.305,3.809,0.914,7.593,1.248,11.401c0.165,1.875-0.052,3.78-0.018,5.671c0.013,0.724,0.205,1.454,0.393,2.161
			c0.05,0.189,0.528,0.459,0.566,0.424c0.254-0.231,0.602-0.524,0.622-0.817c0.079-1.161,0.083-2.33,0.052-3.495
			c-0.082-3.116-0.201-6.231-0.291-9.347c-0.007-0.23,0.104-0.464,0.448-0.695c0.097,0.909,0.205,1.817,0.288,2.727
			c0.408,4.463,0.762,8.932,1.246,13.386c0.128,1.178,0.589,2.335,1.003,3.462c0.514,1.397,0.247,2.44-0.857,3.506
			c-2.485,2.398-5.458,3.943-8.498,5.471c-1.576,0.792-2.896,2.09-4.354,3.127c-0.513,0.365-1.06,0.791-1.65,0.917
			c-1.865,0.4-2.412-0.49-2.768-2.735c-0.665-4.193-1.632-8.339-2.516-12.495c-0.312-1.466-0.667-2.933-1.141-4.353
			c-0.948-2.84-1.953-5.663-3.006-8.467c-1.363-3.63-2.793-7.234-4.206-10.845c-0.074-0.188-0.231-0.379-0.4-0.489
			c-1.835-1.187-3.556-2.672-5.551-3.465c-3.511-1.395-7.181-2.402-10.805-3.501c-3.379-1.025-6.784-1.964-10.18-2.931
			c-2.029-0.578-4.064-1.139-6.097-1.705c-0.206-0.057-0.422-0.083-0.623-0.155c-0.622-0.223-1.239-0.461-1.857-0.693
			c-0.117,0.689-0.486,1.455-0.301,2.05c0.463,1.493-0.188,3.446,1.694,4.411c0.145,0.074,0.177,0.482,0.166,0.73
			c-0.116,2.543,0.201,3.875,1.491,5.888c0.073-0.699,0.133-1.268,0.192-1.837c0.055-0.525,0.11-1.049,0.165-1.574
			c0.124-0.036,0.249-0.071,0.373-0.107c0.393,1.028,0.984,2.028,1.14,3.091c0.343,2.339,0.429,4.714,0.705,7.065
			c0.073,0.62,0.491,1.192,0.692,1.805c0.358,1.095,0.797,2.185,0.968,3.313c0.174,1.144-0.34,2.03-1.328,2.817
			c-0.986,0.785-1.651,1.964-2.506,2.925c-0.382,0.429-0.84,0.836-1.343,1.101c-1.715,0.903-3.576,1.575-5.165,2.654
			c-1.127,0.766-2.041,1.959-2.799,3.124c-0.724,1.113-1.786,0.957-2.653,0.84c-0.496-0.067-1.11-1.023-1.249-1.67
			c-0.762-3.535-1.429-7.092-2.04-10.656c-0.115-0.672,0.312-1.428,0.234-2.117C67.077,105.072,66.738,104.025,66.361,102.405z
			 M78.226,61.939c3.77-3.524,7.347-6.608,10.602-10c2.139-2.229,4.323-4.478,4.965-7.858c0.572-3.006,1.012-5.723-0.48-8.67
			c-1.184-2.339-4.31-3.799-6.551-3.444c-1.753,0.278-3.445,1.187-5.065,2.011c-2.839,1.445-4.322,4.139-5.923,7.025
			c0.855,0.089,1.655,0.173,2.189,0.229c-0.621,2-1.277,3.969-1.837,5.967c-0.418,1.494-0.783,3.01-1.034,4.54
			c-0.153,0.934-0.097,1.915-0.035,2.868c0.047,0.716,0.189,1.443,0.413,2.124c0.128,0.389,0.508,0.696,0.774,1.039
			c0.193-0.102,0.385-0.204,0.578-0.305C77.258,58.849,77.692,60.235,78.226,61.939z M119.845,80.786
			c1.426-0.579,1.961-1.397,1.155-2.802c-0.229-0.4-0.158-1.028-0.086-1.532c0.126-0.885,0.522-1.756,0.516-2.631
			c-0.022-3.273-0.135-6.546-0.273-9.816c-0.039-0.926-0.462-1.589-1.593-1.592c-1.254-0.004-2.523-0.317-3.758-0.201
			c-2.418,0.227-5.164-1.346-7.171,1.376c0.794,4.777,3.77,8.768,5.683,12.873c1.051-0.048,1.952-0.089,2.854-0.13
			c0.029,0.174,0.057,0.348,0.086,0.522c-0.215,0.224-0.522,0.413-0.621,0.68c-0.124,0.335-0.078,0.734-0.105,1.105
			c-0.242-0.317-0.483-0.633-0.725-0.95c-0.371,0.582-0.571,1.269-0.328,1.712c0.312,0.569,0.851,0.567,1.329-0.121
			c0.088-0.127,1.159,0.361,1.719,0.67c0.208,0.115,0.251,0.528,0.369,0.806c0.256-0.224,0.502-0.44,0.796-0.697
			C119.762,80.392,119.804,80.591,119.845,80.786z M48.183,57.93c-0.346-1.059-0.872-1.873-0.818-2.646
			c0.229-3.27-0.983-6.272-1.527-9.394c-0.269-1.547-0.955-1.426-1.822-0.51c-0.379,0.401-0.639,0.927-0.895,1.426
			c-0.361,0.702-0.573,1.501-1.027,2.131c-0.457,0.633-1.879,5.821-1.622,6.547c0.017,0.049,0.009,0.132,0.039,0.148
			c1.429,0.785,0.475,1.85,0.25,2.752c-0.204,0.818-0.679,1.569-1.034,2.347c-0.188-0.096-0.443-0.226-0.699-0.357
			c-0.046,0.15-0.093,0.299-0.139,0.449c0.724,0.304,1.222,1.191,2.35,0.371c0.579-0.421,1.312-0.703,2.018-0.862
			C45.212,59.892,47.588,60.3,48.183,57.93z M63.195,71.622c-0.952,0.502-2.254,0.762-2.652,1.505
			c-0.523,0.976-0.972,2.315,0.033,3.533c0.309,0.375,0.154,1.118,0.25,1.686c0.229,1.355,0.481,2.706,0.724,4.059
			c0.2,0.012,0.4,0.024,0.6,0.036c0.239-0.593,0.513-1.174,0.705-1.781c0.174-0.549,0.181-1.158,0.396-1.686
			C64.2,76.648,65.05,74.339,63.195,71.622z M216.82,80.94c0.241-0.762,0.476-1.46,0.68-2.167c0.308-1.063-0.336-4.074-0.988-4.109
			c-2.18-0.116-1.134-1.461-1.19-2.484c1.069,0.028,2.392,0.888,2.378-1.142c-0.011-1.689-0.378-2.111-2.236-2.071
			c-0.176-0.366-0.339-0.705-0.544-1.132c-0.47,0.414-0.823,0.726-1.176,1.037c0.158,0.036,0.315,0.072,0.473,0.108
			c-0.09,0.589-0.169,1.18-0.274,1.767c-0.064,0.359-0.36,0.871-0.221,1.039c0.897,1.083,0.052,1.724-0.506,2.464
			c-0.083,0.11-0.071,0.29-0.108,0.459c0.341-0.118,0.643-0.221,0.971-0.334c0.124,0.99,0.229,1.836,0.286,2.29
			c0.643,0.211,1.298,0.323,1.299,0.443c0.011,0.984,2.03,2.15-0.605,2.962C215.874,80.472,216.365,80.715,216.82,80.94z
			 M216.953,85.588c0.772-2.294,0.104-3.625-2.247-3.688c-1.548-0.042-2.376-0.349-2.394-2.266c-0.6,1.527-0.362,3.182,0.328,3.901
			c0.186,0.194,0.398,0.518,0.362,0.746c-0.202,1.306,0.611,1.422,1.555,1.402C215.362,85.666,216.167,85.62,216.953,85.588z
			 M64.809,97.84c0.694-1.969,0.262-3.952,0.663-5.921c0.39-1.917-0.128-4.024-0.3-6.043c-0.023-0.269-0.315-0.639-0.565-0.726
			c-0.214-0.074-0.546,0.19-0.825,0.304c1.247,1.377-0.254,2.956,0.442,4.633c0.662,1.596-0.15,3.815-0.361,5.756
			C63.766,96.726,63.617,97.571,64.809,97.84z M119.472,101.653c0.452,1.235,0.886,2.421,1.427,3.899
			c0.982-0.691,1.722-1.138,2.354-1.705c0.176-0.158,0.034-0.671,0.038-1.021c-0.324,0.063-0.649,0.127-1.05,0.205
			C122.081,101.681,121.19,101.151,119.472,101.653z M103.495,28.433c0.096-0.159,0.191-0.317,0.287-0.476
			c-0.518-1.301-2.614-2.362-3.9-1.589C101.201,27.123,102.348,27.778,103.495,28.433z M213.695,86.296
			c-0.87,1.433-0.649,2.267,0.465,2.576c0.273,0.076,0.703-0.418,1.061-0.649C214.712,87.58,214.203,86.938,213.695,86.296z
			 M194.728,90.832c0.145-0.062,0.289-0.123,0.434-0.185c0.159-0.728,0.318-1.455,0.49-2.243c-0.679-0.187-1.361-0.375-2.481-0.683
			C193.789,88.955,194.259,89.894,194.728,90.832z"/>
		<path d="M287.544,102.422c-0.302,2.886-0.522,5.419-0.868,7.934c-0.07,0.506-0.517,1.161-0.968,1.379
			c-2.48,1.197-4.683,2.682-6.646,4.674c-0.91,0.923-2.564,1.109-3.877,1.637c-0.614,0.247-1.271,0.433-1.824,0.781
			c-1.953,1.228-3.811,2.621-5.834,3.713c-0.612,0.33-1.641-0.111-2.444-0.195c0.632-6.038,1.226-11.715,1.879-17.959
			c-1.577,0.868-2.865,1.319-3.814,2.155c-1.816,1.599-3.915,2.611-6.031,3.697c-2.017,1.035-3.874,2.406-5.729,3.731
			c-2.398,1.712-4.976,2.392-7.817,1.509c-0.505-0.157-0.973-0.854-1.196-1.407c-0.386-0.959-0.567-2-0.849-3.064
			c-0.904,0.496-1.62,1.106-2.432,1.291c-2.114,0.479-3.691-0.831-4.851-2.233c-1.375-1.662-2.45-3.623-3.386-5.583
			c-1.275-2.67-2.415-5.419-3.39-8.212c-0.854-2.447-1.549-4.973-2.037-7.517c-0.444-2.317-0.203-4.794-0.838-7.038
			c-0.648-2.29-1.051-4.553-0.825-6.859c0.4-4.083,0.572-8.275,3.172-11.774c1.854-2.495,3.988-4.572,7.016-5.745
			c2.841-1.101,5.502-2.66,8.265-3.97c4.336-2.056,8.546-1.535,11.894,1.868c0.779,0.792,1.389,0.848,2.232-0.011
			c2.624-2.672,5.476-5.071,8.905-6.679c1.807-0.847,3.568-1.861,5.461-2.436c2.139-0.649,2.914-2.138,3.701-4.014
			c1.837-4.381,4.647-8.088,9.232-9.831c3.76-1.43,7.655-2.551,11.56-3.531c1.595-0.4,3.374-0.096,5.067-0.047
			c0.392,0.011,0.875,0.188,1.149,0.457c1.774,1.742,3.497,3.536,5.249,5.301c0.469,0.473,0.944,0.957,1.483,1.342
			c3.475,2.486,5.606,6.13,7.164,9.833c1.641,3.901,0.565,8.066-2.133,11.352c-2.141,2.608-4.676,4.948-7.299,7.086
			c-1.701,1.387-3.969,2.054-5.811,3.298c-2.154,1.454-4.711,2.483-6.103,4.867c-1.157,1.981-0.597,5.224,1.232,6.384
			c2.466,1.563,5.053,2.943,7.642,4.3c1.444,0.756,2.997,1.305,4.501,1.947c0.078-0.156,0.157-0.312,0.235-0.469
			c-0.774-0.543-1.547-1.087-2.321-1.63c0.076-0.161,0.152-0.322,0.229-0.483c6.579,2.837,13.158,5.674,19.736,8.511
			c-0.019,0.08-0.037,0.16-0.056,0.24c-0.886-0.093-1.772-0.185-2.658-0.278c-0.003,0.067-0.005,0.134-0.008,0.201
			c1.194,0.599,2.379,1.218,3.585,1.793c1.829,0.873,2.046-1.366,2.702-1.502c0.381-1.246,0.51-2.196,0.946-2.973
			c0.705-1.257,0.141-2.458,0.016-3.649c-0.105-0.995,0.013-1.761,0.507-2.659c0.618-1.124,0.897-2.436,1.295-3.675
			c0.035-0.108-0.092-0.339-0.208-0.412c-1.23-0.776-1.168-1.29-0.132-2.441c0.666-0.74,0.409-2.371,0.433-3.606
			c0.016-0.812-0.348-1.639-0.292-2.442c0.316-4.535,0.75-9.063,1.048-13.599c0.093-1.415-0.107-2.849-0.181-4.274
			c-0.15-2.875,0.511-3.967,3.29-4.864c1.926-0.622,3.92-1.036,5.894-1.496c0.438-0.102,0.921-0.01,1.564-0.007
			c-0.082,2.064-0.158,3.985-0.237,5.972c-0.5,0.074-0.897,0.133-1.355,0.201c-0.455,4.347-0.906,8.66-1.357,12.973
			c1.616-1.068,0.995-2.837,1.53-4.233c1.648,1.448,1.375,5.786-0.395,6.555c-0.322-0.52-0.643-1.041-1.215-1.969
			c-0.305,2.919-0.557,5.325-0.809,7.731c0.216,0.034,0.431,0.068,0.647,0.102c0.123-0.651,0.162-1.334,0.391-1.945
			c0.261-0.696,0.66-1.351,1.089-1.961c0.05-0.072,0.67,0.257,1.371,0.54c0.843-1.12,1.763-2.446,2.789-3.684
			c3.107-3.751,6.811-6.684,11.201-8.912c4.987-2.531,10.288-4.044,15.669-5.102c3.569-0.702,8.026,2.108,7.97,6.734
			c-0.008,0.62-0.464,1.235-0.713,1.853c-0.422-0.319-0.843-0.638-1.09-0.825c-0.712,0.098-1.341,0.114-1.919,0.296
			c-0.254,0.08-0.504,0.47-0.578,0.764c-0.249,0.989-0.267,2.065-0.67,2.977c-0.288,0.652-1.072,1.075-1.598,1.635
			c-0.704,0.751-1.366,1.54-2.057,2.302c-0.245,0.27-0.487,0.667-0.793,0.74c-2.733,0.645-2.641,0.609-3.173-2.152
			c-0.403-2.091-0.502-4.321-2.136-6.017c-1.367-1.419-3.864-1.42-5.253-0.046c-2.465,2.44-4.241,5.344-5.821,8.38
			c-1.18,2.266-2.291,4.569-3.373,6.884c-0.551,1.178-0.661,2.301,0.958,2.797c0.244,0.075,0.492,0.236,0.667,0.423
			c1.856,1.981,3.618,4.056,5.566,5.94c1.625,1.572,3.471,2.914,5.205,4.376c1.3,1.095,2.577,2.218,3.864,3.328
			c0.191-0.195,0.382-0.391,0.573-0.586c-2.294-2.369-4.588-4.737-6.881-7.106c0.036-0.086,0.071-0.173,0.107-0.259
			c0.318,0.125,0.694,0.18,0.947,0.386c3.245,2.65,6.394,5.424,9.732,7.95c2.238,1.694,4.785,2.976,7.104,4.572
			c1.769,1.218,3.384,2.658,5.092,3.967c1.222,0.937,2.466,1.849,3.757,2.685c0.114,0.074,0.646-0.497,0.984-0.768
			c0.015-0.195,0.031-0.39,0.046-0.585c1.813,1.329,3.618,2.669,5.441,3.984c1.114,0.804,2.273,1.546,3.38,2.358
			c1.958,1.437,3.874,2.931,5.843,4.352c0.81,0.585,0.897,0.85-0.099,1.374c-2.464,1.297-4.827,2.785-7.289,4.085
			c-1.439,0.76-3.014,1.259-4.482,1.969c-1.058,0.511-2.015,1.231-3.065,1.762c-1.681,0.85-3.356,1.756-5.129,2.351
			c-0.627,0.211-1.523-0.558-2.319-0.628c-1.07-0.094-0.977-0.93-1.405-1.514c-0.896-1.224-2.147-2.211-3.337-3.193
			c-2.185-1.803-4.549-3.406-6.619-5.328c-2.04-1.895-4.15-3.65-6.434-5.245c-3.294-2.3-6.486-4.748-9.677-7.191
			c-1.422-1.088-2.705-2.357-4.119-3.458c-0.455-0.354-1.167-0.649-1.682-0.55c-0.31,0.059-0.573,0.906-0.675,1.434
			c-0.56,2.896-0.955,5.829-1.633,8.696c-0.326,1.38-1.16,2.549-2.561,3.327c-1.89,1.049-3.591,2.435-5.455,3.538
			c-1.447,0.856-3.073,1.409-4.517,2.27c-0.96,0.573-1.694,1.51-2.607,2.178c-1.588,1.162-3.333,0.668-5.491,0.342
			c0.503-2.175,1.044-4.222,1.435-6.298c0.327-1.735,0.685-3.515,0.592-5.252c-0.033-0.606-1.296-1.33-2.132-1.675
			c-2.785-1.149-5.631-2.15-8.452-3.21c-2.623-0.985-5.26-1.937-7.861-2.978c-1.139-0.456-2.17-1.181-3.307-1.64
			c-1.809-0.73-3.663-1.35-5.506-1.997c-2.377-0.835-4.758-1.655-7.141-2.473c-1.748-0.6-3.501-1.184-5.142-1.738
			c-0.177,1.689-0.343,3.272-0.508,4.856c-0.185,1.774-0.371,3.548-0.555,5.322C286.215,102.716,286.318,103.308,287.544,102.422z
			 M287.983,69.646c1.1-0.578,2.029-1.086,2.975-1.56c2.853-1.429,5.638-2.916,7.595-5.594c2.923-4.001,3.818-8.235,1.447-12.762
			c-1.063-2.031-2.5-3.862-3.699-5.826c-1.918-3.139-4.364-5.723-7.635-7.46c-1.179-0.626-2.329-0.564-3.424,0.29
			c-1.002,0.781-1.432,1.8-1.584,3.032c-0.052,0.42-0.455,0.798-0.698,1.194c-0.889-0.965-1.201,0.187-1.28,0.533
			c-0.209,0.918-0.442,1.997-0.144,2.824c0.421,1.17,1.599,2.088,1.938,3.262c0.74,2.56,1.265,5.197,1.673,7.835
			c0.486,3.137,1.085,6.316,1.006,9.461C286.101,66.936,286.735,68.303,287.983,69.646z M252.745,86.979
			c1.093,1.985-0.475,4.642,1.763,6.16c0.219,1.123,0.459,2.355,0.7,3.587c0.504-0.802,0.835-1.513,0.856-2.234
			c0.032-1.122,0.291-2.749-0.318-3.285c-2.081-1.831-1.704-4.095-1.776-6.351c-0.02-0.613-0.072-1.3-0.36-1.813
			c-0.461-0.821-1.273-1.454-1.688-2.289c-1.746-3.51-2.668-7.47-5.703-10.268c-0.103-0.095-0.08-0.315-0.171-0.436
			c-1.453-1.944-2.837-3.948-4.412-5.788c-0.664-0.776-1.735-1.205-2.621-1.792c-0.435,1.151-1.117,2.274-1.247,3.458
			c-0.195,1.776-0.092,3.601,0.045,5.393c0.245,3.201,0.391,6.433,0.986,9.575c0.584,3.085,1.661,6.078,2.564,9.099
			c0.094,0.314,0.471,0.544,0.503,0.579c0.818-0.656,1.504-1.205,2.19-1.755c0.249,0.855,0.562,1.699,0.729,2.57
			c0.158,0.825,0.069,1.63,1.353,1.632c0.657,0.001,1.173,0.529,0.719,1.474c-0.23,0.479,0,1.178,0.022,1.778
			c0.17,0.02,0.341,0.04,0.511,0.061c1.153-1.303,2.835-2.268,2.642-4.43C252.425,91.155,251.542,88.643,252.745,86.979z
			 M267.594,76.028c0.147-0.008,0.294-0.015,0.44-0.023c0.115-0.273,0.294-0.536,0.335-0.82c0.362-2.525,0.743-5.049,1.025-7.584
			c0.136-1.224,0.686-2.524-0.438-3.662c-0.2-0.203-0.127-0.896,0.062-1.223c0.546-0.943,1.021-1.724,0.634-2.989
			c-0.451-1.476-0.321-3.119-0.586-4.666c-0.325-1.898-1.645-2.533-3.282-1.648c-0.905,0.489-1.801,1.016-2.624,1.629
			c-1.497,1.115-2.933,2.311-4.402,3.463c-0.671,0.526-0.537,0.808,0.018,1.483c1.029,1.252,1.686,2.801,2.633,4.13
			c0.544,0.763,1.358,1.332,2.042,1.996c0.693,0.673,1.454,1.296,2.039,2.054c0.508,0.658,0.789,1.488,1.213,2.218
			c0.559,0.962,1.102,1.797,0.54,3.079C266.949,74.141,267.452,75.163,267.594,76.028z M261.587,82.717
			c0.748,2.095,1.451,4.062,2.207,6.176c0.172-0.349,0.621-0.823,0.531-1.145c-0.727-2.587-0.398-5.48-1.885-7.848
			c-0.188,0.023-0.377,0.046-0.565,0.069C261.772,80.952,261.669,81.937,261.587,82.717z M260.66,70.845
			c-0.64-0.609-1.105-1.096-1.619-1.523c-0.26-0.216-0.616-0.455-0.916-0.439c-0.21,0.011-0.56,0.44-0.555,0.676
			c0.006,0.293,0.299,0.591,0.495,0.868c0.286,0.403,0.596,0.789,0.936,1.236C259.278,71.526,259.75,71.294,260.66,70.845z
			 M260.747,77.944c0.183-0.066,0.366-0.132,0.548-0.198c-0.362-1.183-0.698-2.376-1.113-3.54c-0.071-0.198-0.483-0.274-0.737-0.407
			c-0.07,0.291-0.279,0.638-0.187,0.862C259.711,75.774,260.243,76.853,260.747,77.944z"/>
		<path d="M8.735,34.895c-1.052,1.509-0.493,2.798-0.428,4.064c0.033,0.651-0.234,1.318-0.366,1.978
			c-0.524-0.405-1.337-0.708-1.522-1.233c-0.761-2.157-1.308-4.389-1.986-6.576c-0.214-0.69-0.475-1.424-0.917-1.974
			C2.332,29.68,2.979,27.904,2.595,26.3c-0.564-2.357-0.866-4.777-1.254-7.175c-0.317-1.954-0.284-4.031-0.965-5.844
			c-1.105-2.945,0.36-3.78,2.676-4.921c2.527-1.245,4.61-3.363,7.023-4.883c1.292-0.814,2.714-1.701,4.479-1.193
			c0.345,0.099,0.868-0.366,1.291-0.604c0.367-0.206,0.844-0.731,1.035-0.636c0.466,0.231,0.996,0.678,1.139,1.149
			c0.41,1.343,0.64,2.741,0.948,4.148c0.483-0.242,0.859-0.43,1.264-0.633c-0.042-0.489-0.086-0.993-0.156-1.797
			c1.913,1.857,3.252,0.029,4.713-0.432c1.746-0.551,3.356-1.525,5.051-2.253c1.191-0.512,1.949-0.088,2.093,1.116
			c0.163,1.366,0.273,2.738,0.408,4.124C33.213,6.229,33.314,4,33.051,0c0.301,0.801,0.728,1.579,0.882,2.408
			c0.585,3.164,1.413,6.333,1.511,9.52c0.087,2.826,0.362,5.619,0.947,8.324c0.724,3.348,2.003,6.577,3.152,10.205
			c-0.253,0.106-0.945,0.369-1.615,0.683c-0.424,0.199-0.996,0.374-1.185,0.729c-0.686,1.291-1.874,1.73-3.107,2.243
			c-0.607,0.253-0.996,0.985-1.565,1.384c-1.437,1.009-2.984,1.251-4.459,0.429c-0.67,0.811-1.261,1.526-1.808,2.188
			c-1.311,0.093-2.611,0.185-3.774,0.268c-0.042,1.16-0.074,2.053-0.106,2.966c-1.769,0.056-3.829-1.435-4.715-3.468
			c-0.757-1.736-2.176-2.137-3.779-1.06c-0.68,0.457-1.312,1.008-2.041,1.359c-0.32,0.154-1.07,0.063-1.209-0.168
			C9.659,37.152,9.312,36.19,8.735,34.895z"/>
		<path d="M416.95,71.597c-1.8,0.671-3.664,1.212-5.384,2.049c-1.888,0.919-3.712,2.011-5.432,3.216
			c-1.425,0.998-4.053,1.321-5.325,0.191c-1.461-1.299-3.171-2.556-4.037-4.216c-0.752-1.442-0.488-3.418-0.655-5.159
			c-0.15-1.572-0.37-3.145-0.385-4.719c-0.017-1.817,0.178-3.635,0.239-5.454c0.029-0.845-0.062-1.692-0.062-2.539
			c-0.001-3.128-0.032-6.257,0.064-9.382c0.017-0.542,0.472-1.244,0.936-1.568c1.409-0.982,2.86-1.783,4.661-2.125
			c2.73-0.518,5.365-1.532,8.049-2.305c0.33-0.095,0.713-0.006,0.919-0.004c-0.202,1.929-0.442,3.768-0.575,5.615
			c-0.17,2.344-0.332,4.693-0.347,7.041c-0.011,1.734,0.055,3.502,0.378,5.199c0.598,3.136,1.409,6.232,2.132,9.345
			c1.967,1.1,1.814,4.441,4.865,4.395C416.977,71.318,416.964,71.458,416.95,71.597z M404.037,57.373
			c0.076,0.897,0.082,1.574,0.225,2.221c0.038,0.171,0.629,0.424,0.746,0.338C405.686,59.436,405.21,57.831,404.037,57.373z"/>
		<path d="M430.585,80.441c-0.745,0.779-1.47,1.538-2.228,2.331c-2.259-1.26-3.903-2.845-4.819-5.206
			c-0.545-1.404-1.461-2.66-2.07-4.044c-0.971-2.209-1.804-4.478-2.738-6.704c-0.566-1.349-1.14-2.704-1.84-3.986
			c-0.844-1.543-0.586-2.591,1.044-3.329c1.945-0.88,3.857-1.871,5.873-2.545c2.358-0.788,4.8-1.349,7.237-1.858
			c0.481-0.101,1.321,0.328,1.626,0.769c2.169,3.128,4.17,6.333,4.733,10.239c0.176,1.221,0.8,2.386,1.288,3.547
			c0.117,0.278,0.51,0.439,1.167,0.473c-0.529-2.668-1.057-5.335-1.586-8.003c0.234-0.082,0.469-0.164,0.703-0.247
			c0.291,0.62,0.616,1.228,0.867,1.864c0.694,1.755,1.306,3.544,2.055,5.275c0.342,0.791,1.112,1.418,1.363,2.221
			c0.366,1.172,0.668,2.452,0.582,3.656c-0.125,1.758-1.346,0.348-2.235,0.522c0.448,1.84-0.508,2.928-2.153,3.517
			c-0.473,0.169-1.012,0.155-1.521,0.219c-0.842,0.106-1.684,0.208-2.674,0.331c-0.474-0.529-1.163-1.298-1.852-2.068
			c-0.167,0.047-0.333,0.094-0.5,0.141c0.226,1.063,0.451,2.125,0.719,3.386C432.503,80.757,431.573,80.604,430.585,80.441z"/>
		<path d="M57.314,31.204c0.526,1.683,0.996,3.154,1.436,4.634c0.056,0.189-0.005,0.598-0.074,0.613
			c-1.611,0.346-0.891,1.755-1.117,2.455c-0.721-2.021-1.495-4.186-2.269-6.356C55.786,32.22,56.311,31.871,57.314,31.204z"/>
		<path d="M199.676,75.867c-1.34-2.733-2.679-5.466-4.019-8.199c0.082-0.101,0.165-0.201,0.247-0.302
			c0.463,0.309,1.168,0.518,1.345,0.945c0.651,1.571,1.101,3.224,1.677,4.828c0.308,0.858,0.718,1.679,1.081,2.516
			C199.897,75.726,199.786,75.797,199.676,75.867z"/>
		<path d="M144.798,119.331c0.241,1.162,0.482,2.324,0.724,3.486c-0.2,0.041-0.399,0.081-0.599,0.122
			c-1.315-0.964-0.583-2.326-0.586-3.545C144.49,119.373,144.644,119.352,144.798,119.331z"/>
	</g>
</g>
<g id="Layer_1">
</g>
</svg>
