<?xml version="1.0" encoding="iso-8859-1"?>
<!-- Generator: Adobe Illustrator 27.9.0, SVG Export Plug-In . SVG Version: 6.00 Build 0)  -->
<svg version="1.1" xmlns="http://www.w3.org/2000/svg" xmlns:xlink="http://www.w3.org/1999/xlink" x="0px" y="0px"
	 viewBox="0 0 329.268 95.16" style="enable-background:new 0 0 329.268 95.16;" xml:space="preserve">
<g id="Layer_7">
	<path d="M46.585,78.772c0.584,2.244,0.145,4.585-0.946,6.513c-0.804,1.42-2.496,2.436-3.968,3.35
		c-1.312,0.815-2.62-0.21-3.403-2.31c-1.81-4.856-3.499-9.765-5.54-14.522c-0.868-2.024-1.494-4.366-3.607-5.69
		c-0.345-0.216-0.78-0.656-0.779-0.992c0.005-1.617-1.06-1.947-2.312-2.261c-0.464-0.116-0.794-0.693-1.249-0.943
		c-0.428-0.236-1.086-0.575-1.38-0.408c-0.432,0.247-0.721,0.871-0.907,1.393c-0.263,0.739,0.191,1.829-1.11,2.02
		c-0.122,0.018-0.275,0.345-0.283,0.534c-0.098,2.293-0.134,4.59-0.274,6.88c-0.047,0.778-0.369,1.535-0.51,2.312
		c-0.144,0.794-0.659,1.475-0.071,2.451c0.314,0.521-0.386,1.584-0.455,2.417c-0.226,2.72-0.331,5.45-0.563,8.169
		c-0.147,1.73-0.683,3.29-2.507,4.018c-0.08,0.032-0.083,0.254-0.123,0.388c-0.608,1.995-1.682,2.818-4.198,3.069
		c0.043-0.751,0.08-1.47,0.125-2.189c0.159-2.562,0.204-5.138,0.515-7.682c0.309-2.53,0.924-5.022,1.334-7.542
		c0.321-1.976,0.479-3.979,0.813-5.952c0.308-1.821,0.75-3.621,1.144-5.427c0.146-0.671,0.33-1.334,0.486-2.002
		c0.735-3.151,1.463-6.303,2.201-9.453c0.628-2.68,1.123-5.402,1.931-8.027c1.719-5.59,3.562-11.143,5.441-16.681
		c0.759-2.236,1.59-4.473,2.667-6.567c1.388-2.699,3.252-5.162,4.54-7.902c1.042-2.216,2.999-3.245,4.72-4.612
		c0.4-0.318,1.102-0.385,1.655-0.359c2.206,0.103,3.706,1.468,4.404,3.693c0.186,0.592,0.851,1.019,1.126,1.602
		c0.351,0.743,0.943,1.745,0.695,2.319c-0.453,1.052,0.109,1.688,0.35,2.502c0.118,0.396,0.015,0.854,0.04,1.283
		c0.057,1.002,0.121,2.005,0.206,3.005c0.017,0.202,0.231,0.411,0.201,0.591c-0.343,2.094,0.922,4.063,0.12,6.335
		c-0.441,1.25-0.599,3.149,0.804,4.735c0.632,0.715-0.082,2.663-0.271,4.04c-0.069,0.5-0.385,0.966-0.515,1.275
		c0.66,1.11,1.239,2.084,1.965,3.307c0.924-1.156,1.932-2.056,2.49-3.18c2.054-4.134,3.962-8.34,5.919-12.523
		c0.222-0.475,0.27-1.223,0.628-1.414c2.181-1.163,2.293-3.405,2.999-5.355c1.231-3.397,2.315-6.867,3.826-10.138
		c1.318-2.853,2.927-5.627,5.729-7.425c1.904-1.222,3.701-0.987,5.71-0.143c1.856,0.78,2.252,2.214,2.427,3.871
		c0.238,2.242,0.398,4.492,0.585,6.739c0.013,0.159,0.042,0.373-0.041,0.475c-1.003,1.238-0.207,2.777-0.725,4.114
		c-0.978,2.526-1.656,5.129-3.408,7.36c-1.45,1.846-2.351,4.114-3.597,6.132c-1.487,2.407-3.108,4.73-4.624,7.119
		c-1.237,1.949-2.032,4.148-2.12,6.396c-0.038,0.96,0.976,2.323,1.891,2.888c2.3,1.422,4.872,2.396,7.233,3.731
		c2.723,1.54,5.347,3.256,7.991,4.931c1.528,0.968,2.949,2.123,4.541,2.961c0.749,0.395,1.787,0.241,3.063,0.375
		c-0.974-2.469-1.797-4.849-2.841-7.127c-1.361-2.968-2.914-5.849-4.354-8.781c-0.744-1.516-1.481-3.04-2.122-4.601
		c-1.369-3.337-1.372-6.657,0.209-9.962c0.739-1.545,1.035-3.399,2.065-4.686c1.808-2.257,4.405-3.392,7.32-3.783
		c2.743-0.368,5.464-0.899,8.204-1.292c0.676-0.097,1.414-0.036,2.081,0.128c5.722,1.401,11.49,0.916,17.286,0.671
		c5.709-0.241,11.419-1.321,17.146-0.323c1.764,0.307,3.509,0.758,5.229,1.259c0.509,0.148,0.904,0.691,1.783,1.402
		c-2.178,0.86-3.976,1.877-5.901,2.262c-3.147,0.629-4.873,2.954-4.395,6.073c0.638,4.164,0.981,8.372,1.536,12.55
		c0.303,2.281,0.819,4.533,1.17,6.809c0.24,1.552,0.35,3.123,0.539,4.683c0.112,0.924,0.248,1.846,0.398,2.765
		c0.321,1.972,0.666,3.94,0.986,5.912c0.291,1.792,0.953,1.941,2.568,1.036c2.069-1.161,2.434-3.197,3.016-5.12
		c0.658-2.174,1.252-4.382,1.653-6.614c0.185-1.028-0.15-2.151-0.264-3.23c-0.016-0.15-0.19-0.303-0.168-0.435
		c0.444-2.667,0.352-5.489,2.583-7.588c1.018-0.958,1.872-2.111,2.693-3.253c0.845-1.174,3.261-2.261,4.788-1.713
		c1.789,0.641,3.469,1.585,4.975,2.294c-1.394,1.086-2.692,1.945-3.794,3.006c-0.831,0.8-1.485,1.818-2.067,2.826
		c-0.229,0.398-0.251,1.152-0.022,1.541c2.285,3.889,4.597,7.764,7.027,11.562c0.373,0.584,1.404,1.063,2.094,1.018
		c0.461-0.03,1.11-1.027,1.23-1.674c0.325-1.749,0.423-3.541,0.594-5.317c0.256-2.668,0.583-5.333,0.721-8.007
		c0.156-3.03,0.145-6.069,0.191-9.105c0.02-1.327-0.032-2.655,0.004-3.981c0.083-3.09,0.014-6.2,0.364-9.262
		c0.268-2.337,1.022-4.629,1.701-6.899c0.173-0.578,0.817-1.282,1.362-1.405c0.527-0.119,1.207,0.435,1.701,0.987
		c0.443-0.117,0.886-0.233,1.33-0.35c0.128,0.924,0.255,1.848,0.346,2.499c-0.895,0.203-1.538,0.348-2.18,0.494
		c-0.013,0.215-0.026,0.43-0.04,0.645c0.655,0.18,1.31,0.36,1.985,0.545c0.015,5.377-0.061,10.866,0.618,16.293
		c2.024-3.401,4.104-6.307,7.708-8.09c3.3-1.634,6.583-2.105,10.109-1.414c3.234,0.633,3.847,0.153,5.231-3.222
		c1.647-4.015,3.741-7.84,7.579-10.172c1.746-1.061,3.811-1.848,5.822-2.142c1.542-0.226,3.269,0.377,4.832,0.87
		c1.335,0.421,2.554,1.21,4.147,1.995c0.971-1.94,1.998-3.9,2.941-5.9c1.64-3.479,3.944-6.36,7.248-8.401
		c1.978-1.222,4.925-0.655,7.5,1.322c2.116,1.625,3.031,3.801,3.023,6.331c-0.01,3.049,0.05,6.148-1.845,8.84
		c-3.267,4.639-6.906,8.945-10.87,13.018c-2.245,2.307-3.817,5.169-4.262,8.482c-0.158,1.178-0.633,2.475-0.321,3.527
		c1.1,3.707,3.924,6.09,7.001,8.174c1.525,1.033,3.101,1.992,4.672,2.957c3.71,2.277,7.424,4.549,11.157,6.788
		c0.381,0.228,0.905,0.217,1.468,0.339c0.612-2.685,1.2-5.261,1.821-7.984c2.994,2.638,3.792,5.947,4.233,9.343
		c0.172,1.321-0.4,2.56-1.733,3.282c-1.347,0.729-2.626,1.586-3.982,2.296c-1.54,0.807-2.928,0.208-4.36-0.513
		c-1.456-0.734-3.046-1.199-4.545-1.856c-0.957-0.42-1.868-0.952-2.778-1.472c-2.18-1.245-4.362-2.487-6.514-3.779
		c-1.16-0.697-2.218-1.571-3.399-2.225c-1.399-0.775-2.837-1.534-4.343-2.047c-1.18-0.402-1.678,0.629-1.908,1.578
		c-0.686,2.829-1.421,5.655-1.919,8.52c-0.504,2.902-2.877,4.084-4.811,5.674c-0.847,0.697-1.869,1.181-3.284,2.054
		c-0.061-2.011-0.162-3.665-0.152-5.318c0.024-3.844-0.027-7.696,0.204-11.529c0.157-2.61,0.758-5.192,1.127-7.791
		c0.195-1.368,0.234-2.763,0.492-4.117c0.643-3.375,1.389-6.731,2.059-10.101c0.426-2.145,1.214-4.33,1.075-6.447
		c-0.184-2.798-3.345-7.6-6.24-7.78c-3.016-0.188-5.134,1.005-6.513,3.785c-0.651,1.311-0.994,2.774-1.63,4.093
		c-0.546,1.132-0.051,1.715,0.831,2.195c0.97,0.528,1.97,1,2.951,1.508c3.461,1.79,6.631,6.086,4.956,10.752
		c-1.063,2.959-1.863,6.054-3.285,8.829c-0.96,1.873-2.674,3.433-4.275,4.886c-1.793,1.628-3.75,3.12-5.804,4.398
		c-1.426,0.887-3.137,1.317-4.723,1.943c-0.238,0.094-0.541,0.084-0.73,0.231c-1.225,0.952-2.375,2.013-3.662,2.868
		c-0.543,0.36-1.495,0.612-2.031,0.38c-1.624-0.704-3.139-1.664-4.689-2.536c-0.414-0.233-0.776-0.664-1.209-0.74
		c-2.784-0.493-3.472-2.793-4.375-4.928c-0.197-0.466-0.432-0.915-0.649-1.372c-0.173-0.009-0.346-0.017-0.52-0.026
		c-0.321,1.201-0.888,2.398-0.912,3.606c-0.048,2.408-1.47,3.812-3.132,5.17c-1.05,0.858-2.077,1.752-3.037,2.708
		c-2.836,2.825-7.279,3.397-9.76-0.127c-1.224-1.739-2.376-3.53-3.602-5.268c-0.287-0.407-0.743-0.695-1.142-1.057
		c-1.217,2.589-2.133,5.006-3.455,7.176c-0.814,1.336-2.254,2.289-3.398,3.429c-0.334,0.332-0.638,0.7-0.917,1.081
		c-2.38,3.254-6.85,4.231-10.059,1.91c-0.752-0.544-0.911-2.076-1.099-3.194c-0.427-2.533-0.657-5.098-1.049-7.637
		c-0.995-6.441-1.993-12.881-3.074-19.307c-0.502-2.987-1.083-5.972-1.846-8.901c-0.548-2.104,0.069-3.838,1.026-5.594
		c0.264-0.484,0.425-1.023,0.855-2.084c-2.158,0.38-3.855,0.679-5.552,0.978c0.009,0.153,0.018,0.307,0.026,0.46
		c-0.363-0.281-0.726-0.563-1.009-0.782c-0.183,0.001-0.258-0.022-0.288,0.005c-2.439,2.19-5.583,1.54-8.421,1.987
		c-3.322,0.523-6.705,0.703-10.069,0.896c-2.855,0.164-3.431,0.912-3.308,3.737c0.121,2.795-0.211,5.607-0.222,8.412
		c-0.009,2.377,0.217,4.755,0.22,7.132c0.002,1.306,0.383,2.472,0.669,3.707c0.423,1.828-0.026,3.841,0.095,5.763
		c0.095,1.514,0.488,3.009,0.757,4.512c0.036,0.202,0.212,0.426,0.162,0.59c-0.425,1.384,0.477,2.107,1.408,2.742
		c0.935,0.637,1.224,1.054,0.014,1.753c-1.033,0.597-1.24,1.559-0.802,2.763c0.495,1.364,0.762,2.811,1.131,4.23
		c0.508,0.915,1.098,1.878,1.569,2.895c0.121,0.26-0.009,0.848-0.23,1.022c-1.771,1.393-3.592,2.724-5.696,4.296
		c-0.665-1.702-1.394-3.15-1.792-4.683c-0.567-2.183-0.874-4.432-1.331-6.645c-0.091-0.44-0.25-1.074-0.567-1.228
		c-2.644-1.279-4.914-3.403-8.033-3.628c-0.265-0.019-0.694-0.018-0.763-0.163c-1.131-2.364-4.291-2.118-5.582-4.42
		c-0.402-0.717-1.862-1.166-2.84-1.171c-2.212-0.011-3.737-1.514-5.63-2.173c-0.446-0.155-0.852-0.468-1.305-0.549
		c-0.68-0.122-1.443-0.271-2.053-0.062c-0.253,0.086-0.236,1.063-0.28,1.64c-0.263,3.434-0.558,6.867-0.737,10.306
		c-0.094,1.798,0.038,3.608,0.043,5.412c0.003,1.274,0.306,2.689-0.147,3.784c-0.554,1.34-1.74,2.425-2.689,3.591
		c-0.266,0.327-0.646,0.571-0.997,0.819c-1.347,0.952-2.189,0.657-2.325-0.988c-0.243-2.946-0.361-5.905-0.455-8.861
		c-0.132-4.129-0.236-8.259-0.263-12.39c-0.009-1.446,0.256-2.893,0.374-4.341c0.155-1.898,0.358-3.791-0.792-5.529
		c-0.223-0.337-0.113-0.917-0.102-1.384c0.066-2.819,0.17-5.638,0.2-8.458c0.004-0.415-0.23-0.934-0.533-1.204
		c-0.136-0.121-0.749,0.196-1.081,0.413c-0.446,0.292-0.881,0.635-1.232,1.035c-1.991,2.273-3.947,4.578-5.934,6.855
		c-1.144,1.311-0.693,2.949-0.908,4.434c-0.257,1.775-0.169,3.665-0.029,5.374c0.192,2.342,0.161,4.669-0.332,6.832
		c-0.378,1.66,0.385,3.151,0.014,4.569c-0.463,1.768,0.031,3.41-0.046,5.101C47.479,78.106,46.925,78.415,46.585,78.772z
		 M29.574,34.243c0.128,0.027,0.256,0.055,0.384,0.082c-0.548,0.396-1.494,0.729-1.569,1.2c-0.24,1.51-0.364,2.962-1.508,4.166
		c-1.25,1.316,1.088,3.345-0.803,4.613c-0.021,0.014-0.013,0.119,0.015,0.151c1.046,1.181-0.061,2.128-0.518,2.948
		c-0.838,1.503-0.312,2.987,1.417,3.284c0.726,0.125,1.434,0.348,2.154,0.508c2.92,0.647,5.704,2.151,8.818,1.592
		c3.336-0.599,4.778-0.818,4.09-4.473c-0.077-0.411-0.01-0.849-0.014-1.275c-0.017-1.911,0.082-3.833-0.087-5.731
		c-0.184-2.056-0.759-4.08-0.916-6.136c-0.332-4.356-1.04-8.643-2.353-12.793c-0.32-1.013-1.549-1.738-2.36-2.596
		c-0.586,0.724-1.264,1.393-1.736,2.184c-0.834,1.396-1.438,2.935-2.331,4.287c-0.906,1.37-1.534,2.887-2.368,4.292
		C29.321,31.503,29.648,32.992,29.574,34.243z M187.223,58.696c-0.116-1.752-0.379-3.53-0.317-5.297
		c0.094-2.69,0.307-5.387,0.667-8.054c0.326-2.414,0.9-4.795,1.403-7.183c0.182-0.866-0.191-1.303-0.955-1.523
		c-2.577-0.743-5.16-1.063-7.853-0.568c-3.218,0.592-3.753,1.083-4.13,4.267c-0.492,4.145,0.38,8.061,1.926,11.863
		c0.255,0.627,0.629,1.268,1.113,1.729C181.361,56.106,183.44,58.647,187.223,58.696z M219.275,27.358
		c1.112-0.444,1.952-0.522,2.359-0.983c2.336-2.648,4.712-5.283,6.798-8.125c2.048-2.789,1.59-6.099-0.805-8.625
		c-1.447-1.526-3.003-1.267-3.885,0.644c-0.968,2.097-1.917,4.204-2.915,6.286c-0.939,1.96-1.722,3.949-1.648,6.178
		C219.226,24.113,219.238,25.495,219.275,27.358z M42.626,59.189c-0.323-0.056-0.607-0.196-0.831-0.13
		c-2.459,0.726-4.938,1.405-7.332,2.309c-0.402,0.152-0.717,1.391-0.552,1.983c0.229,0.822,0.958,1.501,1.459,2.251
		c1.348,2.018,3.763,3.578,2.769,6.611c-0.125,0.382,0.036,1.079,0.325,1.338c1.044,0.934,2.199,1.743,3.729,2.919
		c0.112-2.143,0.225-3.952,0.293-5.763c0.038-1.007-0.014-2.016,0-3.024C42.525,64.871,42.577,62.059,42.626,59.189z M65.045,26.426
		c0.11,0.402,0.384,0.912,0.361,1.408c-0.075,1.573,0.04,3.257-0.507,4.669c-0.378,0.975-0.045,1.315,0.476,1.659
		c0.192,0.127,0.842-0.26,1.157-0.549c0.339-0.312,0.541-0.777,0.782-1.188c2.323-3.96,5.232-7.705,4.885-12.68
		c-0.117-1.676-0.25-3.373-0.648-4.993c-0.122-0.498-1.612-1.177-1.686-1.091c-0.671,0.776-1.302,1.65-1.673,2.601
		c-0.356,0.914,0.092,2.159-1.258,2.64c-0.158,0.056-0.318,0.708-0.2,0.844c0.854,0.987,0.061,1.658-0.355,2.428
		c-0.123,0.228-0.196,0.574-0.115,0.805C66.771,24.438,66.099,25.438,65.045,26.426z M198.432,47.16
		c0.28-2.334-0.126-4.586-2.036-6.287c-0.546-0.487-1.397-0.888-2.082-0.85c-0.321,0.018-0.745,1.151-0.831,1.816
		c-0.186,1.438-0.198,2.899-0.254,4.352c-0.076,1.976-0.229,3.958-0.147,5.929c0.045,1.091,1.338,1.788,1.89,1.177
		C196.552,51.545,198.298,49.86,198.432,47.16z M90.988,32.185c-1.024,0.1-1.915,0.096-2.758,0.293
		c-0.984,0.23-1.908,0.498-1.382,2.005c0.486,1.394,0.945,2.949,0.801,4.371c-0.158,1.557,1.016,2.208,1.204,3.42
		c0.166-0.015,0.332-0.031,0.499-0.046C89.878,38.998,90.404,35.769,90.988,32.185z"/>
	<path d="M260.912,29.877c0.539-1.016,1.043-2.051,1.625-3.041c0.633-1.078,1.654-2.021,2.846-1.531
		c1.132,0.465,2.692,0.89,2.708,2.694c0.003,0.369,0.376,1.065,0.478,1.047c0.485-0.087,1.052-0.256,1.379-0.598
		c3.414-3.567,7.606-6.024,11.862-8.387c1.966-1.091,2.779-0.988,4.36,0.597c0.235,0.236,0.133,1.276-0.148,1.477
		c-1.345,0.965-2.815,1.754-4.22,2.639c-0.472,0.297-0.92,0.653-1.312,1.049c-0.517,0.523-0.879,1.466-1.461,1.61
		c-2.225,0.549-3.611,2.235-5.194,3.599c-1.426,1.228-2.97,2.607-3.697,4.257c-0.484,1.099,0.24,2.831,0.657,4.209
		c1.446,4.778,4.503,8.699,7.095,12.854c1.688,2.706,3.489,5.367,5.496,7.84c1.888,2.326,4.263,4.256,6.144,6.587
		c1.639,2.032,3.693,3.421,5.875,4.651c1.479,0.834,3.14,1.357,4.741,1.959c0.589,0.221,1.261,0.212,1.861,0.411
		c1.375,0.455,2.769,0.025,3.318-1.324c0.527-1.294,1.324-1.532,2.565-1.107c0.226,1.087,0.532,2.198,0.674,3.33
		c0.167,1.334,0.129,2.559-1.72,2.811c-0.853,0.116-1.809,0.51-2.433,1.086c-2.688,2.487-5.647,1.689-8.489,0.674
		c-2.2-0.786-4.231-2.048-6.335-3.102c-0.187-0.094-0.398-0.34-0.536-0.301c-2.182,0.63-2.641-1.29-3.636-2.419
		c-0.599-0.68-0.703-1.865-2.183-1.646c-0.393,0.058-0.999-1.274-1.493-1.978c-0.222-0.317-0.335-0.753-0.622-0.971
		c-0.73-0.556-1.599-0.941-2.282-1.543c-0.685-0.605-1.066-1.598-2.287-1.306c-0.188,0.045-0.531-0.313-0.718-0.552
		c-3.894-4.979-8.197-9.667-11.019-15.41c-0.325-0.662-0.435-1.463-0.87-2.025c-0.325-0.42-1.013-0.559-1.715-0.912
		c-0.847,3.48-1.721,6.667-2.364,9.901c-0.274,1.38-0.057,2.856-0.08,4.289c-0.004,0.273,0.007,0.702-0.147,0.795
		c-2.276,1.368-4.152,3.431-6.877,4.017c-0.248,0.053-0.528-0.045-0.854-0.079c0.006-1.636-0.035-3.266,0.029-4.892
		c0.093-2.351,0.319-4.697,0.386-7.048c0.147-5.158,0.207-10.318,0.348-15.476c0.062-2.244,0.299-4.483,0.347-6.727
		c0.1-4.621,0.168-9.244,0.163-13.867c-0.002-2.01-0.364-4.026-0.28-6.027c0.046-1.092,0.612-2.192,1.075-3.229
		c0.492-1.1,1.113-2.146,1.726-3.187c0.748-1.271,1.807-1.956,3.335-1.492c1.321,0.401,2.437,2.195,2.384,3.547
		c-0.176,4.474-0.248,8.953-0.469,13.424c-0.114,2.318-0.492,4.623-0.675,6.94c-0.049,0.619,0.182,1.26,0.285,1.891
		C260.678,29.883,260.795,29.88,260.912,29.877z"/>
	<path d="M23.525,22.879c-0.489,1.205-1.24,2.321-1.354,3.498c-0.19,1.954-2.423,2.202-2.819,3.863
		c-0.843-0.234-1.942-0.211-2.482-0.749c-1.731-1.724-2.809-3.86-2.994-6.448c-0.397-0.042-0.805-0.084-1.271-0.133
		c-0.025,0.238-0.009,0.527-0.089,0.786c-0.803,2.582-1.385,5.176-0.385,7.838c0.382,1.018,0.976,1.976,1.218,3.021
		c0.209,0.902,0.056,1.889-1.284,1.903c0.276,1.678-1.64,2.253-1.871,3.716c-0.082,0.518-0.474,1.122-0.908,1.419
		c-0.712,0.487-1.574,0.754-2.373,1.114c-0.312-0.767-0.667-1.52-0.926-2.305c-0.64-1.934-1.195-3.896-1.857-5.822
		c-1.177-3.421-2.305-6.865-3.644-10.223c-1.278-3.206,0.275-5.981,1.212-8.788c0.235-0.704,1.974-1.336,2.935-1.228
		c0.729,0.082,1.327,1.386,1.969,2.158c0.364,0.437,0.699,0.898,1.048,1.347c0.143-0.031,0.285-0.061,0.428-0.092
		c0.109-1.038,0.194-2.08,0.331-3.114c0.279-2.116,0.029-4.332,1.718-6.127c0.718-0.763,1.185-1.919,1.391-2.97
		c0.306-1.557,1.524-1.716,2.582-1.831c0.557-0.06,1.364,0.6,1.786,1.146c1.7,2.199,2.041,4.851,2.513,7.516
		C19.079,16.231,20.021,20.075,23.525,22.879z"/>
	<path d="M312.221,32.357c1.019-2.027,1.745-3.718,2.695-5.271c0.639-1.044,1.636-1.863,2.403-2.837
		c1.239-1.574,2.47-3.16,3.594-4.816c0.294-0.433,0.436-1.331,0.183-1.682c-0.331-0.46-1.183-0.9-1.703-0.798
		c-1.147,0.224-2.343,0.616-3.311,1.255c-2.4,1.584-4.664,3.375-7.03,5.014c-0.537,0.372-1.252,0.573-1.91,0.655
		c-0.453,0.057-1.154-0.081-1.374-0.393c-0.285-0.404-0.386-1.124-0.24-1.61c0.375-1.247,0.959-2.429,1.396-3.66
		c0.121-0.34,0.169-0.922-0.022-1.099c-0.215-0.199-0.752-0.134-1.122-0.056c-0.348,0.073-0.667,0.458-0.989,0.445
		c-0.543-0.022-1.187-0.119-1.575-0.441c-0.229-0.19-0.211-0.956-0.025-1.321c0.848-1.664,1.613-3.419,2.752-4.872
		c1.392-1.776,3.578-2.137,5.733-2.258c1.561-0.087,3.111,0.121,4.131,1.436c0.576,0.743,0.848,1.723,1.313,2.718
		c2.51-1.508,5.294-2.372,8.33-2.063c3.301,0.335,4.735,3.866,3.199,6.766c-2.115,3.994-5.317,7.048-8.214,10.361
		c-0.954,1.091-2.485,1.682-3.76,2.488c-0.983,0.621-1.958,1.26-2.981,1.808C313.332,32.321,312.836,32.27,312.221,32.357z"/>
</g>
<g id="Layer_1">
</g>
</svg>
