<?xml version="1.0" encoding="iso-8859-1"?>
<!-- Generator: Adobe Illustrator 27.9.0, SVG Export Plug-In . SVG Version: 6.00 Build 0)  -->
<svg version="1.1" xmlns="http://www.w3.org/2000/svg" xmlns:xlink="http://www.w3.org/1999/xlink" x="0px" y="0px"
	 viewBox="0 0 281.544 188.509" style="enable-background:new 0 0 281.544 188.509;" xml:space="preserve">
<g id="Layer_12">
	<path d="M55.116,149.109c-0.592,2.472-0.956,4.611-1.637,6.645c-0.553,1.65-1.392,3.226-2.268,4.74
		c-1.812,3.13-3.805,6.158-5.553,9.321c-0.378,0.684-0.228,1.816,0.006,2.65c0.482,1.719,1.237,3.36,1.786,5.063
		c0.907,2.815-0.283,4.51-3.205,4.268c-2.262-0.188-4.488-0.808-6.733-1.218c-0.535-0.098-1.084-0.12-1.772-0.192
		c0.322,1.568,0.712,2.826,0.805,4.107c0.093,1.268-0.114,2.558-0.192,3.895c-1.244,0.035-2.216,0.216-3.126,0.053
		c-1.583-0.284-2.443-1.544-3.252-2.821c-0.729-1.151-0.962-2.602-2.133-3.497c-0.128-0.098-0.051-0.504-0.023-0.762
		c0.398-3.739-0.559-7.236-1.845-10.69c-1.267-3.405-2.28-6.861-2.867-10.484c-0.41-2.531-0.862-4.936-0.117-7.461
		c0.746-2.532,3.469-3.63,5.724-2.311c2.424,1.417,4.243,3.442,5.983,5.57c1.109,1.357,2.241,2.697,3.302,4.09
		c0.72,0.945,1.535,1.114,2.248,0.197c2.032-2.613,3.976-5.295,5.942-7.958c1.314-1.78,2.686-3.527,3.873-5.389
		c0.493-0.773,0.434-1.885,0.876-2.708c0.667-1.242-0.308-2.163-0.768-2.772c-1.805-2.396-2.094-5.282-3.043-7.948
		c-0.877-2.463-1.084-5.003-0.136-7.423c0.621-1.584,1.638-3.066,2.709-4.408c1.303-1.632,2.7-3.26,4.325-4.55
		c2.856-2.268,5.903-4.297,8.902-6.38c0.591-0.411,1.327-0.614,2.133-0.975c0.222,0.63,0.443,1.147,0.586,1.684
		c0.605,2.269,1.254,4.53,1.737,6.825c0.152,0.724-0.072,1.573-0.284,2.319c-0.663,2.329-1.447,4.624-2.09,6.959
		c-0.256,0.931,0.237,1.696,1.246,1.564c2.263-0.295,4.591-0.492,6.74-1.196c7.247-2.375,14.426-4.953,21.631-7.456
		c0.195-0.068,0.378-0.168,0.886-0.397c-0.741-1.76-1.53-3.452-2.17-5.197c-1.059-2.886-0.115-5.466,1.22-8.05
		c0.467-0.904,0.573-2.16,0.405-3.184c-0.204-1.237-0.83-2.418-1.356-3.586c-0.409-0.909-0.118-1.593,0.627-2.015
		c0.754-0.427,1.529-1.408,2.518-0.427c0.645,0.64,1.246,1.334,1.794,2.058c0.662,0.874,1.243,1.074,2.276,0.396
		c2.252-1.477,4.535-2.953,6.956-4.117c3.278-1.575,6.703-2.844,10.055-4.268c2.713-1.152,5.406-2.349,8.119-3.5
		c0.479-0.203,1.033-0.227,1.515-0.425c1.133-0.464,1.554-0.111,1.871,1.083c0.343,1.295,0.58,2.472-0.046,3.716
		c-0.098,0.194-0.098,0.508-0.014,0.713c0.661,1.614-0.404,2.588-1.362,3.524c-2.961,2.892-6.71,4.483-10.364,6.258
		c-3.296,1.601-6.497,3.402-9.694,5.196c-0.281,0.158-0.47,1.085-0.279,1.373c0.759,1.138,1.714,2.143,2.545,3.236
		c2.556,3.365,5.33,6.598,7.547,10.175c1.555,2.508,2.322,5.513,1.146,8.544c-0.186,0.478-0.846,0.772-1.411,1.257
		c-3.704-7.699-9.933-13.022-15.283-19.032c-1.512,0.751-0.881,1.965-0.802,2.985c0.197,2.565,0.466,5.124,0.737,7.682
		c0.066,0.623,0.217,1.244,0.393,1.848c0.49,1.685-0.433,4.27-1.941,5.107c-0.312,0.173-1.084,0.144-1.202-0.055
		c-1.062-1.79-2.753-1.359-4.155-0.997c-3.159,0.817-6.257,1.849-8.966,3.822c-0.994,0.724-2.231,1.137-3.392,1.606
		c-2.62,1.058-5.261,2.064-7.895,3.089c-0.147,0.057-0.316,0.072-0.449,0.152c-0.561,0.336-1.112,0.689-1.667,1.036
		c0.371,0.48,0.682,1.026,1.124,1.429c2.534,2.307,5.129,4.619,6.321,7.918c0.774,2.144,1.292,4.449,1.455,6.715
		c0.085,1.179-0.782,2.464-1.348,3.639c-0.285,0.59-1.995,0.276-2.537-0.406c-0.791-0.994-1.571-1.996-2.401-3.053
		c1.186-1.216,1.216-2.48-0.391-3.98c-1.959-1.829-4.025-3.541-6.01-5.343c-1.099-0.998-2.07-2.142-3.202-3.097
		c-1.062-0.895-2.258-1.633-3.402-2.431c-1.113-0.777-2.231-1.547-3.353-2.309c-0.246-0.167-0.522-0.29-0.873-0.481
		c0.776,2.54,0.786,2.529,2.717,4.322c0.236,0.219,0.308,0.63,0.418,0.964c0.292,0.886,0.679,1.762,0.819,2.674
		c0.255,1.663,1.719,3.048,0.753,5.042c-0.576,1.189-1.337,1.295-2.107,0.935c-1.269-0.593-2.383-1.515-3.573-2.281
		C56.655,149.978,56.089,149.676,55.116,149.109z M55.286,129.311c-1.292,2.816-4.218,5.481-0.496,8.493
		c1.572-0.947,2.825-1.845,2.072-3.906c-0.495-1.355-0.724-2.806-1.104-4.205C55.717,129.54,55.46,129.445,55.286,129.311z
		 M34.415,165.385c-1.109-1.054-1.801-1.821-2.609-2.435c-0.449-0.342-1.091-0.43-1.646-0.632c-0.082,0.57-0.217,1.138-0.231,1.71
		c-0.012,0.517,0.122,1.036,0.165,1.556c0.077,0.909,0.109,2.11,1.337,1.836C32.358,167.212,33.127,166.301,34.415,165.385z"/>
	<path d="M196.983,63.968c1.714,0.246,3.159,0.618,4.607,0.626c2.901,0.017,5.828,0.039,8.698-0.318
		c3.588-0.446,7.148-1.185,10.68-1.976c1.519-0.34,2.94-1.121,4.401-1.714c1.304-0.529,2.544-0.725,3.555,0.526
		c-0.565,1.176-1.099,2.287-1.795,3.738c0.014,0.033,0.196,0.453,0.408,0.944c-0.175,0.167-0.349,0.365-0.553,0.523
		c-2.834,2.186-5.551,4.579-9.249,5.239c-1.31,2.011-3.539,1.899-5.507,2.339c-1.224,0.274-2.492,0.345-3.736,0.541
		c-1.178,0.185-2.343,0.466-3.525,0.61c-1.655,0.202-3.355,0.597-4.974,0.399c-2.178-0.266-4.307-0.98-6.437-1.574
		c-1.566-0.437-3.117-0.969-3.821-2.669c-0.219-0.529-0.415-1.069-0.64-1.596c-0.464-1.088-0.94-2.171-1.49-3.439
		c-2.055,2.624-1.082,4.581,0.151,6.705c1.04,1.791,1.432,3.961,2.487,5.74c1.1,1.855,0.508,3.952,1.261,5.745
		c0.88,2.097,0.625,4.025-0.178,6.025c-1.854,0.447-2.915-0.201-3.916-1.807c-1.532-2.459-2.391-5.184-3.512-7.809
		c-0.502-1.175-1.142-2.304-1.834-3.38c-1.299-2.02-4.224-2.909-6.713-1.937c3.412,1.988,3.416,5.477,4.252,8.637
		c0.973,3.675,1.668,7.314,0.975,11.143c-0.441,2.434-1.395,4.662-3.205,6.183c-1.955,1.643-5.54,2.083-7.517-0.544
		c-1.8-2.392-3.332-4.887-4.34-7.698c-0.739-2.061-1.749-4.086-2.085-6.214c-0.453-2.869,0.814-5.348,2.511-7.718
		c1.887-2.635,4.428-3.578,7.431-3.932c0.448-0.053,1.108-0.623,1.176-1.035c0.101-0.611-0.216-1.302-0.411-1.942
		c-0.049-0.16-0.375-0.218-0.469-0.383c-0.325-0.569,0.401-4.511,0.947-4.934c1.042-0.806,2.146-1.532,3.192-2.333
		c0.435-0.333,1.062-0.729,1.136-1.174c0.771-4.644,3.978-7.473,7.647-9.641c3.228-1.907,6.835-3.178,10.298-4.677
		c0.893-0.386,1.602-0.109,1.751,0.996c0.042,0.309,0.227,0.639,0.162,0.915c-0.445,1.868,0.218,3.527,0.708,5.283
		c0.279,0.998-0.058,2.276-0.426,3.319C198.605,61.059,197.819,62.31,196.983,63.968z M172.614,87.245
		c0.374,0.859,0.632,1.559,0.983,2.208c0.14,0.259,0.554,0.615,0.722,0.56c0.279-0.091,0.646-0.48,0.647-0.744
		c0.002-0.795-0.154-1.591-0.244-2.349C173.894,87.048,173.342,87.133,172.614,87.245z"/>
	<path d="M237.454,47.362c-1.988,2.919-1.392,5.723-1.351,8.455c0.009,0.612,0.093,1.387,0.463,1.8
		c1.173,1.308,0.68,2.755,0.423,4.112c-0.093,0.492-0.968,1.196-1.478,1.189c-2.469-0.033-3.671-1.229-4.834-3.614
		c-1.311-2.689-2.802-5.295-4.311-7.881c-2.322-3.981-5.324-7.606-6.69-12.083c-0.662-2.171-0.853-4.485-1.214-6.497
		c0.929-0.596,1.522-1.068,2.19-1.378c0.625-0.29,1.337-0.551,1.996-0.519c0.212,0.01,0.369,0.992,0.568,1.522
		c0.628,1.675,1.117,3.423,1.934,5c1.013,1.956,2.293,3.774,3.479,5.639c0.118,0.185,0.38,0.279,0.674,0.485
		c1.039-1.622,2.085-3.124,2.983-4.709c0.452-0.798,0.426-1.93,0.993-2.584c0.899-1.037,2.093-1.83,3.202-2.672
		c2.086-1.584,4.116-3.266,6.332-4.647c1.717-1.07,3.661-1.796,5.557-2.542c0.334-0.131,1.307,0.35,1.335,0.616
		c0.184,1.79,0.095,3.609,0.289,5.398c0.15,1.38-0.742,2.072-1.502,2.872c-0.772,0.813-1.629,1.544-2.756,2.599
		c0.979,0.314,1.518,0.599,2.078,0.648c4.702,0.414,9.406,0.799,14.113,1.156c1.109,0.084,2.261-0.13,3.336,0.08
		c1.15,0.225,2.476,0.534,3.271,1.286c0.631,0.598,0.604,1.913,0.81,2.922c0.044,0.217-0.299,0.525-0.241,0.726
		c0.611,2.128-0.554,2.557-2.328,2.694c-0.66,0.051-1.236,0.813-1.919,1.01c-1.595,0.46-3.215,0.946-4.856,1.114
		c-3.657,0.375-7.351,0.9-10.996,0.715c-2.743-0.14-5.437-1.285-8.15-1.991C239.625,47.961,238.401,47.619,237.454,47.362z"/>
	<path d="M152.291,115.988c-0.286,1.861-0.337,3.464-0.798,4.939c-1.042,3.337-4.629,3.847-7.061,1.203
		c-2.175-2.364-4.434-4.662-6.804-6.826c-0.812-0.741-2.114-0.92-3.12-1.484c-0.811-0.455-1.481-1.155-2.273-1.651
		c-0.832-0.52-1.37-0.955-1.455-2.167c-0.094-1.331-0.995-2.591-1.447-3.915c-0.559-1.636,0.129-3.004,1.554-4.049
		c1.135-0.832,1.974-2.162,3.687-1.474c0.24,0.096,0.613,0.064,0.732,0.229c1.371,1.895,2.699,3.822,4.054,5.729
		c0.296,0.417,0.643,0.801,0.987,1.182c1.054,1.166,2.077,2.365,3.199,3.462c0.484,0.474,1.181,0.731,1.782,1.087
		c0.127-0.092,0.255-0.184,0.382-0.276c-0.274-1.678-0.446-3.38-0.847-5.026c-0.531-2.187,1.067-4.877,3.285-5.179
		c0.321-0.044,0.737,0.257,1.039,0.49c1.345,1.036,2.579,2.249,4.021,3.118c1.194,0.72,2.119,0.05,2.373-1.453
		c0.711-4.199,0.264-8.372-0.446-12.512c-0.507-2.958-1.235-5.879-1.861-8.817c-0.033-0.156,0.022-0.397-0.066-0.464
		c-2.171-1.66-1.248-4.171-1.785-6.266c1.839-0.977,1.987-0.71,3.231,0.965c2.177,2.933,3.585,6.183,4.443,9.654
		c0.854,3.455,1.549,6.966,2.038,10.491c0.534,3.85,0.711,7.748,1.12,11.617c0.321,3.031-0.821,5.452-2.891,7.53
		c-1.299,1.304-2.852,1.232-4.457,0.726C154.021,116.573,153.141,116.27,152.291,115.988z"/>
	<path d="M14.274,171.244c-1.896-1.144-3.679-2.255-5.504-3.291c-0.347-0.197-1.114-0.28-1.246-0.097
		c-0.248,0.343-0.342,0.977-0.202,1.387c0.461,1.347,1.119,2.626,1.583,3.972c0.501,1.453-0.011,2.153-1.479,1.797
		c-1.227-0.297-2.453-0.903-3.483-1.645c-2.953-2.129-3.998-5.242-3.94-8.739c0.026-1.551,1.04-2.027,2.478-1.475
		c0.527,0.203,1.126,0.219,1.904,0.358c-0.446-1.064-1.031-1.832-1.017-2.59c0.016-0.923,0.347-1.972,0.882-2.724
		c0.817-1.146,2.072-0.461,2.888,0.014c1.659,0.966,3.152,2.22,4.709,3.362c1.986,1.456,2.872,3.636,3.723,5.808
		C16.393,169.485,16.229,169.85,14.274,171.244z"/>
	<path d="M273.128,16.702c-0.53,1.947-0.845,3.395-1.328,4.785c-0.387,1.114-2.192,1.563-3.066,0.747
		c-1.643-1.535-3.498-2.977-4.683-4.829c-1.047-1.636-1.325-3.772-1.894-5.701c-0.18-0.608-0.383-1.297-0.266-1.888
		c0.337-1.712,2.027-2.982,3.759-3.194c1.457-0.179,1.956,1.132,2.235,1.836c0.891,2.251,2.821,3.623,4.072,5.525
		C272.562,14.905,272.85,16.037,273.128,16.702z"/>
	<path d="M280.044,13.207c-1.455,0.381-1.948-0.766-2.561-1.657c-0.595-0.866-1.171-1.756-1.647-2.691
		c-0.438-0.861-0.696-1.811-1.098-2.693c-0.301-0.662-0.829-1.239-1.038-1.92c-0.625-2.036,0.958-4.069,3.217-4.241
		c1.335-0.102,3.401,1.48,4.002,2.975c0.507,1.262,0.933,2.415,0.325,3.855c-0.36,0.853,0.061,2.004-0.121,2.973
		C280.906,10.963,280.419,12.067,280.044,13.207z"/>
</g>
<g id="Layer_1">
</g>
</svg>
