<?xml version="1.0" encoding="iso-8859-1"?>
<!-- Generator: Adobe Illustrator 27.9.0, SVG Export Plug-In . SVG Version: 6.00 Build 0)  -->
<svg version="1.1" xmlns="http://www.w3.org/2000/svg" xmlns:xlink="http://www.w3.org/1999/xlink" x="0px" y="0px"
	 viewBox="0 0 423.614 75.872" style="enable-background:new 0 0 423.614 75.872;" xml:space="preserve">
<g id="Layer_11">
	<path d="M226.973,51.323c-2.946,2.378-4.997,0.718-6.072-1.534c-1.087-2.277-2.211-4.546-3.113-6.898
		c-1.506-3.925-1.483-8.011-0.664-12.066c0.49-2.425,1.585-4.751,1.885-7.185c0.4-3.247,5.196-6.71,8.369-6.973
		c3.998-0.331,7.42,0.816,10.491,3.203c1.283,0.997,2.027,0.6,2.839-0.559c2.247-3.206,5.179-5.544,8.921-6.812
		c0.781-0.265,1.572-0.533,2.298-0.913c0.483-0.253,0.968-0.636,1.264-1.085c0.836-1.268,1.386-2.773,2.39-3.872
		c2.477-2.713,5.375-4.656,9.22-5.226c5.773-0.856,10.89,0.755,15.929,3.261c2.602,1.294,4.816,3.045,6.693,5.18
		c1.413,1.607,1.676,3.503,0.563,5.543c-2.541,4.66-4.544,9.688-9.317,12.742c-0.002,0.156-0.004,0.311-0.005,0.467
		c1.873,0.52,3.731,1.107,5.623,1.546c4.44,1.03,8.895,1.998,13.348,2.972c2.283,0.499,4.586,0.91,6.862,1.439
		c5.72,1.332,11.433,2.695,17.14,4.084c0.755,0.184,1.487,0.533,2.174,0.906c1.087,0.59,1.622-0.098,1.605-0.91
		c-0.031-1.506-0.24-3.035-0.599-4.5c-0.66-2.694-1.485-5.347-2.238-8.018c-0.936-3.316-2.284-6.587-2.665-9.966
		c-0.279-2.474-2.025-4.755-1.067-7.36c0.429-1.168,1.007-2.28,1.452-3.443c0.319-0.834,0.714-1.702,0.744-2.566
		c0.036-1.021,0.614-1.551,1.359-1.667c0.778-0.121,1.734-0.012,2.419,0.356c2.157,1.159,1.657,3.5,2.065,5.379
		c1.136,5.225,2.093,10.488,3.189,15.722c0.144,0.686,0.682,1.29,1.038,1.932c0.635-0.701,1.557-1.301,1.851-2.124
		c0.792-2.222,1.18-4.589,1.978-6.808c1.281-3.56,4.263-3.492,6.543-1.219c0.189,0.189,0.361,0.395,0.427,0.468
		c2.824-1.499,5.508-3.159,8.378-4.385c3.094-1.321,6.306-2.468,9.57-3.262c3.195-0.778,6.515-1.068,9.796-1.423
		c0.392-0.042,1.29,0.891,1.247,1.296c-0.094,0.88-0.631,1.718-1.014,2.561c-0.299,0.655-0.714,1.266-0.947,1.941
		c-0.585,1.692-2.501,3.071-4.299,3.285c-4.712,0.561-9.366,1.412-13.71,3.451c-0.372,0.174-0.678,0.489-1.407,1.029
		c1.977,1.043,3.647,2.089,5.441,2.838c3.636,1.519,7.324,2.918,11.018,4.292c3.349,1.245,6.736,2.385,10.103,3.583
		c2.919,1.039,5.806,2.178,8.755,3.12c3.976,1.27,8.032,2.291,11.989,3.613c2.935,0.981,5.769,2.264,8.643,3.425
		c1.11,0.448,2.175,1.041,3.319,1.359c0.861,0.24,1.899,0.407,2.71,0.147c1.641-0.528,2.596,0.33,3.52,1.343
		c0.198,0.217,0.227,0.875,0.047,1.105c-1.406,1.796-2.845,3.569-4.347,5.285c-1.685,1.925-4.988,2.512-7.402,1.566
		c-2.304-0.903-4.416-2.066-6.528-3.376c-1.9-1.178-4.352-1.463-6.557-2.153c-3.411-1.067-6.806-2.187-10.231-3.207
		c-4.396-1.309-8.832-2.488-13.217-3.831c-2.209-0.677-4.344-1.596-6.514-2.401c-2.705-1.003-5.449-1.91-8.107-3.025
		c-3.485-1.462-6.988-2.921-10.324-4.684c-3.693-1.951-4.778-1.738-7.406,1.603c-1.596,2.029-1.202,3.93-0.721,6.158
		c0.818,3.784,1.263,7.649,1.859,11.481c0.221,1.422-0.737,2.271-1.555,3.201c-1.071,1.218-2.068,2.503-3.186,3.675
		c-0.312,0.327-1.151,0.628-1.372,0.456c-0.378-0.294-0.516-0.955-0.652-1.488c-0.373-1.46-0.668-2.941-1.054-4.397
		c-0.071-0.269-0.384-0.586-0.653-0.674c-2.152-0.704-4.287-1.509-6.49-1.996c-4.304-0.951-8.645-1.735-12.978-2.55
		c-2.365-0.445-4.753-0.767-7.115-1.228c-1.343-0.262-2.64-0.761-3.982-1.033c-1.784-0.362-3.584-0.688-5.393-0.878
		c-1.694-0.178-3.412-0.104-5.112-0.238c-1.944-0.153-3.892-0.339-5.816-0.648c-2.201-0.353-4.414-0.727-6.555-1.329
		c-2.93-0.825-5.832-1.782-8.676-2.865c-1.51-0.575-1.727-0.504-2.109,1.063c-0.622,2.551-1.316,5.101-2.218,7.563
		c-1.099,2.999-2.308,5.976-3.732,8.832c-1.018,2.044-2.316,4-3.786,5.746c-0.75,0.891-2.128,1.29-3.281,1.773
		c-0.212,0.089-0.985-0.452-1.021-0.76c-0.439-3.697-0.832-7.401-1.14-11.11c-0.136-1.632-0.112-3.284-0.051-4.923
		c0.061-1.617,0.349-3.228,0.383-4.844c0.062-2.966-0.116-5.942,0.046-8.901c0.122-2.228,0.657-4.431,0.939-6.655
		c0.243-1.917-0.168-2.29-1.827-1.391c-1.385,0.75-2.634,1.812-3.788,2.9c-0.422,0.398-0.645,1.314-0.537,1.918
		c0.973,5.424-0.875,10.263-3.134,14.965c-1.316,2.74-2.826,5.426-4.578,7.903c-1.205,1.703-2.914,3.078-4.518,4.46
		c-0.867,0.748-2.438,0.164-2.925-0.91C227.456,52.63,227.255,52.042,226.973,51.323z M264.468,25.132
		c1.082-0.466,1.923-1.058,2.827-1.178c4.166-0.55,7.646-2.921,11.528-4.213c1.15-0.382,1.279-1.362,0.417-2.281
		c-0.574-0.611-1.243-1.153-1.936-1.627c-2.855-1.951-5.995-3.163-9.347-4.082c-2.503-0.686-4.805-0.439-7.176,0.108
		c-0.594,0.137-1.105,0.631-1.761,1.025C263.665,15.854,264.178,20.381,264.468,25.132z M223.372,29.205
		c-0.028,0.268-0.131,0.553-0.073,0.801c0.772,3.311,1.448,6.653,2.421,9.905c0.324,1.083,1.349,2.004,2.186,2.872
		c0.671,0.696,1.225,0.557,1.607-0.489c1.245-3.404,2.576-6.776,3.9-10.15c0.406-1.034,0.056-1.916-0.765-2.377
		c-2.156-1.213-4.277-2.534-6.926-2.529C223.93,27.242,223.548,27.434,223.372,29.205z M253.645,46.727
		c0.164,0.077,0.329,0.155,0.493,0.232c0.326-0.366,0.848-0.685,0.946-1.104c0.712-3.054,1.153-6.183,2.048-9.179
		c0.765-2.56,0.611-5.011,0.048-7.498c-0.414-1.83-0.67-3.78-2.376-5.034c-0.508,0.377-0.985,0.731-1.464,1.087
		c1.033,1.256,1.033,1.256,0.991,3.307c-0.003,0.161-0.02,0.323-0.022,0.484c-0.047,3.452-0.04,6.906-0.157,10.355
		C254.068,41.831,253.819,44.278,253.645,46.727z"/>
	<path d="M142.471,67.853c-1.061-4.078-1.872-7.689-2.956-11.216c-1.006-3.271-2.08-6.557-3.529-9.646
		c-2.148-4.581-4.519-9.071-7.064-13.444c-1.171-2.013-2.958-3.672-4.519-5.445c-0.208-0.236-0.784-0.362-1.098-0.258
		c-3.363,1.105-6.319,2.813-8.583,5.98c4.854,2.241,10.412,2.328,14.45,5.969c-0.244,0.538-0.357,1.25-0.774,1.601
		c-0.712,0.602-1.603,0.998-2.44,1.441c-0.532,0.282-1.101,0.496-1.657,0.732c-0.458,0.195-0.928,0.549-1.382,0.533
		c-1.392-0.05-2.801-0.136-4.164-0.404c-4.058-0.799-8.077-1.817-12.152-2.503c-2.412-0.406-4.947-0.107-7.348-0.55
		c-3.891-0.718-7.749-1.676-11.562-2.742c-2.826-0.79-5.575-1.87-8.323-2.913c-0.73-0.277-1.332-0.894-1.818-1.233
		c-0.053,1.535-0.088,3.052-0.161,4.566c-0.181,3.78-0.379,7.56-0.57,11.34c-0.005,0.107,0.026,0.235-0.021,0.318
		c-1.201,2.132-2.304,4.334-3.701,6.33c-0.315,0.45-1.675,0.29-2.525,0.182c-0.307-0.039-0.715-0.73-0.76-1.156
		c-0.301-2.876-0.458-5.768-0.776-8.642c-0.415-3.762-0.953-7.511-1.397-11.27c-0.111-0.937-0.525-1.412-1.323-0.796
		c-2.598,2.007-5.142,4.083-7.662,6.188c-0.639,0.533-1.125,1.256-1.651,1.916c-0.42,0.526-0.432,0.987-0.146,1.711
		c0.432,1.091,0.983,2.638,0.53,3.478c-1.161,2.154,1.04,3.506,0.804,5.423c-0.263,2.136,0.414,4.433-0.064,6.486
		c-0.61,2.621-1.944,5.079-3.038,7.576c-0.11,0.252-0.727,0.426-1.09,0.398c-1.547-0.116-3.035-0.034-4.026-1.86
		c-0.692-1.276-2.184-2.158-3.411-3.094c-1.719-1.311-3.5-2.547-5.299-3.747c-1.962-1.308-4.001-2.502-5.957-3.819
		c-0.839-0.565-1.39-0.445-1.661,0.461c-0.437,1.465-0.892,2.944-1.109,4.45c-0.378,2.623-0.479,5.286-0.885,7.903
		c-0.396,2.551-1.024,5.037-2.742,7.142c-0.857,1.05-1.785,0.513-2.597,0.348c-0.549-0.112-1.295-0.834-1.384-1.376
		c-0.595-3.645,0.706-7,1.746-10.406c0.802-2.624,1.412-5.309,2.068-7.976c0.67-2.723,1.239-5.472,1.948-8.185
		c1.134-4.34,2.194-8.709,3.568-12.974c1.528-4.745,3.37-9.389,5.087-14.073c0.144-0.392,0.526-0.743,0.545-1.126
		c0.12-2.441,1.895-2.727,3.735-2.989c2.009-0.287,2.691,0.309,3.922,1.922c3.405,4.46,4.569,9.834,6.421,14.928
		c0.748,2.057,1.046,2.201,2.844,1.028c1.506-0.982,3.078-1.864,4.575-2.859c0.527-0.35,0.88-0.955,1.385-1.349
		c0.888-0.693,1.788-1.391,2.764-1.946c1.3-0.739,2.096-1.889,2.163-3.252c0.207-4.197,2.156-7.913,3.764-11.531
		c1.661-3.735,5.133-6.361,9.541-7.16c6.506-1.18,12.63-0.036,18.456,2.921c1.018,0.516,2.013,1.231,2.759,2.081
		c0.64,0.729,1.086,1.612,0.354,2.821c-1.219,2.014-2.054,4.257-3.173,6.338c-1.544,2.874-3.442,5.487-6.355,7.451
		c0.445,0.365,0.742,0.769,1.131,0.9c1.638,0.55,3.298,1.043,4.962,1.512c2.286,0.643,4.602,1.182,6.869,1.884
		c1.952,0.605,2.216,0.46,2.891-1.43c0.543-1.523,1.204-2.949,2.642-4.026c3.094-2.318,5.791-5.164,9.427-6.752
		c0.604-0.264,0.884-1.225,1.484-1.555c1.301-0.716,2.805-1.883,4.061-1.704c3.231,0.461,6.034-0.867,9.02-1.389
		c1.915-0.335,3.816-0.756,5.736-1.059c2.9-0.458,5.8-0.994,8.722-1.227c3.476-0.277,6.982-0.171,10.463-0.407
		c5.309-0.359,10.564,0.113,15.829,0.678c2.872,0.308,5.77,0.372,8.65,0.616c2.648,0.224,5.297,0.474,7.927,0.843
		c1.753,0.246,3.473,0.721,5.452,1.145c-0.987,1.263-1.737,2.158-3.193,1.664c-0.145-0.049-0.451-0.051-0.462-0.012
		c-0.611,2.163-3.257,0.861-4.271,2.503c-0.245,0.396-1.359,0.368-2.067,0.345c-2.243-0.071-4.483-0.232-6.725-0.355
		c-0.213-0.012-0.521-0.092-0.627,0.015c-2.045,2.077-4.512,0.729-6.776,0.795c-2.498,0.073-5.004-0.22-7.508-0.227
		c-4.171-0.012-8.359,0.329-12.507,0.042c-3.366-0.233-6.509-0.23-9.72,1.092c-2.148,0.884-4.613,0.991-6.928,1.482
		c-0.808,0.171-1.593,0.452-2.535,0.725c0.497,1.156,0.935,2.099,1.31,3.067c0.405,1.048,0.684,2.149,1.15,3.166
		c0.251,0.548,0.902,0.913,1.157,1.461c0.725,1.558,1.365,3.158,1.989,4.76c0.449,1.153,1.559,2.072,1.224,3.53
		c-0.04,0.173,0.49,0.494,0.777,0.719c0.202,0.159,0.57,0.223,0.64,0.413c0.897,2.42,2.214,4.813,2.439,7.302
		c0.123,1.37,0.079,2.76,0.641,4.023c0.694,1.562,1.353,3.023,0.945,4.85c-0.189,0.843,0.331,1.834,0.484,2.766
		c0.233,1.416-0.008,2.567-1.251,3.602C145.042,64.848,143.852,66.38,142.471,67.853z M94.255,18.654
		c-0.524-0.294-0.889-0.612-1.306-0.714c-1.645-0.4-3.307-0.728-4.961-1.089c-4.17-0.91-8.231-0.949-11.921,1.61
		c-0.431,0.299-0.704,0.826-1.26,1.503c0.704,0.018,0.916,0.058,1.116,0.023c2.098-0.366,2.85,0.481,2.525,2.468
		c-0.399,2.432-0.548,4.905-0.846,7.758c0.979-0.999,1.849-1.237,1.762-2.675c-0.068-1.12,0.133-2.87,1.756-3.438
		c0.835-0.292,1.728-0.422,2.596-0.618C87.5,22.626,90.968,21.086,94.255,18.654z M36.17,42.811
		c0.846,0.137,1.127,0.268,1.358,0.206c3.396-0.905,6.794-1.806,10.16-2.813c0.272-0.081,0.542-0.989,0.424-1.403
		c-0.39-1.37-0.876-2.727-1.478-4.018c-0.799-1.716-1.595-3.467-2.667-5.012c-0.896-1.292-2.1-1.192-2.711,0.24
		C39.488,34.149,37.917,38.371,36.17,42.811z M51.12,56.595c0.018-0.013,0.1-0.047,0.099-0.077
		c-0.109-2.699-0.207-5.399-0.391-8.093c-0.01-0.141-0.894-0.456-1.13-0.307c-1.215,0.764-2.398,1.6-3.482,2.538
		c-0.253,0.219-0.299,1.154-0.067,1.382C47.725,53.59,49.402,55.042,51.12,56.595z"/>
	<path d="M187.659,63.27c-5.617,1.913-7.605-0.318-9.917-4.858c-2.188-4.296-2.876-8.97-3.474-13.669
		c-0.485-3.811-0.997-7.619-1.428-11.435c-0.077-0.683,0.104-1.425,0.295-2.103c0.426-1.513,0.995-2.988,1.391-4.508
		c0.426-1.636,2.609-2.711,4.09-1.928c0.275,0.145,0.559,0.272,0.617,0.3c0.316,4.465,0.584,8.801,0.96,13.128
		c0.088,1.018,0.54,2.004,0.829,3.004c1.067,3.686,2.134,7.372,3.208,11.056c0.089,0.304,0.194,0.612,0.344,0.889
		c1.113,2.054,2.255,2.338,4.246,1.073c2.215-1.407,5.135-0.487,6.136,1.939c0.504,1.222,0.874,2.517,1.518,3.66
		c1.126,1.999,2.876,1.905,4.209-0.037c3.26-4.748,4.79-10.12,4.405-15.72c-0.211-3.064,0.885-5.509,1.595-8.2
		c0.404-1.529,1.598-2.079,2.932-2.085c1.353-0.007,2.519,1.512,2.543,3.006c0.098,6.185-1.15,12.067-3.324,17.885
		c-1.438,3.849-3.528,7.26-5.614,10.693c-1.375,2.263-3.093,4.254-5.979,5.041c-3.335,0.909-6.355-0.285-7.797-3.555
		C188.914,65.645,188.275,64.495,187.659,63.27z"/>
	<path d="M406.242,0c1.845,0.172,2.361,1.454,1.865,3.001c-1.235,3.846-1.657,7.787-0.756,11.736
		c0.236,1.033,1.157,2.081,2.044,2.749c0.946,0.713,1.237,1.151,0.688,2.307c-1.153,2.426-2.9,4.021-5.316,5.219
		c-1.908,0.946-2.678-0.307-3.223-1.354c-1.398-2.687-1.375-5.649-0.968-8.601c0.062-0.45,0.155-0.903,0.15-1.354
		c-0.033-2.794,0.404-5.494,1.593-8.04c0.712-1.523,1.357-3.096,2.255-4.505C404.986,0.509,405.933,0.202,406.242,0z"/>
	<path d="M27.205,18.778c-0.806,1.551-1.607,3.3-2.63,4.907c-0.247,0.388-1.48,0.636-1.826,0.375
		c-0.854-0.645-1.568-1.554-2.142-2.479c-2.03-3.275-3.942-6.622-5.971-9.898c-1.04-1.679-1.001-3.522,0.257-5.199
		c0.274-0.365,0.398-0.843,0.594-1.268c0.328-0.709,0.481-1.651,1.031-2.071c0.85-0.648,1.968-0.759,2.786,0.275
		c0.622,0.786,1.313,1.549,1.767,2.428c1.955,3.79,3.84,7.617,5.731,11.44C26.975,17.639,27.014,18.054,27.205,18.778z"/>
	<path d="M7.799,25.93c-0.106,0.038-0.471,0.132-0.801,0.296c-1.683,0.834-3.073,0.593-3.761-1.139
		c-0.979-2.465-1.621-5.069-2.32-7.637c-0.315-1.158-0.331-2.398-0.639-3.559c-0.7-2.638-0.017-4.989,1.325-7.226
		c0.358-0.597,0.684-1.388,1.236-1.659C4.08,4.397,5.206,5.244,5.526,7.11c0.345,2.01,0.402,4.067,0.69,6.088
		c0.278,1.946,0.338,3.989,2.674,4.965c0.465,0.194,0.745,1.607,0.591,2.35C9.121,22.252,8.446,23.925,7.799,25.93z"/>
	<path d="M423.588,12.096c-0.146,2.728-1.688,4.827-3.114,6.953c-0.498,0.742-1.159,1.442-1.897,1.934
		c-0.543,0.362-1.663,0.698-1.938,0.434c-0.474-0.455-0.742-1.421-0.649-2.112c0.21-1.554,0.532-3.136,1.105-4.589
		c0.756-1.916,1.665-3.806,2.787-5.526c0.393-0.602,1.612-0.887,2.45-0.88c0.406,0.003,0.968,0.964,1.161,1.584
		C423.705,10.572,423.571,11.358,423.588,12.096z"/>
</g>
<g id="Layer_1">
</g>
</svg>
