<?xml version="1.0" encoding="iso-8859-1"?>
<!-- Generator: Adobe Illustrator 27.9.0, SVG Export Plug-In . SVG Version: 6.00 Build 0)  -->
<svg version="1.1" xmlns="http://www.w3.org/2000/svg" xmlns:xlink="http://www.w3.org/1999/xlink" x="0px" y="0px"
	 viewBox="0 0 290.103 159.707" style="enable-background:new 0 0 290.103 159.707;" xml:space="preserve">
<g id="Layer_6">
	<path d="M84.239,115.388c-1.117,0.361-1.341,1.364-1.383,2.555c-0.041,1.16-0.485,2.023-1.778,2.466
		c-0.751,0.257-1.297,1.117-1.847,1.625c-2.926-3.434-5.664-6.733-8.499-9.946c-2.014-2.283-4.662-2.647-7.391-1.722
		c-2.077,0.704-4.064,1.717-6.009,2.749c-1.467,0.778-0.956,2.346-0.924,3.571c0.054,2.093,0.368,4.179,0.578,6.267
		c0.227,2.254,0.461,4.507,0.692,6.76c0.037,0.366,0.177,0.756,0.097,1.094c-0.529,2.262-0.977,4.556-1.703,6.756
		c-0.604,1.83-1.933,2.365-3.829,2.001c-0.141-1.934-0.316-3.843-0.412-5.757c-0.203-4.063-0.368-8.128-0.544-12.192
		c-0.14-3.223-0.264-6.447-0.413-9.669c-0.115-2.481-0.369-4.961-0.365-7.441c0.007-4.991,0.095-9.983,0.274-14.97
		c0.038-1.062,0.822-2.09,0.898-3.159c0.244-3.405,0.337-6.821,0.426-10.235c0.01-0.369-0.384-0.748-0.757-1.424
		c-1.009,1.698-1.806,3.274-2.826,4.691c-1.07,1.486-2.35,2.82-3.543,4.216c-0.89,1.043-2.089,1.951-2.603,3.153
		c-0.611,1.43-0.677,3.105-0.896,4.685c-0.093,0.671,0.078,1.374,0.04,2.057c-0.146,2.626-0.247,5.258-0.52,7.871
		c-0.26,2.497-0.74,4.97-1.073,7.46c-0.263,1.966-0.36,3.958-0.693,5.91c-0.614,3.604-1.19,7.229-2.094,10.765
		c-0.499,1.953-2.087,2.602-4.143,2.317c-3.784-11.5-7.573-23.016-11.52-35.013c-0.274,0.838-0.48,1.233-0.525,1.644
		c-0.55,5.092-1.118,10.183-1.596,15.283c-0.338,3.601-0.559,7.213-0.812,10.822c-0.18,2.566-0.391,5.132-0.475,7.701
		c-0.12,3.667-0.067,7.339-0.213,11.004c-0.179,4.502-0.439,9.002-0.765,13.496c-0.12,1.645-0.529,3.27-0.811,4.903
		c-0.235,1.362-1.084,1.99-2.431,2.023c-1.49,0.037-2.177-0.892-2.223-2.177c-0.072-2.022-0.029-4.06,0.134-6.077
		c0.271-3.355,0.741-6.694,1.012-10.049c0.578-7.158,1.001-14.329,1.634-21.482c0.987-11.15,2.046-22.295,3.176-33.432
		c0.561-5.531,1.146-11.074,2.093-16.546c0.967-5.585,2.44-11.08,3.597-16.635c0.744-3.574,2.339-6.768,4.156-9.861
		c0.631-1.074,1.458-2.171,2.467-2.859c3.054-2.081,5.743-1.409,7.078,2.07c1.215,3.166,1.888,6.554,2.638,9.881
		c0.482,2.14,0.728,4.34,0.976,6.525c0.416,3.662,0.766,7.332,1.108,11.001c0.103,1.106,0.086,2.223,0.129,3.471
		c0.392-0.072,0.86-0.031,1.163-0.236c1.963-1.324,4.418-2.133,5.655-4.238c0.662-1.127,0.633-2.719,0.715-4.113
		c0.077-1.311-0.204-2.64-0.162-3.957c0.077-2.459,0.136-4.933,0.451-7.368c0.582-4.499,1.315-8.98,2.054-13.457
		c0.161-0.973,0.553-1.923,0.945-2.838c0.798-1.864,1.562-3.754,2.535-5.527c1.373-2.503,2.78-5.015,4.477-7.296
		c0.557-0.749,2.042-1.034,3.134-1.116c3.799-0.283,6.023,2.022,7.559,5.114c2.459,4.948,3.666,10.221,4.016,15.737
		c0.224,3.542,0.739,7.065,1.337,10.691c0.379-1.205,0.807-2.396,1.128-3.616c1.307-4.966,3.281-9.627,7.18-13.092
		c3.757-3.338,7.637-6.585,11.756-9.45c1.98-1.377,4.582-2.032,7-2.564c3.112-0.685,4.953,1.072,4.873,4.203
		c-0.074,2.873-0.097,5.75-0.28,8.617c-0.087,1.363-0.492,2.706-0.749,4.036c-1.865-0.002-3.387-1.232-3.462-3.088
		c-0.066-1.626-0.759-1.644-1.943-1.234c-0.838,0.29-1.74,0.442-2.521,0.837c-0.499,0.253-1.018,0.771-1.199,1.286
		c-0.47,1.339-0.87,2.725-1.086,4.125c-0.185,1.197-0.143,2.442-0.086,3.661c0.193,4.116,0.308,8.242,0.703,12.34
		c0.312,3.237,1.1,6.426,1.48,9.659c0.363,3.086,0.484,6.202,0.694,9.306c0.387,5.742,0.749,11.486,1.146,17.228
		c0.216,3.132,0.521,6.257,0.716,9.39c0.286,4.58,0.501,9.165,0.762,13.747c0.183,3.208,0.548,6.415,0.522,9.62
		c-0.011,1.406-0.73,2.829-1.245,4.201c-0.376,1.003-0.749,2.122-1.466,2.856c-1.27,1.3-3.057,0.666-3.279-1.121
		c-0.352-2.825-0.468-5.68-0.812-8.507c-0.367-3.02-0.825-6.031-1.346-9.028c-0.773-4.447-1.599-8.885-2.475-13.313
		c-0.692-3.501-1.331-7.027-2.294-10.458c-0.879-3.13-2.155-6.149-3.267-9.213c-0.572-1.575-1.12-3.161-1.762-4.707
		c-1.41-3.396-2.775-6.817-4.345-10.14c-1.325-2.805-2.912-5.486-4.636-8.693c-0.262,1.229-0.506,2.07-0.613,2.928
		c-0.449,3.585-0.725,7.197-1.315,10.758c-0.605,3.653-1.392,7.285-2.301,10.874c-0.828,3.266-1.85,6.489-2.936,9.68
		c-0.638,1.875-0.305,2.698,1.666,3.171c4.815,1.156,7.972,4.421,10.387,8.471C81.764,110.151,82.919,112.784,84.239,115.388z
		 M56.215,102.093c4.003-1.268,6.716-3.556,7.939-7.321c1.317-4.055,3.056-7.958,3.657-12.267c0.697-4.997,1.989-9.91,2.736-14.903
		c0.637-4.256,0.558-8.546,0.17-12.875c-0.522-5.832-0.917-11.641-3.257-17.101c-1.195-2.789-4.325-3.846-6.572-1.688
		c-1.858,1.784-2.338,3.866-1.763,6.198c0.619,2.513,0.775,4.908-0.226,7.386c-0.606,1.499-1.07,3.134-1.189,4.739
		c-0.574,7.736-1.036,15.481-1.477,23.226c-0.142,2.494-0.098,4.998-0.136,7.498c-0.074,4.791-0.165,9.581-0.202,14.372
		C55.888,100.251,56.099,101.146,56.215,102.093z M95.453,103.03c0.221-0.09,0.442-0.179,0.663-0.269
		c0.088-6.469-0.457-12.915-1.139-19.348c-0.682-6.432-1.504-12.848-2.206-19.278c-0.7-6.402-0.669-12.884-1.803-19.678
		c-1.047,1.035-1.736,1.623-2.315,2.304c-2.012,2.37-4.106,4.685-5.928,7.195c-1.076,1.481-2.022,3.238-1.248,5.242
		c1.972,5.105,4.125,10.146,5.924,15.31c1.645,4.721,3.003,9.549,4.335,14.371c1.202,4.352,2.192,8.762,3.29,13.142
		C95.113,102.372,95.308,102.695,95.453,103.03z M22.407,79.602c1.939-0.164,3.506-0.236,5.055-0.441
		c2.905-0.384,5.792-0.915,8.702-1.244c1.596-0.18,1.784-1.218,1.702-2.378c-0.329-4.673-0.542-9.365-1.165-14.001
		c-0.577-4.29-1.048-8.661-3.23-12.916c-0.63,0.445-1.214,0.808-1.743,1.238c-2.592,2.11-3.484,5.245-4.631,8.149
		c-0.884,2.239-1.274,4.685-1.773,7.062C24.344,69.743,23.441,74.43,22.407,79.602z M37.717,90.036
		c-2.984,0.384-5.577,0.768-8.181,1.039c-2.633,0.274-3.517-0.127-2.271,2.968c0.213,0.529,0.216,1.14,0.396,1.686
		c0.672,2.036,1.299,4.093,2.1,6.079c0.536,1.329,1.505,2.492,1.985,3.834c0.991,2.768,1.785,5.606,2.66,8.415
		c0.24-0.024,0.479-0.048,0.719-0.073C36.82,106.103,36.94,98.042,37.717,90.036z"/>
	<path d="M241.29,77.019c0.576,2.847-0.322,5.709,0.574,8.65c0.636,2.086,0.239,4.537,0.066,6.807
		c-0.247,3.24,0.111,6.444,0.244,9.663c0.166,4.017,0.236,8.039,0.47,12.052c0.119,2.037,0.581,4.052,0.752,6.088
		c0.121,1.443,0.406,2.953-0.964,4.144c-0.52,0.452-0.818,1.232-1.056,1.919c-0.456,1.31-1.313,2.257-2.48,2.895
		c-0.411,0.224-1.045,0.239-1.502,0.1c-0.24-0.073-0.42-0.677-0.448-1.055c-0.211-2.893-0.342-5.791-0.566-8.683
		c-0.349-4.502-0.751-9.001-1.163-13.874c-0.495,0.303-0.949,0.503-1.304,0.815c-0.573,0.503-1.001,1.213-1.635,1.599
		c-1.4,0.855-2.216,0.426-2.902-0.961c-1.21-2.447-2.563-4.825-3.887-7.215c-1.53-2.763-3.713-4.938-6.446-6.456
		c-1.53-0.85-3.287-1.282-4.92-1.954c-3.041-1.252-6.223-1.811-9.484-1.974c-0.881-0.044-1.768,0.046-2.682,0.076
		c0.147,1.994,0.196,3.836,0.438,5.651c0.358,2.678,0.893,5.331,1.28,8.006c0.423,2.916,0.693,5.857,1.176,8.762
		c0.181,1.09,0.086,1.876-0.617,2.781c-0.763,0.982-1.054,2.347-1.861,3.275c-0.549,0.632-1.608,0.962-2.488,1.091
		c-0.329,0.048-1.052-0.806-1.158-1.337c-0.432-2.149-0.754-4.325-0.999-6.504c-0.149-1.33,0.01-2.694-0.136-4.025
		c-0.266-2.439-0.728-4.856-0.977-7.296c-0.503-4.927-0.903-9.864-1.376-14.794c-0.291-3.036-0.702-6.061-0.945-9.1
		c-0.227-2.844-0.247-5.705-0.462-8.551c-0.275-3.624-0.632-7.243-0.997-10.86c-0.27-2.671-0.592-5.338-0.939-8
		c-0.05-0.384-0.279-0.865-0.582-1.077c-2.107-1.478-1.964-3.393-1.352-5.567c0.589-2.094,0.757-4.314,1.432-6.373
		c0.367-1.121,1.227-2.298,2.202-2.926c0.624-0.402,1.93-0.005,2.795,0.357c0.36,0.15,0.47,1.135,0.51,1.752
		c0.045,0.688-0.119,1.389,0.143,2.221c0.574-1.391,1.344-2.736,1.689-4.182c1.348-5.642,4.049-10.598,7.451-15.213
		c1.062-1.441,2.329-2.731,3.391-4.172c0.92-1.249,2.237-1.33,3.267-0.754c0.639,0.357,1.063,1.675,1.037,2.545
		c-0.129,4.3-0.321,8.607-0.72,12.889c-0.419,4.501-1.048,8.984-1.675,13.463c-0.593,4.235-1.325,8.45-1.954,12.68
		c-0.808,5.427-1.604,10.856-2.348,16.291c-0.326,2.384-0.537,4.786-0.752,7.184c-0.104,1.158,0.286,1.912,1.655,2.001
		c5.988,0.39,11.343,2.559,16.09,6.147c3.063,2.316,5.805,4.994,7.557,8.513c0.631,1.267,1.256,2.538,1.933,3.78
		c0.125,0.23,0.489,0.331,0.869,0.571c0.155-0.463,0.371-0.798,0.362-1.127c-0.102-3.963-0.166-7.928-0.383-11.885
		c-0.211-3.834-0.632-7.656-0.878-11.488c-0.21-3.27-0.301-6.548-0.447-9.822c-0.139-3.112-0.257-6.225-0.43-9.335
		c-0.244-4.373-0.497-8.745-0.813-13.113c-0.159-2.201-0.499-4.388-0.697-6.587c-0.396-4.404-0.664-8.821-1.157-13.213
		c-0.249-2.215-0.944-4.377-1.3-6.584c-0.158-0.98-0.125-2.047,0.086-3.017c0.365-1.676,0.936-3.307,1.41-4.922
		c2.349,0.254,3.22,1.09,3.585,3.376c0.531,3.322,1.179,6.638,1.48,9.983c0.429,4.782,0.58,9.589,0.871,14.383
		c0.075,1.233,0.226,2.461,0.342,3.692c0.171,0.021,0.342,0.043,0.514,0.064c0.231-1.017,0.425-2.045,0.702-3.05
		c0.67-2.435,1.26-4.902,2.101-7.278c1.065-3.01,2.208-6.009,3.585-8.884c0.849-1.773,2.265-3.265,3.297-4.962
		c0.588-0.967,1.011-2.062,1.341-3.151c0.724-2.388,3.134-3.394,4.886-1.945c0.255,0.211,0.628,0.655,0.556,0.831
		c-0.936,2.289,0.856,4.918-1.06,7.16c-0.795,0.93-0.967,2.408-1.367,3.655c-0.142,0.443-0.198,0.945-0.158,1.409
		c0.114,1.35-0.961,2.606-2.302,2.439c-0.961-0.12-1.362,0.177-1.797,1.039c-0.921,1.827-2.255,3.462-3.053,5.332
		c-2.323,5.442-3.385,11.136-2.812,17.077c0.015,0.156-0.007,0.377,0.085,0.455c2.321,1.981,1.181,4.906,1.986,7.308
		c0.919,2.739,1.415,5.628,2.43,8.325c0.815,2.164,2.149,4.13,3.221,6.2c0.795,1.535,1.286,3.307,2.357,4.605
		c2.473,2.997,5.05,5.95,7.89,8.592c3.859,3.589,8.012,6.861,12.02,10.291c1.44,1.232,1.58,3.487,0.419,4.972
		c-0.42,0.536-0.835,1.114-1.084,1.739c-0.952,2.389-1.992,3.064-4.811,2.875c0.093-2.613-1.486-3.99-3.575-5.374
		c-2.419-1.601-4.368-3.896-6.64-5.744c-1.239-1.007-2.999-1.461-4.044-2.603c-2.482-2.713-4.767-5.623-6.943-8.592
		c-0.773-1.055-0.956-2.53-1.499-3.774c-0.243-0.557-0.711-1.017-1.076-1.521C241.582,76.817,241.436,76.918,241.29,77.019z
		 M207.903,27.178c-0.18-0.02-0.359-0.041-0.539-0.061c-1.421,2.556-2.819,5.126-4.269,7.666c-2.604,4.561-2.147,9.902-3.786,14.707
		c-0.034,0.099-0.03,0.214-0.028,0.321c0.082,3.33,0.147,6.66,0.254,9.988c0.122,3.806,0.241,7.613,0.442,11.415
		c0.116,2.21,0.39,4.411,0.63,7.024c0.537-1.618,1.058-2.77,1.293-3.978c0.632-3.245,1.145-6.513,1.699-9.773
		c0.575-3.383,1.211-6.758,1.696-10.154c0.707-4.952,1.34-9.916,1.933-14.884c0.416-3.488,0.74-6.987,1.039-10.487
		C208.318,28.382,208.033,27.773,207.903,27.178z"/>
	<path d="M125.048,41.317c3.263,0.936,3.525,3.559,3.861,5.904c0.663,4.64,1.011,9.325,1.551,13.983
		c0.449,3.866,0.984,7.722,1.489,11.582c0.336,2.574,0.106,5.435,1.201,7.633c0.969,1.944-0.175,3.579,0.484,5.356
		c0.988,2.668,1.165,5.583,1.954,8.346c0.483,1.69,0.359,3.545,0.626,5.308c0.245,1.625,0.647,3.225,0.98,4.837
		c0.249-0.035,0.498-0.071,0.747-0.106c-0.15-1.344-0.299-2.688-0.449-4.032c-0.017-0.148-0.082-0.308-0.048-0.443
		c0.38-1.522,0.712-3.06,1.184-4.553c0.374-1.182,0.939-2.302,1.393-3.459c0.314-0.801,0.825-1.616,0.835-2.43
		c0.067-5.535,0.185-11.079-0.046-16.606c-0.128-3.069-0.94-6.104-1.363-9.166c-0.31-2.242-0.412-4.515-0.746-6.752
		c-0.375-2.505-0.245-4.999,0.203-7.443c0.288-1.568,0.906-3.136,1.676-4.539c0.978-1.78,3.531-1.835,4.39-0.035
		c1.029,2.158,1.756,4.49,2.336,6.816c0.219,0.878-0.606,1.985-0.485,2.926c0.292,2.269,0.746,4.533,1.345,6.742
		c1.387,5.12,2.958,10.189,4.339,15.31c0.883,3.274,1.492,6.623,2.363,9.901c0.374,1.409,1.184,2.697,1.641,4.09
		c0.342,1.043,0.383,2.182,0.663,3.25c0.175,0.667,0.546,1.282,0.829,1.921c0.177-0.031,0.353-0.061,0.53-0.092
		c0.085-2.265,0.184-4.529,0.25-6.794c0.028-0.96-0.044-1.924-0.014-2.884c0.146-4.636,0.436-9.272,0.436-13.907
		c0.001-4.648-0.311-9.294-0.426-13.943c-0.075-3.021,0.011-6.046-0.075-9.067c-0.066-2.315-0.332-4.624-0.426-6.939
		c-0.088-2.184-0.145-4.374-0.08-6.558c0.154-5.163,0.272-10.332,0.642-15.481c0.167-2.325,0.689-4.685,1.485-6.871
		c0.294-0.806,1.796-1.289,2.842-1.621c0.26-0.082,0.974,0.949,1.333,1.556c1.811,3.066,1.924,6.568,2.327,9.963
		c0.074,0.624-0.911,1.373-1.594,2.324c-0.493-0.823-0.746-1.325-1.077-1.768c-0.219-0.293-0.55-0.502-0.831-0.748
		c-0.219,0.269-0.596,0.519-0.632,0.811c-0.267,2.139-0.585,4.283-0.655,6.433c-0.083,2.592,0.019,5.194,0.121,7.788
		c0.116,2.956,0.313,5.909,0.489,8.863c0.297,5.001,0.603,10.001,0.911,15.002c0.036,0.577,0.12,1.152,0.153,1.73
		c0.078,1.367,0.177,2.735,0.201,4.103c0.08,4.5,0.175,9,0.169,13.501c-0.002,1.617-0.362,3.232-0.406,4.851
		c-0.043,1.592,0.099,3.189,0.177,4.783c0.092,1.895,0.229,3.788,0.294,5.684c0.04,1.168,0.131,2.365-0.064,3.504
		c-0.366,2.135-0.919,4.238-1.4,6.353c-0.317,1.391-0.57,2.803-0.997,4.16c-0.229,0.729-0.658,1.461-1.18,2.02
		c-1.463,1.565-3.774,0.889-4.411-1.187c-0.926-3.017-1.996-5.992-2.836-9.032c-0.712-2.58-1.156-5.233-1.77-7.841
		c-0.842-3.577-1.714-7.148-2.611-10.712c-0.322-1.279-0.727-2.539-1.15-3.788c-0.105-0.311-0.425-0.55-0.646-0.822
		c-0.123,0.318-0.349,0.636-0.352,0.955c-0.028,3.022,0.288,6.085-0.098,9.057c-0.447,3.449-1.688,6.789-2.235,10.232
		c-0.47,2.957-0.496,5.99-0.63,8.993c-0.093,2.083,0.008,4.174-0.055,6.259c-0.104,3.413-0.219,6.827-0.445,10.234
		c-0.06,0.911-0.473,1.822-0.842,2.683c-0.677,1.577-1.508,3.089-2.151,4.678c-0.621,1.533-1.946,1.891-3.295,2.024
		c-0.834,0.082-1.576-0.341-1.669-1.491c-0.229-2.832-0.517-5.663-0.904-8.477c-0.719-5.213-1.548-10.411-2.289-15.621
		c-0.673-4.731-1.238-9.478-1.948-14.203c-0.766-5.09-1.711-10.153-2.458-15.246c-0.878-5.987-1.869-11.975-2.337-17.999
		c-0.268-3.445-0.597-6.858-1.734-10.063c-1.05-2.96-0.27-5.642,0.347-8.406C124.105,42.103,124.744,41.68,125.048,41.317z"/>
	<path d="M175.4,119.574c0.257-1.581,0.607-3.533,0.881-5.495c0.157-1.121,0.164-2.194-1.39-2.446
		c-0.419-0.068-1.026-0.52-1.106-0.891c-0.508-2.345-1.002-4.704-1.288-7.084c-0.345-2.873-0.531-5.768-0.693-8.658
		c-0.276-4.917-0.549-9.836-0.679-14.758c-0.048-1.826,0.384-3.66,0.461-5.497c0.051-1.201-0.287-2.423-0.195-3.616
		c0.241-3.115,0.497-6.238,0.977-9.323c0.706-4.542,1.447-9.096,3.734-13.207c1.385-2.488,3.792-3.451,5.365-2.058
		c0.48,0.425,0.901,1.109,1.007,1.733c0.618,3.619,1.254,7.242,1.65,10.889c0.382,3.517,0.622,7.063,0.659,10.599
		c0.03,2.847-0.289,5.703-0.535,8.548c-0.649,7.496-1.311,14.991-2.028,22.481c-0.547,5.721-1.065,11.451-1.862,17.139
		c-0.224,1.596-1.268,3.139-2.191,4.539c-0.295,0.448-1.505,0.63-2.116,0.417c-0.428-0.149-0.607-1.159-0.786-1.815
		C175.173,120.732,175.321,120.328,175.4,119.574z M178.34,58.786c-0.252,0.031-0.503,0.062-0.755,0.093
		c-2.154,12.089-0.588,24.189,0.351,36.308c0.559-2.087,0.82-4.192,0.987-6.305c0.126-1.594,0.084-3.2,0.199-4.795
		c0.307-4.228,0.711-8.449,0.977-12.679c0.233-3.702-0.161-7.377-0.886-11.008C179.098,59.827,178.639,59.323,178.34,58.786z"/>
	<path d="M16.746,62.34c-2.934-0.472-3.871-2.073-4.045-4.498c-0.146-2.025-0.59-4.033-0.993-6.031
		c-0.094-0.468-0.555-0.863-1.08-1.634c-0.494,2.367-0.933,4.352-1.319,6.347c-0.525,2.717-0.854,5.486-1.597,8.14
		c-0.26,0.93-1.366,1.941-2.315,2.289c-1.499,0.548-2.149-0.995-2.859-1.962c-1.552-2.112-1.971-4.64-2.107-7.158
		C0.176,53.083,0.016,48.323,0,43.566c-0.005-1.435,0.379-2.972,0.98-4.282c0.669-1.458,1.778-1.441,2.901-0.239
		c1.48,1.583,1.826,3.569,1.758,5.606c-0.061,1.85-0.358,3.692-0.551,5.538c0.145,0.067,0.289,0.134,0.434,0.201
		c0.386-0.975,0.916-1.919,1.133-2.931c0.758-3.531,1.413-7.083,2.097-10.63c0.284-1.47,0.302-3.05,0.888-4.384
		c0.458-1.043,1.49-2.296,2.478-2.519c1.061-0.24,2.225,0.742,2.398,2.206c0.326,2.759,0.821,5.505,0.993,8.273
		c0.252,4.065,0.225,8.147,0.444,12.215c0.061,1.129,0.761,2.223,0.827,3.354C16.903,58.045,16.773,60.131,16.746,62.34z"/>
	<path d="M275.491,33.877c-1.1-0.497-2.309-0.748-3.046-1.477c-0.507-0.502-0.595-1.703-0.464-2.527
		c0.616-3.885,1.356-7.75,2.086-11.616c0.463-2.451,0.824-4.938,1.52-7.324c0.91-3.119,2.151-6.14,3.16-9.233
		c0.398-1.219,0.991-1.975,2.332-1.608c1.584,0.434,2.664,2.228,2.362,3.619c-0.704,3.25-1.793,6.298-3.341,9.298
		c-1.224,2.373-1.471,5.274-1.992,7.971c-0.144,0.748,0.165,1.653,0.469,2.404c0.886,2.186-0.169,4.024-0.951,5.902
		C277.026,30.73,276.312,32.125,275.491,33.877z"/>
	<path d="M282.707,25.505c0.821-3.232,1.465-6.34,2.428-9.347c0.636-1.988,2.321-2.449,3.999-1.494
		c1.621,0.922,0.777,2.359,0.524,3.43c-0.612,2.598-1.414,5.174-2.41,7.65c-0.414,1.028-1.396,1.958-2.344,2.601
		c-0.804,0.546-1.922,0.618-2.014-0.948C282.85,26.719,282.76,26.044,282.707,25.505z"/>
</g>
<g id="Layer_1">
</g>
</svg>
