<?xml version="1.0" encoding="iso-8859-1"?>
<!-- Generator: Adobe Illustrator 27.9.0, SVG Export Plug-In . SVG Version: 6.00 Build 0)  -->
<svg version="1.1" xmlns="http://www.w3.org/2000/svg" xmlns:xlink="http://www.w3.org/1999/xlink" x="0px" y="0px"
	 viewBox="0 0 568.523 92.309" style="enable-background:new 0 0 568.523 92.309;" xml:space="preserve">
<g id="Layer_13">
	<path d="M104.874,40.051c5.164,1.921,9.853,4.24,14.813,5.367c6.239,1.419,12.638,2.49,19.088,2.473
		c0.015-0.161,0.03-0.323,0.045-0.484c-1.569-1.637-3.175-3.24-4.694-4.922c-0.988-1.094-1.851-2.301-2.763-3.462
		c-0.411-0.523-0.787-1.074-1.209-1.587c-1.764-2.142-2.087-4.565-1.538-7.214c0.367-1.771,0.388-3.638,0.943-5.339
		c1.118-3.428,3.932-5.204,7.014-6.722c6.045-2.978,12.627-3.659,19.143-4.295c5.413-0.529,10.903-0.353,16.358-0.325
		c4.6,0.024,9.2,0.266,13.798,0.444c3.68,0.142,7.357,0.411,11.039,0.478c2.929,0.053,5.862-0.1,8.793-0.188
		c3.799-0.113,7.598-0.252,11.444-0.382c-0.313,1.891-0.569,3.641-0.9,5.377c-0.41,2.154-0.8,4.319-1.377,6.43
		c-0.172,0.631-0.865,1.208-1.453,1.618c-0.898,0.628-1.893,1.132-2.888,1.598c-0.312,0.146-0.827,0.117-1.121-0.052
		c-0.169-0.097-0.182-0.668-0.092-0.976c0.554-1.908,0.53-2.091-1.432-2.156c-2.851-0.094-5.709,0.035-8.563,0.015
		c-1.76-0.012-3.519-0.137-5.28-0.189c-5.643-0.167-11.285-0.355-16.929-0.473c-3.128-0.065-6.258-0.036-9.386,0.005
		c-1.848,0.024-3.694,0.155-5.592,0.24c-1.16,2.144-0.218,4.342,0.209,6.521c0.481,2.455,1.221,4.862,1.652,7.324
		c0.379,2.168,0.468,4.385,0.717,6.576c0.218,1.917,0.253,3.896,0.8,5.718c0.377,1.259,0.885,2.347,0.293,3.65
		c1.244,0.749,3.926,20.882,3.125,23.363c0.287,0.267,0.66,0.444,0.712,0.69c0.707,3.327,0.086,6.617-0.394,9.898
		c-0.132,0.904-0.54,1.784-0.935,2.623c-0.14,0.298-0.696,0.681-0.923,0.606c-0.663-0.221-1.553-0.498-1.828-1.027
		c-1.529-2.937-2.941-5.937-4.297-8.958c-0.285-0.636-0.835-1.517,0.52-2.043c0.44-0.171,0.477-1.379,0.744-2.267
		c1.007,0.574,1.961,1.118,2.914,1.662c0.165-0.121,0.329-0.243,0.494-0.364c-1.033-6.921-2.065-13.841-3.115-20.872
		c-0.42,0.117-0.842,0.102-0.976,0.291c-1.826,2.573-4.2,0.873-6.337,0.812c-2.207-0.063-4.409-0.288-6.614-0.435
		c-0.479-0.032-0.963-0.002-1.439-0.051c-4.574-0.471-9.164-0.827-13.715-1.465c-4.841-0.678-9.662-1.533-14.453-2.503
		c-1.853-0.375-3.599-1.281-5.395-1.941c-0.187-0.069-0.394-0.173-0.577-0.149c-2.802,0.368-5.357-0.667-7.8-1.697
		c-2.331-0.983-4.528-2.387-6.576-3.889c-0.796-0.584-1.254-1.902-1.449-2.963c-0.259-1.41-1.55-2.839-0.187-4.377
		c0.18-0.203-0.118-0.797-0.135-1.213c-0.08-2.034,1.072-3.436,2.411-4.776c2.336-2.338,4.703-4.655,6.895-7.124
		c0.885-0.997,1.344-2.372,1.965-3.518c-3.043-2.086-5.739-3.961-9.162-4.213c-3.139-0.231-6.218-0.485-9.305,0.77
		c-2.816,1.145-4.35,3.231-5.426,5.83c-0.641,1.549-1.162,3.15-1.657,4.753c-0.096,0.31,0.208,0.731,0.279,1.109
		c0.048,0.257,0.124,0.629-0.008,0.78c-1.003,1.156-0.136,2.611-0.684,3.857c-0.739,1.682,0.472,2.793,1.324,3.994
		c2.392-2.187,3.672-4.761,3.681-8.024c0.006-2.002,1.146-2.749,3.462-2.506c0.01,1.894,0.071,3.822,0.02,5.748
		c-0.069,2.595-0.356,5.191-0.304,7.781c0.05,2.502,0.75,5.026,0.551,7.49c-0.246,3.049,0.65,5.849,1.053,8.756
		c0.043,0.308-0.029,0.63-0.018,0.945c0.032,0.926-0.005,1.865,0.143,2.774c0.142,0.871,0.511,1.719-0.304,1.972
		c0.352,1.512,0.743,3.009,1.039,4.525c0.214,1.096,0.295,2.218,0.454,3.325c0.021,0.148,0.253,0.362,0.217,0.407
		c-1.071,1.328,0.271,2.425,0.386,3.629c0.476,5.024,0.546,5.018-0.973,9.937c-0.588-0.425-1.306-0.678-1.544-1.166
		c-0.642-1.312-1.171-2.697-1.575-4.102c-0.629-2.191-0.949-4.483-1.705-6.624c-1.155-3.267-2.723-6.39-3.829-9.67
		c-0.965-2.861-1.542-5.854-2.272-8.793c-0.268-1.078-0.484-2.169-0.724-3.254c-0.241-0.228-0.481-0.455-0.722-0.683
		c-1.05,1.149-1.971,2.461-3.175,3.414c-2.793,2.21-6.033,3.661-9.324,4.979c-0.191,0.076-0.541,0.09-0.566,0.194
		c-0.373,1.529-0.741,3.061-1.019,4.609c-0.069,0.386,0.183,0.83,0.29,1.246c0.502,1.955-0.116,3.974,0.689,6.002
		c0.582,1.466,0.178,3.33,0.18,5.016c0.001,1.143-0.05,2.286-0.091,3.428c-0.011,0.301,0.03,0.687-0.134,0.883
		c-0.487,0.583-0.515,1.1-0.42,1.888c0.276,2.286-1.153,4.077-2.306,5.838c-0.828,1.265-3.333,0.601-4.133-0.905
		c-0.27-0.509-0.687-0.94-1.057-1.433c-0.264-1.271-0.479-2.671-0.862-4.022c-0.243-0.857-0.101-1.17,0.806-1.208
		c1.1-0.047,2.211-0.118,3.288-0.328c1.587-0.309,2.096-1.253,1.957-2.862c-0.227-2.625-0.256-5.269-0.524-7.889
		c-0.179-1.753-0.624-3.48-0.956-5.218c-0.069-0.362-0.189-0.716-0.243-1.08c-0.413-2.765-0.554-3.105-3.089-2.31
		c-2.972,0.932-5.955,0.692-8.938,0.919c-1.784,0.136-3.582,0.178-5.348,0.442c-1.737,0.259-1.845,0.756-1.305,2.413
		c0.609,1.869,1.008,3.807,1.498,5.713c-0.432,0.139-0.782,0.252-1.133,0.365c0.272,0.492,0.544,0.985,0.93,1.683
		c-0.318,0.559-0.758,0.854-1.724,0.373c-2.833-1.409-5.588-2.895-7.983-5.019c-1.134-1.006-2.512-1.738-4.105-2.813
		c-0.807,3.372-1.464,6.357-2.259,9.306c-0.271,1.005-0.732,1.893-0.336,3.003c0.118,0.33-0.413,0.892-0.806,1.66
		c0.474,1.518-0.18,7.675-2.232,10.682c-0.207-0.079-0.413-0.138-0.6-0.232c-0.938-0.474-2.24-0.351-2.36-2.013
		c-0.079-1.095-0.889-2.057-0.244-3.322c0.316-0.62-0.156-1.597,0.027-2.339c0.384-1.558,1.069-3.043,1.442-4.603
		c0.534-2.235,0.876-4.515,1.344-6.766c0.497-2.387,1.046-4.762,1.572-7.143c0.091-0.414,0.258-0.827,0.26-1.242
		c0.007-1.853-0.04-3.705-0.054-5.558c-0.014-1.849-0.01-3.698-0.015-5.631c2.439-1.013,3.821-2.821,4.508-5.495
		c0.63-2.452,2.204-4.666,2.802-7.121c0.816-3.35,2.295-6.334,4.049-9.209c1.315-2.155,2.761-4.251,5.394-5.082
		c2.354-0.743,4.171,0.182,6.172,1.359c1.662,0.977,1.85,2.905,3.293,3.911c0.198,0.138,0.018,0.817,0.01,1.557
		c0.446-0.45,0.74-0.747,1.149-1.16c0.83,1.203,2.089,2.462,2.66,3.98c1.028,2.734,3.068,4.996,3.3,8.153
		c0.112,1.528,1.498,2.957,2.282,4.445c0.239,0.454,0.405,0.949,0.587,1.432c0.34,0.902,0.668,1.809,1.053,2.856
		c2.811-1.147,5.443-1.959,7.804-3.264c2.007-1.109,4.305-1.686,5.976-3.538c1.289-1.429,1.004-2.998,1.094-4.513
		c0.108-1.829-0.334-3.687-0.273-5.523c0.156-4.693,0.552-9.376,1.759-13.936c0.6-2.267,1.159-4.599,2.167-6.694
		c1.712-3.557,4.56-6,8.475-6.976c3.038-0.758,6.026-0.872,8.994,0.534c1.167,0.553,2.666,0.387,3.859,0.905
		c2.388,1.039,4.469,2.512,6.437,4.324c2.237,2.059,2.022,4.298,1.715,6.777c-0.173,1.398-0.2,2.821-0.468,4.199
		c-0.637,3.278-1.228,6.599-3.245,9.393C107.945,36.14,106.455,37.99,104.874,40.051z M161.413,50.006
		c-0.548-2.203-1.142-4.321-1.597-6.469c-0.913-4.313-1.709-8.652-2.631-12.963c-0.702-3.281-3.03-4.883-5.952-4.179
		c-1.617,0.39-3.234,0.807-4.812,1.327c-3.087,1.018-6.134,2.158-9.226,3.161c-1.176,0.382-1.028,1.069-0.628,1.839
		c0.519,1.001,1.124,1.957,1.704,2.926c1.137,1.898,3.325,3.473,1.88,6.158c0.83,2.011,0.628,4.041-0.002,6.411
		c1.171,0.123,2.259,0.212,3.341,0.354c3.609,0.474,7.205,1.217,10.826,1.36C156.612,50.023,158.944,49.292,161.413,50.006z
		 M36.08,51.82c1.015,0.298,1.727,0.632,2.464,0.698c1.5,0.135,3.017,0.071,4.518,0.194c1.044,0.086,2.068,0.447,3.111,0.507
		c1.695,0.098,3.398,0.061,5.097,0.061c2.176,0.001,4.363,0.117,6.524-0.071c1.627-0.142,1.999-0.913,1.346-2.44
		c-0.641-1.497-1.479-2.91-2.221-4.364c-1.911-3.741-4.13-7.191-8.323-8.754c-0.694-0.259-1.445-0.636-2.139-0.581
		c-3.475,0.275-5.322,2.567-6.641,5.525c-1.008,2.261-2.478,4.332-2.717,6.903c-0.008,0.082-0.561,0.112-0.793,0.155
		C36.224,50.451,36.143,51.227,36.08,51.82z M87.231,57.621c0.134,0.014,0.268,0.029,0.402,0.043
		c0.189-0.515,0.546-1.032,0.539-1.545c-0.03-2.474-0.123-4.949-0.287-7.417c-0.024-0.366-0.606-1.022-0.823-0.981
		c-0.481,0.091-0.975,0.47-1.314,0.862c-0.377,0.435-0.588,1.014-0.793,1.389c0.104,0.737,0.203,1.448,0.359,2.559
		C85.847,53.943,86.539,55.782,87.231,57.621z"/>
	<path d="M414.277,72.245c-1.614,0.435-3.003-0.371-4.26-2.477c-1.285-2.153-2.571-4.319-4.042-6.345
		c-2.584-3.561-6.421-5.373-10.341-7.021c-1.306-0.549-2.592-1.144-3.902-1.683c-0.905-0.373-1.898-1.207-2.355,0.211
		c-5.007-1.413-9.827-2.773-14.724-4.155c0.244-0.471,0.376-0.727,0.508-0.983c-0.07-0.106-0.139-0.211-0.209-0.317
		c-0.449,0.257-0.881,0.556-1.355,0.756c-0.311,0.132-0.717,0.242-1.022,0.155c-3.287-0.934-6.55-1.955-9.845-2.858
		c-3.111-0.852-6.288-1.475-9.365-2.428c-1.63-0.505-3.178-1.388-4.636-2.303c-1.151-0.723-2.071-1.803-3.158-2.64
		c-2.544-1.96-3.719-5.895-2.672-8.983c0.271-0.799,0.403-1.648,0.564-2.481c0.379-1.959,1.757-3.199,3.167-4.401
		c1.251-1.066,2.531-2.101,3.833-3.104c1.075-0.828,0.731-1.633-0.267-1.867c-4.559-1.069-9.17-1.824-14.26-1.618
		c0.362,0.766,0.462,1.314,0.788,1.614c2.644,2.427,3.678,5.674,4.228,8.998c0.436,2.633,0.423,5.381,0.28,8.06
		c-0.189,3.555-0.545,7.118-1.102,10.633c-0.929,5.855-1.905,11.721-4.273,17.225c-0.993,2.309-2.007,4.612-3.122,6.864
		c-0.358,0.723-0.957,1.517-1.65,1.838c-0.931,0.432-2.252,0.856-3.042,0.493c-0.638-0.293-1.059-1.779-1-2.698
		c0.091-1.428-0.415-2.457-1.231-3.476c-0.774-0.967-0.693-3.638,0.233-4.421c0.263-0.222,1.078-0.183,1.348,0.061
		c1.364,1.23,3.973,1.006,4.598-0.677c1.277-3.435,2.491-6.912,3.404-10.456c0.677-2.628,1.041-5.378,1.177-8.092
		c0.165-3.304,0.409-6.633-0.728-9.902c-0.649-1.867-1.748-3.246-3.213-4.428c-1.56-1.259-3.093-2.568-4.757-3.675
		c-0.844-0.561-1.981-0.662-2.93-1.094c-0.51-0.232-0.853-0.96-1.354-1.062c-3.218-0.654-4.378,1.273-5.097,4.463
		c-0.51,2.261-0.287,4.678-0.529,7.011c-0.114,1.098-0.45,2.616-1.809,2.391c-0.886-0.147-1.822-1.329-2.286-2.269
		c-0.382-0.775-0.134-1.877-0.112-2.833c0.054-2.287,0.201-4.574,0.185-6.86c-0.007-0.959-0.33-1.916-0.571-3.205
		c-2.649,1.127-4.93,2.097-7.211,3.067c-1.524,0.648-3.04,1.316-4.577,1.933c-1.032,0.414-0.888,1.015-0.376,1.733
		c1.485,2.081,3.173,4.042,3.886,6.58c0.519,1.846,1.263,3.661,1.521,5.542c0.978,7.133-0.593,13.948-3.148,20.534
		c-1.481,3.817-4.077,6.882-7.407,9.354c-0.783,0.581-1.373,1.758-1.555,2.752c-0.625,3.416-1.735,4.299-6.084,4.316
		c-1.346,0.005-2.693-0.091-4.037-0.065c-0.339,0.006-0.673,0.301-0.981,0.685c-2.996-0.46-5.852-1.722-7.972-3.941
		c-2.702-2.829-5.189-5.913-7.41-9.135c-1.539-2.232-2.505-4.867-3.673-7.347c-1.83-3.887-2.937-8.006-3.64-12.223
		c-0.259-1.551-0.352-3.176-0.207-4.738c0.362-3.912,0.879-7.735,2.265-11.545c0.955-2.626,2.26-4.485,4.357-5.986
		c0.61-0.437,1.481-0.51,2.233-0.749c0.234-0.075,0.535-0.077,0.695-0.229c1.93-1.839,4.259-2.315,6.837-2.193
		c1.734,0.082,3.524-0.314,5.205-0.019c2.795,0.492,5.5,1.484,8.291,2.016c0.904,0.172,2.327-0.112,2.879-0.743
		c2.699-3.078,6.342-4.694,9.765-6.626c1.919-1.084,3.999-1.992,6.117-2.588c2.661-0.75,5.393-1.521,8.224-1.096
		c1.95,0.293,3.026-1.223,4.309-2.101c2.968-2.033,6.102-3.276,9.718-3.298c0.613-0.004,1.217-0.363,1.837-0.414
		c2.521-0.207,5.049-0.324,7.57-0.537c4.726-0.398,9.177,1.017,13.646,2.145c2.105,0.531,4.137,1.512,6.068,2.541
		c2.559,1.363,2.127,2.845,1.82,5.166c-0.167,1.26-0.128,2.547-0.187,3.821c-0.009,0.19-0.027,0.385-0.073,0.569
		c-0.771,3.056-2.283,5.618-4.871,7.513c-1.278,0.935-2.493,1.961-3.691,2.999c-1.075,0.932-1.123,1.909,0.128,2.618
		c1.577,0.894,3.311,1.562,5.045,2.116c3.864,1.236,7.753,2.403,11.664,3.478c2.654,0.729,5.381,1.187,8.043,1.889
		c2.956,0.779,5.892,1.642,8.805,2.567c3.208,1.018,6.444,1.994,9.552,3.269c3.774,1.547,7.631,3.061,11.07,5.202
		c2.902,1.807,5.127,4.411,6.492,7.904c1.39,3.554,1.087,6.802,0.3,10.248C414.404,70.109,414.4,71.072,414.277,72.245z
		 M302.379,48.671c-0.056-0.604-0.034-1.623-0.261-2.584c-0.829-3.507-3.42-5.771-5.922-8.062c-0.762-0.698-1.836-1.075-2.539-1.816
		c-1.537-1.62-3.688-1.728-5.206-0.093c-0.359,0.387-0.708,0.785-1.081,1.158c-2.622,2.623-5.533,5.021-7.796,7.924
		c-2.245,2.88-4.463,6.137-3.308,10.172c0.463,1.617,1.229,3.403,2.423,4.487c1.406,1.276,3.375,2.009,5.2,2.72
		c1.331,0.519,2.829,0.877,4.244,0.851c2.363-0.044,4.375-1.147,6.411-2.418C299.055,58.194,301.495,54.226,302.379,48.671z
		 M281.23,32.324c-0.913-0.178-1.503-0.437-2.053-0.371c-1.503,0.179-3.033,0.349-4.473,0.786c-3.555,1.081-6.734,2.84-8.811,6.053
		c-1.137,1.758-1.39,3.721-0.635,5.772c1.061,2.886,2.007,5.814,3.098,8.688c0.443,1.166,1.049,2.298,1.76,3.321
		c0.287,0.414,1.053,0.495,1.602,0.727c0.176-0.421,0.473-0.833,0.506-1.265c0.178-2.296,0.113-4.625,0.473-6.889
		c0.355-2.23,0.883-4.494,1.753-6.567C275.978,38.938,278.086,35.601,281.23,32.324z"/>
	<path d="M568.523,72.024c-0.63,1.609-0.975,2.742-1.503,3.781c-0.753,1.482-1.559,2.951-2.505,4.313
		c-0.427,0.616-1.048,0.642-1.6-0.256c-1.078-1.754-2.633-2.834-4.828-2.913c-1.773-0.064-3.536-0.377-5.309-0.506
		c-0.395-0.029-0.812,0.255-1.506,0.494c-0.717-1.007-1.948-1.181-3.479-1.118c-1.442,0.059-2.935-0.457-4.36-0.877
		c-1.437-0.424-2.837-0.995-4.218-1.584c-3.063-1.307-6.114-2.644-9.149-4.014c-1.237-0.559-2.417-1.245-3.63-1.86
		c-1.816-0.921-3.632-1.842-5.459-2.74c-1.824-0.897-3.709-1.681-5.478-2.676c-1.587-0.892-2.987-2.12-4.584-2.991
		c-2.471-1.348-5.064-2.473-7.561-3.776c-3.341-1.744-6.588-3.676-9.971-5.334c-5.329-2.612-10.603-5.437-16.169-7.418
		c-2.673-0.951-5.052-2.64-8.008-3.048c-0.023,0.221-0.052,0.501-0.111,1.065c-1.176-0.387-2.257-0.771-3.355-1.098
		c-3.633-1.082-7.25-2.23-10.915-3.192c-4.453-1.169-8.933-2.246-13.432-3.221c-2.039-0.442-4.15-0.655-6.234-0.702
		c-0.42-0.01-1.295,1.244-1.232,1.837c0.34,3.186,0.868,6.354,1.419,9.513c0.316,1.81,1.143,3.594,1.126,5.384
		c-0.026,2.871-0.033,5.839-1.511,8.487c-0.517,0.927-0.995,0.589-1.624,0.015c-1.713-1.565-1.975-3.657-2.291-5.757
		c-0.572-3.797-1.168-7.59-1.753-11.385c-0.168-0.076-0.336-0.152-0.504-0.228c-0.694,1.092-1.303,2.253-2.113,3.252
		c-0.542,0.668-1.324,1.435-2.081,1.535c-0.53,0.07-1.305-0.829-1.786-1.44c-1.88-2.389-0.578-4.949-0.012-7.302
		c0.488-2.03,1.846-3.839,2.67-5.807c0.321-0.766,0.499-1.774,0.289-2.55c-0.962-3.56-1.817-7.187-3.222-10.578
		c-1.433-3.458-0.63-6.459,0.754-9.557c0.346-0.775,0.694-0.836,1.463-0.423c2.175,1.168,2.736,3.027,2.967,5.34
		c0.216,2.169,0.992,4.282,1.527,6.419c0.228,0.913,0.405,1.848,0.73,2.726c0.165,0.447,0.543,0.925,0.953,1.124
		c0.189,0.092,0.728-0.413,1.038-0.718c3.349-3.294,6.475-6.856,10.087-9.829c3.077-2.533,6.583-4.631,10.128-6.483
		c3.293-1.72,6.797-3.191,10.373-4.176c4.689-1.292,9.147-0.252,12.44,3.513c1.04,1.189,1.577,3.178,1.605,4.814
		c0.048,2.784-0.49,5.578-0.79,8.439c-1.269,0.092-2.044-0.252-2.605-1.414c-0.97-2.009-2.772-2.897-4.936-3.19
		c-3.381-0.458-6.586,0.026-9.829,1.136c-3.778,1.293-7.233,3.12-10.563,5.252c-0.148,0.095-0.207,0.33-0.526,0.872
		c1.936,0.455,3.706,0.843,5.459,1.295c0.855,0.22,1.671,0.589,2.52,0.838c4.345,1.273,8.739,2.396,13.033,3.822
		c5.887,1.956,11.727,4.066,17.531,6.259c2.398,0.906,4.707,2.094,6.957,3.335c6.215,3.427,12.368,6.965,18.563,10.429
		c5.949,3.327,11.901,6.647,17.885,9.911c3.636,1.983,7.217,4.135,11.032,5.703c4.519,1.857,9.212,3.349,13.926,4.651
		c3.229,0.892,6.636,1.119,9.936,1.778C566.188,69.596,568.058,70.345,568.523,72.024z"/>
	<path d="M218.754,26.951c2.083,2.73,1.784,5.646,1.774,8.642c-0.006,1.814-0.868,2.366-1.959,3.316
		c-0.689,0.599-1.096,1.951-1.025,2.922c0.289,3.996,0.838,7.973,1.232,11.963c0.197,1.994,0.029,4.051,0.443,5.991
		c0.994,4.665,1.363,9.487,3.354,13.917c0.583,1.296,1.188,1.601,2.078,0.52c1.259-1.528,2.335-3.244,3.254-5.003
		c0.796-1.524,1.189-3.255,1.901-4.83c0.644-1.424,1.975-2.053,3.453-2.178c1.672-0.141,2.839,0.677,3.718,2.136
		c1.515,2.517,3.247,4.878,5.963,6.272c1.182,0.606,3.807-0.381,4.877-2.003c1.847-2.799,3.396-5.8,3.553-9.202
		c0.203-4.396,0.104-8.805,0.153-13.208c0.007-0.621,0.122-1.242,0.19-1.892c1.925,0.578,3.08,2.378,3.101,4.353
		c0.034,3.226,0.425,6.471,0.188,9.672c-0.299,4.046-1,8.069-1.673,12.077c-0.52,3.098-1.87,5.893-3.659,8.475
		c-1.29,1.862-3.153,2.612-5.308,2.998c-4.024,0.722-6.168-2.072-8.567-4.412c-0.46-0.448-0.793-1.024-1.238-1.491
		c-1.532-1.61-2.126-1.47-3.18,0.561c-1.08,2.085-2.067,4.255-3.435,6.14c-0.813,1.121-2.177,2.022-3.484,2.562
		c-2.034,0.841-3.126-0.844-3.889-2.274c-1.011-1.893-1.962-3.912-2.413-5.991c-0.955-4.401-1.659-8.862-2.297-13.323
		c-0.558-3.905-0.9-7.842-1.31-11.768c-0.557-5.335-1.227-10.664-1.567-16.013c-0.146-2.304,0.329-4.667,0.717-6.97
		c0.093-0.55,0.893-1.207,1.497-1.394C216.332,27.167,217.561,27.123,218.754,26.951z"/>
	<path d="M4.109,21.079c0.741,0.967,1.354,1.768,2.235,2.917c-0.469,0.013-0.864,0.024-1.26,0.035
		c0.107,0.149,0.215,0.298,0.322,0.447c0.343,0,0.686,0,1.191,0c-0.489,1.074-0.183,1.761,0.897,2.057
		c1.155,0.317,1.71-0.3,1.986-1.29c0.895-3.215,1.645-6.478,2.708-9.636c0.47-1.397,1.431-2.697,2.41-3.832
		c0.808-0.936,3.843-0.107,4.492,1.016c0.148,0.256,0.51,0.381,0.758,0.586c1.156,0.957,2.71,1.709,3.352,2.937
		c0.718,1.375,1.933,2.207,2.731,3.452c0.771,1.202,1.759,2.439,3.471,2.592c0.32,0.029,0.671,0.437,0.885,0.753
		c0.457,0.673-0.088,3.587-0.532,4.005c0.107,0.602,0.306,1.074,0.239,1.504c-0.095,0.609-0.387,1.187-0.695,2.064
		c-2.496,0.816-4.314-0.449-6.041-2.751c-1.673-2.228-3.507-4.474-6.33-5.479c-1.207-0.43-2.017-0.173-2.502,1.093
		c-0.223,0.581-0.725,1.048-1.004,1.615c-0.224,0.454-0.393,0.974-0.423,1.475c-0.044,0.726,0.059,1.461,0.097,2.136
		c-0.582,0.224-1.005,0.387-1.428,0.55c0.773,2.645-0.448,6.057-2.924,7.623c-0.526,0.333-1.963,0.119-2.321-0.348
		c-1.057-1.379-1.954-2.944-2.604-4.56c-1.288-3.204-2.539-6.445-3.458-9.766c-0.433-1.565-0.707-3.482,0.584-4.932
		c0.465-0.523,1.329-0.963,1.99-0.935c0.388,0.016,0.985,1.002,1.046,1.597C4.093,19.108,5.423,20.23,4.109,21.079z"/>
	<path d="M540.771,6.767c2.184-0.303,4.113-0.684,4.365-3.369c0.039-0.418,0.886-0.883,1.446-1.108
		c2.429-0.974,4.951-0.658,7.37-0.081c0.802,0.191,1.572,1.26,2.003,2.108c0.811,1.595,0.699,3.287,0.12,5.021
		c-0.648,1.944-0.961,4-1.587,5.953c-0.638,1.993-1.478,3.921-2.232,5.876c-0.131,0.339-0.395,0.675-0.391,1.01
		c0.013,1.153-0.801,1.936-1.625,1.763c-0.987-0.206-2.109-1.013-1.871-2.355c0.351-1.974,0.893-3.913,1.348-5.869
		c0.144-0.618,0.454-1.275,0.346-1.85c-0.087-0.46-0.706-1.188-1.064-1.173c-4.477,0.18-8.678,1.126-12.081,4.402
		c-0.515,0.496-1.681,0.472-2.518,0.393c-0.301-0.029-0.574-0.91-0.765-1.437c-1.537-4.234,0.386-7.936,1.877-11.683
		c0.456-1.145,1.021-2.29,1.762-3.263c0.433-0.568,1.396-1.207,1.975-1.091c1.229,0.247,1.537,1.511,1.601,2.629
		C540.926,3.96,540.809,5.287,540.771,6.767z"/>
</g>
<g id="Layer_1">
</g>
</svg>
