<?xml version="1.0" encoding="iso-8859-1"?>
<!-- Generator: Adobe Illustrator 27.9.0, SVG Export Plug-In . SVG Version: 6.00 Build 0)  -->
<svg version="1.1" xmlns="http://www.w3.org/2000/svg" xmlns:xlink="http://www.w3.org/1999/xlink" x="0px" y="0px"
	 viewBox="0 0 488.954 110.842" style="enable-background:new 0 0 488.954 110.842;" xml:space="preserve">
<g id="Layer_15">
	<path d="M75.195,66.916c0.247,0.351,0.639,0.652,0.625,0.932c-0.07,1.41-0.325,2.812-0.363,4.221
		c-0.036,1.341,0.194,2.689,0.155,4.029c-0.023,0.774-0.492,1.537-0.507,2.31c-0.03,1.617,0.13,3.236,0.173,4.856
		c0.066,2.434,0.157,4.87,0.105,7.303c-0.013,0.627-0.607,1.22-0.778,1.87c-0.312,1.184-0.284,2.511-0.814,3.569
		c-0.518,1.034-1.526,1.843-2.427,2.626c-0.073,0.063-1.33-0.762-1.445-1.3c-0.598-2.808-1.108-5.644-1.452-8.494
		c-0.404-3.342-0.693-6.703-0.874-10.064c-0.182-3.382-0.235-6.776-0.212-10.163c0.012-1.717,0.313-3.433,0.49-5.148
		c0.261-2.535,0.539-5.067,0.78-7.604c0.031-0.331-0.111-0.678-0.235-1.36c-2.369,2.682-4.493,5.14-6.681,7.54
		c-1.06,1.163-2.294,2.168-3.339,3.342c-0.479,0.538-0.949,1.299-0.981,1.98c-0.116,2.439-0.045,4.888-0.035,7.333
		c0.001,0.149,0.169,0.334,0.122,0.442c-1.749,3.998-1.468,8.656-4.21,12.362c-2.01,2.716-4.507,3.496-7.882,2.997
		c-4.248-0.628-7.681-2.887-11.162-4.959c-1.64-0.976-3.474-2.097-4.513-4.078c-0.547-1.043-1.944-1.624-2.904-2.474
		c-0.527-0.467-0.945-1.057-1.625-1.837c-1.059,0.105-1.409,1.283-1.627,2.494c-0.25,1.383,0.054,2.962-1.551,3.799
		c-0.136,0.071-0.268,0.486-0.2,0.563c1.396,1.588-0.585,2.965-0.261,4.47c0.39,1.805-0.549,3.404-0.765,5.114
		c-0.058,0.459,0.037,0.936-0.007,1.398c-0.036,0.376-0.059,0.853-0.289,1.092c-0.546,0.567-0.638,0.906-0.054,1.59
		c0.302,0.353,0.087,1.235-0.041,1.847c-0.224,1.078-1.445,1.989-0.433,3.277c0.175,0.223,0.116,0.914-0.094,1.106
		c-1,0.917-1.303,1.918-0.853,3.221c0.121,0.35-0.088,0.841-0.215,1.245c-0.199,0.63-1.319,1.076-0.359,1.925
		c-0.336,0.197-0.722,0.611-0.998,0.548c-0.623-0.144-1.365-0.379-1.748-0.836c-0.963-1.15-0.857-2.636-0.711-4.004
		c0.255-2.395,0.636-4.781,1.052-7.155c0.685-3.902,1.653-7.767,2.116-11.693c0.665-5.637,2.252-11.03,3.711-16.472
		c1.179-4.4,2.17-8.852,3.399-13.238c0.994-3.55,2.114-7.073,3.369-10.538c1.177-3.249,2.323-6.566,4.014-9.553
		c1.348-2.38,3.106-4.76,5.989-5.666c1.421-0.447,2.783-0.761,4.386,0.024c0.956,0.468,1.663,0.355,1.419,1.745
		c-0.079,0.448,0.866,1.076,1.546,1.854c1.16-0.131,2.184,1.085,2.999,4.202c0.195-0.121,0.366-0.226,0.743-0.46
		c0.436,1.744,0.853,3.414,1.259,5.038c0.081-0.084,0.318-0.327,0.652-0.671c0.112,1.218,0.208,2.349,0.329,3.478
		c0.013,0.119,0.15,0.273,0.267,0.325c0.973,0.427,2.138,0.671,1.208,2.222c-0.184,0.306,0.244,1.003,0.432,1.504
		c0.471,1.25,1.023,2.473,1.432,3.742c0.288,0.892,0.386,1.845,0.587,2.767c0.044,0.201,0.116,0.471,0.263,0.556
		c0.229,0.133,0.681,0.278,0.786,0.171c1.637-1.671,3.2-3.415,4.851-5.072c1.333-1.337,2.816-2.526,4.133-3.877
		c2.185-2.242,3.859-4.815,4.902-7.805c0.893-2.56,1.935-5.068,2.919-7.595c0.076-0.194,0.175-0.46,0.334-0.528
		c2.436-1.041,2.945-3.666,4.506-5.414c0.919-1.029,2.003-1.92,3.066-2.81c2.012-1.683,4.166-3.139,6.911-3.199
		c1.114-0.024,2.267,0.076,3.345,0.347c2.581,0.647,3.493,4.005,3.042,5.904c-0.525,2.211-0.917,4.468-1.645,6.611
		c-0.58,1.707-1.834,3.199-2.327,4.918c-0.653,2.28-2.297,3.745-3.688,5.432c-0.706,0.856-1.576,1.581-2.392,2.343
		c-0.973,0.908-1.968,1.793-3.179,2.892c1.286,0.621,2.816,0.86,3.313,1.707c0.923,1.571,2.471,1.101,3.634,1.551
		c2.08,0.804,4.406,0.977,6.632,1.397c0.881,0.166,1.353,1.155,2.534,0.913c1.025-0.21,2.194,0.13,3.271,0.358
		c2.575,0.547,5.139,1.145,7.693,1.782c0.783,0.195,1.518,0.583,2.331,0.717c1.065,0.272,2.148,0.488,3.192,0.826
		c2.818,0.913,5.664,1.767,8.413,2.86c1.844,0.733,3.511,1.896,5.314,2.747c1.185,0.559,2.564,0.744,3.681,1.397
		c0.888,0.52,1.876,0.818,2.703,1.665c0.878,0.899,2.5,1.084,3.826,1.486c0.053,0.016,0.661-1,0.571-1.446
		c-0.45-2.206-1.106-4.369-1.576-6.571c-0.47-2.198-0.798-4.425-1.202-6.637c-0.507-2.776-1.068-5.542-1.531-8.325
		c-0.344-2.07-0.572-4.159-0.843-6.241c-0.087-0.667-0.146-1.337-0.219-2.014c-4.72,0.838-8.15,3.558-11.153,6.935
		c-0.247,0.277-0.211,0.797-0.333,1.196c-0.48,1.571-0.889,3.171-1.508,4.686c-0.178,0.436-1.205,1-1.441,0.854
		c-0.949-0.585-1.984-1.279-2.541-2.201c-1.249-2.067-0.596-4.264-0.046-6.447c0.328-1.3,0.289-2.689,0.488-4.028
		c0.083-0.556,0.27-1.134,0.557-1.615c1.564-2.619,4.193-4.249,6.134-6.516c1.951-2.277,4.673-3.269,7.277-4.329
		c3.38-1.377,6.877-2.534,10.412-3.446c3.226-0.832,6.573-1.191,9.859-1.801c1.206-0.224,2.379-0.62,3.583-0.851
		c3.089-0.593,6.189-1.127,9.281-1.706c2.421-0.453,4.822-1.032,7.257-1.382c2.422-0.348,4.878-0.446,7.312-0.719
		c1.068-0.12,2.109-0.512,3.177-0.594c4.972-0.38,9.95-0.667,14.922-1.044c1.989-0.151,3.962-0.539,5.952-0.659
		c2.731-0.164,5.474-0.128,8.208-0.262c3.408-0.167,6.809-0.483,10.218-0.616c2.493-0.097,4.997-0.07,7.49,0.045
		c0.923,0.042,1.869,0.405,2.716,0.807c0.259,0.123,0.115,0.932,0.349,1.306c0.49,0.783,1.108,1.485,1.892,2.505
		c-1.153,0.232-2.292,0.591-3.449,0.661c-1.506,0.09-2.974-0.042-3.121,2.094c-0.019,0.277-0.803,0.628-1.277,0.724
		c-1.92,0.388-3.846,0.847-5.791,0.991c-4.792,0.354-9.596,0.55-14.395,0.806c-0.214,0.011-0.523-0.095-0.629,0.012
		c-0.963,0.967-1.976,0.861-3.284,0.695c-1.487-0.188-3.067,0.501-4.621,0.638c-0.848,0.075-1.732-0.324-2.592-0.291
		c-1.148,0.044-2.285,0.326-3.433,0.461c-2.343,0.277-4.691,0.516-7.035,0.792c-0.3,0.035-0.585,0.192-0.877,0.295
		c-0.645,0.229-1.277,0.604-1.937,0.663c-2.57,0.231-5.168,0.218-7.718,0.571c-2.548,0.352-5.048,1.041-7.573,1.568
		c-2.101,0.439-4.192,1.081-6.315,1.219c-1.845,0.12-3.296,0.989-4.927,1.544c-1.69,0.574-3.68,0.199-5.448,0.622
		c-2.089,0.5-4.121,1.318-6.086,2.203c-0.509,0.229-0.706,1.209-0.991,1.868c-0.575,1.327-1.278,2.629-1.616,4.018
		c-0.331,1.355-0.437,2.816-0.351,4.212c0.159,2.556,0.41,5.119,0.854,7.639c0.393,2.232,1.177,4.393,1.641,6.615
		c0.311,1.492,0.332,3.042,0.558,4.554c0.054,0.363,0.408,0.681,0.693,1.13c-0.434,0.071-0.716,0.117-0.998,0.163
		c-0.015,0.109-0.029,0.219-0.044,0.328c0.38,0.114,0.76,0.228,1.183,0.355c-0.08,0.766-0.166,1.587-0.262,2.508
		c0.296,0.031,0.615,0.064,0.72,0.075c0.179,0.751,0.334,1.417,0.499,2.08c0.025,0.101,0.153,0.197,0.142,0.283
		c-0.347,2.531,1.28,4.727,1.212,7.226c-0.022,0.786,0.233,1.619,0.523,2.368c0.798,2.061,0.707,4.256,1.09,6.339
		c0.399,2.172-0.582,3.408-1.504,4.835c-0.605,0.936-1.649,0.728-1.954-0.295c-0.64-2.146-1.301-4.292-1.783-6.476
		c-0.577-2.617-0.98-5.272-1.453-7.912c-0.194-1.083-2.329-2.183-3.348-1.669c-0.922,0.466-1.72,0.67-2.598-0.173
		c-0.248-0.238-1.242-0.193-1.385,0.037c-0.815,1.316-1.89,0.826-2.829,0.443c-2.43-0.991-4.78-2.182-7.222-3.141
		c-1.66-0.652-3.433-1.007-5.132-1.568c-1.441-0.476-2.815-1.187-4.279-1.554c-1.501-0.376-3.08-0.424-4.615-0.682
		c-2.099-0.353-4.18-0.809-6.281-1.146c-2.74-0.439-5.499-0.761-8.236-1.214c-1.908-0.316-3.786-0.804-5.69-1.149
		c-1.696-0.307-3.417-0.478-5.109-0.802c-0.597-0.114-1.16-0.469-1.706-0.773c-1.698-0.947-3.369-1.942-5.078-2.867
		c-0.309-0.167-0.829-0.235-1.108-0.083c-0.268,0.146-0.469,0.628-0.491,0.975c-0.096,1.539-0.072,3.087-0.2,4.623
		C75.848,66.396,75.377,66.698,75.195,66.916z M28.679,66.709c0.541,0.106,1.436,0.566,2.148,0.368
		c2.444-0.682,4.767,0.63,7.185,0.208c2.071-0.361,4.292-0.171,6.244-0.827c2.105-0.707,3.94-2.184,5.963-3.183
		c0.834-0.412,1.515-0.697,1.157-1.768c-1.617-4.842-3.18-9.704-4.893-14.512c-0.748-2.099-4.118-4.341-5.794-4.232
		c-2.307,0.149-4.06,1.165-5.475,2.994c-1.719,2.223-4.118,7.051-4.993,9.974c-0.35,1.171-1.365,2.151-1.67,3.325
		c-0.339,1.299-0.212,2.72-0.291,4.129c-0.443-0.088-0.7-0.139-0.741-0.147c-0.147,0.738-0.272,1.366-0.374,1.874
		C27.585,65.426,28.035,65.953,28.679,66.709z M53.103,71.879c-0.135-0.143-0.27-0.285-0.405-0.428
		c-1.263,0.844-2.503,1.727-3.796,2.523c-1.494,0.919-3.02,1.792-4.562,2.629c-1.499,0.814-3.541,0.683-4.71,3.099
		c2.933-0.242,4.584,2.439,7.705,2.082c2.78-0.318,4.429-1.464,5.078-3.906C52.924,75.953,52.893,73.884,53.103,71.879z
		 M77.263,44.641c3.027-4.339,7.922-6.549,10.882-11.001c-0.883-0.343-1.752-0.647-2.497-0.46c-1.041,0.262-2.079,0.763-2.96,1.387
		c-2.224,1.576-3.94,3.606-5.342,5.981C76.599,41.814,75.863,42.839,77.263,44.641z"/>
	<path d="M261.505,32.983c-1.898,1.588-3.625,2.913-5.21,4.392c-1.49,1.391-2.855,2.596-1.028,5.104
		c1.214,1.667,1.414,4.243,1.573,6.448c0.111,1.546-0.606,3.153-0.966,4.73c-0.578,2.528-1.013,5.102-1.79,7.569
		c-1.026,3.259-3.503,5.603-5.471,8.294c-1.683,2.3-4.35,2.951-6.13,5.025c-1.294,1.508-3.722,2.044-5.653,2.997
		c-0.125,0.062-0.324,0.016-0.477-0.025c-3.877-1.021-7.68-2.537-10.235-5.578c-1.592-1.895-2.433-4.73-2.817-7.263
		c-0.698-4.611,0.306-9.145,1.532-13.651c0.764-2.808,1.369-5.642,2.919-8.121c1.759-2.815,4.456-4.533,7.391-5.969
		c2.331-1.141,4.825-1.251,7.298-1.303c1.462-0.031,2.932,0.493,4.405,0.718c0.87,0.133,1.76,0.188,1.885-1.07
		c0.014-0.137,0.152-0.275,0.257-0.389c4.025-4.357,7.538-9.236,12.697-12.435c0.704-0.436,1.382-0.915,2.097-1.331
		c1.792-1.044,2.859-2.741,3.649-4.515c2.742-6.159,7.174-10.465,13.628-12.418c2.224-0.673,4.668-0.591,7.001-0.931
		c3.477-0.507,6.671,0.631,9.635,2.072c2.612,1.27,5.297,2.983,6.155,6.021c0.559,1.979,0.752,4.227,0.436,6.25
		c-0.561,3.592-1.564,7.122-2.513,10.642c-0.795,2.948-2.782,5.2-4.924,7.229c-3.911,3.707-7.951,7.278-11.948,10.893
		c-0.616,0.557-1.363,0.981-1.922,1.585c-0.857,0.926-0.565,1.797,0.655,1.997c2.993,0.492,6.001,0.895,8.993,1.389
		c2.139,0.353,4.256,0.841,6.397,1.18c1.605,0.254,3.235,0.34,4.848,0.543c4.437,0.559,8.884,1.061,13.304,1.735
		c4.797,0.731,9.591,1.521,14.343,2.494c3.316,0.679,6.559,1.71,9.836,2.581c3.417,0.909,6.822,1.87,10.265,2.671
		c0.649,0.151,1.449-0.344,2.292-0.572c0.089,2.432,2.56,2.061,3.786,3.217c0.646,0.609,1.407,1.097,2.122,1.632
		c0.517,0.386,0.963,0.7,1.7,0.883c1.021,0.252,1.833,1.477,2.657,2.358c0.839,0.897,1.649,1.838,2.326,2.856
		c0.193,0.29-0.015,0.97-0.22,1.381c-0.794,1.593-1.683,3.139-2.493,4.725c-0.624,1.221-1.247,2.086-2.927,2.194
		c-1.765,0.113-3.364,0.384-5.034-0.562c-1.741-0.986-2.844-2.228-3.156-4.252c-0.355-2.304-1.118-4.262-3.916-4.747
		c-1.575-0.273-3.017-1.241-4.582-1.664c-1.644-0.444-3.363-0.611-5.05-0.9c-6.464-1.111-12.929-2.221-19.393-3.334
		c-1.471-0.253-2.931-0.591-4.412-0.747c-0.581-0.061-1.203,0.272-1.919,0.453c-0.162-0.139-0.509-0.691-0.922-0.746
		c-2.681-0.358-5.46-0.293-8.048-0.974c-3.298-0.868-6.518,0.541-9.785-0.237c-3.156-0.752-6.405-1.107-9.6-1.706
		c-2.508-0.47-4.996-1.046-7.762-1.632c-0.497,1.872-1.092,3.88-1.56,5.916c-1.217,5.296-2.685,10.512-4.942,15.467
		c-1.105,2.425-1.243,2.425-3.889,2.052c-0.401-2.539-0.831-5.116-1.21-7.699c-0.376-2.563-0.13-5.069,1.013-7.574
		c1.169,0.392,1.43,1.464,1.705,2.603c0.136,0.564,0.561,1.058,0.855,1.584c0.356-0.48,0.891-0.911,1.038-1.449
		c0.992-3.62,1.852-7.276,2.866-10.889c0.304-1.084,0.16-1.631-0.937-2.01c-2.642-0.911-4.276-4.743-3.246-7.399
		c0.323-0.831,0.529-1.707,0.833-2.546c0.58-1.6,1.281-2.973,3.08-3.727c1.529-0.641,2.81-1.967,2.536-3.875
		c-0.34-2.37-0.799-4.74-1.442-7.045c-0.599-2.148-3.847-3.178-5.483-3.07c-2.051,0.136-2.052,2.031-2.359,3.306
		c-1.14,4.737-1.083,9.557-0.574,14.392c0.226,2.15,0.294,4.33,0.242,6.491c-0.038,1.576-0.35,3.151-0.628,4.71
		c-0.083,0.466-0.463,0.88-0.754,1.403c-1.661-1.502-2.14-3.143-2.297-5.018c-0.148-1.766-0.74-3.499-0.852-5.265
		c-0.19-3.011-0.273-6.04-0.181-9.055c0.074-2.45,0.474-4.89,0.712-7.336C261.831,33.949,261.715,33.746,261.505,32.983z
		 M280.876,39.135c2.805-2.301,5.433-4.424,8.025-6.591c3.694-3.089,7.495-6.077,9.756-10.51c0.911-1.787,0.694-2.619-0.885-3.869
		c-2.761-2.186-5.957-2.833-9.363-3.203c-5.644-0.613-10.631,0.45-14.814,4.854c0.748,0.475,1.552,0.778,2.055,1.347
		c1.071,1.213,2.197,2.459,2.907,3.887c0.763,1.536,1.304,3.265,1.526,4.965c0.304,2.33,0.193,4.713,0.314,7.071
		C280.43,37.686,280.669,38.275,280.876,39.135z M240.058,48.993c-0.414-0.115-0.97-0.467-1.422-0.364
		c-4.448,1.017-8.069,3-9.824,7.656c-0.482,1.279-0.681,2.227,0.186,3.067c0.989,0.959,1.379,2.294,2.769,3.087
		c2.016,1.151,2.566,1.09,3.208-1.241c0.609-2.21,1.466-4.362,2.346-6.484C238.083,52.878,239.031,51.119,240.058,48.993z
		 M238.148,65.07c0.192,0.201,0.383,0.401,0.575,0.602c0.897-0.367,1.901-0.582,2.672-1.127c3.2-2.258,6.069-4.848,8.314-8.129
		c2.155-3.151,2.111-3.961-1.004-6.108c-1.642-1.132-2.306-0.94-3.285,0.807c-1.221,2.179-2.591,4.277-3.742,6.491
		C240.41,60.046,239.318,62.578,238.148,65.07z"/>
	<path d="M372.349,25.833c0.075,4.298,0.124,8.596,0.26,12.892c0.017,0.534,0.496,1.053,0.761,1.578
		c0.418-0.327,0.876-0.614,1.245-0.989c1.261-1.283,2.539-2.555,3.717-3.913c0.882-1.016,1.591-2.179,2.436-3.229
		c0.364-0.452,0.994-1.193,1.304-1.105c2.221,0.631,3.64-0.985,5.255-1.828c2.413-1.26,4.674-2.731,7.318-3.606
		c2.479-0.821,4.694-2.417,7.155-3.321c3.982-1.462,8.07-2.636,12.113-3.933c3.405-1.092,6.804-2.202,10.214-3.277
		c3.062-0.965,6.114-1.973,9.21-2.814c2.297-0.624,3.295,0.181,2.823,2.388c-0.47,2.198-1.14,4.419-2.157,6.408
		c-0.558,1.092-1.898,1.994-3.09,2.504c-2.072,0.887-4.28,1.498-6.476,2.042c-1.443,0.357-2.92,0.849-4.291,1.087
		c-3.189,0.553-5.904,2.378-9.107,2.814c-1.837,0.25-3.614,1.067-5.37,1.752c-3.562,1.39-7.098,2.85-10.628,4.32
		c-0.42,0.175-0.738,0.592-1.104,0.897c0.384,0.455,0.679,1.13,1.167,1.327c2.139,0.864,4.309,1.676,6.515,2.348
		c3.63,1.105,7.303,2.07,10.949,3.123c4.054,1.171,8.198,2.115,12.126,3.621c6.422,2.462,13.119,3.915,19.674,5.878
		c4.546,1.362,9.089,2.746,13.68,3.941c2.565,0.668,4.967,1.706,7.435,2.558c2.39,0.825,4.181,2.081,5.886,3.761
		c0.583,0.575,0.655,0.843,0.052,1.47c-0.475,0.494-0.646,1.281-0.951,1.938c-0.987,2.127-1.878,4.307-2.999,6.361
		c-0.625,1.145-1.798,1.213-2.37-0.044c-1.214-2.669-3.444-3.765-6.053-4.493c-2.079-0.58-4.113-1.322-6.188-1.919
		c-3.282-0.944-6.573-1.861-9.878-2.723c-3.076-0.802-6.171-1.529-9.264-2.262c-1.75-0.414-3.531-0.708-5.26-1.19
		c-0.677-0.189-1.204-0.931-1.88-1.102c-1.871-0.473-3.674-1.054-5.707-1.116c-2.066-0.062-4.09-1.255-6.148-1.901
		c-1.406-0.442-2.838-0.802-4.261-1.188c-3.514-0.954-7.083-1.741-10.53-2.894c-3.813-1.276-7.551-2.8-11.25-4.383
		c-2.005-0.858-3.801-2.211-5.819-3.027c-0.654-0.265-1.904,0.241-2.547,0.787c-1.609,1.37-3.086,2.912-4.5,4.489
		c-0.859,0.958-1.257,2.128-0.886,3.509c0.611,2.271,0.956,4.624,1.699,6.847c0.631,1.888-0.135,3.401-0.694,5.035
		c-0.356,1.041-0.587,2.127-0.972,3.156c-0.342,0.913-0.769,1.807-1.276,2.638c-0.122,0.199-0.891,0.293-1.052,0.13
		c-0.907-0.92-1.652-2.003-2.587-2.889c-0.585-0.554-1.542-0.725-2.1-1.295c-2.872-2.931-3.322-6.356-2.114-10.215
		c0.882-2.818,1.699-5.699,2.087-8.613c0.273-2.046-0.27-4.192-0.365-6.297c-0.1-2.223-0.106-4.45-0.145-6.675
		c-0.06-3.39-0.25-6.786-0.112-10.168c0.07-1.702,0.673-3.399,1.169-5.058c0.233-0.781,0.717-1.515,1.207-2.182
		c0.432-0.586,1.032-1.049,1.557-1.566c0.594,0.855,1.64,1.683,1.695,2.571c0.144,2.334-0.144,4.695-0.26,7.044
		C372.564,25.832,372.457,25.832,372.349,25.833z"/>
	<path d="M184.752,59.643c-0.04-0.026,0.341,0.085,0.39,0.281c0.592,2.354,1.149,4.718,1.683,7.086
		c0.263,1.167,2.437,2.767,3.629,2.646c1.415-0.143,2.865-0.111,4.239-0.423c1.192-0.271,2.092,0.731,2.816,0.678
		c1.543-0.114,1.672,1.428,2.873,1.682c1.958,0.415,3.072-0.731,3.96-1.871c1.752-2.249,2.76-4.865,3.263-7.747
		c0.418-2.398,1.44-4.686,2.114-7.045c0.538-1.88,1.013-3.783,1.413-5.697c0.533-2.546,1.035-5.103,1.421-7.675
		c0.352-2.349,0.45-4.736,0.814-7.082c0.3-1.934,0.773-3.846,1.279-5.739c0.219-0.819,0.837-1.477,1.809-1.053
		c0.691,0.302,1.681,0.423,1.201,1.776c-0.205,0.576,0.236,1.543,0.656,2.141c0.634,0.902,0.246,1.522-0.119,2.334
		c-0.536,1.192-1.02,2.447-1.26,3.725c-0.487,2.589-0.694,5.232-1.202,7.817c-0.689,3.499-1.556,6.962-2.341,10.442
		c-0.743,3.291-1.379,6.611-2.244,9.869c-0.957,3.607-2.099,7.166-3.205,10.732c-0.367,1.185-0.888,2.321-1.313,3.489
		c-0.763,2.101-2.447,3.373-4.364,4.068c-0.829,0.301-2.206-0.309-3.09-0.882c-2.086-1.353-4.179-2.129-6.749-1.854
		c-3.408,0.365-5.221-2.102-6.901-4.516c-2.455-3.529-3.065-7.713-4.011-11.774c-1.112-4.779-2.105-9.594-3.477-14.298
		c-0.398-1.364-0.746-2.625-0.403-3.921c0.218-0.825,0.793-1.777,1.493-2.19c0.636-0.375,1.31,0.419,1.976,0.914
		c2.369,1.759,2.167,4.272,2.416,6.71c0.121,1.183,0.405,2.348,0.603,3.524C184.33,57.025,184.527,58.265,184.752,59.643z"/>
	<path d="M11.996,21.164c-0.481-0.886-0.884-1.399-1.045-1.979c-0.257-0.925-0.645-1.959-0.454-2.832
		c0.357-1.626,0.931-3.258,1.729-4.715c0.483-0.882,1.453-1.704,2.393-2.071c0.985-0.384,1.968,0.122,2.309,1.374
		c0.066,0.242,0.543,0.371,0.921,0.61c0.004-0.432,0.006-0.67,0.009-1.111c0.537,0.53,1.39,1.072,1.311,1.345
		c-0.399,1.385,0.352,1.135,0.816,1.108c0.586,1.583,1.154,3.174,1.768,4.747c0.255,0.654,1.727,0.23,1.363,1.539
		c-0.125,0.449,0.047,0.98,0.087,1.527c-0.007,0.003,0.207-0.09,0.41-0.179c0.491,0.913,0.862,1.885,1.469,2.673
		c1.429,1.855,2.243,3.942,1.706,6.19c-0.303,1.271-1.18,2.599-2.18,3.46c-1.202,1.036-2.025,0.553-2.767-0.883
		c-0.484-0.937-1.22-1.741-1.8-2.632c-0.487-0.748-0.889-1.551-1.366-2.306c-0.553-0.876-1.126-1.742-1.731-2.583
		c-0.472-0.656-0.886-1.476-1.54-1.854C14.254,21.926,12.939,21.543,11.996,21.164z"/>
	<path d="M460.663,23.719c-2.282-1.246-2.635-1.777-2.154-4.154c0.65-3.213,1.338-6.438,2.332-9.554
		c0.627-1.966,1.856-3.738,2.792-5.609c0.327-0.654,0.616-1.332,0.872-2.017c0.932-2.502,3.874-3.239,5.454-1.222
		c0.508,0.649,0.681,1.914,0.441,2.73c-0.707,2.404-1.674,4.733-2.595,7.07c-0.193,0.489-0.544,1.157-0.958,1.278
		c-2.601,0.76-2.94,2.981-3.63,5.094C462.511,19.496,461.535,21.571,460.663,23.719z"/>
	<path d="M485.816,6.448c0.083,0.001,0.29,0.003,0.498,0.006c2.293,0.033,3.068,0.953,2.421,3.233
		c-0.629,2.214-1.41,4.396-2.28,6.528c-1.107,2.712-2.334,5.378-3.599,8.02c-0.242,0.505-0.839,0.989-1.378,1.174
		c-1.704,0.584-2.166,0.253-1.954-1.525c0.181-1.516,0.623-3.004,0.995-4.494c0.371-1.483,1.042-2.934,1.148-4.43
		c0.168-2.377,1.428-4.161,2.62-6.031C484.789,8.141,485.268,7.339,485.816,6.448z"/>
	<path d="M2.97,13.51c0.533,2.09,1.139,3.91,1.414,5.778c0.14,0.955-0.213,2.031-0.528,2.991c-0.27,0.82-0.763,1.402,0.326,2.13
		c0.392,0.262,0.294,1.549,0.122,2.301c-0.381,1.668,0.103,2.862,0.988,4.371c0.47,0.801,0.054,2.186-0.124,3.281
		c-0.105,0.649-0.577,1.23-0.788,1.873c-0.185,0.564-0.236,1.172-0.345,1.755c-2.225-0.365-2.647-0.928-2.828-3.032
		c-0.292-3.41-0.914-6.805-0.989-10.215c-0.058-2.599-0.808-5.308,0.848-7.849C1.684,15.946,1.394,14.427,2.97,13.51z"/>
</g>
<g id="Layer_1">
</g>
</svg>
